{
  "accessors": [
    {
      "type": "SCALAR",
      "bufferView": 0,
      "min": [0],
      "componentType": 5123,
      "count": 132660,
      "byteOffset": 0,
      "max": [40713]
    },
    {
      "type": "VEC3",
      "bufferView": 1,
      "min": [-2.28471040725708, -0.05226943641901016, -0.3236635625362396],
      "componentType": 5126,
      "count": 40714,
      "byteOffset": 0,
      "max": [2.2849764823913576, 0.019353531301021577, 0.3236638605594635]
    },
    {
      "type": "VEC3",
      "bufferView": 1,
      "min": [-1.0, -1.0, -1.0],
      "componentType": 5126,
      "count": 40714,
      "byteOffset": 12,
      "max": [1.0, 1.0, 1.0]
    },
    {
      "type": "VEC2",
      "bufferView": 1,
      "min": [0.0, 0.0],
      "componentType": 5126,
      "count": 40714,
      "byteOffset": 24,
      "max": [1.0, 1.0]
    },
    {
      "type": "SCALAR",
      "bufferView": 2,
      "min": [0],
      "componentType": 5123,
      "count": 48240,
      "byteOffset": 0,
      "max": [16831]
    },
    {
      "type": "VEC3",
      "bufferView": 3,
      "min": [-1.7769745588302613, -0.058244239538908008, -0.3236634433269501],
      "componentType": 5126,
      "count": 16832,
      "byteOffset": 0,
      "max": [1.7772208452224732, 0.013378729112446309, 0.32366397976875307]
    },
    {
      "type": "VEC3",
      "bufferView": 3,
      "min": [-1.0, -1.0, -1.0],
      "componentType": 5126,
      "count": 16832,
      "byteOffset": 12,
      "max": [1.0, 1.0, 1.0]
    },
    {
      "type": "VEC2",
      "bufferView": 3,
      "min": [0.0, 0.04109954833984375],
      "componentType": 5126,
      "count": 16832,
      "byteOffset": 24,
      "max": [0.99853515625, 1.0]
    }
  ],
  "asset": {
    "version": "2.0",
    "generator": "Created using the official Cinema 4D glTF Exporter 1.000x284978"
  },
  "scenes": [
    {
      "nodes": [0, 1]
    }
  ],
  "bufferViews": [
    {
      "buffer": 0,
      "byteOffset": 0,
      "byteLength": 265320,
      "target": 34963
    },
    {
      "buffer": 0,
      "byteOffset": 265320,
      "byteLength": 1302848,
      "target": 34962,
      "byteStride": 32
    },
    {
      "buffer": 1,
      "byteOffset": 0,
      "byteLength": 96480,
      "target": 34963
    },
    {
      "buffer": 1,
      "byteOffset": 96480,
      "byteLength": 538624,
      "target": 34962,
      "byteStride": 32
    }
  ],
  "nodes": [
    {
      "name": "Default",
      "translation": [
        -6.345157288478731e-8, 0.000005910421350563411, 0.05326933041214943
      ],
      "rotation": [0.5, -0.5, -0.5, 0.5],
      "scale": [1.0, 1.0, 1.0],
      "mesh": 0
    },
    {
      "name": "Default",
      "translation": [
        6.345156577935995e-8, -0.000005910421350563411, 0.05924412980675697
      ],
      "rotation": [0.5, -0.5, -0.5, 0.5],
      "scale": [1.0, 1.0, 1.0],
      "mesh": 1
    }
  ],
  "meshes": [
    {
      "name": "Default",
      "primitives": [
        {
          "attributes": {
            "POSITION": 1,
            "NORMAL": 2,
            "TEXCOORD_0": 3
          },
          "indices": 0,
          "material": 0
        }
      ]
    },
    {
      "name": "Default",
      "primitives": [
        {
          "attributes": {
            "POSITION": 5,
            "NORMAL": 6,
            "TEXCOORD_0": 7
          },
          "indices": 4,
          "material": 1
        }
      ]
    }
  ],
  "buffers": [
    {
      "uri": "data:application/octet-stream;base64,",
      "byteLength": 1568168
    },
    {
      "uri": "data:application/octet-stream;base64,",
      "byteLength": 635104
    }
  ],
  "materials": [
    {
      "pbrMetallicRoughness": {
        "baseColorFactor": [1.0, 1.0, 1.0, 1.0],
        "metallicFactor": 0.0,
        "roughnessFactor": 0.5
      },
      "emissiveFactor": [0.0, 0.0, 0.0],
      "name": "Default",
      "alphaMode": "OPAQUE",
      "doubleSided": false
    },
    {
      "pbrMetallicRoughness": {
        "baseColorFactor": [1.0, 0.7333333333333332, 0.25098039215686276, 1.0],
        "metallicFactor": 0.0,
        "roughnessFactor": 0.5
      },
      "emissiveFactor": [0.0, 0.0, 0.0],
      "name": "Default",
      "alphaMode": "OPAQUE",
      "doubleSided": false
    }
  ]
}
