{
  "asset": {
    "version": "2.0",
    "generator": "Created using the official Cinema 4D glTF Exporter 1.000x284978"
  },
  "accessors": [
    {
      "bufferView": 0,
      "type": "SCALAR",
      "componentType": 5123,
      "count": 2730,
      "byteOffset": 0,
      "min": [0],
      "max": [807]
    },
    {
      "bufferView": 1,
      "type": "VEC3",
      "componentType": 5126,
      "count": 808,
      "byteOffset": 0,
      "min": [1.2194299697875977, 0.007220999803394079, -1.9788379669189454],
      "max": [1.7454899549484254, 0.8368669748306274, -1.5232540369033814]
    },
    {
      "bufferView": 1,
      "type": "VEC3",
      "componentType": 5126,
      "count": 808,
      "byteOffset": 12,
      "min": [-0.9874687790870667, -1.0, -1.0],
      "max": [0.9874687790870667, 1.0, 1.0]
    },
    {
      "bufferView": 1,
      "type": "VEC2",
      "componentType": 5126,
      "count": 808,
      "byteOffset": 24,
      "min": [0.0, 0.0014649999793618918],
      "max": [0.9985349178314209, 1.0]
    },
    {
      "bufferView": 2,
      "type": "SCALAR",
      "componentType": 5123,
      "count": 744,
      "byteOffset": 0,
      "min": [0],
      "max": [259]
    },
    {
      "bufferView": 3,
      "type": "VEC3",
      "componentType": 5126,
      "count": 260,
      "byteOffset": 0,
      "min": [1.3559800386428834, 0.36917200684547427, -1.8775349855422974],
      "max": [1.608955979347229, 0.6046739816665649, -1.6245590448379517]
    },
    {
      "bufferView": 3,
      "type": "VEC3",
      "componentType": 5126,
      "count": 260,
      "byteOffset": 12,
      "min": [-0.982843816280365, -1.0, -0.982843816280365],
      "max": [0.982843816280365, 1.0, 0.982843816280365]
    },
    {
      "bufferView": 3,
      "type": "VEC2",
      "componentType": 5126,
      "count": 260,
      "byteOffset": 24,
      "min": [0.0, 0.0014649999793618918],
      "max": [0.669185996055603, 1.0]
    }
  ],
  "scenes": [
    {
      "nodes": [0]
    }
  ],
  "nodes": [
    {
      "name": "雪糕筒.obj",
      "translation": [
        2.8990089740305107e-17, 2.8990089740305107e-17, 0.4734441041946411
      ],
      "rotation": [0.5, -0.5, -0.5, 0.5],
      "scale": [1.0, 1.0, 1.0],
      "children": [1, 2]
    },
    {
      "name": "Default",
      "translation": [
        -1.4811006784439088, -0.4744434952735901, 1.7517614364624024
      ],
      "rotation": [0.0, 0.0, 0.0, -1.0],
      "scale": [1.0, 1.0, 1.0],
      "mesh": 0
    },
    {
      "name": "Default_1",
      "translation": [
        -1.4811006784439088, -0.4744434952735901, 1.7517614364624024
      ],
      "rotation": [0.0, 0.0, 0.0, -1.0],
      "scale": [1.0, 1.0, 1.0],
      "mesh": 1
    }
  ],
  "meshes": [
    {
      "name": "Default",
      "primitives": [
        {
          "attributes": {
            "POSITION": 1,
            "NORMAL": 2,
            "TEXCOORD_0": 3
          },
          "indices": 0,
          "material": 0
        }
      ]
    },
    {
      "name": "Default_1",
      "primitives": [
        {
          "attributes": {
            "POSITION": 5,
            "NORMAL": 6,
            "TEXCOORD_0": 7
          },
          "indices": 4,
          "material": 1
        }
      ]
    }
  ],
  "bufferViews": [
    {
      "buffer": 0,
      "target": 34963,
      "byteOffset": 0,
      "byteLength": 5460
    },
    {
      "buffer": 0,
      "target": 34962,
      "byteOffset": 5460,
      "byteLength": 25856,
      "byteStride": 32
    },
    {
      "buffer": 1,
      "target": 34963,
      "byteOffset": 0,
      "byteLength": 1488
    },
    {
      "buffer": 1,
      "target": 34962,
      "byteOffset": 1488,
      "byteLength": 8320,
      "byteStride": 32
    }
  ],
  "buffers": [
    {
      "uri": "data:application/octet-stream;base64,",
      "byteLength": 31316
    },
    {
      "uri": "data:application/octet-stream;base64,",
      "byteLength": 9808
    }
  ],
  "materials": [
    {
      "pbrMetallicRoughness": {
        "baseColorFactor": [1.0, 1.0, 1.0, 1.0],
        "metallicFactor": 0.0,
        "roughnessFactor": 0.5
      },
      "emissiveFactor": [0.0, 0.0, 0.0],
      "alphaMode": "OPAQUE",
      "doubleSided": false,
      "name": "Default"
    },
    {
      "pbrMetallicRoughness": {
        "baseColorFactor": [1.0, 0.7333333333333332, 0.25098039215686276, 1.0],
        "metallicFactor": 0.0,
        "roughnessFactor": 0.5
      },
      "emissiveFactor": [0.0, 0.0, 0.0],
      "alphaMode": "OPAQUE",
      "doubleSided": false,
      "name": "Default_1"
    }
  ]
}
