{
  "asset": {
    "version": "2.0",
    "generator": "Created using the official Cinema 4D glTF Exporter 1.000x284978"
  },
  "scenes": [
    {
      "nodes": [0]
    }
  ],
  "nodes": [
    {
      "name": "Default",
      "translation": [
        3.3272969563031117e-17, 3.3272969563031117e-17, 0.543388843536377
      ],
      "rotation": [0.5, -0.5, -0.5, 0.5],
      "scale": [1.0, 1.0, 1.0],
      "mesh": 0
    }
  ],
  "meshes": [
    {
      "name": "Default",
      "primitives": [
        {
          "attributes": {
            "POSITION": 1,
            "NORMAL": 2,
            "TEXCOORD_0": 3
          },
          "indices": 0,
          "material": 0
        }
      ]
    }
  ],
  "accessors": [
    {
      "bufferView": 0,
      "type": "SCALAR",
      "componentType": 5123,
      "byteOffset": 0,
      "count": 33234,
      "min": [0],
      "max": [9362]
    },
    {
      "bufferView": 1,
      "type": "VEC3",
      "componentType": 5126,
      "byteOffset": 0,
      "count": 9363,
      "min": [-0.7271241545677185, -0.5353299379348755, -0.13758541643619538],
      "max": [0.7436972260475159, 0.4622112214565277, 0.1368774026632309]
    },
    {
      "bufferView": 1,
      "type": "VEC3",
      "componentType": 5126,
      "byteOffset": 12,
      "count": 9363,
      "min": [-1.0, -1.0, -1.0],
      "max": [1.0, 1.0, 1.0]
    },
    {
      "bufferView": 1,
      "type": "VEC2",
      "componentType": 5126,
      "byteOffset": 24,
      "count": 9363,
      "min": [0.0, 0.0],
      "max": [1.0, 1.0]
    }
  ],
  "bufferViews": [
    {
      "buffer": 0,
      "byteOffset": 0,
      "byteLength": 66468,
      "target": 34963
    },
    {
      "buffer": 0,
      "byteOffset": 66468,
      "byteLength": 299616,
      "target": 34962,
      "byteStride": 32
    }
  ],
  "buffers": [
    {
      "uri": "data:application/octet-stream;base64,",
      "byteLength": 366084
    }
  ],
  "materials": [
    {
      "pbrMetallicRoughness": {
        "baseColorFactor": [1.0, 0.41000000000000005, 0.41000000000000005, 1.0],
        "metallicFactor": 0.0,
        "roughnessFactor": 0.5
      },
      "emissiveFactor": [0.0, 0.0, 0.0],
      "alphaMode": "OPAQUE",
      "doubleSided": false,
      "name": "Default"
    }
  ]
}
