{
  "asset": {
    "version": "2.0",
    "generator": "Created using the official Cinema 4D glTF Exporter 1.000x284978"
  },
  "scenes": [
    {
      "nodes": [0]
    }
  ],
  "nodes": [
    {
      "name": "车辆警示牌.obj",
      "translation": [
        -1.6704943489781365e-18, -1.6704943489781365e-18, 0.027281243354082109
      ],
      "rotation": [0.5, -0.5, -0.5, 0.5],
      "scale": [1.0, 1.0, 1.0],
      "children": [1, 2, 3]
    },
    {
      "name": "Default",
      "translation": [
        -0.00006571651465492323, -0.015714498236775399, -0.000007428900971717667
      ],
      "rotation": [0.0, -1.8746996965264929e-33, 0.0, -1.0],
      "scale": [1.0, 1.0, 1.0],
      "mesh": 0
    },
    {
      "name": "Default_1",
      "translation": [
        -0.00002132022382284049, 0.14886121451854707, 0.00006979016325203702
      ],
      "rotation": [0.0, -1.8746996965264929e-33, 0.0, -1.0],
      "scale": [1.0, 1.0, 1.0],
      "mesh": 1
    },
    {
      "name": "Default_2",
      "translation": [
        0.0007525686523877084, 0.14905205368995667, 0.00007058012852212414
      ],
      "rotation": [0.0, -1.8746996965264929e-33, 0.0, -1.0],
      "scale": [1.0, 1.0, 1.0],
      "mesh": 2
    }
  ],
  "bufferViews": [
    {
      "buffer": 0,
      "byteOffset": 0,
      "byteLength": 46752,
      "target": 34963
    },
    {
      "buffer": 0,
      "byteOffset": 46752,
      "byteLength": 196032,
      "target": 34962,
      "byteStride": 32
    },
    {
      "buffer": 1,
      "byteOffset": 0,
      "byteLength": 360,
      "target": 34963
    },
    {
      "buffer": 1,
      "byteOffset": 360,
      "byteLength": 3456,
      "target": 34962,
      "byteStride": 32
    },
    {
      "buffer": 2,
      "byteOffset": 0,
      "byteLength": 3480,
      "target": 34963
    },
    {
      "buffer": 2,
      "byteOffset": 3480,
      "byteLength": 17216,
      "target": 34962,
      "byteStride": 32
    }
  ],
  "meshes": [
    {
      "name": "Default",
      "primitives": [
        {
          "attributes": {
            "POSITION": 1,
            "NORMAL": 2,
            "TEXCOORD_0": 3
          },
          "indices": 0,
          "material": 0
        }
      ]
    },
    {
      "name": "Default_1",
      "primitives": [
        {
          "attributes": {
            "POSITION": 5,
            "NORMAL": 6,
            "TEXCOORD_0": 7
          },
          "indices": 4,
          "material": 1
        }
      ]
    },
    {
      "name": "Default_2",
      "primitives": [
        {
          "attributes": {
            "POSITION": 9,
            "NORMAL": 10,
            "TEXCOORD_0": 11
          },
          "indices": 8,
          "material": 2
        }
      ]
    }
  ],
  "accessors": [
    {
      "bufferView": 0,
      "type": "SCALAR",
      "componentType": 5123,
      "count": 23376,
      "byteOffset": 0,
      "min": [0],
      "max": [6125]
    },
    {
      "bufferView": 1,
      "type": "VEC3",
      "componentType": 5126,
      "count": 6126,
      "byteOffset": 0,
      "min": [-0.2007812112569809, -0.010625850409269333, -0.2007857859134674],
      "max": [0.20077478885650636, 0.030073149129748346, 0.20077522099018098]
    },
    {
      "bufferView": 1,
      "type": "VEC3",
      "componentType": 5126,
      "count": 6126,
      "byteOffset": 12,
      "min": [-1.0, -1.0, -1.0],
      "max": [1.0, 1.0, 1.0]
    },
    {
      "bufferView": 1,
      "type": "VEC2",
      "componentType": 5126,
      "count": 6126,
      "byteOffset": 24,
      "min": [0.0, 0.0],
      "max": [1.0, 1.0]
    },
    {
      "bufferView": 2,
      "type": "SCALAR",
      "componentType": 5123,
      "count": 180,
      "byteOffset": 0,
      "min": [0],
      "max": [107]
    },
    {
      "bufferView": 3,
      "type": "VEC3",
      "componentType": 5126,
      "count": 108,
      "byteOffset": 0,
      "min": [
        -0.17870260775089265, -0.10350455343723297, -0.0033179998863488437
      ],
      "max": [0.17847539484500886, 0.20491644740104676, 0.0033179998863488437]
    },
    {
      "bufferView": 3,
      "type": "VEC3",
      "componentType": 5126,
      "count": 108,
      "byteOffset": 12,
      "min": [-1.0, -0.9999688267707825, -1.0],
      "max": [1.0, 0.9999688267707825, 1.0]
    },
    {
      "bufferView": 3,
      "type": "VEC2",
      "componentType": 5126,
      "count": 108,
      "byteOffset": 24,
      "min": [0.0, 0.006400999613106251],
      "max": [0.9985349178314209, 1.0]
    },
    {
      "bufferView": 4,
      "type": "SCALAR",
      "componentType": 5123,
      "count": 1740,
      "byteOffset": 0,
      "min": [0],
      "max": [537]
    },
    {
      "bufferView": 5,
      "type": "VEC3",
      "componentType": 5126,
      "count": 538,
      "byteOffset": 0,
      "min": [-0.22257450222969056, -0.1370643973350525, -0.003937790170311928],
      "max": [0.22084049880504609, 0.25130560994148257, 0.003937209956347942]
    },
    {
      "bufferView": 5,
      "type": "VEC3",
      "componentType": 5126,
      "count": 538,
      "byteOffset": 12,
      "min": [-1.0, -0.9999688267707825, -1.0],
      "max": [1.0, 0.9999688267707825, 1.0]
    },
    {
      "bufferView": 5,
      "type": "VEC2",
      "componentType": 5126,
      "count": 538,
      "byteOffset": 24,
      "min": [0.0, 0.07420399785041809],
      "max": [0.9985349178314209, 1.0]
    }
  ],
  "materials": [
    {
      "pbrMetallicRoughness": {
        "baseColorFactor": [1.0, 1.0, 1.0, 1.0],
        "metallicFactor": 0.0,
        "roughnessFactor": 0.5
      },
      "name": "Default",
      "emissiveFactor": [0.0, 0.0, 0.0],
      "alphaMode": "OPAQUE",
      "doubleSided": false
    },
    {
      "pbrMetallicRoughness": {
        "baseColorFactor": [1.0, 0.4627450980392157, 0.0, 1.0],
        "metallicFactor": 0.0,
        "roughnessFactor": 0.5
      },
      "name": "Default_1",
      "emissiveFactor": [0.0, 0.0, 0.0],
      "alphaMode": "OPAQUE",
      "doubleSided": false
    },
    {
      "pbrMetallicRoughness": {
        "baseColorFactor": [1.0, 0.0, 0.0, 1.0],
        "metallicFactor": 0.0,
        "roughnessFactor": 0.5
      },
      "name": "Default_2",
      "emissiveFactor": [0.0, 0.0, 0.0],
      "alphaMode": "OPAQUE",
      "doubleSided": false
    }
  ],
  "buffers": [
    {
      "uri": "data:application/octet-stream;base64,",
      "byteLength": 242784
    },
    {
      "uri": "data:application/octet-stream;base64,",
      "byteLength": 3816
    },
    {
      "uri": "data:application/octet-stream;base64,",
      "byteLength": 20696
    }
  ]
}
