{
  "asset": {
    "version": "2.0",
    "generator": "Created using the official Cinema 4D glTF Exporter 1.000x284978"
  },
  "scenes": [
    {
      "nodes": [0]
    }
  ],
  "nodes": [
    {
      "name": "防撞柱.obj",
      "translation": [0.0, 1.7379087830796264e-17, 0.28382202982902529],
      "rotation": [-0.7071067690849304, 0.0, 0.0, -0.7071067690849304],
      "scale": [1.0, 1.0, 1.0],
      "children": [1, 2]
    },
    {
      "name": "Default",
      "translation": [
        -2.271652936935425, -0.2900857627391815, 1.7996279001235963
      ],
      "rotation": [0.0, 0.0, 0.0, -1.0],
      "scale": [1.0, 1.0, 1.0],
      "mesh": 0
    },
    {
      "name": "Default_1",
      "translation": [
        -2.271652936935425, -0.2900857627391815, 1.7996279001235963
      ],
      "rotation": [0.0, 0.0, 0.0, -1.0],
      "scale": [1.0, 1.0, 1.0],
      "mesh": 1
    }
  ],
  "meshes": [
    {
      "name": "Default",
      "primitives": [
        {
          "attributes": {
            "POSITION": 1,
            "NORMAL": 2,
            "TEXCOORD_0": 3
          },
          "indices": 0,
          "material": 0
        }
      ]
    },
    {
      "name": "Default_1",
      "primitives": [
        {
          "attributes": {
            "POSITION": 5,
            "NORMAL": 6,
            "TEXCOORD_0": 7
          },
          "indices": 4,
          "material": 1
        }
      ]
    }
  ],
  "accessors": [
    {
      "componentType": 5123,
      "bufferView": 0,
      "type": "SCALAR",
      "count": 19110,
      "byteOffset": 0,
      "min": [0],
      "max": [5241]
    },
    {
      "componentType": 5126,
      "bufferView": 1,
      "type": "VEC3",
      "count": 5242,
      "byteOffset": 0,
      "min": [2.17024302482605, 0.010456999763846398, -1.9006940126419068],
      "max": [2.3723700046539308, 0.9459959864616394, -1.6985650062561036]
    },
    {
      "componentType": 5126,
      "bufferView": 1,
      "type": "VEC3",
      "count": 5242,
      "byteOffset": 12,
      "min": [-1.0, -1.0, -1.0],
      "max": [1.0, 1.0, 1.0]
    },
    {
      "componentType": 5126,
      "bufferView": 1,
      "type": "VEC2",
      "count": 5242,
      "byteOffset": 24,
      "min": [0.0, 0.0014649999793618918],
      "max": [0.9985349178314209, 1.0]
    },
    {
      "componentType": 5123,
      "bufferView": 2,
      "type": "SCALAR",
      "count": 1116,
      "byteOffset": 0,
      "min": [0],
      "max": [389]
    },
    {
      "componentType": 5126,
      "bufferView": 3,
      "type": "VEC3",
      "count": 390,
      "byteOffset": 0,
      "min": [2.2118330001831056, 0.3842700123786926, -1.8590999841690064],
      "max": [2.330775022506714, 0.8294379711151123, -1.7401570081710816]
    },
    {
      "componentType": 5126,
      "bufferView": 3,
      "type": "VEC3",
      "count": 390,
      "byteOffset": 12,
      "min": [-1.0, -1.0, -1.0],
      "max": [1.0, 1.0, 1.0]
    },
    {
      "componentType": 5126,
      "bufferView": 3,
      "type": "VEC2",
      "count": 390,
      "byteOffset": 24,
      "min": [0.0, 0.0014649999793618918],
      "max": [0.58188796043396, 1.0]
    }
  ],
  "bufferViews": [
    {
      "buffer": 0,
      "byteOffset": 0,
      "byteLength": 38220,
      "target": 34963
    },
    {
      "buffer": 0,
      "byteOffset": 38220,
      "byteLength": 167744,
      "target": 34962,
      "byteStride": 32
    },
    {
      "buffer": 1,
      "byteOffset": 0,
      "byteLength": 2232,
      "target": 34963
    },
    {
      "buffer": 1,
      "byteOffset": 2232,
      "byteLength": 12480,
      "target": 34962,
      "byteStride": 32
    }
  ],
  "buffers": [
    {
      "uri": "data:application/octet-stream;base64,",
      "byteLength": 205964
    },
    {
      "uri": "data:application/octet-stream;base64,",
      "byteLength": 14712
    }
  ],
  "materials": [
    {
      "pbrMetallicRoughness": {
        "baseColorFactor": [1.0, 1.0, 1.0, 1.0],
        "metallicFactor": 0.0,
        "roughnessFactor": 0.5
      },
      "emissiveFactor": [0.0, 0.0, 0.0],
      "alphaMode": "OPAQUE",
      "doubleSided": false,
      "name": "Default"
    },
    {
      "pbrMetallicRoughness": {
        "baseColorFactor": [1.0, 0.7333333333333332, 0.25098039215686276, 1.0],
        "metallicFactor": 0.0,
        "roughnessFactor": 0.5
      },
      "emissiveFactor": [0.0, 0.0, 0.0],
      "alphaMode": "OPAQUE",
      "doubleSided": false,
      "name": "Default_1"
    }
  ]
}
