{
  "asset": {
    "version": "2.0",
    "generator": "Created using the official Cinema 4D glTF Exporter 1.000x284978"
  },
  "scenes": [
    {
      "nodes": [0]
    }
  ],
  "nodes": [
    {
      "name": "防撞桶.obj",
      "translation": [0.0, 3.866889369184113e-17, 0.6315109729766846],
      "rotation": [-0.7071067690849304, 0.0, 0.0, -0.7071067690849304],
      "scale": [1.0, 1.0, 1.0],
      "children": [1, 2]
    },
    {
      "name": "Default",
      "translation": [
        -0.0005951552884653211, 0.05337511748075485, 7.354529429903778e-7
      ],
      "rotation": [0.0, 0.0, 0.0, -1.0],
      "scale": [1.0, 1.0, 1.0],
      "mesh": 0
    },
    {
      "name": "Default_1",
      "translation": [
        0.0018939076690003276, -0.16985070705413819, -0.000002340364062547451
      ],
      "rotation": [0.0, 0.0, 0.0, -1.0],
      "scale": [1.0, 1.0, 1.0],
      "mesh": 1
    }
  ],
  "meshes": [
    {
      "name": "Default",
      "primitives": [
        {
          "attributes": {
            "POSITION": 1,
            "NORMAL": 2,
            "TEXCOORD_0": 3
          },
          "indices": 0,
          "material": 0
        }
      ]
    },
    {
      "name": "Default_1",
      "primitives": [
        {
          "attributes": {
            "POSITION": 5,
            "NORMAL": 6,
            "TEXCOORD_0": 7
          },
          "indices": 4,
          "material": 1
        }
      ]
    }
  ],
  "accessors": [
    {
      "bufferView": 0,
      "type": "SCALAR",
      "componentType": 5123,
      "count": 43494,
      "byteOffset": 0,
      "min": [0],
      "max": [12626]
    },
    {
      "bufferView": 1,
      "type": "VEC3",
      "componentType": 5126,
      "count": 12627,
      "byteOffset": 0,
      "min": [-0.27852320671081545, -0.6767899394035339, -0.2805900275707245],
      "max": [0.2827168107032776, 0.3053770363330841, 0.2806509733200073]
    },
    {
      "bufferView": 1,
      "type": "VEC3",
      "componentType": 5126,
      "count": 12627,
      "byteOffset": 12,
      "min": [-1.0, -1.0, -1.0],
      "max": [1.0, 1.0, 1.0]
    },
    {
      "bufferView": 1,
      "type": "VEC2",
      "componentType": 5126,
      "count": 12627,
      "byteOffset": 24,
      "min": [0.0, 0.0014649999793618918],
      "max": [0.9985349178314209, 1.0]
    },
    {
      "bufferView": 2,
      "type": "SCALAR",
      "componentType": 5123,
      "count": 13632,
      "byteOffset": 0,
      "min": [0],
      "max": [3967]
    },
    {
      "bufferView": 3,
      "type": "VEC3",
      "componentType": 5126,
      "count": 3968,
      "byteOffset": 0,
      "min": [-0.28101226687431338, -0.3067591190338135, -0.2805859446525574],
      "max": [0.2802267372608185, 0.2932538688182831, 0.2806530296802521]
    },
    {
      "bufferView": 3,
      "type": "VEC3",
      "componentType": 5126,
      "count": 3968,
      "byteOffset": 12,
      "min": [-1.0, -1.0, -1.0],
      "max": [1.0, 1.0, 1.0]
    },
    {
      "bufferView": 3,
      "type": "VEC2",
      "componentType": 5126,
      "count": 3968,
      "byteOffset": 24,
      "min": [0.0, 0.0014649999793618918],
      "max": [0.9213420152664185, 1.0]
    }
  ],
  "bufferViews": [
    {
      "buffer": 0,
      "byteOffset": 0,
      "byteLength": 86988,
      "target": 34963
    },
    {
      "buffer": 0,
      "byteOffset": 86988,
      "byteLength": 404064,
      "target": 34962,
      "byteStride": 32
    },
    {
      "buffer": 1,
      "byteOffset": 0,
      "byteLength": 27264,
      "target": 34963
    },
    {
      "buffer": 1,
      "byteOffset": 27264,
      "byteLength": 126976,
      "target": 34962,
      "byteStride": 32
    }
  ],
  "buffers": [
    {
      "uri": "data:application/octet-stream;base64,",
      "byteLength": 491052
    },
    {
      "uri": "data:application/octet-stream;base64,",
      "byteLength": 154240
    }
  ],
  "materials": [
    {
      "pbrMetallicRoughness": {
        "baseColorFactor": [1.0, 1.0, 1.0, 1.0],
        "metallicFactor": 0.0,
        "roughnessFactor": 0.5
      },
      "emissiveFactor": [0.0, 0.0, 0.0],
      "alphaMode": "OPAQUE",
      "doubleSided": false,
      "name": "Default"
    },
    {
      "pbrMetallicRoughness": {
        "baseColorFactor": [1.0, 0.7333333333333332, 0.25098039215686276, 1.0],
        "metallicFactor": 0.0,
        "roughnessFactor": 0.5
      },
      "emissiveFactor": [0.0, 0.0, 0.0],
      "alphaMode": "OPAQUE",
      "doubleSided": false,
      "name": "Default_1"
    }
  ]
}
