{
	"asset":{
		"generator":"Khronos glTF Blender I/O v3.5.30",
		"version":"2.0"
	},
	"scene":0,
	"scenes":[
		{
			"name":"Scene",
			"nodes":[
				1
			]
		}
	],
	"nodes":[
		{
			"mesh":0,
			"name":"\u67f1\u4f53.001",
			"rotation":[
				0.7071066498756409,
				0,
				0,
				0.70710688829422
			],
			"scale":[
				0.8166147470474243,
				2.283582925796509,
				0.14526937901973724
			],
			"translation":[
				-1.1351316061336547e-05,
				13.438859939575195,
				-0.022007383406162262
			]
		},
		{
			"children":[
				0
			],
			"mesh":1,
			"name":"\u67f1\u4f53",
			"rotation":[
				0.7071068286895752,
				0,
				0,
				0.7071068286895752
			],
			"scale":[
				0.17789217829704285,
				1,
				0.17789217829704285
			]
		}
	],
	"materials":[
		{
			"doubleSided":true,
			"name":"\u6750\u8d28.005",
			"pbrMetallicRoughness":{
				"baseColorFactor":[
					0.800000011920929,
					0.800000011920929,
					0.800000011920929,
					1
				],
				"metallicFactor":0,
				"roughnessFactor":0.13829785585403442
			}
		}
	],
	"meshes":[
		{
			"name":"\u67f1\u4f53.001",
			"primitives":[
				{
					"attributes":{
						"POSITION":0,
						"TEXCOORD_0":1,
						"NORMAL":2
					},
					"indices":3,
					"material":0
				}
			]
		},
		{
			"name":"\u67f1\u4f53",
			"primitives":[
				{
					"attributes":{
						"POSITION":4,
						"TEXCOORD_0":5,
						"NORMAL":6
					},
					"indices":7,
					"material":0
				}
			]
		}
	],
	"accessors":[
		{
			"bufferView":0,
			"componentType":5126,
			"count":1666,
			"max":[
				1.3405553102493286,
				7.205023288726807,
				0.5911858677864075
			],
			"min":[
				-1.340572476387024,
				0.02251507341861725,
				-0.8067971467971802
			],
			"type":"VEC3"
		},
		{
			"bufferView":1,
			"componentType":5126,
			"count":1666,
			"type":"VEC2"
		},
		{
			"bufferView":2,
			"componentType":5126,
			"count":1666,
			"type":"VEC3"
		},
		{
			"bufferView":3,
			"componentType":5123,
			"count":2598,
			"type":"SCALAR"
		},
		{
			"bufferView":4,
			"componentType":5126,
			"count":960,
			"max":[
				1.9673514366149902,
				13.41356372833252,
				1.9673514366149902
			],
			"min":[
				-1.9673514366149902,
				0.004290580749511719,
				-1.9673514366149902
			],
			"type":"VEC3"
		},
		{
			"bufferView":5,
			"componentType":5126,
			"count":960,
			"type":"VEC2"
		},
		{
			"bufferView":6,
			"componentType":5126,
			"count":960,
			"type":"VEC3"
		},
		{
			"bufferView":7,
			"componentType":5123,
			"count":1524,
			"type":"SCALAR"
		}
	],
	"bufferViews":[
		{
			"buffer":0,
			"byteLength":19992,
			"byteOffset":0,
			"target":34962
		},
		{
			"buffer":0,
			"byteLength":13328,
			"byteOffset":19992,
			"target":34962
		},
		{
			"buffer":0,
			"byteLength":19992,
			"byteOffset":33320,
			"target":34962
		},
		{
			"buffer":0,
			"byteLength":5196,
			"byteOffset":53312,
			"target":34963
		},
		{
			"buffer":0,
			"byteLength":11520,
			"byteOffset":58508,
			"target":34962
		},
		{
			"buffer":0,
			"byteLength":7680,
			"byteOffset":70028,
			"target":34962
		},
		{
			"buffer":0,
			"byteLength":11520,
			"byteOffset":77708,
			"target":34962
		},
		{
			"buffer":0,
			"byteLength":3048,
			"byteOffset":89228,
			"target":34963
		}
	],
	"buffers":[
		{
			"byteLength":92276,
			"uri":"data:application/octet-stream;base64,"
		}
	]
}
