{
  "asset": {
    "generator": "Khronos glTF Blender I/O v3.5.30",
    "version": "2.0"
  },
  "extensionsUsed": ["KHR_materials_specular", "KHR_materials_ior"],
  "scene": 0,
  "scenes": [
    {
      "name": "Scene",
      "nodes": [0]
    }
  ],
  "nodes": [
    {
      "mesh": 0,
      "name": "\u7acb\u65b9\u4f53",
      "rotation": [0.7071068286895752, 0, 0, 0.7071068286895752],
      "translation": [0.00810394436120987, 0, 0.6376479268074036]
    }
  ],
  "materials": [
    {
      "doubleSided": true,
      "name": "\u6750\u8d28",
      "pbrMetallicRoughness": {
        "baseColorFactor": [
          0.006960161030292511, 0.006960161030292511, 0.006960161030292511, 1
        ],
        "metallicFactor": 0,
        "roughnessFactor": 0.6931818127632141
      }
    },
    {
      "doubleSided": true,
      "extensions": {
        "KHR_materials_specular": {
          "specularColorFactor": [
            1.3527517120671158, 1.3527517120671158, 1.3527517120671158
          ]
        },
        "KHR_materials_ior": {
          "ior": 1.4500000476837158
        }
      },
      "name": "\u6750\u8d28.001",
      "pbrMetallicRoughness": {
        "baseColorFactor": [
          0.2985929548740387, 0.2985929548740387, 0.2985929548740387, 1
        ],
        "metallicFactor": 0,
        "roughnessFactor": 0.09545454382896423
      }
    }
  ],
  "meshes": [
    {
      "name": "\u7acb\u65b9\u4f53",
      "primitives": [
        {
          "attributes": {
            "POSITION": 0,
            "TEXCOORD_0": 1,
            "NORMAL": 2
          },
          "indices": 3,
          "material": 0
        },
        {
          "attributes": {
            "POSITION": 4,
            "TEXCOORD_0": 5,
            "NORMAL": 6
          },
          "indices": 7,
          "material": 1
        }
      ]
    }
  ],
  "accessors": [
    {
      "bufferView": 0,
      "componentType": 5126,
      "count": 4,
      "max": [-0.004797985777258873, 0.5679472088813782, 0.8587557077407837],
      "min": [-0.004798064008355141, -0.5679472088813782, -0.8587559461593628],
      "type": "VEC3"
    },
    {
      "bufferView": 1,
      "componentType": 5126,
      "count": 4,
      "type": "VEC2"
    },
    {
      "bufferView": 2,
      "componentType": 5126,
      "count": 4,
      "type": "VEC3"
    },
    {
      "bufferView": 3,
      "componentType": 5123,
      "count": 6,
      "type": "SCALAR"
    },
    {
      "bufferView": 4,
      "componentType": 5126,
      "count": 445,
      "max": [0.010951761156320572, 0.6296614408493042, 0.9204698801040649],
      "min": [-0.02715964987874031, -0.6296614408493042, -0.9204701781272888],
      "type": "VEC3"
    },
    {
      "bufferView": 5,
      "componentType": 5126,
      "count": 445,
      "type": "VEC2"
    },
    {
      "bufferView": 6,
      "componentType": 5126,
      "count": 445,
      "type": "VEC3"
    },
    {
      "bufferView": 7,
      "componentType": 5123,
      "count": 726,
      "type": "SCALAR"
    }
  ],
  "bufferViews": [
    {
      "buffer": 0,
      "byteLength": 48,
      "byteOffset": 0,
      "target": 34962
    },
    {
      "buffer": 0,
      "byteLength": 32,
      "byteOffset": 48,
      "target": 34962
    },
    {
      "buffer": 0,
      "byteLength": 48,
      "byteOffset": 80,
      "target": 34962
    },
    {
      "buffer": 0,
      "byteLength": 12,
      "byteOffset": 128,
      "target": 34963
    },
    {
      "buffer": 0,
      "byteLength": 5340,
      "byteOffset": 140,
      "target": 34962
    },
    {
      "buffer": 0,
      "byteLength": 3560,
      "byteOffset": 5480,
      "target": 34962
    },
    {
      "buffer": 0,
      "byteLength": 5340,
      "byteOffset": 9040,
      "target": 34962
    },
    {
      "buffer": 0,
      "byteLength": 1452,
      "byteOffset": 14380,
      "target": 34963
    }
  ],
  "buffers": [
    {
      "byteLength": 15832,
      "uri": "data:application/octet-stream;base64,"
    }
  ]
}
