{
  "asset": {
    "generator": "Created using the official Cinema 4D glTF Exporter 1.000x284978",
    "version": "2.0"
  },
  "nodes": [
    {
      "name": "红绿灯",
      "translation": [
        -4.785739460709247e-17, 4.785739460709247e-17, 0.781570553779602
      ],
      "rotation": [0.5, 0.5, 0.5, 0.5],
      "scale": [1.0, 1.0, 1.0],
      "children": [1, 2, 3, 4]
    },
    {
      "mesh": 0,
      "name": "绿灯",
      "translation": [16.174510955810548, -0.806584358215332, 1.84463632106781],
      "rotation": [0.0, 0.0, 0.0, -1.0],
      "scale": [1.0, 1.0, 1.0]
    },
    {
      "mesh": 1,
      "name": "黄灯",
      "translation": [16.174510955810548, -0.806584358215332, 1.84463632106781],
      "rotation": [0.0, 0.0, 0.0, -1.0],
      "scale": [1.0, 1.0, 1.0]
    },
    {
      "mesh": 2,
      "name": "红灯",
      "translation": [16.174510955810548, -0.806584358215332, 1.84463632106781],
      "rotation": [0.0, 0.0, 0.0, -1.0],
      "scale": [1.0, 1.0, 1.0]
    },
    {
      "mesh": 3,
      "name": "主体",
      "translation": [16.174510955810548, -0.806584358215332, 1.84463632106781],
      "rotation": [0.0, 0.0, 0.0, -1.0],
      "scale": [1.0, 1.0, 1.0]
    }
  ],
  "scenes": [
    {
      "nodes": [0]
    }
  ],
  "meshes": [
    {
      "name": "绿灯",
      "primitives": [
        {
          "attributes": {
            "POSITION": 1,
            "NORMAL": 2,
            "TEXCOORD_0": 3
          },
          "indices": 0,
          "material": 0
        }
      ]
    },
    {
      "name": "黄灯",
      "primitives": [
        {
          "attributes": {
            "POSITION": 5,
            "NORMAL": 6,
            "TEXCOORD_0": 7
          },
          "indices": 4,
          "material": 1
        }
      ]
    },
    {
      "name": "红灯",
      "primitives": [
        {
          "attributes": {
            "POSITION": 9,
            "NORMAL": 10,
            "TEXCOORD_0": 11
          },
          "indices": 8,
          "material": 2
        }
      ]
    },
    {
      "name": "主体",
      "primitives": [
        {
          "attributes": {
            "POSITION": 13,
            "NORMAL": 14,
            "TEXCOORD_0": 15
          },
          "indices": 12,
          "material": 3
        }
      ]
    }
  ],
  "accessors": [
    {
      "count": 372,
      "bufferView": 0,
      "type": "SCALAR",
      "componentType": 5123,
      "byteOffset": 0,
      "min": [0],
      "max": [129]
    },
    {
      "count": 130,
      "bufferView": 1,
      "type": "VEC3",
      "componentType": 5126,
      "byteOffset": 0,
      "min": [-16.318084716796876, 0.18904900550842286, -1.8623219728469849],
      "max": [-16.034482955932618, 0.47265100479125979, -1.8382689952850342]
    },
    {
      "count": 130,
      "bufferView": 1,
      "type": "VEC3",
      "componentType": 5126,
      "byteOffset": 12,
      "min": [-1.0, -1.0, -1.0],
      "max": [1.0, 1.0, 1.0]
    },
    {
      "count": 130,
      "bufferView": 1,
      "type": "VEC2",
      "componentType": 5126,
      "byteOffset": 24,
      "min": [0.0, 0.0014649999793618918],
      "max": [0.6426749229431152, 1.0]
    },
    {
      "count": 372,
      "bufferView": 2,
      "type": "SCALAR",
      "componentType": 5123,
      "byteOffset": 0,
      "min": [0],
      "max": [129]
    },
    {
      "count": 130,
      "bufferView": 3,
      "type": "VEC3",
      "componentType": 5126,
      "byteOffset": 0,
      "min": [-16.318084716796876, 0.6372990012168884, -1.8623219728469849],
      "max": [-16.034482955932618, 0.9209010004997253, -1.8382689952850342]
    },
    {
      "count": 130,
      "bufferView": 3,
      "type": "VEC3",
      "componentType": 5126,
      "byteOffset": 12,
      "min": [-1.0, -1.0, -1.0],
      "max": [1.0, 1.0, 1.0]
    },
    {
      "count": 130,
      "bufferView": 3,
      "type": "VEC2",
      "componentType": 5126,
      "byteOffset": 24,
      "min": [0.0, 0.0014649999793618918],
      "max": [0.6426749229431152, 1.0]
    },
    {
      "count": 372,
      "bufferView": 4,
      "type": "SCALAR",
      "componentType": 5123,
      "byteOffset": 0,
      "min": [0],
      "max": [129]
    },
    {
      "count": 130,
      "bufferView": 5,
      "type": "VEC3",
      "componentType": 5126,
      "byteOffset": 0,
      "min": [-16.318084716796876, 1.0958640575408936, -1.8623219728469849],
      "max": [-16.034482955932618, 1.3794660568237305, -1.8382689952850342]
    },
    {
      "count": 130,
      "bufferView": 5,
      "type": "VEC3",
      "componentType": 5126,
      "byteOffset": 12,
      "min": [-1.0, -1.0, -1.0],
      "max": [1.0, 1.0, 1.0]
    },
    {
      "count": 130,
      "bufferView": 5,
      "type": "VEC2",
      "componentType": 5126,
      "byteOffset": 24,
      "min": [0.0, 0.0014649999793618918],
      "max": [0.6426749229431152, 1.0]
    },
    {
      "count": 52170,
      "bufferView": 6,
      "type": "SCALAR",
      "componentType": 5123,
      "byteOffset": 0,
      "min": [0],
      "max": [12491]
    },
    {
      "count": 12492,
      "bufferView": 7,
      "type": "VEC3",
      "componentType": 5126,
      "byteOffset": 0,
      "min": [-16.407236099243165, 0.031801000237464908, -2.0030789375305177],
      "max": [-15.945332527160645, 1.504330039024353, -1.6663750410079957]
    },
    {
      "count": 12492,
      "bufferView": 7,
      "type": "VEC3",
      "componentType": 5126,
      "byteOffset": 12,
      "min": [-1.0, -1.0, -1.0],
      "max": [1.0, 1.0, 1.0]
    },
    {
      "count": 12492,
      "bufferView": 7,
      "type": "VEC2",
      "componentType": 5126,
      "byteOffset": 24,
      "min": [0.0, 0.0014649999793618918],
      "max": [0.9985349178314209, 1.0]
    }
  ],
  "bufferViews": [
    {
      "buffer": 0,
      "byteOffset": 0,
      "byteLength": 744,
      "target": 34963
    },
    {
      "buffer": 0,
      "byteOffset": 744,
      "byteLength": 4160,
      "target": 34962,
      "byteStride": 32
    },
    {
      "buffer": 1,
      "byteOffset": 0,
      "byteLength": 744,
      "target": 34963
    },
    {
      "buffer": 1,
      "byteOffset": 744,
      "byteLength": 4160,
      "target": 34962,
      "byteStride": 32
    },
    {
      "buffer": 2,
      "byteOffset": 0,
      "byteLength": 744,
      "target": 34963
    },
    {
      "buffer": 2,
      "byteOffset": 744,
      "byteLength": 4160,
      "target": 34962,
      "byteStride": 32
    },
    {
      "buffer": 3,
      "byteOffset": 0,
      "byteLength": 104340,
      "target": 34963
    },
    {
      "buffer": 3,
      "byteOffset": 104340,
      "byteLength": 399744,
      "target": 34962,
      "byteStride": 32
    }
  ],
  "buffers": [
    {
      "uri": "data:application/octet-stream;base64,",
      "byteLength": 4904
    },
    {
      "uri": "data:application/octet-stream;base64,",
      "byteLength": 4904
    },
    {
      "uri": "data:application/octet-stream;base64,",
      "byteLength": 4904
    },
    {
      "uri": "data:application/octet-stream;base64,",
      "byteLength": 504084
    }
  ],
  "materials": [
    {
      "pbrMetallicRoughness": {
        "baseColorFactor": [
          0.6549019607843137, 0.6549019607843137, 0.6549019607843137, 1.0
        ],
        "metallicFactor": 0.0,
        "roughnessFactor": 0.5
      },
      "emissiveFactor": [0.0, 0.0, 0.0],
      "alphaMode": "OPAQUE",
      "doubleSided": false,
      "name": "Default"
    },
    {
      "pbrMetallicRoughness": {
        "baseColorFactor": [
          0.6549019607843137, 0.6549019607843137, 0.6549019607843137, 1.0
        ],
        "metallicFactor": 0.0,
        "roughnessFactor": 0.5
      },
      "emissiveFactor": [0.0, 0.0, 0.0],
      "alphaMode": "OPAQUE",
      "doubleSided": false,
      "name": "Default_1"
    },
    {
      "pbrMetallicRoughness": {
        "baseColorFactor": [
          0.6549019607843137, 0.6549019607843137, 0.6549019607843137, 1.0
        ],
        "metallicFactor": 0.0,
        "roughnessFactor": 0.5
      },
      "emissiveFactor": [0.0, 0.0, 0.0],
      "alphaMode": "OPAQUE",
      "doubleSided": false,
      "name": "Default_2"
    },
    {
      "pbrMetallicRoughness": {
        "baseColorFactor": [
          0.6549019607843137, 0.6549019607843137, 0.6549019607843137, 1.0
        ],
        "metallicFactor": 0.0,
        "roughnessFactor": 0.5
      },
      "emissiveFactor": [0.0, 0.0, 0.0],
      "alphaMode": "OPAQUE",
      "doubleSided": false,
      "name": "Default_3"
    }
  ]
}
