{
  "asset": {
    "generator": "Khronos glTF Blender I/O v3.5.30",
    "version": "2.0"
  },
  "scene": 0,
  "scenes": [
    {
      "name": "Scene",
      "nodes": [0, 2]
    }
  ],
  "nodes": [
    {
      "mesh": 0,
      "name": "\u5e73\u9762.002",
      "rotation": [0.7071068286895752, 0, 0, 0.7071068286895752],
      "translation": [
        0.0037500006146728992, 0.0015612337738275528, 0.4016430079936981
      ]
    },
    {
      "mesh": 1,
      "name": "\u5e73\u9762.003",
      "rotation": [0, 0, 1, 4.371138828673793e-8],
      "scale": [1.943398118019104, 3.9353408813476562, 1.943398118019104],
      "translation": [
        -0.21827399730682373, 0.04156094416975975, -0.06598515808582306
      ]
    },
    {
      "children": [1],
      "mesh": 2,
      "name": "BezierCurve.005",
      "rotation": [0.5, -0.5, 0.5, 0.5],
      "scale": [0.19122442603111267, 0.19122444093227386, 0.19122441112995148],
      "translation": [
        0.006880627945065498, -0.013323239982128143, 0.3755642771720886
      ]
    }
  ],
  "materials": [
    {
      "doubleSided": true,
      "name": "\u6750\u8d28.002",
      "pbrMetallicRoughness": {
        "baseColorFactor": [0, 0.12110656499862671, 1, 1],
        "metallicFactor": 0,
        "roughnessFactor": 0.19148936867713928
      }
    },
    {
      "doubleSided": true,
      "name": "number.001",
      "pbrMetallicRoughness": {
        "baseColorFactor": [0, 0, 0, 1],
        "metallicFactor": 0,
        "roughnessFactor": 0.2206704020500183
      }
    },
    {
      "doubleSided": true,
      "name": "\u6750\u8d28.001",
      "pbrMetallicRoughness": {
        "baseColorFactor": [1, 0.9164885878562927, 0.9164885878562927, 1],
        "metallicFactor": 0,
        "roughnessFactor": 0.11048689484596252
      }
    },
    {
      "doubleSided": true,
      "name": "number",
      "pbrMetallicRoughness": {
        "baseColorFactor": [0, 0, 0, 1],
        "metallicFactor": 0,
        "roughnessFactor": 0.2206704020500183
      }
    }
  ],
  "meshes": [
    {
      "name": "\u5e73\u9762",
      "primitives": [
        {
          "attributes": {
            "POSITION": 0,
            "TEXCOORD_0": 1,
            "NORMAL": 2
          },
          "indices": 3,
          "material": 0
        },
        {
          "attributes": {
            "POSITION": 4,
            "TEXCOORD_0": 5,
            "NORMAL": 6
          },
          "indices": 7,
          "material": 1
        }
      ]
    },
    {
      "name": "\u5e73\u9762.003",
      "primitives": [
        {
          "attributes": {
            "POSITION": 8,
            "TEXCOORD_0": 9,
            "NORMAL": 10
          },
          "indices": 11,
          "material": 2
        }
      ]
    },
    {
      "name": "Mesh.005",
      "primitives": [
        {
          "attributes": {
            "POSITION": 12,
            "TEXCOORD_0": 13,
            "NORMAL": 14
          },
          "indices": 15,
          "material": 3
        }
      ]
    }
  ],
  "accessors": [
    {
      "bufferView": 0,
      "componentType": 5126,
      "count": 168,
      "max": [0.0012500747106969357, 0.39892613887786865, 0.3955201208591461],
      "min": [
        -0.003750076051801443, -0.39892613887786865, -0.39552024006843567
      ],
      "type": "VEC3"
    },
    {
      "bufferView": 1,
      "componentType": 5126,
      "count": 168,
      "type": "VEC2"
    },
    {
      "bufferView": 2,
      "componentType": 5126,
      "count": 168,
      "type": "VEC3"
    },
    {
      "bufferView": 3,
      "componentType": 5123,
      "count": 498,
      "type": "SCALAR"
    },
    {
      "bufferView": 4,
      "componentType": 5126,
      "count": 24,
      "max": [-0.0037499251775443554, 0.39892613887786865, 0.3955201208591461],
      "min": [
        -0.003750076051801443, -0.39892613887786865, -0.39552024006843567
      ],
      "type": "VEC3"
    },
    {
      "bufferView": 5,
      "componentType": 5126,
      "count": 24,
      "type": "VEC2"
    },
    {
      "bufferView": 6,
      "componentType": 5126,
      "count": 24,
      "type": "VEC3"
    },
    {
      "bufferView": 7,
      "componentType": 5123,
      "count": 66,
      "type": "SCALAR"
    },
    {
      "bufferView": 8,
      "componentType": 5126,
      "count": 126,
      "max": [0.5865968465805054, 0.011124473065137863, 0.9419785737991333],
      "min": [-1.0956339836120605, 0.0059999991208314896, -0.941978931427002],
      "type": "VEC3"
    },
    {
      "bufferView": 9,
      "componentType": 5126,
      "count": 126,
      "type": "VEC2"
    },
    {
      "bufferView": 10,
      "componentType": 5126,
      "count": 126,
      "type": "VEC3"
    },
    {
      "bufferView": 11,
      "componentType": 5123,
      "count": 240,
      "type": "SCALAR"
    },
    {
      "bufferView": 12,
      "componentType": 5126,
      "count": 1488,
      "max": [1.132530927658081, 7.701886772792932e-8, 1.2632001638412476],
      "min": [-1.1320923566818237, -0.004952676128596067, -1.5851095914840698],
      "type": "VEC3"
    },
    {
      "bufferView": 13,
      "componentType": 5126,
      "count": 1488,
      "type": "VEC2"
    },
    {
      "bufferView": 14,
      "componentType": 5126,
      "count": 1488,
      "type": "VEC3"
    },
    {
      "bufferView": 15,
      "componentType": 5123,
      "count": 2892,
      "type": "SCALAR"
    }
  ],
  "bufferViews": [
    {
      "buffer": 0,
      "byteLength": 2016,
      "byteOffset": 0,
      "target": 34962
    },
    {
      "buffer": 0,
      "byteLength": 1344,
      "byteOffset": 2016,
      "target": 34962
    },
    {
      "buffer": 0,
      "byteLength": 2016,
      "byteOffset": 3360,
      "target": 34962
    },
    {
      "buffer": 0,
      "byteLength": 996,
      "byteOffset": 5376,
      "target": 34963
    },
    {
      "buffer": 0,
      "byteLength": 288,
      "byteOffset": 6372,
      "target": 34962
    },
    {
      "buffer": 0,
      "byteLength": 192,
      "byteOffset": 6660,
      "target": 34962
    },
    {
      "buffer": 0,
      "byteLength": 288,
      "byteOffset": 6852,
      "target": 34962
    },
    {
      "buffer": 0,
      "byteLength": 132,
      "byteOffset": 7140,
      "target": 34963
    },
    {
      "buffer": 0,
      "byteLength": 1512,
      "byteOffset": 7272,
      "target": 34962
    },
    {
      "buffer": 0,
      "byteLength": 1008,
      "byteOffset": 8784,
      "target": 34962
    },
    {
      "buffer": 0,
      "byteLength": 1512,
      "byteOffset": 9792,
      "target": 34962
    },
    {
      "buffer": 0,
      "byteLength": 480,
      "byteOffset": 11304,
      "target": 34963
    },
    {
      "buffer": 0,
      "byteLength": 17856,
      "byteOffset": 11784,
      "target": 34962
    },
    {
      "buffer": 0,
      "byteLength": 11904,
      "byteOffset": 29640,
      "target": 34962
    },
    {
      "buffer": 0,
      "byteLength": 17856,
      "byteOffset": 41544,
      "target": 34962
    },
    {
      "buffer": 0,
      "byteLength": 5784,
      "byteOffset": 59400,
      "target": 34963
    }
  ],
  "buffers": [
    {
      "byteLength": 65184,
      "uri": "data:application/octet-stream;base64,"
    }
  ]
}
