{
  "asset": {
    "generator": "Khronos glTF Blender I/O v3.2.43",
    "version": "2.0"
  },
  "scene": 0,
  "scenes": [
    {
      "name": "Scene",
      "nodes": [0]
    }
  ],
  "nodes": [
    {
      "mesh": 0,
      "name": "\u7acb\u65b9\u4f53",
      "translation": [0.05646543577313423, 0, 0]
    }
  ],
  "materials": [
    {
      "doubleSided": true,
      "name": "\u6750\u8d28.001",
      "pbrMetallicRoughness": {
        "baseColorFactor": [
          0.6499999761581421, 0.6499999761581421, 0.6499999761581421, 1
        ],
        "metallicFactor": 0,
        "roughnessFactor": 0.48765432834625244
      }
    }
  ],
  "meshes": [
    {
      "name": "\u7acb\u65b9\u4f53",
      "primitives": [
        {
          "attributes": {
            "POSITION": 0,
            "NORMAL": 1,
            "TEXCOORD_0": 2
          },
          "indices": 3,
          "material": 0
        }
      ]
    }
  ],
  "accessors": [
    {
      "bufferView": 0,
      "componentType": 5126,
      "count": 18032,
      "max": [-0.0790511965751648, 0.23079955577850342, 1.4808673858642578],
      "min": [-0.158588245511055, -0.23079955577850342, 0.001560986042022705],
      "type": "VEC3"
    },
    {
      "bufferView": 1,
      "componentType": 5126,
      "count": 18032,
      "type": "VEC3"
    },
    {
      "bufferView": 2,
      "componentType": 5126,
      "count": 18032,
      "type": "VEC2"
    },
    {
      "bufferView": 3,
      "componentType": 5123,
      "count": 28212,
      "type": "SCALAR"
    }
  ],
  "bufferViews": [
    {
      "buffer": 0,
      "byteLength": 216384,
      "byteOffset": 0
    },
    {
      "buffer": 0,
      "byteLength": 216384,
      "byteOffset": 216384
    },
    {
      "buffer": 0,
      "byteLength": 144256,
      "byteOffset": 432768
    },
    {
      "buffer": 0,
      "byteLength": 56424,
      "byteOffset": 577024
    }
  ],
  "buffers": [
    {
      "byteLength": 633448,
      "uri": "data:application/octet-stream;base64,"
    }
  ]
}
