{
  "asset": {
    "generator": "Khronos glTF Blender I/O v3.2.43",
    "version": "2.0"
  },
  "scene": 0,
  "scenes": [
    {
      "name": "Scene",
      "nodes": [1]
    }
  ],
  "nodes": [
    {
      "mesh": 0,
      "name": "\u6587\u672c",
      "rotation": [0.5, 0.5, -0.5, 0.5000000596046448],
      "scale": [0.7545800805091858, 1, 0.7545800805091858],
      "translation": [0.002754978835582733, 0, 0.0004832148551940918]
    },
    {
      "children": [0],
      "mesh": 1,
      "name": "aa",
      "rotation": [0.7071068286895752, 0, 0, 0.7071068286895752],
      "translation": [0, 0, 0.3722555339336395]
    }
  ],
  "materials": [
    {
      "doubleSided": true,
      "name": "\u6750\u8d28.004",
      "pbrMetallicRoughness": {
        "metallicFactor": 0,
        "roughnessFactor": 0.05797101929783821
      }
    },
    {
      "doubleSided": true,
      "name": "red_ring.001",
      "pbrMetallicRoughness": {
        "baseColorFactor": [1, 0.004534851294010878, 0, 1],
        "metallicFactor": 0,
        "roughnessFactor": 0.14245811104774475
      }
    },
    {
      "doubleSided": true,
      "name": "the_back",
      "pbrMetallicRoughness": {
        "baseColorFactor": [
          0.11069011688232422, 0.11069011688232422, 0.11069011688232422, 1
        ],
        "metallicFactor": 0,
        "roughnessFactor": 0.5
      }
    }
  ],
  "meshes": [
    {
      "name": "\u6587\u672c",
      "primitives": [
        {
          "attributes": {
            "POSITION": 0,
            "NORMAL": 1,
            "TEXCOORD_0": 2
          },
          "indices": 3,
          "material": 0
        }
      ]
    },
    {
      "name": "\u5706\u73af.001",
      "primitives": [
        {
          "attributes": {
            "POSITION": 4,
            "NORMAL": 5,
            "TEXCOORD_0": 6
          },
          "indices": 7,
          "material": 1
        },
        {
          "attributes": {
            "POSITION": 8,
            "NORMAL": 9,
            "TEXCOORD_0": 10
          },
          "indices": 11,
          "material": 2
        },
        {
          "attributes": {
            "POSITION": 12,
            "NORMAL": 13,
            "TEXCOORD_0": 14
          },
          "indices": 15,
          "material": 0
        }
      ]
    }
  ],
  "accessors": [
    {
      "bufferView": 0,
      "componentType": 5126,
      "count": 329,
      "max": [0.3018134534358978, 0, 0.3027849495410919],
      "min": [-0.3018134832382202, 0, -0.3027849793434143],
      "type": "VEC3"
    },
    {
      "bufferView": 1,
      "componentType": 5126,
      "count": 329,
      "type": "VEC3"
    },
    {
      "bufferView": 2,
      "componentType": 5126,
      "count": 329,
      "type": "VEC2"
    },
    {
      "bufferView": 3,
      "componentType": 5123,
      "count": 771,
      "type": "SCALAR"
    },
    {
      "bufferView": 4,
      "componentType": 5126,
      "count": 72,
      "max": [1.1463009208512176e-8, 0.37006351351737976, 0.37006351351737976],
      "min": [
        -0.009000010788440704, -0.37006351351737976, -0.37006354331970215
      ],
      "type": "VEC3"
    },
    {
      "bufferView": 5,
      "componentType": 5126,
      "count": 72,
      "type": "VEC3"
    },
    {
      "bufferView": 6,
      "componentType": 5126,
      "count": 72,
      "type": "VEC2"
    },
    {
      "bufferView": 7,
      "componentType": 5123,
      "count": 114,
      "type": "SCALAR"
    },
    {
      "bufferView": 8,
      "componentType": 5126,
      "count": 8,
      "max": [-0.008999988436698914, 0.37006351351737976, 0.37006351351737976],
      "min": [
        -0.009000010788440704, -0.37006351351737976, -0.37006354331970215
      ],
      "type": "VEC3"
    },
    {
      "bufferView": 9,
      "componentType": 5126,
      "count": 8,
      "type": "VEC3"
    },
    {
      "bufferView": 10,
      "componentType": 5126,
      "count": 8,
      "type": "VEC2"
    },
    {
      "bufferView": 11,
      "componentType": 5123,
      "count": 18,
      "type": "SCALAR"
    },
    {
      "bufferView": 12,
      "componentType": 5126,
      "count": 32,
      "max": [1.117045922427451e-8, 0.36061903834342957, 0.36061903834342957],
      "min": [
        -1.117045922427451e-8, -0.36061903834342957, -0.36061906814575195
      ],
      "type": "VEC3"
    },
    {
      "bufferView": 13,
      "componentType": 5126,
      "count": 32,
      "type": "VEC3"
    },
    {
      "bufferView": 14,
      "componentType": 5126,
      "count": 32,
      "type": "VEC2"
    },
    {
      "bufferView": 15,
      "componentType": 5123,
      "count": 48,
      "type": "SCALAR"
    }
  ],
  "bufferViews": [
    {
      "buffer": 0,
      "byteLength": 3948,
      "byteOffset": 0
    },
    {
      "buffer": 0,
      "byteLength": 3948,
      "byteOffset": 3948
    },
    {
      "buffer": 0,
      "byteLength": 2632,
      "byteOffset": 7896
    },
    {
      "buffer": 0,
      "byteLength": 1542,
      "byteOffset": 10528
    },
    {
      "buffer": 0,
      "byteLength": 864,
      "byteOffset": 12072
    },
    {
      "buffer": 0,
      "byteLength": 864,
      "byteOffset": 12936
    },
    {
      "buffer": 0,
      "byteLength": 576,
      "byteOffset": 13800
    },
    {
      "buffer": 0,
      "byteLength": 228,
      "byteOffset": 14376
    },
    {
      "buffer": 0,
      "byteLength": 96,
      "byteOffset": 14604
    },
    {
      "buffer": 0,
      "byteLength": 96,
      "byteOffset": 14700
    },
    {
      "buffer": 0,
      "byteLength": 64,
      "byteOffset": 14796
    },
    {
      "buffer": 0,
      "byteLength": 36,
      "byteOffset": 14860
    },
    {
      "buffer": 0,
      "byteLength": 384,
      "byteOffset": 14896
    },
    {
      "buffer": 0,
      "byteLength": 384,
      "byteOffset": 15280
    },
    {
      "buffer": 0,
      "byteLength": 256,
      "byteOffset": 15664
    },
    {
      "buffer": 0,
      "byteLength": 96,
      "byteOffset": 15920
    }
  ],
  "buffers": [
    {
      "byteLength": 16016,
      "uri": "data:application/octet-stream;base64,"
    }
  ]
}
