{
  "asset": {
    "generator": "Khronos glTF Blender I/O v3.5.30",
    "version": "2.0"
  },
  "scene": 0,
  "scenes": [
    {
      "name": "Scene",
      "nodes": [4]
    }
  ],
  "nodes": [
    {
      "mesh": 0,
      "name": "BezierCurve",
      "rotation": [
        0.7071066498756409, -0.70710688829422, 0, 1.4611092069571896e-7
      ],
      "scale": [-0.1797582060098648, -0.09998535364866257, -0.1797582060098648],
      "translation": [
        0.0013521220535039902, -0.01688571460545063, -0.03414002060890198
      ]
    },
    {
      "mesh": 1,
      "name": "BezierCurve.002",
      "rotation": [0, 0.7109091877937317, 0.7032838463783264, 0],
      "scale": [-0.13694855570793152, -0.589249849319458, -0.589249849319458],
      "translation": [
        0.004838266875594854, -0.21116222441196442, 0.007840048521757126
      ]
    },
    {
      "mesh": 2,
      "name": "\u5e73\u9762.002",
      "rotation": [0, 0, -0.7071068286895752, 0.7071068286895752],
      "scale": [0.05825190246105194, 1, 0.01697303168475628],
      "translation": [
        0.0018670554272830486, 0.00293487380258739, -0.0003467012429609895
      ]
    },
    {
      "mesh": 3,
      "name": "\u6587\u672c",
      "rotation": [
        -0.5000001788139343, 0.5000001192092896, 0.49999985098838806,
        0.49999988079071045
      ],
      "scale": [-1, -1, -1],
      "translation": [
        0.0009764987044036388, 0.21385948359966278, 0.015080688521265984
      ]
    },
    {
      "children": [0, 1, 2, 3],
      "mesh": 4,
      "name": "\u5e73\u9762.001",
      "rotation": [0, 0.7071065902709961, -0.7071069478988647, 0],
      "scale": [-1, -1, -1],
      "translation": [
        0.0037500006146728992, 0.0015612337738275528, 0.4016430079936981
      ]
    }
  ],
  "materials": [
    {
      "doubleSided": true,
      "name": "base_of_color.005",
      "pbrMetallicRoughness": {
        "metallicFactor": 0,
        "roughnessFactor": 0.5
      }
    },
    {
      "doubleSided": true,
      "name": "\u6750\u8d28.011",
      "pbrMetallicRoughness": {
        "metallicFactor": 0,
        "roughnessFactor": 0.05797101929783821
      }
    },
    {
      "doubleSided": true,
      "name": "base_of_color",
      "pbrMetallicRoughness": {
        "metallicFactor": 0,
        "roughnessFactor": 0.5
      }
    },
    {
      "doubleSided": true,
      "name": "base_of_color.006",
      "pbrMetallicRoughness": {
        "metallicFactor": 0,
        "roughnessFactor": 0.5
      }
    },
    {
      "doubleSided": true,
      "name": "\u6750\u8d28.002",
      "pbrMetallicRoughness": {
        "baseColorFactor": [0, 0.12110656499862671, 1, 1],
        "metallicFactor": 0,
        "roughnessFactor": 0.19148936867713928
      }
    },
    {
      "doubleSided": true,
      "name": "\u6750\u8d28.005",
      "pbrMetallicRoughness": {
        "baseColorFactor": [
          0.800000011920929, 0.800000011920929, 0.800000011920929, 1
        ],
        "metallicFactor": 0,
        "roughnessFactor": 0.13829785585403442
      }
    },
    {
      "doubleSided": true,
      "name": "number.001",
      "pbrMetallicRoughness": {
        "baseColorFactor": [0, 0, 0, 1],
        "metallicFactor": 0,
        "roughnessFactor": 0.2206704020500183
      }
    }
  ],
  "meshes": [
    {
      "name": "Mesh",
      "primitives": [
        {
          "attributes": {
            "POSITION": 0,
            "TEXCOORD_0": 1,
            "NORMAL": 2
          },
          "indices": 3,
          "material": 0
        }
      ]
    },
    {
      "name": "Mesh.003",
      "primitives": [
        {
          "attributes": {
            "POSITION": 4,
            "TEXCOORD_0": 5,
            "NORMAL": 6
          },
          "indices": 7,
          "material": 1
        }
      ]
    },
    {
      "name": "\u5e73\u9762.008",
      "primitives": [
        {
          "attributes": {
            "POSITION": 8,
            "TEXCOORD_0": 9,
            "NORMAL": 10
          },
          "indices": 11,
          "material": 2
        }
      ]
    },
    {
      "name": "\u6587\u672c",
      "primitives": [
        {
          "attributes": {
            "POSITION": 12,
            "TEXCOORD_0": 13,
            "NORMAL": 14
          },
          "indices": 15,
          "material": 3
        }
      ]
    },
    {
      "name": "\u5e73\u9762",
      "primitives": [
        {
          "attributes": {
            "POSITION": 16,
            "TEXCOORD_0": 17,
            "NORMAL": 18
          },
          "indices": 19,
          "material": 4
        },
        {
          "attributes": {
            "POSITION": 20,
            "TEXCOORD_0": 21,
            "NORMAL": 22
          },
          "indices": 23,
          "material": 5
        },
        {
          "attributes": {
            "POSITION": 24,
            "TEXCOORD_0": 25,
            "NORMAL": 26
          },
          "indices": 27,
          "material": 6
        }
      ]
    }
  ],
  "accessors": [
    {
      "bufferView": 0,
      "componentType": 5126,
      "count": 2942,
      "max": [0.5531160235404968, 0.005001212935894728, 1.6563785076141357],
      "min": [-0.4415656328201294, -0.005000252742320299, -1.2900320291519165],
      "type": "VEC3"
    },
    {
      "bufferView": 1,
      "componentType": 5126,
      "count": 2942,
      "type": "VEC2"
    },
    {
      "bufferView": 2,
      "componentType": 5126,
      "count": 2942,
      "type": "VEC3"
    },
    {
      "bufferView": 3,
      "componentType": 5123,
      "count": 6168,
      "type": "SCALAR"
    },
    {
      "bufferView": 4,
      "componentType": 5126,
      "count": 54,
      "max": [0.01095304824411869, 0.10303325206041336, 0.17062300443649292],
      "min": [0.003650977276265621, -0.10353358089923859, -0.12180974334478378],
      "type": "VEC3"
    },
    {
      "bufferView": 5,
      "componentType": 5126,
      "count": 54,
      "type": "VEC2"
    },
    {
      "bufferView": 6,
      "componentType": 5126,
      "count": 54,
      "type": "VEC3"
    },
    {
      "bufferView": 7,
      "componentType": 5123,
      "count": 96,
      "type": "SCALAR"
    },
    {
      "bufferView": 8,
      "componentType": 5126,
      "count": 32,
      "max": [5.314360618591309, 1.932494342327118e-8, 19.823152542114258],
      "min": [-5.314359664916992, -1.885928213596344e-8, -19.823152542114258],
      "type": "VEC3"
    },
    {
      "bufferView": 9,
      "componentType": 5126,
      "count": 32,
      "type": "VEC2"
    },
    {
      "bufferView": 10,
      "componentType": 5126,
      "count": 32,
      "type": "VEC3"
    },
    {
      "bufferView": 11,
      "componentType": 5123,
      "count": 48,
      "type": "SCALAR"
    },
    {
      "bufferView": 12,
      "componentType": 5126,
      "count": 9064,
      "max": [0.255330353975296, 0.0010000000474974513, 0.06759067624807358],
      "min": [-0.2810945510864258, 0, -0.0632513090968132],
      "type": "VEC3"
    },
    {
      "bufferView": 13,
      "componentType": 5126,
      "count": 9064,
      "type": "VEC2"
    },
    {
      "bufferView": 14,
      "componentType": 5126,
      "count": 9064,
      "type": "VEC3"
    },
    {
      "bufferView": 15,
      "componentType": 5123,
      "count": 18060,
      "type": "SCALAR"
    },
    {
      "bufferView": 16,
      "componentType": 5126,
      "count": 168,
      "max": [0.0012500747106969357, 0.39892613887786865, 0.3955201208591461],
      "min": [
        -0.003750076051801443, -0.39892613887786865, -0.39552024006843567
      ],
      "type": "VEC3"
    },
    {
      "bufferView": 17,
      "componentType": 5126,
      "count": 168,
      "type": "VEC2"
    },
    {
      "bufferView": 18,
      "componentType": 5126,
      "count": 168,
      "type": "VEC3"
    },
    {
      "bufferView": 19,
      "componentType": 5123,
      "count": 354,
      "type": "SCALAR"
    },
    {
      "bufferView": 20,
      "componentType": 5126,
      "count": 48,
      "max": [0.0012500714510679245, 0.3807953894138336, 0.3773893713951111],
      "min": [0.001249927096068859, -0.3807953894138336, -0.37738946080207825],
      "type": "VEC3"
    },
    {
      "bufferView": 21,
      "componentType": 5126,
      "count": 48,
      "type": "VEC2"
    },
    {
      "bufferView": 22,
      "componentType": 5126,
      "count": 48,
      "type": "VEC3"
    },
    {
      "bufferView": 23,
      "componentType": 5123,
      "count": 144,
      "type": "SCALAR"
    },
    {
      "bufferView": 24,
      "componentType": 5126,
      "count": 24,
      "max": [-0.0037499251775443554, 0.39892613887786865, 0.3955201208591461],
      "min": [
        -0.003750076051801443, -0.39892613887786865, -0.39552024006843567
      ],
      "type": "VEC3"
    },
    {
      "bufferView": 25,
      "componentType": 5126,
      "count": 24,
      "type": "VEC2"
    },
    {
      "bufferView": 26,
      "componentType": 5126,
      "count": 24,
      "type": "VEC3"
    },
    {
      "bufferView": 27,
      "componentType": 5123,
      "count": 66,
      "type": "SCALAR"
    }
  ],
  "bufferViews": [
    {
      "buffer": 0,
      "byteLength": 35304,
      "byteOffset": 0,
      "target": 34962
    },
    {
      "buffer": 0,
      "byteLength": 23536,
      "byteOffset": 35304,
      "target": 34962
    },
    {
      "buffer": 0,
      "byteLength": 35304,
      "byteOffset": 58840,
      "target": 34962
    },
    {
      "buffer": 0,
      "byteLength": 12336,
      "byteOffset": 94144,
      "target": 34963
    },
    {
      "buffer": 0,
      "byteLength": 648,
      "byteOffset": 106480,
      "target": 34962
    },
    {
      "buffer": 0,
      "byteLength": 432,
      "byteOffset": 107128,
      "target": 34962
    },
    {
      "buffer": 0,
      "byteLength": 648,
      "byteOffset": 107560,
      "target": 34962
    },
    {
      "buffer": 0,
      "byteLength": 192,
      "byteOffset": 108208,
      "target": 34963
    },
    {
      "buffer": 0,
      "byteLength": 384,
      "byteOffset": 108400,
      "target": 34962
    },
    {
      "buffer": 0,
      "byteLength": 256,
      "byteOffset": 108784,
      "target": 34962
    },
    {
      "buffer": 0,
      "byteLength": 384,
      "byteOffset": 109040,
      "target": 34962
    },
    {
      "buffer": 0,
      "byteLength": 96,
      "byteOffset": 109424,
      "target": 34963
    },
    {
      "buffer": 0,
      "byteLength": 108768,
      "byteOffset": 109520,
      "target": 34962
    },
    {
      "buffer": 0,
      "byteLength": 72512,
      "byteOffset": 218288,
      "target": 34962
    },
    {
      "buffer": 0,
      "byteLength": 108768,
      "byteOffset": 290800,
      "target": 34962
    },
    {
      "buffer": 0,
      "byteLength": 36120,
      "byteOffset": 399568,
      "target": 34963
    },
    {
      "buffer": 0,
      "byteLength": 2016,
      "byteOffset": 435688,
      "target": 34962
    },
    {
      "buffer": 0,
      "byteLength": 1344,
      "byteOffset": 437704,
      "target": 34962
    },
    {
      "buffer": 0,
      "byteLength": 2016,
      "byteOffset": 439048,
      "target": 34962
    },
    {
      "buffer": 0,
      "byteLength": 708,
      "byteOffset": 441064,
      "target": 34963
    },
    {
      "buffer": 0,
      "byteLength": 576,
      "byteOffset": 441772,
      "target": 34962
    },
    {
      "buffer": 0,
      "byteLength": 384,
      "byteOffset": 442348,
      "target": 34962
    },
    {
      "buffer": 0,
      "byteLength": 576,
      "byteOffset": 442732,
      "target": 34962
    },
    {
      "buffer": 0,
      "byteLength": 288,
      "byteOffset": 443308,
      "target": 34963
    },
    {
      "buffer": 0,
      "byteLength": 288,
      "byteOffset": 443596,
      "target": 34962
    },
    {
      "buffer": 0,
      "byteLength": 192,
      "byteOffset": 443884,
      "target": 34962
    },
    {
      "buffer": 0,
      "byteLength": 288,
      "byteOffset": 444076,
      "target": 34962
    },
    {
      "buffer": 0,
      "byteLength": 132,
      "byteOffset": 444364,
      "target": 34963
    }
  ],
  "buffers": [
    {
      "byteLength": 444496,
      "uri": "data:application/octet-stream;base64,"
    }
  ]
}
