{
  "asset": {
    "generator": "Khronos glTF Blender I/O v3.2.43",
    "version": "2.0"
  },
  "scene": 0,
  "scenes": [
    {
      "name": "Scene",
      "nodes": [2]
    }
  ],
  "nodes": [
    {
      "mesh": 0,
      "name": "\u5e73\u9762.003",
      "rotation": [-0.5, -0.5, -0.5, 0.5],
      "scale": [0.38546955585479736, 0.7805679440498352, 0.38546955585479736],
      "translation": [-0.003011055989190936, 0, 7.033348083496094e-6]
    },
    {
      "mesh": 1,
      "name": "\u6587\u672c",
      "rotation": [
        -0.70710688829422, -0.7071066498756409, 0, 1.9949604279645428e-7
      ],
      "scale": [0.5280079245567322, 1, 0.5280079245567322],
      "translation": [
        0.005443672649562359, -0.017748167738318443, 0.012511134147644043
      ]
    },
    {
      "children": [0, 1],
      "mesh": 2,
      "name": "\u5e73\u9762.001",
      "translation": [0, 0, 0.5424975156784058]
    }
  ],
  "materials": [
    {
      "doubleSided": true,
      "name": "Material",
      "pbrMetallicRoughness": {
        "baseColorFactor": [
          0.800000011920929, 0.800000011920929, 0.800000011920929, 1
        ],
        "metallicFactor": 0,
        "roughnessFactor": 0.4000000059604645
      }
    },
    {
      "doubleSided": true,
      "name": "number",
      "pbrMetallicRoughness": {
        "baseColorFactor": [0, 0, 0, 1],
        "metallicFactor": 0,
        "roughnessFactor": 0.2206704020500183
      }
    },
    {
      "doubleSided": true,
      "name": "red_ring",
      "pbrMetallicRoughness": {
        "baseColorFactor": [1, 0.004534851294010878, 0, 1],
        "metallicFactor": 0,
        "roughnessFactor": 0.14245811104774475
      }
    }
  ],
  "meshes": [
    {
      "name": "\u5e73\u9762.003",
      "primitives": [
        {
          "attributes": {
            "POSITION": 0,
            "NORMAL": 1,
            "TEXCOORD_0": 2
          },
          "indices": 3,
          "material": 0
        }
      ]
    },
    {
      "name": "\u6587\u672c",
      "primitives": [
        {
          "attributes": {
            "POSITION": 4,
            "NORMAL": 5,
            "TEXCOORD_0": 6
          },
          "indices": 7,
          "material": 1
        }
      ]
    },
    {
      "name": "\u5e73\u9762.001",
      "primitives": [
        {
          "attributes": {
            "POSITION": 8,
            "NORMAL": 9,
            "TEXCOORD_0": 10
          },
          "indices": 11,
          "material": 2
        },
        {
          "attributes": {
            "POSITION": 12,
            "NORMAL": 13,
            "TEXCOORD_0": 14
          },
          "indices": 15,
          "material": 0
        },
        {
          "attributes": {
            "POSITION": 16,
            "NORMAL": 17,
            "TEXCOORD_0": 18
          },
          "indices": 19,
          "material": 1
        }
      ]
    }
  ],
  "accessors": [
    {
      "bufferView": 0,
      "componentType": 5126,
      "count": 126,
      "max": [0.5865968465805054, 0.011124473065137863, 0.9419785737991333],
      "min": [-1.0956339836120605, 0.0059999991208314896, -0.941978931427002],
      "type": "VEC3"
    },
    {
      "bufferView": 1,
      "componentType": 5126,
      "count": 126,
      "type": "VEC3"
    },
    {
      "bufferView": 2,
      "componentType": 5126,
      "count": 126,
      "type": "VEC2"
    },
    {
      "bufferView": 3,
      "componentType": 5123,
      "count": 240,
      "type": "SCALAR"
    },
    {
      "bufferView": 4,
      "componentType": 5126,
      "count": 1272,
      "max": [0.29242226481437683, 0.0010000000474974513, 0.29177460074424744],
      "min": [-0.2924222946166992, 0, -0.2917746305465698],
      "type": "VEC3"
    },
    {
      "bufferView": 5,
      "componentType": 5126,
      "count": 1272,
      "type": "VEC3"
    },
    {
      "bufferView": 6,
      "componentType": 5126,
      "count": 1272,
      "type": "VEC2"
    },
    {
      "bufferView": 7,
      "componentType": 5123,
      "count": 2532,
      "type": "SCALAR"
    },
    {
      "bufferView": 8,
      "componentType": 5126,
      "count": 147,
      "max": [0.0045000407844781876, 0.46517953276634216, 0.2896876335144043],
      "min": [-0.004500041250139475, -0.46517953276634216, -0.5410523414611816],
      "type": "VEC3"
    },
    {
      "bufferView": 9,
      "componentType": 5126,
      "count": 147,
      "type": "VEC3"
    },
    {
      "bufferView": 10,
      "componentType": 5126,
      "count": 147,
      "type": "VEC2"
    },
    {
      "bufferView": 11,
      "componentType": 5123,
      "count": 309,
      "type": "SCALAR"
    },
    {
      "bufferView": 12,
      "componentType": 5126,
      "count": 84,
      "max": [0.0045000407844781876, 0.46517953276634216, 0.2896876335144043],
      "min": [0.004499958828091621, -0.46517953276634216, -0.5410523414611816],
      "type": "VEC3"
    },
    {
      "bufferView": 13,
      "componentType": 5126,
      "count": 84,
      "type": "VEC3"
    },
    {
      "bufferView": 14,
      "componentType": 5126,
      "count": 84,
      "type": "VEC2"
    },
    {
      "bufferView": 15,
      "componentType": 5123,
      "count": 126,
      "type": "SCALAR"
    },
    {
      "bufferView": 16,
      "componentType": 5126,
      "count": 21,
      "max": [-0.004499958828091621, 0.46517953276634216, 0.2896876335144043],
      "min": [-0.004500041250139475, -0.46517953276634216, -0.5410523414611816],
      "type": "VEC3"
    },
    {
      "bufferView": 17,
      "componentType": 5126,
      "count": 21,
      "type": "VEC3"
    },
    {
      "bufferView": 18,
      "componentType": 5126,
      "count": 21,
      "type": "VEC2"
    },
    {
      "bufferView": 19,
      "componentType": 5123,
      "count": 57,
      "type": "SCALAR"
    }
  ],
  "bufferViews": [
    {
      "buffer": 0,
      "byteLength": 1512,
      "byteOffset": 0
    },
    {
      "buffer": 0,
      "byteLength": 1512,
      "byteOffset": 1512
    },
    {
      "buffer": 0,
      "byteLength": 1008,
      "byteOffset": 3024
    },
    {
      "buffer": 0,
      "byteLength": 480,
      "byteOffset": 4032
    },
    {
      "buffer": 0,
      "byteLength": 15264,
      "byteOffset": 4512
    },
    {
      "buffer": 0,
      "byteLength": 15264,
      "byteOffset": 19776
    },
    {
      "buffer": 0,
      "byteLength": 10176,
      "byteOffset": 35040
    },
    {
      "buffer": 0,
      "byteLength": 5064,
      "byteOffset": 45216
    },
    {
      "buffer": 0,
      "byteLength": 1764,
      "byteOffset": 50280
    },
    {
      "buffer": 0,
      "byteLength": 1764,
      "byteOffset": 52044
    },
    {
      "buffer": 0,
      "byteLength": 1176,
      "byteOffset": 53808
    },
    {
      "buffer": 0,
      "byteLength": 618,
      "byteOffset": 54984
    },
    {
      "buffer": 0,
      "byteLength": 1008,
      "byteOffset": 55604
    },
    {
      "buffer": 0,
      "byteLength": 1008,
      "byteOffset": 56612
    },
    {
      "buffer": 0,
      "byteLength": 672,
      "byteOffset": 57620
    },
    {
      "buffer": 0,
      "byteLength": 252,
      "byteOffset": 58292
    },
    {
      "buffer": 0,
      "byteLength": 252,
      "byteOffset": 58544
    },
    {
      "buffer": 0,
      "byteLength": 252,
      "byteOffset": 58796
    },
    {
      "buffer": 0,
      "byteLength": 168,
      "byteOffset": 59048
    },
    {
      "buffer": 0,
      "byteLength": 114,
      "byteOffset": 59216
    }
  ],
  "buffers": [
    {
      "byteLength": 59332,
      "uri": "data:application/octet-stream;base64,"
    }
  ]
}
