{
  "asset": {
    "version": "2.0",
    "generator": "Created using the official Cinema 4D glTF Exporter 1.000x284978"
  },
  "scenes": [
    {
      "nodes": [0]
    }
  ],
  "nodes": [
    {
      "name": "单灯",
      "translation": [0.0, 0.0, 0.0],
      "rotation": [0.5, 0.5, 0.5, 0.5],
      "scale": [1.0, 1.0, 1.0],
      "children": [1, 2]
    },
    {
      "name": "灯",
      "translation": [
        7.604106903076172, -1.2334641218185425, 1.8792275190353394
      ],
      "rotation": [0.0, -1.2067882144930846e-33, 0.0, -1.0],
      "scale": [1.0, 1.0, 1.0],
      "mesh": 0
    },
    {
      "name": "主体",
      "translation": [
        7.604106903076172, -1.2334641218185425, 1.8792275190353394
      ],
      "rotation": [0.0, -1.2067882144930846e-33, 0.0, -1.0],
      "scale": [1.0, 1.0, 1.0],
      "mesh": 1
    }
  ],
  "meshes": [
    {
      "name": "灯",
      "primitives": [
        {
          "attributes": {
            "POSITION": 1,
            "NORMAL": 2,
            "TEXCOORD_0": 3
          },
          "indices": 0,
          "material": 0
        }
      ]
    },
    {
      "name": "主体",
      "primitives": [
        {
          "attributes": {
            "POSITION": 5,
            "NORMAL": 6,
            "TEXCOORD_0": 7
          },
          "indices": 4,
          "material": 1
        }
      ]
    }
  ],
  "accessors": [
    {
      "bufferView": 0,
      "type": "SCALAR",
      "max": [129],
      "componentType": 5123,
      "count": 372,
      "byteOffset": 0,
      "min": [0]
    },
    {
      "bufferView": 1,
      "type": "VEC3",
      "max": [-7.463815212249756, 1.3794660568237305, -1.850978970527649],
      "componentType": 5126,
      "count": 130,
      "byteOffset": 0,
      "min": [-7.747416973114014, 1.0958640575408936, -1.8750319480895997]
    },
    {
      "bufferView": 1,
      "type": "VEC3",
      "max": [1.0, 1.0, 1.0],
      "componentType": 5126,
      "count": 130,
      "byteOffset": 12,
      "min": [-1.0, -1.0, -1.0]
    },
    {
      "bufferView": 1,
      "type": "VEC2",
      "max": [0.6426749229431152, 1.0],
      "componentType": 5126,
      "count": 130,
      "byteOffset": 24,
      "min": [0.0, 0.0014649999793618918]
    },
    {
      "bufferView": 2,
      "type": "SCALAR",
      "max": [5163],
      "componentType": 5123,
      "count": 21150,
      "byteOffset": 0,
      "min": [0]
    },
    {
      "bufferView": 3,
      "type": "VEC3",
      "max": [-7.3747239112854, 1.4990290403366089, -1.6809840202331544],
      "componentType": 5126,
      "count": 5164,
      "byteOffset": 0,
      "min": [-7.836618900299072, 0.7994179725646973, -2.0101070404052736]
    },
    {
      "bufferView": 3,
      "type": "VEC3",
      "max": [1.0, 1.0, 1.0],
      "componentType": 5126,
      "count": 5164,
      "byteOffset": 12,
      "min": [-1.0, -1.0, -1.0]
    },
    {
      "bufferView": 3,
      "type": "VEC2",
      "max": [0.9985349178314209, 1.0],
      "componentType": 5126,
      "count": 5164,
      "byteOffset": 24,
      "min": [0.0, 0.0014649999793618918]
    }
  ],
  "bufferViews": [
    {
      "buffer": 0,
      "byteOffset": 0,
      "byteLength": 744,
      "target": 34963
    },
    {
      "buffer": 0,
      "byteOffset": 744,
      "byteLength": 4160,
      "target": 34962,
      "byteStride": 32
    },
    {
      "buffer": 1,
      "byteOffset": 0,
      "byteLength": 42300,
      "target": 34963
    },
    {
      "buffer": 1,
      "byteOffset": 42300,
      "byteLength": 165248,
      "target": 34962,
      "byteStride": 32
    }
  ],
  "buffers": [
    {
      "uri": "data:application/octet-stream;base64,",
      "byteLength": 4904
    },
    {
      "uri": "data:application/octet-stream;base64,",
      "byteLength": 207548
    }
  ],
  "materials": [
    {
      "pbrMetallicRoughness": {
        "baseColorFactor": [
          0.6549019607843137, 0.6549019607843137, 0.6549019607843137, 1.0
        ],
        "metallicFactor": 0.0,
        "roughnessFactor": 0.5
      },
      "emissiveFactor": [0.0, 0.0, 0.0],
      "alphaMode": "OPAQUE",
      "doubleSided": false,
      "name": "Default"
    },
    {
      "pbrMetallicRoughness": {
        "baseColorFactor": [
          0.6549019607843137, 0.6549019607843137, 0.6549019607843137, 1.0
        ],
        "metallicFactor": 0.0,
        "roughnessFactor": 0.5
      },
      "emissiveFactor": [0.0, 0.0, 0.0],
      "alphaMode": "OPAQUE",
      "doubleSided": false,
      "name": "Default_1"
    }
  ]
}
