{
  "asset": {
    "version": "2.0",
    "generator": "Created using the official Cinema 4D glTF Exporter 1.000x284978"
  },
  "scenes": [
    {
      "nodes": [0]
    }
  ],
  "nodes": [
    {
      "name": "双灯",
      "translation": [0.0, 0.0, 0.0],
      "rotation": [0.5, 0.5, 0.5, 0.5],
      "scale": [1.0, 1.0, 1.0],
      "children": [1, 2, 3]
    },
    {
      "name": "下灯",
      "translation": [
        6.958374500274658, -1.0180507898330689, 1.8644144535064698
      ],
      "rotation": [0.0, 0.0, 0.0, -1.0],
      "scale": [1.0, 1.0, 1.0],
      "mesh": 0
    },
    {
      "name": "上灯",
      "translation": [
        6.958374500274658, -1.0180507898330689, 1.8644144535064698
      ],
      "rotation": [0.0, 0.0, 0.0, -1.0],
      "scale": [1.0, 1.0, 1.0],
      "mesh": 1
    },
    {
      "name": "主体",
      "translation": [
        6.958374500274658, -1.0180507898330689, 1.8644144535064698
      ],
      "rotation": [0.0, 0.0, 0.0, -1.0],
      "scale": [1.0, 1.0, 1.0],
      "mesh": 2
    }
  ],
  "meshes": [
    {
      "name": "下灯",
      "primitives": [
        {
          "attributes": {
            "POSITION": 1,
            "NORMAL": 2,
            "TEXCOORD_0": 3
          },
          "indices": 0,
          "material": 0
        }
      ]
    },
    {
      "name": "上灯",
      "primitives": [
        {
          "attributes": {
            "POSITION": 5,
            "NORMAL": 6,
            "TEXCOORD_0": 7
          },
          "indices": 4,
          "material": 1
        }
      ]
    },
    {
      "name": "主体",
      "primitives": [
        {
          "attributes": {
            "POSITION": 9,
            "NORMAL": 10,
            "TEXCOORD_0": 11
          },
          "indices": 8,
          "material": 2
        }
      ]
    }
  ],
  "accessors": [
    {
      "bufferView": 0,
      "type": "SCALAR",
      "max": [129],
      "componentType": 5123,
      "count": 372,
      "byteOffset": 0,
      "min": [0]
    },
    {
      "bufferView": 1,
      "type": "VEC3",
      "max": [-6.818157196044922, 0.9235380291938782, -1.850978970527649],
      "componentType": 5126,
      "count": 130,
      "byteOffset": 0,
      "min": [-7.10175895690918, 0.6399359703063965, -1.8750319480895997]
    },
    {
      "bufferView": 1,
      "type": "VEC3",
      "max": [1.0, 1.0, 1.0],
      "componentType": 5126,
      "count": 130,
      "byteOffset": 12,
      "min": [-1.0, -1.0, -1.0]
    },
    {
      "bufferView": 1,
      "type": "VEC2",
      "max": [0.6426749229431152, 1.0],
      "componentType": 5126,
      "count": 130,
      "byteOffset": 24,
      "min": [0.0, 0.0014649999793618918]
    },
    {
      "bufferView": 2,
      "type": "SCALAR",
      "max": [129],
      "componentType": 5123,
      "count": 372,
      "byteOffset": 0,
      "min": [0]
    },
    {
      "bufferView": 3,
      "type": "VEC3",
      "max": [-6.818243980407715, 1.3794660568237305, -1.850978970527649],
      "componentType": 5126,
      "count": 130,
      "byteOffset": 0,
      "min": [-7.101847171783447, 1.0958640575408936, -1.8750319480895997]
    },
    {
      "bufferView": 3,
      "type": "VEC3",
      "max": [1.0, 1.0, 1.0],
      "componentType": 5126,
      "count": 130,
      "byteOffset": 12,
      "min": [-1.0, -1.0, -1.0]
    },
    {
      "bufferView": 3,
      "type": "VEC2",
      "max": [0.6426749229431152, 1.0],
      "componentType": 5126,
      "count": 130,
      "byteOffset": 24,
      "min": [0.0, 0.0014649999793618918]
    },
    {
      "bufferView": 4,
      "type": "SCALAR",
      "max": [8829],
      "componentType": 5123,
      "count": 36666,
      "byteOffset": 0,
      "min": [0]
    },
    {
      "bufferView": 5,
      "type": "VEC3",
      "max": [-6.728931903839111, 1.4990290403366089, -1.6809840202331544],
      "componentType": 5126,
      "count": 8830,
      "byteOffset": 0,
      "min": [-7.190838813781738, 0.32600998878479006, -2.0101070404052736]
    },
    {
      "bufferView": 5,
      "type": "VEC3",
      "max": [1.0, 1.0, 1.0],
      "componentType": 5126,
      "count": 8830,
      "byteOffset": 12,
      "min": [-1.0, -1.0, -1.0]
    },
    {
      "bufferView": 5,
      "type": "VEC2",
      "max": [0.9985349178314209, 1.0],
      "componentType": 5126,
      "count": 8830,
      "byteOffset": 24,
      "min": [0.0, 0.0014649999793618918]
    }
  ],
  "bufferViews": [
    {
      "buffer": 0,
      "byteOffset": 0,
      "byteLength": 744,
      "target": 34963
    },
    {
      "buffer": 0,
      "byteOffset": 744,
      "byteLength": 4160,
      "target": 34962,
      "byteStride": 32
    },
    {
      "buffer": 1,
      "byteOffset": 0,
      "byteLength": 744,
      "target": 34963
    },
    {
      "buffer": 1,
      "byteOffset": 744,
      "byteLength": 4160,
      "target": 34962,
      "byteStride": 32
    },
    {
      "buffer": 2,
      "byteOffset": 0,
      "byteLength": 73332,
      "target": 34963
    },
    {
      "buffer": 2,
      "byteOffset": 73332,
      "byteLength": 282560,
      "target": 34962,
      "byteStride": 32
    }
  ],
  "buffers": [
    {
      "uri": "data:application/octet-stream;base64,",
      "byteLength": 4904
    },
    {
      "uri": "data:application/octet-stream;base64,",
      "byteLength": 4904
    },
    {
      "uri": "data:application/octet-stream;base64,",
      "byteLength": 355892
    }
  ],
  "materials": [
    {
      "pbrMetallicRoughness": {
        "baseColorFactor": [
          0.6549019607843137, 0.6549019607843137, 0.6549019607843137, 1.0
        ],
        "metallicFactor": 0.0,
        "roughnessFactor": 0.5
      },
      "emissiveFactor": [0.0, 0.0, 0.0],
      "alphaMode": "OPAQUE",
      "doubleSided": false,
      "name": "Default"
    },
    {
      "pbrMetallicRoughness": {
        "baseColorFactor": [
          0.6549019607843137, 0.6549019607843137, 0.6549019607843137, 1.0
        ],
        "metallicFactor": 0.0,
        "roughnessFactor": 0.5
      },
      "emissiveFactor": [0.0, 0.0, 0.0],
      "alphaMode": "OPAQUE",
      "doubleSided": false,
      "name": "Default_1"
    },
    {
      "pbrMetallicRoughness": {
        "baseColorFactor": [
          0.6549019607843137, 0.6549019607843137, 0.6549019607843137, 1.0
        ],
        "metallicFactor": 0.0,
        "roughnessFactor": 0.5
      },
      "emissiveFactor": [0.0, 0.0, 0.0],
      "alphaMode": "OPAQUE",
      "doubleSided": false,
      "name": "Default_2"
    }
  ]
}
