{
  "asset": {
    "version": "2.0",
    "generator": "Created using the official Cinema 4D glTF Exporter 1.000x284978"
  },
  "scenes": [
    {
      "nodes": [0]
    }
  ],
  "nodes": [
    {
      "name": "右箭头",
      "mesh": 0,
      "translation": [0.0, 0.0, 0.0],
      "rotation": [
        0.7071067690849304, -4.329780301713277e-17, 0.7071067690849304,
        -4.329780301713277e-17
      ],
      "scale": [1.0, 1.0, 1.0]
    }
  ],
  "meshes": [
    {
      "name": "右箭头",
      "primitives": [
        {
          "attributes": {
            "POSITION": 1,
            "NORMAL": 2,
            "TEXCOORD_0": 3
          },
          "indices": 0,
          "material": 0
        }
      ]
    }
  ],
  "accessors": [
    {
      "bufferView": 0,
      "type": "SCALAR",
      "componentType": 5123,
      "count": 108,
      "byteOffset": 0,
      "min": [0],
      "max": [71]
    },
    {
      "bufferView": 1,
      "type": "VEC3",
      "componentType": 5126,
      "count": 72,
      "byteOffset": 0,
      "min": [
        -0.10448074340820313, -0.07782572507858277, -0.005307495594024658
      ],
      "max": [0.10448074340820313, 0.1652735471725464, 0.005307495594024658]
    },
    {
      "bufferView": 1,
      "type": "VEC3",
      "componentType": 5126,
      "count": 72,
      "byteOffset": 12,
      "min": [-1.0, -1.0, -1.0],
      "max": [1.0, 1.0, 1.0]
    },
    {
      "bufferView": 1,
      "type": "VEC2",
      "componentType": 5126,
      "count": 72,
      "byteOffset": 24,
      "min": [0.0, 0.0],
      "max": [1.0, 1.0]
    }
  ],
  "bufferViews": [
    {
      "buffer": 0,
      "byteOffset": 0,
      "byteLength": 216,
      "target": 34963
    },
    {
      "buffer": 0,
      "byteOffset": 216,
      "byteStride": 32,
      "byteLength": 2304,
      "target": 34962
    }
  ],
  "buffers": [
    {
      "uri": "data:application/octet-stream;base64,",
      "byteLength": 2520
    }
  ],
  "materials": [
    {
      "pbrMetallicRoughness": {
        "baseColorFactor": [1.0, 1.0, 1.0, 1.0],
        "metallicFactor": 0.0,
        "roughnessFactor": 0.5
      },
      "emissiveFactor": [0.0, 0.0, 0.0],
      "alphaMode": "OPAQUE",
      "doubleSided": false,
      "name": "右箭头"
    }
  ]
}
