{
  "asset": {
    "generator": "Khronos glTF Blender I/O v3.5.30",
    "version": "2.0"
  },
  "scene": 0,
  "scenes": [
    {
      "name": "Scene",
      "nodes": [0, 1]
    }
  ],
  "nodes": [
    {
      "mesh": 0,
      "name": "\u5706\u73af",
      "rotation": [
        -0.70710688829422, 0.7071066498756409, 0, 2.6692548615869782e-8
      ],
      "scale": [-0.4000000059604645, -0.5151453614234924, -0.4000000059604645],
      "translation": [0, 0, 0.3999999761581421]
    },
    {
      "mesh": 1,
      "name": "BezierCurve.002",
      "rotation": [
        0, 0.7032841444015503, -0.7109088897705078, 5.309647477247381e-8
      ],
      "scale": [-0.10877691954374313, -1.0052546262741089, -1.0052546262741089],
      "translation": [
        0.009634112007915974, 0.03347225859761238, 0.3875100910663605
      ]
    }
  ],
  "materials": [
    {
      "doubleSided": true,
      "name": "\u6750\u8d28.002",
      "pbrMetallicRoughness": {
        "baseColorFactor": [0, 0.12110656499862671, 1, 1],
        "metallicFactor": 0,
        "roughnessFactor": 0.19148936867713928
      }
    },
    {
      "doubleSided": true,
      "name": "base_of_color.004",
      "pbrMetallicRoughness": {
        "metallicFactor": 0,
        "roughnessFactor": 0.5
      }
    },
    {
      "doubleSided": true,
      "name": "the_back.004",
      "pbrMetallicRoughness": {
        "baseColorFactor": [
          0.11069011688232422, 0.11069011688232422, 0.11069011688232422, 1
        ],
        "metallicFactor": 0,
        "roughnessFactor": 0.5
      }
    },
    {
      "doubleSided": true,
      "name": "\u6750\u8d28.009",
      "pbrMetallicRoughness": {
        "metallicFactor": 0,
        "roughnessFactor": 0.05797101929783821
      }
    },
    {
      "doubleSided": true,
      "name": "\u6750\u8d28.010",
      "pbrMetallicRoughness": {
        "metallicFactor": 0,
        "roughnessFactor": 0.05797101929783821
      }
    }
  ],
  "meshes": [
    {
      "name": "\u5706\u73af",
      "primitives": [
        {
          "attributes": {
            "POSITION": 0,
            "TEXCOORD_0": 1,
            "NORMAL": 2
          },
          "indices": 3,
          "material": 0
        },
        {
          "attributes": {
            "POSITION": 4,
            "TEXCOORD_0": 5,
            "NORMAL": 6
          },
          "indices": 7,
          "material": 1
        },
        {
          "attributes": {
            "POSITION": 8,
            "TEXCOORD_0": 9,
            "NORMAL": 10
          },
          "indices": 11,
          "material": 2
        }
      ]
    },
    {
      "name": "Mesh.012",
      "primitives": [
        {
          "attributes": {
            "POSITION": 12,
            "NORMAL": 13
          },
          "indices": 14,
          "material": 3
        },
        {
          "attributes": {
            "POSITION": 15,
            "NORMAL": 16
          },
          "indices": 17,
          "material": 4
        }
      ]
    }
  ],
  "accessors": [
    {
      "bufferView": 0,
      "componentType": 5126,
      "count": 640,
      "max": [1, 0.017470795661211014, 1],
      "min": [-1, 0, -1],
      "type": "VEC3"
    },
    {
      "bufferView": 1,
      "componentType": 5126,
      "count": 640,
      "type": "VEC2"
    },
    {
      "bufferView": 2,
      "componentType": 5126,
      "count": 640,
      "type": "VEC3"
    },
    {
      "bufferView": 3,
      "componentType": 5123,
      "count": 1674,
      "type": "SCALAR"
    },
    {
      "bufferView": 4,
      "componentType": 5126,
      "count": 160,
      "max": [0.9501569271087646, 0.017470795661211014, 0.9501569271087646],
      "min": [-0.9501569271087646, 0.017470795661211014, -0.9501569271087646],
      "type": "VEC3"
    },
    {
      "bufferView": 5,
      "componentType": 5126,
      "count": 160,
      "type": "VEC2"
    },
    {
      "bufferView": 6,
      "componentType": 5126,
      "count": 160,
      "type": "VEC3"
    },
    {
      "bufferView": 7,
      "componentType": 5123,
      "count": 480,
      "type": "SCALAR"
    },
    {
      "bufferView": 8,
      "componentType": 5126,
      "count": 80,
      "max": [1, 0, 1],
      "min": [-1, 0, -1],
      "type": "VEC3"
    },
    {
      "bufferView": 9,
      "componentType": 5126,
      "count": 80,
      "type": "VEC2"
    },
    {
      "bufferView": 10,
      "componentType": 5126,
      "count": 80,
      "type": "VEC3"
    },
    {
      "bufferView": 11,
      "componentType": 5123,
      "count": 234,
      "type": "SCALAR"
    },
    {
      "bufferView": 12,
      "componentType": 5126,
      "count": 108,
      "max": [0.0013384642079472542, 0.06290571391582489, 0.2650247812271118],
      "min": [
        -0.005963606759905815, -0.1444300413131714, -0.040350817143917084
      ],
      "type": "VEC3"
    },
    {
      "bufferView": 13,
      "componentType": 5126,
      "count": 108,
      "type": "VEC3"
    },
    {
      "bufferView": 14,
      "componentType": 5123,
      "count": 204,
      "type": "SCALAR"
    },
    {
      "bufferView": 15,
      "componentType": 5126,
      "count": 54,
      "max": [0.008607515133917332, 0.3150666654109955, 0.027686968445777893],
      "min": [0.0013054441660642624, -0.2848380208015442, -0.17964878678321838],
      "type": "VEC3"
    },
    {
      "bufferView": 16,
      "componentType": 5126,
      "count": 54,
      "type": "VEC3"
    },
    {
      "bufferView": 17,
      "componentType": 5123,
      "count": 96,
      "type": "SCALAR"
    }
  ],
  "bufferViews": [
    {
      "buffer": 0,
      "byteLength": 7680,
      "byteOffset": 0,
      "target": 34962
    },
    {
      "buffer": 0,
      "byteLength": 5120,
      "byteOffset": 7680,
      "target": 34962
    },
    {
      "buffer": 0,
      "byteLength": 7680,
      "byteOffset": 12800,
      "target": 34962
    },
    {
      "buffer": 0,
      "byteLength": 3348,
      "byteOffset": 20480,
      "target": 34963
    },
    {
      "buffer": 0,
      "byteLength": 1920,
      "byteOffset": 23828,
      "target": 34962
    },
    {
      "buffer": 0,
      "byteLength": 1280,
      "byteOffset": 25748,
      "target": 34962
    },
    {
      "buffer": 0,
      "byteLength": 1920,
      "byteOffset": 27028,
      "target": 34962
    },
    {
      "buffer": 0,
      "byteLength": 960,
      "byteOffset": 28948,
      "target": 34963
    },
    {
      "buffer": 0,
      "byteLength": 960,
      "byteOffset": 29908,
      "target": 34962
    },
    {
      "buffer": 0,
      "byteLength": 640,
      "byteOffset": 30868,
      "target": 34962
    },
    {
      "buffer": 0,
      "byteLength": 960,
      "byteOffset": 31508,
      "target": 34962
    },
    {
      "buffer": 0,
      "byteLength": 468,
      "byteOffset": 32468,
      "target": 34963
    },
    {
      "buffer": 0,
      "byteLength": 1296,
      "byteOffset": 32936,
      "target": 34962
    },
    {
      "buffer": 0,
      "byteLength": 1296,
      "byteOffset": 34232,
      "target": 34962
    },
    {
      "buffer": 0,
      "byteLength": 408,
      "byteOffset": 35528,
      "target": 34963
    },
    {
      "buffer": 0,
      "byteLength": 648,
      "byteOffset": 35936,
      "target": 34962
    },
    {
      "buffer": 0,
      "byteLength": 648,
      "byteOffset": 36584,
      "target": 34962
    },
    {
      "buffer": 0,
      "byteLength": 192,
      "byteOffset": 37232,
      "target": 34963
    }
  ],
  "buffers": [
    {
      "byteLength": 37424,
      "uri": "data:application/octet-stream;base64,"
    }
  ]
}
