{
  "asset": {
    "generator": "Khronos glTF Blender I/O v3.2.43",
    "version": "2.0"
  },
  "scene": 0,
  "scenes": [
    {
      "name": "Scene",
      "nodes": [1, 2, 3, 4, 5, 6, 7]
    }
  ],
  "nodes": [
    {
      "mesh": 0,
      "name": "\u5e73\u9762.003",
      "scale": [0.7805677056312561, 0.7805679440498352, 0.7805677056312561],
      "translation": [0, -0.00151105597615242, 0]
    },
    {
      "children": [0],
      "mesh": 1,
      "name": "\u5e73\u9762.001",
      "rotation": [0.5, 0.5, -0.5, 0.5000000596046448],
      "scale": [0.4938322901725769, 1, 0.4938322901725769],
      "translation": [0, 0, 0.4000000059604645]
    },
    {
      "mesh": 2,
      "name": "BezierCurve.002",
      "scale": [0.06429748982191086, 0.5942009091377258, 0.5942009091377258],
      "translation": [
        0.00851823017001152, -0.0012641479261219501, 0.44678473472595215
      ]
    },
    {
      "mesh": 3,
      "name": "\u5e73\u9762",
      "rotation": [0, 0.7071068286895752, -0.7071068286895752, 0],
      "scale": [-1.0348081588745117, -1.0348081588745117, -1.0348081588745117],
      "translation": [
        -0.00025284942239522934, 0.5297536253929138, 0.4002998471260071
      ]
    },
    {
      "mesh": 4,
      "name": "\u5e73\u9762.002",
      "rotation": [0, 0.7071068286895752, -0.7071068286895752, 0],
      "scale": [-1.192872405052185, -0.24523156881332397, -2.052946090698242],
      "translation": [
        0.008829792961478233, 0.09784161299467087, 0.34006449580192566
      ]
    },
    {
      "mesh": 5,
      "name": "\u5e73\u9762.004",
      "rotation": [0, 0.7071068286895752, -0.7071068286895752, 0],
      "scale": [-1.192872405052185, -0.24523156881332397, -2.052946090698242],
      "translation": [
        0.008829792961478233, 0.09784161299467087, 0.41268014907836914
      ]
    },
    {
      "mesh": 6,
      "name": "\u5e73\u9762.005",
      "rotation": [0, 0.7071068286895752, -0.7071068286895752, 0],
      "scale": [-1.192872405052185, -0.24523156881332397, -2.052946090698242],
      "translation": [
        0.008829792961478233, 0.09784161299467087, 0.48806625604629517
      ]
    },
    {
      "mesh": 7,
      "name": "\u5e73\u9762.006",
      "rotation": [0, 1, 0, 0],
      "scale": [-1.192872405052185, -0.24523156881332397, -2.052946090698242],
      "translation": [
        0.008829792961478233, 0.09784161299467087, 0.5542289614677429
      ]
    }
  ],
  "materials": [
    {
      "doubleSided": true,
      "name": "\u6750\u8d28.001",
      "pbrMetallicRoughness": {
        "baseColorFactor": [1, 0.37259528040885925, 0.00799308530986309, 1],
        "metallicFactor": 0,
        "roughnessFactor": 0.11048689484596252
      }
    },
    {
      "doubleSided": true,
      "name": "number",
      "pbrMetallicRoughness": {
        "baseColorFactor": [0, 0, 0, 1],
        "metallicFactor": 0,
        "roughnessFactor": 0.2206704020500183
      }
    },
    {
      "doubleSided": true,
      "name": "\u6750\u8d28",
      "pbrMetallicRoughness": {
        "baseColorFactor": [1, 0.007277438882738352, 0.002712902147322893, 1],
        "metallicFactor": 0,
        "roughnessFactor": 0.5
      }
    }
  ],
  "meshes": [
    {
      "name": "\u5e73\u9762.003",
      "primitives": [
        {
          "attributes": {
            "POSITION": 0,
            "NORMAL": 1,
            "TEXCOORD_0": 2
          },
          "indices": 3,
          "material": 0
        }
      ]
    },
    {
      "name": "\u5e73\u9762.001",
      "primitives": [
        {
          "attributes": {
            "POSITION": 4,
            "NORMAL": 5,
            "TEXCOORD_0": 6
          },
          "indices": 7,
          "material": 1
        },
        {
          "attributes": {
            "POSITION": 8,
            "NORMAL": 9,
            "TEXCOORD_0": 10
          },
          "indices": 11,
          "material": 0
        }
      ]
    },
    {
      "name": "Mesh.002",
      "primitives": [
        {
          "attributes": {
            "POSITION": 12,
            "NORMAL": 13
          },
          "indices": 14,
          "material": 1
        }
      ]
    },
    {
      "name": "\u5e73\u9762.002",
      "primitives": [
        {
          "attributes": {
            "POSITION": 15,
            "NORMAL": 16,
            "TEXCOORD_0": 17
          },
          "indices": 18,
          "material": 1
        }
      ]
    },
    {
      "name": "\u5e73\u9762.004",
      "primitives": [
        {
          "attributes": {
            "POSITION": 19,
            "NORMAL": 20,
            "TEXCOORD_0": 21
          },
          "indices": 18,
          "material": 1
        }
      ]
    },
    {
      "name": "\u5e73\u9762.005",
      "primitives": [
        {
          "attributes": {
            "POSITION": 22,
            "NORMAL": 23,
            "TEXCOORD_0": 24
          },
          "indices": 18,
          "material": 1
        }
      ]
    },
    {
      "name": "\u5e73\u9762.006",
      "primitives": [
        {
          "attributes": {
            "POSITION": 25,
            "NORMAL": 26,
            "TEXCOORD_0": 27
          },
          "indices": 18,
          "material": 1
        }
      ]
    },
    {
      "name": "\u5e73\u9762.007",
      "primitives": [
        {
          "attributes": {
            "POSITION": 28,
            "NORMAL": 29,
            "TEXCOORD_0": 30
          },
          "indices": 18,
          "material": 2
        }
      ]
    }
  ],
  "accessors": [
    {
      "bufferView": 0,
      "componentType": 5126,
      "count": 126,
      "max": [0.5865968465805054, 0.011124473065137863, 0.9419785737991333],
      "min": [-1.0956339836120605, 0.0059999991208314896, -0.941978931427002],
      "type": "VEC3"
    },
    {
      "bufferView": 1,
      "componentType": 5126,
      "count": 126,
      "type": "VEC3"
    },
    {
      "bufferView": 2,
      "componentType": 5126,
      "count": 126,
      "type": "VEC2"
    },
    {
      "bufferView": 3,
      "componentType": 5123,
      "count": 240,
      "type": "SCALAR"
    },
    {
      "bufferView": 4,
      "componentType": 5126,
      "count": 168,
      "max": [0.5865967869758606, 0.006000000052154064, 0.9419787526130676],
      "min": [-1.09563410282135, -0.003000000026077032, -0.9419787526130676],
      "type": "VEC3"
    },
    {
      "bufferView": 5,
      "componentType": 5126,
      "count": 168,
      "type": "VEC3"
    },
    {
      "bufferView": 6,
      "componentType": 5126,
      "count": 168,
      "type": "VEC2"
    },
    {
      "bufferView": 7,
      "componentType": 5123,
      "count": 366,
      "type": "SCALAR"
    },
    {
      "bufferView": 8,
      "componentType": 5126,
      "count": 76,
      "max": [0.5865967869758606, 0.006000000052154064, 0.9419787526130676],
      "min": [-1.09563410282135, 0.006000000052154064, -0.9419787526130676],
      "type": "VEC3"
    },
    {
      "bufferView": 9,
      "componentType": 5126,
      "count": 76,
      "type": "VEC3"
    },
    {
      "bufferView": 10,
      "componentType": 5126,
      "count": 76,
      "type": "VEC2"
    },
    {
      "bufferView": 11,
      "componentType": 5123,
      "count": 126,
      "type": "SCALAR"
    },
    {
      "bufferView": 12,
      "componentType": 5126,
      "count": 13,
      "max": [0.0046203285455703735, 0.19779770076274872, 0.33169233798980713],
      "min": [0.004620268940925598, -0.1987469494342804, -0.4268325865268707],
      "type": "VEC3"
    },
    {
      "bufferView": 13,
      "componentType": 5126,
      "count": 13,
      "type": "VEC3"
    },
    {
      "bufferView": 14,
      "componentType": 5123,
      "count": 33,
      "type": "SCALAR"
    },
    {
      "bufferView": 15,
      "componentType": 5126,
      "count": 4,
      "max": [0.008777136914432049, 0.2673357129096985, -0.46589305996894836],
      "min": [0.008777116425335407, 0.002753525972366333, -0.4850935637950897],
      "type": "VEC3"
    },
    {
      "bufferView": 16,
      "componentType": 5126,
      "count": 4,
      "type": "VEC3"
    },
    {
      "bufferView": 17,
      "componentType": 5126,
      "count": 4,
      "type": "VEC2"
    },
    {
      "bufferView": 18,
      "componentType": 5123,
      "count": 6,
      "type": "SCALAR"
    },
    {
      "bufferView": 19,
      "componentType": 5126,
      "count": 4,
      "max": [1.0244548320770264e-8, 0.13229110836982727, 0.009600251913070679],
      "min": [
        -1.0244548320770264e-8, -0.13229107856750488, -0.009600251913070679
      ],
      "type": "VEC3"
    },
    {
      "bufferView": 20,
      "componentType": 5126,
      "count": 4,
      "type": "VEC3"
    },
    {
      "bufferView": 21,
      "componentType": 5126,
      "count": 4,
      "type": "VEC2"
    },
    {
      "bufferView": 22,
      "componentType": 5126,
      "count": 4,
      "max": [1.0244548320770264e-8, 0.13229110836982727, 0.009600251913070679],
      "min": [
        -1.0244548320770264e-8, -0.13229107856750488, -0.009600251913070679
      ],
      "type": "VEC3"
    },
    {
      "bufferView": 23,
      "componentType": 5126,
      "count": 4,
      "type": "VEC3"
    },
    {
      "bufferView": 24,
      "componentType": 5126,
      "count": 4,
      "type": "VEC2"
    },
    {
      "bufferView": 25,
      "componentType": 5126,
      "count": 4,
      "max": [1.0244548320770264e-8, 0.13229110836982727, 0.009600251913070679],
      "min": [
        -1.0244548320770264e-8, -0.13229107856750488, -0.009600251913070679
      ],
      "type": "VEC3"
    },
    {
      "bufferView": 26,
      "componentType": 5126,
      "count": 4,
      "type": "VEC3"
    },
    {
      "bufferView": 27,
      "componentType": 5126,
      "count": 4,
      "type": "VEC2"
    },
    {
      "bufferView": 28,
      "componentType": 5126,
      "count": 4,
      "max": [1.0244548320770264e-8, 0.13229110836982727, 0.009600251913070679],
      "min": [
        -1.0244548320770264e-8, -0.13229107856750488, -0.009600251913070679
      ],
      "type": "VEC3"
    },
    {
      "bufferView": 29,
      "componentType": 5126,
      "count": 4,
      "type": "VEC3"
    },
    {
      "bufferView": 30,
      "componentType": 5126,
      "count": 4,
      "type": "VEC2"
    }
  ],
  "bufferViews": [
    {
      "buffer": 0,
      "byteLength": 1512,
      "byteOffset": 0
    },
    {
      "buffer": 0,
      "byteLength": 1512,
      "byteOffset": 1512
    },
    {
      "buffer": 0,
      "byteLength": 1008,
      "byteOffset": 3024
    },
    {
      "buffer": 0,
      "byteLength": 480,
      "byteOffset": 4032
    },
    {
      "buffer": 0,
      "byteLength": 2016,
      "byteOffset": 4512
    },
    {
      "buffer": 0,
      "byteLength": 2016,
      "byteOffset": 6528
    },
    {
      "buffer": 0,
      "byteLength": 1344,
      "byteOffset": 8544
    },
    {
      "buffer": 0,
      "byteLength": 732,
      "byteOffset": 9888
    },
    {
      "buffer": 0,
      "byteLength": 912,
      "byteOffset": 10620
    },
    {
      "buffer": 0,
      "byteLength": 912,
      "byteOffset": 11532
    },
    {
      "buffer": 0,
      "byteLength": 608,
      "byteOffset": 12444
    },
    {
      "buffer": 0,
      "byteLength": 252,
      "byteOffset": 13052
    },
    {
      "buffer": 0,
      "byteLength": 156,
      "byteOffset": 13304
    },
    {
      "buffer": 0,
      "byteLength": 156,
      "byteOffset": 13460
    },
    {
      "buffer": 0,
      "byteLength": 66,
      "byteOffset": 13616
    },
    {
      "buffer": 0,
      "byteLength": 48,
      "byteOffset": 13684
    },
    {
      "buffer": 0,
      "byteLength": 48,
      "byteOffset": 13732
    },
    {
      "buffer": 0,
      "byteLength": 32,
      "byteOffset": 13780
    },
    {
      "buffer": 0,
      "byteLength": 12,
      "byteOffset": 13812
    },
    {
      "buffer": 0,
      "byteLength": 48,
      "byteOffset": 13824
    },
    {
      "buffer": 0,
      "byteLength": 48,
      "byteOffset": 13872
    },
    {
      "buffer": 0,
      "byteLength": 32,
      "byteOffset": 13920
    },
    {
      "buffer": 0,
      "byteLength": 48,
      "byteOffset": 13952
    },
    {
      "buffer": 0,
      "byteLength": 48,
      "byteOffset": 14000
    },
    {
      "buffer": 0,
      "byteLength": 32,
      "byteOffset": 14048
    },
    {
      "buffer": 0,
      "byteLength": 48,
      "byteOffset": 14080
    },
    {
      "buffer": 0,
      "byteLength": 48,
      "byteOffset": 14128
    },
    {
      "buffer": 0,
      "byteLength": 32,
      "byteOffset": 14176
    },
    {
      "buffer": 0,
      "byteLength": 48,
      "byteOffset": 14208
    },
    {
      "buffer": 0,
      "byteLength": 48,
      "byteOffset": 14256
    },
    {
      "buffer": 0,
      "byteLength": 32,
      "byteOffset": 14304
    }
  ],
  "buffers": [
    {
      "byteLength": 14336,
      "uri": "data:application/octet-stream;base64,"
    }
  ]
}
