{
  "asset": {
    "generator": "Khronos glTF Blender I/O v3.2.43",
    "version": "2.0"
  },
  "scene": 0,
  "scenes": [
    {
      "name": "Scene",
      "nodes": [2]
    }
  ],
  "nodes": [
    {
      "mesh": 0,
      "name": "\u5706\u73af",
      "rotation": [-0.5, -0.4999999701976776, 0.4999999701976776, 0.5],
      "scale": [1, 2.0249786376953125, 2.0249786376953125],
      "translation": [
        -0.11641913652420044, 0.008779969066381454, 0.0549963116645813
      ]
    },
    {
      "mesh": 1,
      "name": "\u5e73\u9762.003",
      "scale": [0.7805677056312561, 0.7805679440498352, 0.7805677056312561],
      "translation": [0, -0.00151105597615242, 0]
    },
    {
      "children": [0, 1],
      "mesh": 2,
      "name": "\u5e73\u9762.001",
      "rotation": [0.5, 0.5, -0.5, 0.5000000596046448],
      "scale": [0.4938322901725769, 1, 0.4938322901725769],
      "translation": [0, 0, 0.4000000059604645]
    }
  ],
  "materials": [
    {
      "doubleSided": true,
      "name": "number",
      "pbrMetallicRoughness": {
        "baseColorFactor": [0, 0, 0, 1],
        "metallicFactor": 0,
        "roughnessFactor": 0.2206704020500183
      }
    },
    {
      "doubleSided": true,
      "name": "\u6750\u8d28.001",
      "pbrMetallicRoughness": {
        "baseColorFactor": [1, 0.37259528040885925, 0.00799308530986309, 1],
        "metallicFactor": 0,
        "roughnessFactor": 0.11048689484596252
      }
    }
  ],
  "meshes": [
    {
      "name": "\u5706\u73af",
      "primitives": [
        {
          "attributes": {
            "POSITION": 0,
            "NORMAL": 1,
            "TEXCOORD_0": 2
          },
          "indices": 3,
          "material": 0
        }
      ]
    },
    {
      "name": "\u5e73\u9762.003",
      "primitives": [
        {
          "attributes": {
            "POSITION": 4,
            "NORMAL": 5,
            "TEXCOORD_0": 6
          },
          "indices": 7,
          "material": 1
        }
      ]
    },
    {
      "name": "\u5e73\u9762.001",
      "primitives": [
        {
          "attributes": {
            "POSITION": 8,
            "NORMAL": 9,
            "TEXCOORD_0": 10
          },
          "indices": 11,
          "material": 0
        },
        {
          "attributes": {
            "POSITION": 12,
            "NORMAL": 13,
            "TEXCOORD_0": 14
          },
          "indices": 15,
          "material": 1
        }
      ]
    }
  ],
  "accessors": [
    {
      "bufferView": 0,
      "componentType": 5126,
      "count": 1372,
      "max": [0.00019474327564239502, 0.36293208599090576, 0.14930790662765503],
      "min": [-0.000195271335542202, -0.3085600435733795, -0.24401473999023438],
      "type": "VEC3"
    },
    {
      "bufferView": 1,
      "componentType": 5126,
      "count": 1372,
      "type": "VEC3"
    },
    {
      "bufferView": 2,
      "componentType": 5126,
      "count": 1372,
      "type": "VEC2"
    },
    {
      "bufferView": 3,
      "componentType": 5123,
      "count": 2712,
      "type": "SCALAR"
    },
    {
      "bufferView": 4,
      "componentType": 5126,
      "count": 126,
      "max": [0.5865968465805054, 0.011124473065137863, 0.9419785737991333],
      "min": [-1.0956339836120605, 0.0059999991208314896, -0.941978931427002],
      "type": "VEC3"
    },
    {
      "bufferView": 5,
      "componentType": 5126,
      "count": 126,
      "type": "VEC3"
    },
    {
      "bufferView": 6,
      "componentType": 5126,
      "count": 126,
      "type": "VEC2"
    },
    {
      "bufferView": 7,
      "componentType": 5123,
      "count": 240,
      "type": "SCALAR"
    },
    {
      "bufferView": 8,
      "componentType": 5126,
      "count": 168,
      "max": [0.5865967869758606, 0.006000000052154064, 0.9419787526130676],
      "min": [-1.09563410282135, -0.003000000026077032, -0.9419787526130676],
      "type": "VEC3"
    },
    {
      "bufferView": 9,
      "componentType": 5126,
      "count": 168,
      "type": "VEC3"
    },
    {
      "bufferView": 10,
      "componentType": 5126,
      "count": 168,
      "type": "VEC2"
    },
    {
      "bufferView": 11,
      "componentType": 5123,
      "count": 366,
      "type": "SCALAR"
    },
    {
      "bufferView": 12,
      "componentType": 5126,
      "count": 76,
      "max": [0.5865967869758606, 0.006000000052154064, 0.9419787526130676],
      "min": [-1.09563410282135, 0.006000000052154064, -0.9419787526130676],
      "type": "VEC3"
    },
    {
      "bufferView": 13,
      "componentType": 5126,
      "count": 76,
      "type": "VEC3"
    },
    {
      "bufferView": 14,
      "componentType": 5126,
      "count": 76,
      "type": "VEC2"
    },
    {
      "bufferView": 15,
      "componentType": 5123,
      "count": 126,
      "type": "SCALAR"
    }
  ],
  "bufferViews": [
    {
      "buffer": 0,
      "byteLength": 16464,
      "byteOffset": 0
    },
    {
      "buffer": 0,
      "byteLength": 16464,
      "byteOffset": 16464
    },
    {
      "buffer": 0,
      "byteLength": 10976,
      "byteOffset": 32928
    },
    {
      "buffer": 0,
      "byteLength": 5424,
      "byteOffset": 43904
    },
    {
      "buffer": 0,
      "byteLength": 1512,
      "byteOffset": 49328
    },
    {
      "buffer": 0,
      "byteLength": 1512,
      "byteOffset": 50840
    },
    {
      "buffer": 0,
      "byteLength": 1008,
      "byteOffset": 52352
    },
    {
      "buffer": 0,
      "byteLength": 480,
      "byteOffset": 53360
    },
    {
      "buffer": 0,
      "byteLength": 2016,
      "byteOffset": 53840
    },
    {
      "buffer": 0,
      "byteLength": 2016,
      "byteOffset": 55856
    },
    {
      "buffer": 0,
      "byteLength": 1344,
      "byteOffset": 57872
    },
    {
      "buffer": 0,
      "byteLength": 732,
      "byteOffset": 59216
    },
    {
      "buffer": 0,
      "byteLength": 912,
      "byteOffset": 59948
    },
    {
      "buffer": 0,
      "byteLength": 912,
      "byteOffset": 60860
    },
    {
      "buffer": 0,
      "byteLength": 608,
      "byteOffset": 61772
    },
    {
      "buffer": 0,
      "byteLength": 252,
      "byteOffset": 62380
    }
  ],
  "buffers": [
    {
      "byteLength": 62632,
      "uri": "data:application/octet-stream;base64,"
    }
  ]
}
