{
  "asset": {
    "version": "2.0",
    "generator": "Created using the official Cinema 4D glTF Exporter 1.000x284978"
  },
  "scenes": [
    {
      "nodes": [0]
    }
  ],
  "nodes": [
    {
      "name": "最低时速限制110",
      "translation": [0.0, 0.0, 0.3880000114440918],
      "rotation": [0.5, 0.5, 0.5, 0.5],
      "scale": [1.0, 1.0, 1.0],
      "children": [1, 2]
    },
    {
      "name": "Default",
      "translation": [
        -29.810338973999025, -2.3561644554138185, -18.134632110595704
      ],
      "rotation": [0.0, 0.0, 0.0, -1.0],
      "scale": [1.0, 1.0, 1.0],
      "mesh": 0
    },
    {
      "name": "Default_1",
      "translation": [
        -29.810338973999025, -2.3561644554138185, -18.134632110595704
      ],
      "rotation": [0.0, 0.0, 0.0, -1.0],
      "scale": [1.0, 1.0, 1.0],
      "mesh": 1
    }
  ],
  "meshes": [
    {
      "name": "Default",
      "primitives": [
        {
          "attributes": {
            "POSITION": 1,
            "NORMAL": 2,
            "TEXCOORD_0": 3
          },
          "indices": 0,
          "material": 0
        }
      ]
    },
    {
      "name": "Default_1",
      "primitives": [
        {
          "attributes": {
            "POSITION": 5,
            "NORMAL": 6,
            "TEXCOORD_0": 7
          },
          "indices": 4,
          "material": 1
        }
      ]
    }
  ],
  "accessors": [
    {
      "bufferView": 0,
      "min": [0],
      "type": "SCALAR",
      "componentType": 5123,
      "count": 3060,
      "byteOffset": 0,
      "max": [1065]
    },
    {
      "bufferView": 1,
      "min": [29.36975860595703, 1.9595600366592408, 18.12845802307129],
      "type": "VEC3",
      "componentType": 5126,
      "count": 1066,
      "byteOffset": 0,
      "max": [30.123355865478517, 2.713157892227173, 18.141613006591798]
    },
    {
      "bufferView": 1,
      "min": [-1.0, -1.0, -1.0],
      "type": "VEC3",
      "componentType": 5126,
      "count": 1066,
      "byteOffset": 12,
      "max": [1.0, 1.0, 1.0]
    },
    {
      "bufferView": 1,
      "min": [0.0, 0.0],
      "type": "VEC2",
      "componentType": 5126,
      "count": 1066,
      "byteOffset": 24,
      "max": [1.0, 1.0]
    },
    {
      "bufferView": 2,
      "min": [0],
      "type": "SCALAR",
      "componentType": 5123,
      "count": 1362,
      "byteOffset": 0,
      "max": [463]
    },
    {
      "bufferView": 3,
      "min": [29.362001419067384, 1.9518020153045655, 18.118640899658204],
      "type": "VEC3",
      "componentType": 5126,
      "count": 464,
      "byteOffset": 0,
      "max": [30.131114959716798, 2.7209160327911379, 18.13913917541504]
    },
    {
      "bufferView": 3,
      "min": [-1.0, -1.0, -1.0],
      "type": "VEC3",
      "componentType": 5126,
      "count": 464,
      "byteOffset": 12,
      "max": [1.0, 1.0, 1.0]
    },
    {
      "bufferView": 3,
      "min": [0.0, 0.0014649999793618918],
      "type": "VEC2",
      "componentType": 5126,
      "count": 464,
      "byteOffset": 24,
      "max": [0.8743569850921631, 1.0]
    }
  ],
  "bufferViews": [
    {
      "buffer": 0,
      "byteOffset": 0,
      "byteLength": 6120,
      "target": 34963
    },
    {
      "buffer": 0,
      "byteOffset": 6120,
      "byteLength": 34112,
      "byteStride": 32,
      "target": 34962
    },
    {
      "buffer": 1,
      "byteOffset": 0,
      "byteLength": 2724,
      "target": 34963
    },
    {
      "buffer": 1,
      "byteOffset": 2724,
      "byteLength": 14848,
      "byteStride": 32,
      "target": 34962
    }
  ],
  "buffers": [
    {
      "uri": "data:application/octet-stream;base64,",
      "byteLength": 40232
    },
    {
      "uri": "data:application/octet-stream;base64,",
      "byteLength": 17572
    }
  ],
  "materials": [
    {
      "pbrMetallicRoughness": {
        "baseColorFactor": [1.0, 1.0, 1.0, 1.0],
        "metallicFactor": 0.0,
        "roughnessFactor": 0.5
      },
      "emissiveFactor": [0.0, 0.0, 0.0],
      "alphaMode": "OPAQUE",
      "doubleSided": false,
      "name": "Default"
    },
    {
      "pbrMetallicRoughness": {
        "baseColorFactor": [0.0, 0.0, 1.0, 1.0],
        "metallicFactor": 0.0,
        "roughnessFactor": 0.5
      },
      "emissiveFactor": [0.0, 0.0, 0.0],
      "alphaMode": "OPAQUE",
      "doubleSided": false,
      "name": "Default_1"
    }
  ]
}
