{
  "asset": {
    "version": "2.0",
    "generator": "Created using the official Cinema 4D glTF Exporter 1.000x284978"
  },
  "scenes": [
    {
      "nodes": [0]
    }
  ],
  "nodes": [
    {
      "name": "最低时速限制70",
      "translation": [0.0, 0.0, 0.3880000114440918],
      "rotation": [0.5, 0.5, 0.5, 0.5],
      "scale": [1.0, 1.0, 1.0],
      "children": [1, 2]
    },
    {
      "name": "Default",
      "translation": [
        0.012184643186628819, -0.011830451898276806, 0.0011882893741130829
      ],
      "rotation": [0.0, 0.0, 0.0, -1.0],
      "scale": [1.0, 1.0, 1.0],
      "mesh": 0
    },
    {
      "name": "Default_1",
      "translation": [
        -0.027415448799729348, 0.02661851793527603, -0.0026736510917544367
      ],
      "rotation": [0.0, 0.0, 0.0, -1.0],
      "scale": [1.0, 1.0, 1.0],
      "mesh": 1
    }
  ],
  "meshes": [
    {
      "name": "Default",
      "primitives": [
        {
          "attributes": {
            "POSITION": 1,
            "NORMAL": 2,
            "TEXCOORD_0": 3
          },
          "indices": 0,
          "material": 0
        }
      ]
    },
    {
      "name": "Default_1",
      "primitives": [
        {
          "attributes": {
            "POSITION": 5,
            "NORMAL": 6,
            "TEXCOORD_0": 7
          },
          "indices": 4,
          "material": 1
        }
      ]
    }
  ],
  "accessors": [
    {
      "bufferView": 0,
      "min": [0],
      "type": "SCALAR",
      "componentType": 5123,
      "count": 3048,
      "byteOffset": 0,
      "max": [1043]
    },
    {
      "bufferView": 1,
      "min": [-0.42502737045288088, -0.3801356554031372, -0.006177450995892286],
      "type": "VEC3",
      "componentType": 5126,
      "count": 1044,
      "byteOffset": 0,
      "max": [0.3285706341266632, 0.37346234917640688, 0.005312548950314522]
    },
    {
      "bufferView": 1,
      "min": [-1.0, -1.0, -1.0],
      "type": "VEC3",
      "componentType": 5126,
      "count": 1044,
      "byteOffset": 12,
      "max": [1.0, 1.0, 1.0]
    },
    {
      "bufferView": 1,
      "min": [0.0, 0.0],
      "type": "VEC2",
      "componentType": 5126,
      "count": 1044,
      "byteOffset": 24,
      "max": [1.0, 1.0]
    },
    {
      "bufferView": 2,
      "min": [0],
      "type": "SCALAR",
      "componentType": 5123,
      "count": 1362,
      "byteOffset": 0,
      "max": [463]
    },
    {
      "bufferView": 3,
      "min": [-0.39318427443504336, -0.426342636346817, -0.012132510542869568],
      "type": "VEC3",
      "componentType": 5126,
      "count": 464,
      "byteOffset": 0,
      "max": [0.37592971324920657, 0.34277138113975527, 0.008365489542484284]
    },
    {
      "bufferView": 3,
      "min": [-1.0, -1.0, -1.0],
      "type": "VEC3",
      "componentType": 5126,
      "count": 464,
      "byteOffset": 12,
      "max": [1.0, 1.0, 1.0]
    },
    {
      "bufferView": 3,
      "min": [0.0, 0.0014649999793618918],
      "type": "VEC2",
      "componentType": 5126,
      "count": 464,
      "byteOffset": 24,
      "max": [0.8743569850921631, 1.0]
    }
  ],
  "bufferViews": [
    {
      "buffer": 0,
      "byteOffset": 0,
      "byteLength": 6096,
      "target": 34963
    },
    {
      "buffer": 0,
      "byteOffset": 6096,
      "byteLength": 33408,
      "byteStride": 32,
      "target": 34962
    },
    {
      "buffer": 1,
      "byteOffset": 0,
      "byteLength": 2724,
      "target": 34963
    },
    {
      "buffer": 1,
      "byteOffset": 2724,
      "byteLength": 14848,
      "byteStride": 32,
      "target": 34962
    }
  ],
  "buffers": [
    {
      "uri": "data:application/octet-stream;base64,",
      "byteLength": 39504
    },
    {
      "uri": "data:application/octet-stream;base64,",
      "byteLength": 17572
    }
  ],
  "materials": [
    {
      "pbrMetallicRoughness": {
        "baseColorFactor": [1.0, 1.0, 1.0, 1.0],
        "metallicFactor": 0.0,
        "roughnessFactor": 0.5
      },
      "emissiveFactor": [0.0, 0.0, 0.0],
      "alphaMode": "OPAQUE",
      "doubleSided": false,
      "name": "Default"
    },
    {
      "pbrMetallicRoughness": {
        "baseColorFactor": [0.0, 0.0, 1.0, 1.0],
        "metallicFactor": 0.0,
        "roughnessFactor": 0.5
      },
      "emissiveFactor": [0.0, 0.0, 0.0],
      "alphaMode": "OPAQUE",
      "doubleSided": false,
      "name": "Default_1"
    }
  ]
}
