{
  "asset": {
    "version": "2.0",
    "generator": "Created using the official Cinema 4D glTF Exporter 1.000x284978"
  },
  "scenes": [
    {
      "nodes": [0]
    }
  ],
  "materials": [
    {
      "pbrMetallicRoughness": {
        "baseColorFactor": [
          0.6549019607843137, 0.6549019607843137, 0.6549019607843137, 1.0
        ],
        "metallicFactor": 0.0,
        "roughnessFactor": 0.5
      },
      "emissiveFactor": [0.0, 0.0, 0.0],
      "name": "Default",
      "alphaMode": "OPAQUE",
      "doubleSided": false
    },
    {
      "pbrMetallicRoughness": {
        "baseColorFactor": [
          0.6549019607843137, 0.6549019607843137, 0.6549019607843137, 1.0
        ],
        "metallicFactor": 0.0,
        "roughnessFactor": 0.5
      },
      "emissiveFactor": [0.0, 0.0, 0.0],
      "name": "Default_1",
      "alphaMode": "OPAQUE",
      "doubleSided": false
    },
    {
      "pbrMetallicRoughness": {
        "baseColorFactor": [
          0.6549019607843137, 0.6549019607843137, 0.6549019607843137, 1.0
        ],
        "metallicFactor": 0.0,
        "roughnessFactor": 0.5
      },
      "emissiveFactor": [0.0, 0.0, 0.0],
      "name": "Default_2",
      "alphaMode": "OPAQUE",
      "doubleSided": false
    },
    {
      "pbrMetallicRoughness": {
        "baseColorFactor": [
          0.6549019607843137, 0.6549019607843137, 0.6549019607843137, 1.0
        ],
        "metallicFactor": 0.0,
        "roughnessFactor": 0.5
      },
      "emissiveFactor": [0.0, 0.0, 0.0],
      "name": "Default_3",
      "alphaMode": "OPAQUE",
      "doubleSided": false
    }
  ],
  "nodes": [
    {
      "name": "红绿灯-三灯",
      "translation": [
        -1.652124197857467e-17, 1.652124197857467e-17, 0.26981234550476076
      ],
      "rotation": [0.5, 0.5, 0.5, 0.5],
      "scale": [1.0, 1.0, 1.0],
      "children": [1, 2, 3, 4]
    },
    {
      "name": "绿灯",
      "translation": [
        24.201616287231447, -0.4150959849357605, -0.5074572563171387
      ],
      "rotation": [0.0, 0.0, 0.0, -1.0],
      "scale": [1.0, 1.0, 1.0],
      "mesh": 0
    },
    {
      "name": "黄灯",
      "translation": [
        24.201616287231447, -0.4150959849357605, -0.5074572563171387
      ],
      "rotation": [0.0, 0.0, 0.0, -1.0],
      "scale": [1.0, 1.0, 1.0],
      "mesh": 1
    },
    {
      "name": "红灯",
      "translation": [
        24.201616287231447, -0.4150959849357605, -0.5074572563171387
      ],
      "rotation": [0.0, 0.0, 0.0, -1.0],
      "scale": [1.0, 1.0, 1.0],
      "mesh": 2
    },
    {
      "name": "主体",
      "translation": [
        24.201616287231447, -0.4150959849357605, -0.5074572563171387
      ],
      "rotation": [0.0, 0.0, 0.0, -1.0],
      "scale": [1.0, 1.0, 1.0],
      "mesh": 3
    }
  ],
  "meshes": [
    {
      "name": "绿灯",
      "primitives": [
        {
          "attributes": {
            "POSITION": 1,
            "NORMAL": 2,
            "TEXCOORD_0": 3
          },
          "indices": 0,
          "material": 0
        }
      ]
    },
    {
      "name": "黄灯",
      "primitives": [
        {
          "attributes": {
            "POSITION": 5,
            "NORMAL": 6,
            "TEXCOORD_0": 7
          },
          "indices": 4,
          "material": 1
        }
      ]
    },
    {
      "name": "红灯",
      "primitives": [
        {
          "attributes": {
            "POSITION": 9,
            "NORMAL": 10,
            "TEXCOORD_0": 11
          },
          "indices": 8,
          "material": 2
        }
      ]
    },
    {
      "name": "主体",
      "primitives": [
        {
          "attributes": {
            "POSITION": 13,
            "NORMAL": 14,
            "TEXCOORD_0": 15
          },
          "indices": 12,
          "material": 3
        }
      ]
    }
  ],
  "accessors": [
    {
      "bufferView": 0,
      "type": "SCALAR",
      "componentType": 5123,
      "count": 372,
      "byteOffset": 0,
      "min": [0],
      "max": [129]
    },
    {
      "bufferView": 1,
      "type": "VEC3",
      "componentType": 5126,
      "count": 130,
      "byteOffset": 0,
      "min": [-23.89522361755371, 0.24738900363445283, 0.4897719919681549],
      "max": [-23.611623764038087, 0.5309889912605286, 0.513824999332428]
    },
    {
      "bufferView": 1,
      "type": "VEC3",
      "componentType": 5126,
      "count": 130,
      "byteOffset": 12,
      "min": [-1.0, -1.0, -1.0],
      "max": [1.0, 1.0, 1.0]
    },
    {
      "bufferView": 1,
      "type": "VEC2",
      "componentType": 5126,
      "count": 130,
      "byteOffset": 24,
      "min": [0.0, 0.0014649999793618918],
      "max": [0.6426749229431152, 1.0]
    },
    {
      "bufferView": 2,
      "type": "SCALAR",
      "componentType": 5123,
      "count": 372,
      "byteOffset": 0,
      "min": [0],
      "max": [129]
    },
    {
      "bufferView": 3,
      "type": "VEC3",
      "componentType": 5126,
      "count": 130,
      "byteOffset": 0,
      "min": [-24.343473434448243, 0.24738900363445283, 0.4897719919681549],
      "max": [-24.059873580932618, 0.5309919714927673, 0.513824999332428]
    },
    {
      "bufferView": 3,
      "type": "VEC3",
      "componentType": 5126,
      "count": 130,
      "byteOffset": 12,
      "min": [-1.0, -1.0, -1.0],
      "max": [1.0, 1.0, 1.0]
    },
    {
      "bufferView": 3,
      "type": "VEC2",
      "componentType": 5126,
      "count": 130,
      "byteOffset": 24,
      "min": [0.0, 0.0014649999793618918],
      "max": [0.6426749229431152, 1.0]
    },
    {
      "bufferView": 4,
      "type": "SCALAR",
      "componentType": 5123,
      "count": 372,
      "byteOffset": 0,
      "min": [0],
      "max": [129]
    },
    {
      "bufferView": 5,
      "type": "VEC3",
      "componentType": 5126,
      "count": 130,
      "byteOffset": 0,
      "min": [-24.802038192749025, 0.24738900363445283, 0.4897719919681549],
      "max": [-24.5184383392334, 0.5309889912605286, 0.513824999332428]
    },
    {
      "bufferView": 5,
      "type": "VEC3",
      "componentType": 5126,
      "count": 130,
      "byteOffset": 12,
      "min": [-1.0, -1.0, -1.0],
      "max": [1.0, 1.0, 1.0]
    },
    {
      "bufferView": 5,
      "type": "VEC2",
      "componentType": 5126,
      "count": 130,
      "byteOffset": 24,
      "min": [0.0, 0.0014649999793618918],
      "max": [0.6426749229431152, 1.0]
    },
    {
      "bufferView": 6,
      "type": "SCALAR",
      "componentType": 5123,
      "count": 52170,
      "byteOffset": 0,
      "min": [0],
      "max": [12491]
    },
    {
      "bufferView": 7,
      "type": "VEC3",
      "componentType": 5126,
      "count": 12492,
      "byteOffset": 0,
      "min": [-24.926904678344728, 0.15823599696159364, 0.349014014005661],
      "max": [-23.454374313354493, 0.6201390027999878, 0.6857190132141113]
    },
    {
      "bufferView": 7,
      "type": "VEC3",
      "componentType": 5126,
      "count": 12492,
      "byteOffset": 12,
      "min": [-1.0, -1.0, -1.0],
      "max": [1.0, 1.0, 1.0]
    },
    {
      "bufferView": 7,
      "type": "VEC2",
      "componentType": 5126,
      "count": 12492,
      "byteOffset": 24,
      "min": [0.0, 0.0014649999793618918],
      "max": [0.9985349178314209, 1.0]
    }
  ],
  "bufferViews": [
    {
      "buffer": 0,
      "byteOffset": 0,
      "byteLength": 744,
      "target": 34963
    },
    {
      "buffer": 0,
      "byteOffset": 744,
      "byteLength": 4160,
      "target": 34962,
      "byteStride": 32
    },
    {
      "buffer": 1,
      "byteOffset": 0,
      "byteLength": 744,
      "target": 34963
    },
    {
      "buffer": 1,
      "byteOffset": 744,
      "byteLength": 4160,
      "target": 34962,
      "byteStride": 32
    },
    {
      "buffer": 2,
      "byteOffset": 0,
      "byteLength": 744,
      "target": 34963
    },
    {
      "buffer": 2,
      "byteOffset": 744,
      "byteLength": 4160,
      "target": 34962,
      "byteStride": 32
    },
    {
      "buffer": 3,
      "byteOffset": 0,
      "byteLength": 104340,
      "target": 34963
    },
    {
      "buffer": 3,
      "byteOffset": 104340,
      "byteLength": 399744,
      "target": 34962,
      "byteStride": 32
    }
  ],
  "buffers": [
    {
      "uri": "data:application/octet-stream;base64,",
      "byteLength": 4904
    },
    {
      "uri": "data:application/octet-stream;base64,",
      "byteLength": 4904
    },
    {
      "uri": "data:application/octet-stream;base64,",
      "byteLength": 4904
    },
    {
      "uri": "data:application/octet-stream;base64,",
      "byteLength": 504084
    }
  ]
}
