{
  "asset": {
    "version": "2.0",
    "generator": "Created using the official Cinema 4D glTF Exporter 1.000x284978"
  },
  "buffers": [
    {
      "uri": "data:application/octet-stream;base64,",
      "byteLength": 4904
    },
    {
      "uri": "data:application/octet-stream;base64,",
      "byteLength": 4904
    },
    {
      "uri": "data:application/octet-stream;base64,",
      "byteLength": 364244
    }
  ],
  "scenes": [
    {
      "nodes": [0]
    }
  ],
  "nodes": [
    {
      "name": "-",
      "translation": [
        -1.5463147280582565e-17, -9.668375520117446e-17, 0.25253236293792727
      ],
      "rotation": [0.5, 0.5, 0.5, 0.5],
      "scale": [1.0, 1.0, 1.0],
      "children": [1, 2, 3]
    },
    {
      "name": "",
      "translation": [
        14.356457710266114, -1.2004618644714356, -0.5094560384750366
      ],
      "rotation": [0.0, 0.0, 0.0, -1.0],
      "scale": [1.0, 1.0, 1.0],
      "mesh": 0
    },
    {
      "name": "",
      "translation": [
        14.356457710266114, -1.2004618644714356, -0.5094560384750366
      ],
      "rotation": [0.0, 0.0, 0.0, -1.0],
      "scale": [1.0, 1.0, 1.0],
      "mesh": 1
    },
    {
      "name": "",
      "translation": [
        14.356457710266114, -1.2004618644714356, -0.5094560384750366
      ],
      "rotation": [0.0, 0.0, 0.0, -1.0],
      "scale": [1.0, 1.0, 1.0],
      "mesh": 2
    }
  ],
  "meshes": [
    {
      "name": "",
      "primitives": [
        {
          "attributes": {
            "POSITION": 1,
            "NORMAL": 2,
            "TEXCOORD_0": 3
          },
          "indices": 0,
          "material": 0
        }
      ]
    },
    {
      "name": "",
      "primitives": [
        {
          "attributes": {
            "POSITION": 5,
            "NORMAL": 6,
            "TEXCOORD_0": 7
          },
          "indices": 4,
          "material": 1
        }
      ]
    },
    {
      "name": "",
      "primitives": [
        {
          "attributes": {
            "POSITION": 9,
            "NORMAL": 10,
            "TEXCOORD_0": 11
          },
          "indices": 8,
          "material": 2
        }
      ]
    }
  ],
  "accessors": [
    {
      "bufferView": 0,
      "type": "SCALAR",
      "max": [129],
      "componentType": 5123,
      "count": 372,
      "byteOffset": 0,
      "min": [0]
    },
    {
      "bufferView": 1,
      "type": "VEC3",
      "max": [-13.979073524475098, 1.3184679746627808, 0.5250549912452698],
      "componentType": 5126,
      "count": 130,
      "byteOffset": 0,
      "min": [-14.262674331665039, 1.0348639488220215, 0.5010020136833191]
    },
    {
      "bufferView": 1,
      "type": "VEC3",
      "max": [1.0, 1.0, 1.0],
      "componentType": 5126,
      "count": 130,
      "byteOffset": 12,
      "min": [-1.0, -1.0, -1.0]
    },
    {
      "bufferView": 1,
      "type": "VEC2",
      "max": [0.6426749229431152, 1.0],
      "componentType": 5126,
      "count": 130,
      "byteOffset": 24,
      "min": [0.0, 0.0014649999793618918]
    },
    {
      "bufferView": 2,
      "type": "SCALAR",
      "max": [129],
      "componentType": 5123,
      "count": 372,
      "byteOffset": 0,
      "min": [0]
    },
    {
      "bufferView": 3,
      "type": "VEC3",
      "max": [-14.453475952148438, 1.3183380365371705, 0.5250549912452698],
      "componentType": 5126,
      "count": 130,
      "byteOffset": 0,
      "min": [-14.737075805664063, 1.0347379446029664, 0.5010020136833191]
    },
    {
      "bufferView": 3,
      "type": "VEC3",
      "max": [1.0, 1.0, 1.0],
      "componentType": 5126,
      "count": 130,
      "byteOffset": 12,
      "min": [-1.0, -1.0, -1.0]
    },
    {
      "bufferView": 3,
      "type": "VEC2",
      "max": [0.6426749229431152, 1.0],
      "componentType": 5126,
      "count": 130,
      "byteOffset": 24,
      "min": [0.0, 0.0014649999793618918]
    },
    {
      "bufferView": 4,
      "type": "SCALAR",
      "max": [9021],
      "componentType": 5123,
      "count": 37770,
      "byteOffset": 0,
      "min": [0]
    },
    {
      "bufferView": 5,
      "type": "VEC3",
      "max": [-13.859980583190918, 1.407600998878479, 0.6950500011444092],
      "componentType": 5126,
      "count": 9022,
      "byteOffset": 0,
      "min": [-14.856589317321778, 0.9457030296325684, 0.3659270107746124]
    },
    {
      "bufferView": 5,
      "type": "VEC3",
      "max": [1.0, 1.0, 1.0],
      "componentType": 5126,
      "count": 9022,
      "byteOffset": 12,
      "min": [-1.0, -1.0, -1.0]
    },
    {
      "bufferView": 5,
      "type": "VEC2",
      "max": [0.9985349178314209, 1.0],
      "componentType": 5126,
      "count": 9022,
      "byteOffset": 24,
      "min": [0.0, 0.0014649999793618918]
    }
  ],
  "bufferViews": [
    {
      "buffer": 0,
      "byteOffset": 0,
      "byteLength": 744,
      "target": 34963
    },
    {
      "buffer": 0,
      "byteOffset": 744,
      "byteLength": 4160,
      "target": 34962,
      "byteStride": 32
    },
    {
      "buffer": 1,
      "byteOffset": 0,
      "byteLength": 744,
      "target": 34963
    },
    {
      "buffer": 1,
      "byteOffset": 744,
      "byteLength": 4160,
      "target": 34962,
      "byteStride": 32
    },
    {
      "buffer": 2,
      "byteOffset": 0,
      "byteLength": 75540,
      "target": 34963
    },
    {
      "buffer": 2,
      "byteOffset": 75540,
      "byteLength": 288704,
      "target": 34962,
      "byteStride": 32
    }
  ],
  "materials": [
    {
      "pbrMetallicRoughness": {
        "baseColorFactor": [
          0.6549019607843137, 0.6549019607843137, 0.6549019607843137, 1.0
        ],
        "metallicFactor": 0.0,
        "roughnessFactor": 0.5
      },
      "emissiveFactor": [0.0, 0.0, 0.0],
      "alphaMode": "OPAQUE",
      "doubleSided": false,
      "name": "Default"
    },
    {
      "pbrMetallicRoughness": {
        "baseColorFactor": [
          0.6549019607843137, 0.6549019607843137, 0.6549019607843137, 1.0
        ],
        "metallicFactor": 0.0,
        "roughnessFactor": 0.5
      },
      "emissiveFactor": [0.0, 0.0, 0.0],
      "alphaMode": "OPAQUE",
      "doubleSided": false,
      "name": "Default_1"
    },
    {
      "pbrMetallicRoughness": {
        "baseColorFactor": [
          0.6549019607843137, 0.6549019607843137, 0.6549019607843137, 1.0
        ],
        "metallicFactor": 0.0,
        "roughnessFactor": 0.5
      },
      "emissiveFactor": [0.0, 0.0, 0.0],
      "alphaMode": "OPAQUE",
      "doubleSided": false,
      "name": "Default_2"
    }
  ]
}
