{
  "asset": {
    "generator": "Created using the official Cinema 4D glTF Exporter 1.000x284978",
    "version": "2.0"
  },
  "buffers": [
    {
      "uri": "data:application/octet-stream;base64,",
      "byteLength": 1704
    },
    {
      "uri": "data:application/octet-stream;base64,",
      "byteLength": 18104
    }
  ],
  "scenes": [
    {
      "nodes": [0]
    }
  ],
  "nodes": [
    {
      "name": "禁停标志牌.obj",
      "translation": [
        2.192477286029772e-17, 2.192477286029772e-17, 0.35805872082710268
      ],
      "rotation": [0.5, -0.5, -0.5, 0.5],
      "scale": [1.0, 1.0, 1.0],
      "children": [1, 2]
    },
    {
      "name": "Default",
      "translation": [
        0.008614283055067063, 0.029541080817580224, 0.00862722098827362
      ],
      "rotation": [0.0, 0.0, 0.0, -1.0],
      "scale": [1.0, 1.0, 1.0],
      "mesh": 0
    },
    {
      "name": "Default_1",
      "translation": [
        -0.0008336402825079858, -0.0028588143177330496, -0.0008348923292942345
      ],
      "rotation": [0.0, 0.0, 0.0, -1.0],
      "scale": [1.0, 1.0, 1.0],
      "mesh": 1
    }
  ],
  "meshes": [
    {
      "name": "Default",
      "primitives": [
        {
          "attributes": {
            "POSITION": 1,
            "NORMAL": 2,
            "TEXCOORD_0": 3
          },
          "indices": 0,
          "material": 0
        }
      ]
    },
    {
      "name": "Default_1",
      "primitives": [
        {
          "attributes": {
            "POSITION": 5,
            "NORMAL": 6,
            "TEXCOORD_0": 7
          },
          "indices": 4,
          "material": 1
        }
      ]
    }
  ],
  "accessors": [
    {
      "bufferView": 0,
      "type": "SCALAR",
      "componentType": 5123,
      "count": 84,
      "min": [0],
      "byteOffset": 0,
      "max": [47]
    },
    {
      "bufferView": 1,
      "type": "VEC3",
      "componentType": 5126,
      "count": 48,
      "min": [-0.3798522353172302, -0.37985774874687197, -0.01127300038933754],
      "byteOffset": 0,
      "max": [0.379851758480072, 0.37984925508499148, 0.01127300038933754]
    },
    {
      "bufferView": 1,
      "type": "VEC3",
      "componentType": 5126,
      "count": 48,
      "min": [-1.0, -1.0, -1.0],
      "byteOffset": 12,
      "max": [1.0, 1.0, 1.0]
    },
    {
      "bufferView": 1,
      "type": "VEC2",
      "componentType": 5126,
      "count": 48,
      "min": [0.0, 0.006351999938488007],
      "byteOffset": 24,
      "max": [0.6100449562072754, 1.0]
    },
    {
      "bufferView": 2,
      "type": "SCALAR",
      "componentType": 5123,
      "count": 1116,
      "min": [0],
      "byteOffset": 0,
      "max": [495]
    },
    {
      "bufferView": 3,
      "type": "VEC3",
      "componentType": 5126,
      "count": 496,
      "min": [-0.34644031524658205, -0.323486864566803, -0.0047998870722949509],
      "byteOffset": 0,
      "max": [0.36533766984939577, 0.3882961571216583, 0.004598112776875496]
    },
    {
      "bufferView": 3,
      "type": "VEC3",
      "componentType": 5126,
      "count": 496,
      "min": [-1.0, -1.0, -1.0],
      "byteOffset": 12,
      "max": [1.0, 1.0, 1.0]
    },
    {
      "bufferView": 3,
      "type": "VEC2",
      "componentType": 5126,
      "count": 496,
      "min": [0.0, 0.006351999938488007],
      "byteOffset": 24,
      "max": [0.9985349178314209, 1.0]
    }
  ],
  "bufferViews": [
    {
      "buffer": 0,
      "byteOffset": 0,
      "byteLength": 168,
      "target": 34963
    },
    {
      "buffer": 0,
      "byteOffset": 168,
      "byteLength": 1536,
      "target": 34962,
      "byteStride": 32
    },
    {
      "buffer": 1,
      "byteOffset": 0,
      "byteLength": 2232,
      "target": 34963
    },
    {
      "buffer": 1,
      "byteOffset": 2232,
      "byteLength": 15872,
      "target": 34962,
      "byteStride": 32
    }
  ],
  "materials": [
    {
      "pbrMetallicRoughness": {
        "baseColorFactor": [1.0, 0.0, 0.0, 1.0],
        "metallicFactor": 0.0,
        "roughnessFactor": 0.5
      },
      "emissiveFactor": [0.0, 0.0, 0.0],
      "alphaMode": "OPAQUE",
      "doubleSided": false,
      "name": "Default"
    },
    {
      "pbrMetallicRoughness": {
        "baseColorFactor": [1.0, 1.0, 1.0, 1.0],
        "metallicFactor": 0.0,
        "roughnessFactor": 0.5
      },
      "emissiveFactor": [0.0, 0.0, 0.0],
      "alphaMode": "OPAQUE",
      "doubleSided": false,
      "name": "Default_1"
    }
  ]
}
