{
  "asset": {
    "generator": "Khronos glTF Blender I/O v3.2.43",
    "version": "2.0"
  },
  "scene": 0,
  "scenes": [
    {
      "name": "Scene",
      "nodes": [0]
    }
  ],
  "nodes": [
    {
      "mesh": 0,
      "name": "\u5706\u73af",
      "rotation": [0, 0, -0.70710688829422, 0.7071066498756409],
      "scale": [0.4000000059604645, 0.5151453614234924, 0.4000000059604645],
      "translation": [0, 0, 0.3999999761581421]
    }
  ],
  "materials": [
    {
      "doubleSided": true,
      "name": "\u6750\u8d28.004",
      "pbrMetallicRoughness": {
        "metallicFactor": 0,
        "roughnessFactor": 0.05797101929783821
      }
    },
    {
      "doubleSided": true,
      "name": "red_ring.001",
      "pbrMetallicRoughness": {
        "baseColorFactor": [1, 0.004534851294010878, 0, 1],
        "metallicFactor": 0,
        "roughnessFactor": 0.14245811104774475
      }
    },
    {
      "doubleSided": true,
      "name": "the_back",
      "pbrMetallicRoughness": {
        "baseColorFactor": [
          0.11069011688232422, 0.11069011688232422, 0.11069011688232422, 1
        ],
        "metallicFactor": 0,
        "roughnessFactor": 0.5
      }
    },
    {
      "doubleSided": true,
      "name": "\u6750\u8d28",
      "pbrMetallicRoughness": {
        "baseColorFactor": [0.003926498349756002, 0, 0.5635408759117126, 1],
        "metallicFactor": 0,
        "roughnessFactor": 0.15405404567718506
      }
    }
  ],
  "meshes": [
    {
      "name": "\u5706\u73af",
      "primitives": [
        {
          "attributes": {
            "POSITION": 0,
            "NORMAL": 1,
            "TEXCOORD_0": 2
          },
          "indices": 3,
          "material": 0
        },
        {
          "attributes": {
            "POSITION": 4,
            "NORMAL": 5,
            "TEXCOORD_0": 6
          },
          "indices": 7,
          "material": 1
        },
        {
          "attributes": {
            "POSITION": 8,
            "NORMAL": 9,
            "TEXCOORD_0": 10
          },
          "indices": 11,
          "material": 2
        },
        {
          "attributes": {
            "POSITION": 12,
            "NORMAL": 13,
            "TEXCOORD_0": 14
          },
          "indices": 15,
          "material": 3
        }
      ]
    }
  ],
  "accessors": [
    {
      "bufferView": 0,
      "componentType": 5126,
      "count": 310,
      "max": [0.9728967547416687, 0.017470799386501312, 0.9728967547416687],
      "min": [-0.9728967547416687, 0.017470791935920715, -0.9728967547416687],
      "type": "VEC3"
    },
    {
      "bufferView": 1,
      "componentType": 5126,
      "count": 310,
      "type": "VEC3"
    },
    {
      "bufferView": 2,
      "componentType": 5126,
      "count": 310,
      "type": "VEC2"
    },
    {
      "bufferView": 3,
      "componentType": 5123,
      "count": 480,
      "type": "SCALAR"
    },
    {
      "bufferView": 4,
      "componentType": 5126,
      "count": 1304,
      "max": [1, 0.01747080311179161, 1],
      "min": [-1, 0, -1],
      "type": "VEC3"
    },
    {
      "bufferView": 5,
      "componentType": 5126,
      "count": 1304,
      "type": "VEC3"
    },
    {
      "bufferView": 6,
      "componentType": 5126,
      "count": 1304,
      "type": "VEC2"
    },
    {
      "bufferView": 7,
      "componentType": 5123,
      "count": 1962,
      "type": "SCALAR"
    },
    {
      "bufferView": 8,
      "componentType": 5126,
      "count": 80,
      "max": [1, 0, 1],
      "min": [-1, 0, -1],
      "type": "VEC3"
    },
    {
      "bufferView": 9,
      "componentType": 5126,
      "count": 80,
      "type": "VEC3"
    },
    {
      "bufferView": 10,
      "componentType": 5126,
      "count": 80,
      "type": "VEC2"
    },
    {
      "bufferView": 11,
      "componentType": 5123,
      "count": 234,
      "type": "SCALAR"
    },
    {
      "bufferView": 12,
      "componentType": 5126,
      "count": 80,
      "max": [0.7727892398834229, 0.01747080311179161, 0.7727924585342407],
      "min": [-0.7727892398834229, 0.017470788210630417, -0.7727860808372498],
      "type": "VEC3"
    },
    {
      "bufferView": 13,
      "componentType": 5126,
      "count": 80,
      "type": "VEC3"
    },
    {
      "bufferView": 14,
      "componentType": 5126,
      "count": 80,
      "type": "VEC2"
    },
    {
      "bufferView": 15,
      "componentType": 5123,
      "count": 216,
      "type": "SCALAR"
    }
  ],
  "bufferViews": [
    {
      "buffer": 0,
      "byteLength": 3720,
      "byteOffset": 0
    },
    {
      "buffer": 0,
      "byteLength": 3720,
      "byteOffset": 3720
    },
    {
      "buffer": 0,
      "byteLength": 2480,
      "byteOffset": 7440
    },
    {
      "buffer": 0,
      "byteLength": 960,
      "byteOffset": 9920
    },
    {
      "buffer": 0,
      "byteLength": 15648,
      "byteOffset": 10880
    },
    {
      "buffer": 0,
      "byteLength": 15648,
      "byteOffset": 26528
    },
    {
      "buffer": 0,
      "byteLength": 10432,
      "byteOffset": 42176
    },
    {
      "buffer": 0,
      "byteLength": 3924,
      "byteOffset": 52608
    },
    {
      "buffer": 0,
      "byteLength": 960,
      "byteOffset": 56532
    },
    {
      "buffer": 0,
      "byteLength": 960,
      "byteOffset": 57492
    },
    {
      "buffer": 0,
      "byteLength": 640,
      "byteOffset": 58452
    },
    {
      "buffer": 0,
      "byteLength": 468,
      "byteOffset": 59092
    },
    {
      "buffer": 0,
      "byteLength": 960,
      "byteOffset": 59560
    },
    {
      "buffer": 0,
      "byteLength": 960,
      "byteOffset": 60520
    },
    {
      "buffer": 0,
      "byteLength": 640,
      "byteOffset": 61480
    },
    {
      "buffer": 0,
      "byteLength": 432,
      "byteOffset": 62120
    }
  ],
  "buffers": [
    {
      "byteLength": 62552,
      "uri": "data:application/octet-stream;base64,"
    }
  ]
}
