{
  "asset": {
    "generator": "Khronos glTF Blender I/O v3.2.43",
    "version": "2.0"
  },
  "scene": 0,
  "scenes": [
    {
      "name": "Scene",
      "nodes": [0]
    }
  ],
  "nodes": [
    {
      "mesh": 0,
      "name": "\u5706\u73af",
      "rotation": [
        -0.27059802412986755, -0.2705981135368347, -0.653281569480896,
        0.6532813906669617
      ],
      "scale": [0.4000000059604645, 0.5151453614234924, 0.4000000059604645],
      "translation": [0, 0, 0.3999999761581421]
    }
  ],
  "materials": [
    {
      "doubleSided": true,
      "name": "Material",
      "pbrMetallicRoughness": {
        "baseColorFactor": [
          0.800000011920929, 0.800000011920929, 0.800000011920929, 1
        ],
        "metallicFactor": 0,
        "roughnessFactor": 0.4000000059604645
      }
    },
    {
      "doubleSided": true,
      "name": "red_ring.001",
      "pbrMetallicRoughness": {
        "baseColorFactor": [1, 0.004534851294010878, 0, 1],
        "metallicFactor": 0,
        "roughnessFactor": 0.14245811104774475
      }
    },
    {
      "doubleSided": true,
      "name": "the_back",
      "pbrMetallicRoughness": {
        "baseColorFactor": [
          0.11069011688232422, 0.11069011688232422, 0.11069011688232422, 1
        ],
        "metallicFactor": 0,
        "roughnessFactor": 0.5
      }
    }
  ],
  "meshes": [
    {
      "name": "\u5706\u73af",
      "primitives": [
        {
          "attributes": {
            "POSITION": 0,
            "NORMAL": 1,
            "TEXCOORD_0": 2
          },
          "indices": 3,
          "material": 0
        },
        {
          "attributes": {
            "POSITION": 4,
            "NORMAL": 5,
            "TEXCOORD_0": 6
          },
          "indices": 7,
          "material": 1
        },
        {
          "attributes": {
            "POSITION": 8,
            "NORMAL": 9,
            "TEXCOORD_0": 10
          },
          "indices": 11,
          "material": 2
        }
      ]
    }
  ],
  "accessors": [
    {
      "bufferView": 0,
      "componentType": 5126,
      "count": 324,
      "max": [0.9850097894668579, 0.01747080497443676, 0.9850097894668579],
      "min": [-0.9850097894668579, 0.017470786347985268, -0.9850097894668579],
      "type": "VEC3"
    },
    {
      "bufferView": 1,
      "componentType": 5126,
      "count": 324,
      "type": "VEC3"
    },
    {
      "bufferView": 2,
      "componentType": 5126,
      "count": 324,
      "type": "VEC2"
    },
    {
      "bufferView": 3,
      "componentType": 5123,
      "count": 486,
      "type": "SCALAR"
    },
    {
      "bufferView": 4,
      "componentType": 5126,
      "count": 1312,
      "max": [1, 0.01747080497443676, 1],
      "min": [-1, 0, -1],
      "type": "VEC3"
    },
    {
      "bufferView": 5,
      "componentType": 5126,
      "count": 1312,
      "type": "VEC3"
    },
    {
      "bufferView": 6,
      "componentType": 5126,
      "count": 1312,
      "type": "VEC2"
    },
    {
      "bufferView": 7,
      "componentType": 5123,
      "count": 2178,
      "type": "SCALAR"
    },
    {
      "bufferView": 8,
      "componentType": 5126,
      "count": 80,
      "max": [1, 0, 1],
      "min": [-1, 0, -1],
      "type": "VEC3"
    },
    {
      "bufferView": 9,
      "componentType": 5126,
      "count": 80,
      "type": "VEC3"
    },
    {
      "bufferView": 10,
      "componentType": 5126,
      "count": 80,
      "type": "VEC2"
    },
    {
      "bufferView": 11,
      "componentType": 5123,
      "count": 234,
      "type": "SCALAR"
    }
  ],
  "bufferViews": [
    {
      "buffer": 0,
      "byteLength": 3888,
      "byteOffset": 0
    },
    {
      "buffer": 0,
      "byteLength": 3888,
      "byteOffset": 3888
    },
    {
      "buffer": 0,
      "byteLength": 2592,
      "byteOffset": 7776
    },
    {
      "buffer": 0,
      "byteLength": 972,
      "byteOffset": 10368
    },
    {
      "buffer": 0,
      "byteLength": 15744,
      "byteOffset": 11340
    },
    {
      "buffer": 0,
      "byteLength": 15744,
      "byteOffset": 27084
    },
    {
      "buffer": 0,
      "byteLength": 10496,
      "byteOffset": 42828
    },
    {
      "buffer": 0,
      "byteLength": 4356,
      "byteOffset": 53324
    },
    {
      "buffer": 0,
      "byteLength": 960,
      "byteOffset": 57680
    },
    {
      "buffer": 0,
      "byteLength": 960,
      "byteOffset": 58640
    },
    {
      "buffer": 0,
      "byteLength": 640,
      "byteOffset": 59600
    },
    {
      "buffer": 0,
      "byteLength": 468,
      "byteOffset": 60240
    }
  ],
  "buffers": [
    {
      "byteLength": 60708,
      "uri": "data:application/octet-stream;base64,"
    }
  ]
}
