{
  "asset": {
    "generator": "Khronos glTF Blender I/O v3.2.43",
    "version": "2.0"
  },
  "scene": 0,
  "scenes": [
    {
      "name": "Scene",
      "nodes": [1]
    }
  ],
  "nodes": [
    {
      "mesh": 0,
      "name": "BezierCurve",
      "rotation": [
        -0.9238795638084412, 0, -0.3826834559440613, 5.065708919005374e-8
      ],
      "scale": [0.8483361601829529, 1.941199541091919, 0.8483362197875977],
      "translation": [0.036764077842235565, 0, 0.036764033138751984]
    },
    {
      "children": [0],
      "mesh": 1,
      "name": "\u5706\u73af",
      "rotation": [
        -0.27059802412986755, -0.2705981135368347, -0.653281569480896,
        0.6532813906669617
      ],
      "scale": [0.4000000059604645, 0.5151453614234924, 0.4000000059604645],
      "translation": [0, 0, 0.3999999761581421]
    }
  ],
  "materials": [
    {
      "doubleSided": true,
      "name": "number",
      "pbrMetallicRoughness": {
        "baseColorFactor": [0, 0, 0, 1],
        "metallicFactor": 0,
        "roughnessFactor": 0.2206704020500183
      }
    },
    {
      "doubleSided": true,
      "name": "\u6750\u8d28.004",
      "pbrMetallicRoughness": {
        "metallicFactor": 0,
        "roughnessFactor": 0.05797101929783821
      }
    },
    {
      "doubleSided": true,
      "name": "red_ring.001",
      "pbrMetallicRoughness": {
        "baseColorFactor": [1, 0.004534851294010878, 0, 1],
        "metallicFactor": 0,
        "roughnessFactor": 0.14245811104774475
      }
    },
    {
      "doubleSided": true,
      "name": "the_back",
      "pbrMetallicRoughness": {
        "baseColorFactor": [
          0.11069011688232422, 0.11069011688232422, 0.11069011688232422, 1
        ],
        "metallicFactor": 0,
        "roughnessFactor": 0.5
      }
    }
  ],
  "meshes": [
    {
      "name": "Mesh",
      "primitives": [
        {
          "attributes": {
            "POSITION": 0,
            "NORMAL": 1
          },
          "indices": 2,
          "material": 0
        }
      ]
    },
    {
      "name": "\u5706\u73af",
      "primitives": [
        {
          "attributes": {
            "POSITION": 3,
            "NORMAL": 4,
            "TEXCOORD_0": 5
          },
          "indices": 6,
          "material": 1
        },
        {
          "attributes": {
            "POSITION": 7,
            "NORMAL": 8,
            "TEXCOORD_0": 9
          },
          "indices": 10,
          "material": 2
        },
        {
          "attributes": {
            "POSITION": 11,
            "NORMAL": 12,
            "TEXCOORD_0": 13
          },
          "indices": 14,
          "material": 3
        }
      ]
    }
  ],
  "accessors": [
    {
      "bufferView": 0,
      "componentType": 5126,
      "count": 926,
      "max": [0.42085981369018555, -0.008688529022037983, 0.7320876121520996],
      "min": [-0.4368521571159363, -0.009762330912053585, -0.816923975944519],
      "type": "VEC3"
    },
    {
      "bufferView": 1,
      "componentType": 5126,
      "count": 926,
      "type": "VEC3"
    },
    {
      "bufferView": 2,
      "componentType": 5123,
      "count": 1836,
      "type": "SCALAR"
    },
    {
      "bufferView": 3,
      "componentType": 5126,
      "count": 714,
      "max": [1, 0.017470797523856163, 1],
      "min": [-1, 0, -1],
      "type": "VEC3"
    },
    {
      "bufferView": 4,
      "componentType": 5126,
      "count": 714,
      "type": "VEC3"
    },
    {
      "bufferView": 5,
      "componentType": 5126,
      "count": 714,
      "type": "VEC2"
    },
    {
      "bufferView": 6,
      "componentType": 5123,
      "count": 1170,
      "type": "SCALAR"
    },
    {
      "bufferView": 7,
      "componentType": 5126,
      "count": 555,
      "max": [0.9596205353736877, 0.017470797523856163, 0.9596205353736877],
      "min": [-0.9596205353736877, 0.017470793798565865, -0.9596205353736877],
      "type": "VEC3"
    },
    {
      "bufferView": 8,
      "componentType": 5126,
      "count": 555,
      "type": "VEC3"
    },
    {
      "bufferView": 9,
      "componentType": 5126,
      "count": 555,
      "type": "VEC2"
    },
    {
      "bufferView": 10,
      "componentType": 5123,
      "count": 984,
      "type": "SCALAR"
    },
    {
      "bufferView": 11,
      "componentType": 5126,
      "count": 80,
      "max": [1, 0, 1],
      "min": [-1, 0, -1],
      "type": "VEC3"
    },
    {
      "bufferView": 12,
      "componentType": 5126,
      "count": 80,
      "type": "VEC3"
    },
    {
      "bufferView": 13,
      "componentType": 5126,
      "count": 80,
      "type": "VEC2"
    },
    {
      "bufferView": 14,
      "componentType": 5123,
      "count": 234,
      "type": "SCALAR"
    }
  ],
  "bufferViews": [
    {
      "buffer": 0,
      "byteLength": 11112,
      "byteOffset": 0
    },
    {
      "buffer": 0,
      "byteLength": 11112,
      "byteOffset": 11112
    },
    {
      "buffer": 0,
      "byteLength": 3672,
      "byteOffset": 22224
    },
    {
      "buffer": 0,
      "byteLength": 8568,
      "byteOffset": 25896
    },
    {
      "buffer": 0,
      "byteLength": 8568,
      "byteOffset": 34464
    },
    {
      "buffer": 0,
      "byteLength": 5712,
      "byteOffset": 43032
    },
    {
      "buffer": 0,
      "byteLength": 2340,
      "byteOffset": 48744
    },
    {
      "buffer": 0,
      "byteLength": 6660,
      "byteOffset": 51084
    },
    {
      "buffer": 0,
      "byteLength": 6660,
      "byteOffset": 57744
    },
    {
      "buffer": 0,
      "byteLength": 4440,
      "byteOffset": 64404
    },
    {
      "buffer": 0,
      "byteLength": 1968,
      "byteOffset": 68844
    },
    {
      "buffer": 0,
      "byteLength": 960,
      "byteOffset": 70812
    },
    {
      "buffer": 0,
      "byteLength": 960,
      "byteOffset": 71772
    },
    {
      "buffer": 0,
      "byteLength": 640,
      "byteOffset": 72732
    },
    {
      "buffer": 0,
      "byteLength": 468,
      "byteOffset": 73372
    }
  ],
  "buffers": [
    {
      "byteLength": 73840,
      "uri": "data:application/octet-stream;base64,"
    }
  ]
}
