{
  "asset": {
    "generator": "Khronos glTF Blender I/O v3.2.43",
    "version": "2.0"
  },
  "scene": 0,
  "scenes": [
    {
      "name": "Scene",
      "nodes": [0, 1]
    }
  ],
  "nodes": [
    {
      "mesh": 0,
      "name": "\u5706\u73af",
      "rotation": [
        -0.27059802412986755, -0.2705981135368347, -0.653281569480896,
        0.6532813906669617
      ],
      "scale": [0.4000000059604645, 0.5151453614234924, 0.4000000059604645],
      "translation": [0, 0, 0.3999999761581421]
    },
    {
      "mesh": 1,
      "name": "BezierCurve.001",
      "rotation": [
        0, -0.7032841444015503, 0.7109089493751526, 2.2281701294614352e-17
      ],
      "scale": [-0.13694855570793152, -1.0860722064971924, -1.0860722064971924],
      "translation": [0, 0, 0.3999999761581421]
    }
  ],
  "materials": [
    {
      "doubleSided": true,
      "name": "\u6750\u8d28.004",
      "pbrMetallicRoughness": {
        "metallicFactor": 0,
        "roughnessFactor": 0.05797101929783821
      }
    },
    {
      "doubleSided": true,
      "name": "red_ring.001",
      "pbrMetallicRoughness": {
        "baseColorFactor": [1, 0.004534851294010878, 0, 1],
        "metallicFactor": 0,
        "roughnessFactor": 0.14245811104774475
      }
    },
    {
      "doubleSided": true,
      "name": "the_back",
      "pbrMetallicRoughness": {
        "baseColorFactor": [
          0.11069011688232422, 0.11069011688232422, 0.11069011688232422, 1
        ],
        "metallicFactor": 0,
        "roughnessFactor": 0.5
      }
    },
    {
      "doubleSided": true,
      "name": "number",
      "pbrMetallicRoughness": {
        "baseColorFactor": [0, 0, 0, 1],
        "metallicFactor": 0,
        "roughnessFactor": 0.2206704020500183
      }
    }
  ],
  "meshes": [
    {
      "name": "\u5706\u73af",
      "primitives": [
        {
          "attributes": {
            "POSITION": 0,
            "NORMAL": 1,
            "TEXCOORD_0": 2
          },
          "indices": 3,
          "material": 0
        },
        {
          "attributes": {
            "POSITION": 4,
            "NORMAL": 5,
            "TEXCOORD_0": 6
          },
          "indices": 7,
          "material": 1
        },
        {
          "attributes": {
            "POSITION": 8,
            "NORMAL": 9,
            "TEXCOORD_0": 10
          },
          "indices": 11,
          "material": 2
        }
      ]
    },
    {
      "name": "Mesh.005",
      "primitives": [
        {
          "attributes": {
            "POSITION": 12,
            "NORMAL": 13
          },
          "indices": 14,
          "material": 3
        }
      ]
    }
  ],
  "accessors": [
    {
      "bufferView": 0,
      "componentType": 5126,
      "count": 714,
      "max": [1, 0.017470797523856163, 1],
      "min": [-1, 0, -1],
      "type": "VEC3"
    },
    {
      "bufferView": 1,
      "componentType": 5126,
      "count": 714,
      "type": "VEC3"
    },
    {
      "bufferView": 2,
      "componentType": 5126,
      "count": 714,
      "type": "VEC2"
    },
    {
      "bufferView": 3,
      "componentType": 5123,
      "count": 1170,
      "type": "SCALAR"
    },
    {
      "bufferView": 4,
      "componentType": 5126,
      "count": 555,
      "max": [0.9596205353736877, 0.017470797523856163, 0.9596205353736877],
      "min": [-0.9596205353736877, 0.017470793798565865, -0.9596205353736877],
      "type": "VEC3"
    },
    {
      "bufferView": 5,
      "componentType": 5126,
      "count": 555,
      "type": "VEC3"
    },
    {
      "bufferView": 6,
      "componentType": 5126,
      "count": 555,
      "type": "VEC2"
    },
    {
      "bufferView": 7,
      "componentType": 5123,
      "count": 984,
      "type": "SCALAR"
    },
    {
      "bufferView": 8,
      "componentType": 5126,
      "count": 80,
      "max": [1, 0, 1],
      "min": [-1, 0, -1],
      "type": "VEC3"
    },
    {
      "bufferView": 9,
      "componentType": 5126,
      "count": 80,
      "type": "VEC3"
    },
    {
      "bufferView": 10,
      "componentType": 5126,
      "count": 80,
      "type": "VEC2"
    },
    {
      "bufferView": 11,
      "componentType": 5123,
      "count": 234,
      "type": "SCALAR"
    },
    {
      "bufferView": 12,
      "componentType": 5126,
      "count": 420,
      "max": [0.07366468012332916, 0.18801333010196686, 0.2642630934715271],
      "min": [0.06636261194944382, -0.24469082057476044, -0.26563501358032227],
      "type": "VEC3"
    },
    {
      "bufferView": 13,
      "componentType": 5126,
      "count": 420,
      "type": "VEC3"
    },
    {
      "bufferView": 14,
      "componentType": 5123,
      "count": 792,
      "type": "SCALAR"
    }
  ],
  "bufferViews": [
    {
      "buffer": 0,
      "byteLength": 8568,
      "byteOffset": 0
    },
    {
      "buffer": 0,
      "byteLength": 8568,
      "byteOffset": 8568
    },
    {
      "buffer": 0,
      "byteLength": 5712,
      "byteOffset": 17136
    },
    {
      "buffer": 0,
      "byteLength": 2340,
      "byteOffset": 22848
    },
    {
      "buffer": 0,
      "byteLength": 6660,
      "byteOffset": 25188
    },
    {
      "buffer": 0,
      "byteLength": 6660,
      "byteOffset": 31848
    },
    {
      "buffer": 0,
      "byteLength": 4440,
      "byteOffset": 38508
    },
    {
      "buffer": 0,
      "byteLength": 1968,
      "byteOffset": 42948
    },
    {
      "buffer": 0,
      "byteLength": 960,
      "byteOffset": 44916
    },
    {
      "buffer": 0,
      "byteLength": 960,
      "byteOffset": 45876
    },
    {
      "buffer": 0,
      "byteLength": 640,
      "byteOffset": 46836
    },
    {
      "buffer": 0,
      "byteLength": 468,
      "byteOffset": 47476
    },
    {
      "buffer": 0,
      "byteLength": 5040,
      "byteOffset": 47944
    },
    {
      "buffer": 0,
      "byteLength": 5040,
      "byteOffset": 52984
    },
    {
      "buffer": 0,
      "byteLength": 1584,
      "byteOffset": 58024
    }
  ],
  "buffers": [
    {
      "byteLength": 59608,
      "uri": "data:application/octet-stream;base64,"
    }
  ]
}
