{
  "asset": {
    "generator": "Khronos glTF Blender I/O v3.2.43",
    "version": "2.0"
  },
  "scene": 0,
  "scenes": [
    {
      "name": "Scene",
      "nodes": [0, 1]
    }
  ],
  "nodes": [
    {
      "mesh": 0,
      "name": "\u5706\u73af",
      "rotation": [
        -0.27059802412986755, -0.2705981135368347, -0.653281569480896,
        0.6532813906669617
      ],
      "scale": [0.4000000059604645, 0.5151453614234924, 0.4000000059604645],
      "translation": [0, 0, 0.3999999761581421]
    },
    {
      "mesh": 1,
      "name": "BezierCurve.001",
      "rotation": [-0.9999854564666748, 0, 0, 0.005391615442931652],
      "scale": [0.13694855570793152, 1.0659246444702148, 1.2359063625335693],
      "translation": [0, 0, 0.3999999761581421]
    }
  ],
  "materials": [
    {
      "doubleSided": true,
      "name": "\u6750\u8d28.004",
      "pbrMetallicRoughness": {
        "metallicFactor": 0,
        "roughnessFactor": 0.05797101929783821
      }
    },
    {
      "doubleSided": true,
      "name": "red_ring.001",
      "pbrMetallicRoughness": {
        "baseColorFactor": [1, 0.004534851294010878, 0, 1],
        "metallicFactor": 0,
        "roughnessFactor": 0.14245811104774475
      }
    },
    {
      "doubleSided": true,
      "name": "the_back",
      "pbrMetallicRoughness": {
        "baseColorFactor": [
          0.11069011688232422, 0.11069011688232422, 0.11069011688232422, 1
        ],
        "metallicFactor": 0,
        "roughnessFactor": 0.5
      }
    },
    {
      "doubleSided": true,
      "name": "number",
      "pbrMetallicRoughness": {
        "baseColorFactor": [0, 0, 0, 1],
        "metallicFactor": 0,
        "roughnessFactor": 0.2206704020500183
      }
    }
  ],
  "meshes": [
    {
      "name": "\u5706\u73af",
      "primitives": [
        {
          "attributes": {
            "POSITION": 0,
            "NORMAL": 1,
            "TEXCOORD_0": 2
          },
          "indices": 3,
          "material": 0
        },
        {
          "attributes": {
            "POSITION": 4,
            "NORMAL": 5,
            "TEXCOORD_0": 6
          },
          "indices": 7,
          "material": 1
        },
        {
          "attributes": {
            "POSITION": 8,
            "NORMAL": 9,
            "TEXCOORD_0": 10
          },
          "indices": 11,
          "material": 2
        }
      ]
    },
    {
      "name": "Mesh.002",
      "primitives": [
        {
          "attributes": {
            "POSITION": 12,
            "NORMAL": 13,
            "TEXCOORD_0": 14
          },
          "indices": 15,
          "material": 3
        }
      ]
    }
  ],
  "accessors": [
    {
      "bufferView": 0,
      "componentType": 5126,
      "count": 714,
      "max": [1, 0.017470797523856163, 1],
      "min": [-1, 0, -1],
      "type": "VEC3"
    },
    {
      "bufferView": 1,
      "componentType": 5126,
      "count": 714,
      "type": "VEC3"
    },
    {
      "bufferView": 2,
      "componentType": 5126,
      "count": 714,
      "type": "VEC2"
    },
    {
      "bufferView": 3,
      "componentType": 5123,
      "count": 1170,
      "type": "SCALAR"
    },
    {
      "bufferView": 4,
      "componentType": 5126,
      "count": 555,
      "max": [0.9596205353736877, 0.017470797523856163, 0.9596205353736877],
      "min": [-0.9596205353736877, 0.017470793798565865, -0.9596205353736877],
      "type": "VEC3"
    },
    {
      "bufferView": 5,
      "componentType": 5126,
      "count": 555,
      "type": "VEC3"
    },
    {
      "bufferView": 6,
      "componentType": 5126,
      "count": 555,
      "type": "VEC2"
    },
    {
      "bufferView": 7,
      "componentType": 5123,
      "count": 984,
      "type": "SCALAR"
    },
    {
      "bufferView": 8,
      "componentType": 5126,
      "count": 80,
      "max": [1, 0, 1],
      "min": [-1, 0, -1],
      "type": "VEC3"
    },
    {
      "bufferView": 9,
      "componentType": 5126,
      "count": 80,
      "type": "VEC3"
    },
    {
      "bufferView": 10,
      "componentType": 5126,
      "count": 80,
      "type": "VEC2"
    },
    {
      "bufferView": 11,
      "componentType": 5123,
      "count": 234,
      "type": "SCALAR"
    },
    {
      "bufferView": 12,
      "componentType": 5126,
      "count": 73,
      "max": [0.0896964967250824, 0.22010523080825806, 0.1978934407234192],
      "min": [0.08012143522500992, -0.14828763902187347, -0.21499301493167877],
      "type": "VEC3"
    },
    {
      "bufferView": 13,
      "componentType": 5126,
      "count": 73,
      "type": "VEC3"
    },
    {
      "bufferView": 14,
      "componentType": 5126,
      "count": 73,
      "type": "VEC2"
    },
    {
      "bufferView": 15,
      "componentType": 5123,
      "count": 117,
      "type": "SCALAR"
    }
  ],
  "bufferViews": [
    {
      "buffer": 0,
      "byteLength": 8568,
      "byteOffset": 0
    },
    {
      "buffer": 0,
      "byteLength": 8568,
      "byteOffset": 8568
    },
    {
      "buffer": 0,
      "byteLength": 5712,
      "byteOffset": 17136
    },
    {
      "buffer": 0,
      "byteLength": 2340,
      "byteOffset": 22848
    },
    {
      "buffer": 0,
      "byteLength": 6660,
      "byteOffset": 25188
    },
    {
      "buffer": 0,
      "byteLength": 6660,
      "byteOffset": 31848
    },
    {
      "buffer": 0,
      "byteLength": 4440,
      "byteOffset": 38508
    },
    {
      "buffer": 0,
      "byteLength": 1968,
      "byteOffset": 42948
    },
    {
      "buffer": 0,
      "byteLength": 960,
      "byteOffset": 44916
    },
    {
      "buffer": 0,
      "byteLength": 960,
      "byteOffset": 45876
    },
    {
      "buffer": 0,
      "byteLength": 640,
      "byteOffset": 46836
    },
    {
      "buffer": 0,
      "byteLength": 468,
      "byteOffset": 47476
    },
    {
      "buffer": 0,
      "byteLength": 876,
      "byteOffset": 47944
    },
    {
      "buffer": 0,
      "byteLength": 876,
      "byteOffset": 48820
    },
    {
      "buffer": 0,
      "byteLength": 584,
      "byteOffset": 49696
    },
    {
      "buffer": 0,
      "byteLength": 234,
      "byteOffset": 50280
    }
  ],
  "buffers": [
    {
      "byteLength": 50516,
      "uri": "data:application/octet-stream;base64,"
    }
  ]
}
