{
  "asset": {
    "generator": "Khronos glTF Blender I/O v3.5.30",
    "version": "2.0"
  },
  "scene": 0,
  "scenes": [
    {
      "name": "Scene",
      "nodes": [1]
    }
  ],
  "nodes": [
    {
      "mesh": 0,
      "name": "\u6587\u672c.001",
      "rotation": [0, 0.9999462962150574, 0, 0.010362700559198856],
      "scale": [2, 1, 2],
      "translation": [
        -0.08338525891304016, 0.02191275730729103, 1.012808918952942
      ]
    },
    {
      "children": [0],
      "mesh": 1,
      "name": "\u5706\u73af",
      "rotation": [
        0.007327493745833635, 0.007327578030526638, -0.7070689797401428,
        0.7070687413215637
      ],
      "scale": [0.40000003576278687, 0.5151453614234924, 0.40000003576278687]
    }
  ],
  "materials": [
    {
      "doubleSided": true,
      "name": "number.001",
      "pbrMetallicRoughness": {
        "baseColorFactor": [0, 0, 0, 1],
        "metallicFactor": 0,
        "roughnessFactor": 0.2206704020500183
      }
    },
    {
      "doubleSided": true,
      "name": "\u6750\u8d28.004",
      "pbrMetallicRoughness": {
        "metallicFactor": 0,
        "roughnessFactor": 0.05797101929783821
      }
    },
    {
      "doubleSided": true,
      "name": "red_ring.001",
      "pbrMetallicRoughness": {
        "baseColorFactor": [0, 0, 0, 1],
        "metallicFactor": 0,
        "roughnessFactor": 0.14245811104774475
      }
    },
    {
      "doubleSided": true,
      "name": "the_back",
      "pbrMetallicRoughness": {
        "baseColorFactor": [
          0.11069011688232422, 0.11069011688232422, 0.11069011688232422, 1
        ],
        "metallicFactor": 0,
        "roughnessFactor": 0.5
      }
    }
  ],
  "meshes": [
    {
      "name": "\u6587\u672c.001",
      "primitives": [
        {
          "attributes": {
            "POSITION": 0,
            "TEXCOORD_0": 1,
            "NORMAL": 2
          },
          "indices": 3,
          "material": 0
        }
      ]
    },
    {
      "name": "\u5706\u73af",
      "primitives": [
        {
          "attributes": {
            "POSITION": 4,
            "TEXCOORD_0": 5,
            "NORMAL": 6
          },
          "indices": 7,
          "material": 1
        },
        {
          "attributes": {
            "POSITION": 8,
            "TEXCOORD_0": 9,
            "NORMAL": 10
          },
          "indices": 11,
          "material": 2
        },
        {
          "attributes": {
            "POSITION": 12,
            "TEXCOORD_0": 13,
            "NORMAL": 14
          },
          "indices": 15,
          "material": 3
        }
      ]
    }
  ],
  "accessors": [
    {
      "bufferView": 0,
      "componentType": 5126,
      "count": 184,
      "max": [0.2403559684753418, 0, 0.2745862603187561],
      "min": [-0.33491674065589905, 0, -0.236322820186615],
      "type": "VEC3"
    },
    {
      "bufferView": 1,
      "componentType": 5126,
      "count": 184,
      "type": "VEC2"
    },
    {
      "bufferView": 2,
      "componentType": 5126,
      "count": 184,
      "type": "VEC3"
    },
    {
      "bufferView": 3,
      "componentType": 5123,
      "count": 540,
      "type": "SCALAR"
    },
    {
      "bufferView": 4,
      "componentType": 5126,
      "count": 252,
      "max": [0.9642855525016785, 0.0174707043915987, 1.9847948551177979],
      "min": [-1.0057339668273926, 0.017470698803663254, 0.014775335788726807],
      "type": "VEC3"
    },
    {
      "bufferView": 5,
      "componentType": 5126,
      "count": 252,
      "type": "VEC2"
    },
    {
      "bufferView": 6,
      "componentType": 5126,
      "count": 252,
      "type": "VEC3"
    },
    {
      "bufferView": 7,
      "componentType": 5123,
      "count": 720,
      "type": "SCALAR"
    },
    {
      "bufferView": 8,
      "componentType": 5126,
      "count": 732,
      "max": [0.9792757630348206, 0.0174707043915987, 1.9997851848602295],
      "min": [
        -1.0207241773605347, -9.507575526868095e-8, -0.0002148747444152832
      ],
      "type": "VEC3"
    },
    {
      "bufferView": 9,
      "componentType": 5126,
      "count": 732,
      "type": "VEC2"
    },
    {
      "bufferView": 10,
      "componentType": 5126,
      "count": 732,
      "type": "VEC3"
    },
    {
      "bufferView": 11,
      "componentType": 5123,
      "count": 1986,
      "type": "SCALAR"
    },
    {
      "bufferView": 12,
      "componentType": 5126,
      "count": 80,
      "max": [0.9792757630348206, -9.507575526868095e-8, 1.9997851848602295],
      "min": [
        -1.0207241773605347, -9.507575526868095e-8, -0.0002148747444152832
      ],
      "type": "VEC3"
    },
    {
      "bufferView": 13,
      "componentType": 5126,
      "count": 80,
      "type": "VEC2"
    },
    {
      "bufferView": 14,
      "componentType": 5126,
      "count": 80,
      "type": "VEC3"
    },
    {
      "bufferView": 15,
      "componentType": 5123,
      "count": 234,
      "type": "SCALAR"
    }
  ],
  "bufferViews": [
    {
      "buffer": 0,
      "byteLength": 2208,
      "byteOffset": 0,
      "target": 34962
    },
    {
      "buffer": 0,
      "byteLength": 1472,
      "byteOffset": 2208,
      "target": 34962
    },
    {
      "buffer": 0,
      "byteLength": 2208,
      "byteOffset": 3680,
      "target": 34962
    },
    {
      "buffer": 0,
      "byteLength": 1080,
      "byteOffset": 5888,
      "target": 34963
    },
    {
      "buffer": 0,
      "byteLength": 3024,
      "byteOffset": 6968,
      "target": 34962
    },
    {
      "buffer": 0,
      "byteLength": 2016,
      "byteOffset": 9992,
      "target": 34962
    },
    {
      "buffer": 0,
      "byteLength": 3024,
      "byteOffset": 12008,
      "target": 34962
    },
    {
      "buffer": 0,
      "byteLength": 1440,
      "byteOffset": 15032,
      "target": 34963
    },
    {
      "buffer": 0,
      "byteLength": 8784,
      "byteOffset": 16472,
      "target": 34962
    },
    {
      "buffer": 0,
      "byteLength": 5856,
      "byteOffset": 25256,
      "target": 34962
    },
    {
      "buffer": 0,
      "byteLength": 8784,
      "byteOffset": 31112,
      "target": 34962
    },
    {
      "buffer": 0,
      "byteLength": 3972,
      "byteOffset": 39896,
      "target": 34963
    },
    {
      "buffer": 0,
      "byteLength": 960,
      "byteOffset": 43868,
      "target": 34962
    },
    {
      "buffer": 0,
      "byteLength": 640,
      "byteOffset": 44828,
      "target": 34962
    },
    {
      "buffer": 0,
      "byteLength": 960,
      "byteOffset": 45468,
      "target": 34962
    },
    {
      "buffer": 0,
      "byteLength": 468,
      "byteOffset": 46428,
      "target": 34963
    }
  ],
  "buffers": [
    {
      "byteLength": 46896,
      "uri": "data:application/octet-stream;base64,"
    }
  ]
}
