{
  "nodes": [
    {
      "name": "解除限速30",
      "translation": [
        -2.3756058092261519e-17, 2.3756058092261519e-17, 0.3879658877849579
      ],
      "rotation": [0.5, 0.5, 0.5, 0.5],
      "scale": [1.0, 1.0, 1.0],
      "children": [1, 2]
    },
    {
      "name": "Default",
      "translation": [
        -25.49074935913086, -3.599393844604492, -18.13758659362793
      ],
      "rotation": [0.0, 0.0, 0.0, -1.0],
      "scale": [1.0, 1.0, 1.0],
      "mesh": 0
    },
    {
      "name": "Default_1",
      "translation": [
        -25.49074935913086, -3.599393844604492, -18.13758659362793
      ],
      "rotation": [0.0, 0.0, 0.0, -1.0],
      "scale": [1.0, 1.0, 1.0],
      "mesh": 1
    }
  ],
  "asset": {
    "version": "2.0",
    "generator": "Created using the official Cinema 4D glTF Exporter 1.000x284978"
  },
  "scenes": [
    {
      "nodes": [0]
    }
  ],
  "meshes": [
    {
      "primitives": [
        {
          "attributes": {
            "POSITION": 1,
            "NORMAL": 2,
            "TEXCOORD_0": 3
          },
          "indices": 0,
          "material": 0
        }
      ],
      "name": "Default"
    },
    {
      "primitives": [
        {
          "attributes": {
            "POSITION": 5,
            "NORMAL": 6,
            "TEXCOORD_0": 7
          },
          "indices": 4,
          "material": 1
        }
      ],
      "name": "Default_1"
    }
  ],
  "materials": [
    {
      "pbrMetallicRoughness": {
        "baseColorFactor": [0.0, 0.0, 0.0, 1.0],
        "metallicFactor": 0.0,
        "roughnessFactor": 0.5
      },
      "emissiveFactor": [0.0, 0.0, 0.0],
      "alphaMode": "OPAQUE",
      "doubleSided": false,
      "name": "Default"
    },
    {
      "pbrMetallicRoughness": {
        "baseColorFactor": [1.0, 1.0, 1.0, 1.0],
        "metallicFactor": 0.0,
        "roughnessFactor": 0.5
      },
      "emissiveFactor": [0.0, 0.0, 0.0],
      "alphaMode": "OPAQUE",
      "doubleSided": false,
      "name": "Default_1"
    }
  ],
  "accessors": [
    {
      "min": [0],
      "bufferView": 0,
      "type": "SCALAR",
      "componentType": 5123,
      "count": 6252,
      "max": [2081],
      "byteOffset": 0
    },
    {
      "min": [25.10921859741211, 3.2140591144561769, 18.118640899658204],
      "bufferView": 1,
      "type": "VEC3",
      "componentType": 5126,
      "count": 2082,
      "max": [25.878332138061525, 3.9831719398498537, 18.146408081054689],
      "byteOffset": 0
    },
    {
      "min": [-1.0, -1.0, -1.0],
      "bufferView": 1,
      "type": "VEC3",
      "componentType": 5126,
      "count": 2082,
      "max": [1.0, 1.0, 1.0],
      "byteOffset": 12
    },
    {
      "min": [0.0, 0.0],
      "bufferView": 1,
      "type": "VEC2",
      "componentType": 5126,
      "count": 2082,
      "max": [1.0, 1.0],
      "byteOffset": 24
    },
    {
      "min": [0],
      "bufferView": 2,
      "type": "SCALAR",
      "componentType": 5123,
      "count": 3060,
      "max": [1029],
      "byteOffset": 0
    },
    {
      "min": [25.118274688720704, 3.223115921020508, 18.131134033203126],
      "bufferView": 3,
      "type": "VEC3",
      "componentType": 5126,
      "count": 1030,
      "max": [25.869272232055665, 3.9741148948669435, 18.141708374023439],
      "byteOffset": 0
    },
    {
      "min": [-1.0, -1.0, -1.0],
      "bufferView": 3,
      "type": "VEC3",
      "componentType": 5126,
      "count": 1030,
      "max": [1.0, 1.0, 1.0],
      "byteOffset": 12
    },
    {
      "min": [0.0, 0.0014649999793618918],
      "bufferView": 3,
      "type": "VEC2",
      "componentType": 5126,
      "count": 1030,
      "max": [0.9672099351882935, 1.0],
      "byteOffset": 24
    }
  ],
  "bufferViews": [
    {
      "buffer": 0,
      "byteOffset": 0,
      "byteLength": 12504,
      "target": 34963
    },
    {
      "buffer": 0,
      "byteOffset": 12504,
      "byteLength": 66624,
      "target": 34962,
      "byteStride": 32
    },
    {
      "buffer": 1,
      "byteOffset": 0,
      "byteLength": 6120,
      "target": 34963
    },
    {
      "buffer": 1,
      "byteOffset": 6120,
      "byteLength": 32960,
      "target": 34962,
      "byteStride": 32
    }
  ],
  "buffers": [
    {
      "uri": "data:application/octet-stream;base64,",
      "byteLength": 79128
    },
    {
      "uri": "data:application/octet-stream;base64,",
      "byteLength": 39080
    }
  ]
}
