{
  "asset": {
    "generator": "Khronos glTF Blender I/O v3.2.43",
    "version": "2.0"
  },
  "scene": 0,
  "scenes": [
    {
      "name": "Scene",
      "nodes": [4]
    }
  ],
  "nodes": [
    {
      "mesh": 0,
      "name": "BezierCurve.001",
      "rotation": [
        -0.4972970187664032, -0.4972969889640808, 0.502688467502594,
        0.5026885867118835
      ],
      "scale": [0.13694855570793152, 1.2656008005142212, 1.2656008005142212],
      "translation": [
        -0.3516496419906616, 0.03360997140407562, 0.27817150950431824
      ]
    },
    {
      "mesh": 1,
      "name": "\u5e73\u9762.001",
      "translation": [
        0.18104583024978638, -0.002503245137631893, -0.007472387980669737
      ]
    },
    {
      "mesh": 2,
      "name": "\u5e73\u9762.002",
      "rotation": [
        -0.0038123936392366886, 0.0038125007413327694, -0.707096517086029,
        0.707096517086029
      ],
      "scale": [-1.0023373365402222, -0.2060612142086029, -1.7250332832336426],
      "translation": [
        0.773630678653717, 0.033871687948703766, -0.17284056544303894
      ]
    },
    {
      "mesh": 3,
      "name": "\u5e73\u9762.003",
      "translation": [
        0.18104581534862518, -0.0033218595199286938, 0.23775149881839752
      ]
    },
    {
      "children": [0, 1, 2, 3],
      "mesh": 4,
      "name": "\u5e73\u9762",
      "rotation": [0.5, 0.5, -0.5, 0.5000000596046448],
      "translation": [0, 0, 1]
    }
  ],
  "materials": [
    {
      "doubleSided": true,
      "name": "\u6750\u8d28.004",
      "pbrMetallicRoughness": {
        "metallicFactor": 0,
        "roughnessFactor": 0.05797101929783821
      }
    },
    {
      "doubleSided": true,
      "name": "\u6750\u8d28.003",
      "pbrMetallicRoughness": {
        "baseColorFactor": [0, 0.1103806346654892, 1, 1],
        "metallicFactor": 0,
        "roughnessFactor": 0.5
      }
    }
  ],
  "meshes": [
    {
      "name": "Mesh.004",
      "primitives": [
        {
          "attributes": {
            "POSITION": 0,
            "NORMAL": 1
          },
          "indices": 2,
          "material": 0
        }
      ]
    },
    {
      "name": "\u5e73\u9762.026",
      "primitives": [
        {
          "attributes": {
            "POSITION": 3,
            "NORMAL": 4,
            "TEXCOORD_0": 5
          },
          "indices": 6,
          "material": 1
        }
      ]
    },
    {
      "name": "\u5e73\u9762.009",
      "primitives": [
        {
          "attributes": {
            "POSITION": 7,
            "NORMAL": 8,
            "TEXCOORD_0": 9
          },
          "indices": 10,
          "material": 0
        }
      ]
    },
    {
      "name": "\u5e73\u9762.012",
      "primitives": [
        {
          "attributes": {
            "POSITION": 11,
            "NORMAL": 12,
            "TEXCOORD_0": 13
          },
          "indices": 14,
          "material": 0
        }
      ]
    },
    {
      "name": "\u5e73\u9762.010",
      "primitives": [
        {
          "attributes": {
            "POSITION": 15,
            "NORMAL": 16,
            "TEXCOORD_0": 17
          },
          "indices": 18,
          "material": 1
        }
      ]
    }
  ],
  "accessors": [
    {
      "bufferView": 0,
      "componentType": 5126,
      "count": 54,
      "max": [0.011922340840101242, 0.008588800206780434, 0.33169233798980713],
      "min": [0.004620268940925598, -0.1987469494342804, -0.8827023506164551],
      "type": "VEC3"
    },
    {
      "bufferView": 1,
      "componentType": 5126,
      "count": 54,
      "type": "VEC3"
    },
    {
      "bufferView": 2,
      "componentType": 5123,
      "count": 96,
      "type": "SCALAR"
    },
    {
      "bufferView": 3,
      "componentType": 5126,
      "count": 252,
      "max": [0.6945944428443909, 0.007000020705163479, 0.6850690841674805],
      "min": [-1.0629392862319946, 0.006000007037073374, -0.6766366958618164],
      "type": "VEC3"
    },
    {
      "bufferView": 4,
      "componentType": 5126,
      "count": 252,
      "type": "VEC3"
    },
    {
      "bufferView": 5,
      "componentType": 5126,
      "count": 252,
      "type": "VEC2"
    },
    {
      "bufferView": 6,
      "componentType": 5123,
      "count": 492,
      "type": "SCALAR"
    },
    {
      "bufferView": 7,
      "componentType": 5126,
      "count": 258,
      "max": [0.0013677533715963364, 7.50129508972168, 0.14466282725334167],
      "min": [
        -1.0244548320770264e-8, -0.13250572979450226, -0.17752999067306519
      ],
      "type": "VEC3"
    },
    {
      "bufferView": 8,
      "componentType": 5126,
      "count": 258,
      "type": "VEC3"
    },
    {
      "bufferView": 9,
      "componentType": 5126,
      "count": 258,
      "type": "VEC2"
    },
    {
      "bufferView": 10,
      "componentType": 5123,
      "count": 468,
      "type": "SCALAR"
    },
    {
      "bufferView": 11,
      "componentType": 5126,
      "count": 192,
      "max": [0.741814374923706, 0.006000016815960407, 0.49124687910079956],
      "min": [-1.1039060354232788, 0.005000010132789612, -0.9667501449584961],
      "type": "VEC3"
    },
    {
      "bufferView": 12,
      "componentType": 5126,
      "count": 192,
      "type": "VEC3"
    },
    {
      "bufferView": 13,
      "componentType": 5126,
      "count": 192,
      "type": "VEC2"
    },
    {
      "bufferView": 14,
      "componentType": 5123,
      "count": 372,
      "type": "SCALAR"
    },
    {
      "bufferView": 15,
      "componentType": 5126,
      "count": 314,
      "max": [0.9561100006103516, 0.001666670199483633, 0.7622483968734741],
      "min": [-0.9561101198196411, -0.0033333362080156803, -0.7622483372688293],
      "type": "VEC3"
    },
    {
      "bufferView": 16,
      "componentType": 5126,
      "count": 314,
      "type": "VEC3"
    },
    {
      "bufferView": 17,
      "componentType": 5126,
      "count": 314,
      "type": "VEC2"
    },
    {
      "bufferView": 18,
      "componentType": 5123,
      "count": 564,
      "type": "SCALAR"
    }
  ],
  "bufferViews": [
    {
      "buffer": 0,
      "byteLength": 648,
      "byteOffset": 0
    },
    {
      "buffer": 0,
      "byteLength": 648,
      "byteOffset": 648
    },
    {
      "buffer": 0,
      "byteLength": 192,
      "byteOffset": 1296
    },
    {
      "buffer": 0,
      "byteLength": 3024,
      "byteOffset": 1488
    },
    {
      "buffer": 0,
      "byteLength": 3024,
      "byteOffset": 4512
    },
    {
      "buffer": 0,
      "byteLength": 2016,
      "byteOffset": 7536
    },
    {
      "buffer": 0,
      "byteLength": 984,
      "byteOffset": 9552
    },
    {
      "buffer": 0,
      "byteLength": 3096,
      "byteOffset": 10536
    },
    {
      "buffer": 0,
      "byteLength": 3096,
      "byteOffset": 13632
    },
    {
      "buffer": 0,
      "byteLength": 2064,
      "byteOffset": 16728
    },
    {
      "buffer": 0,
      "byteLength": 936,
      "byteOffset": 18792
    },
    {
      "buffer": 0,
      "byteLength": 2304,
      "byteOffset": 19728
    },
    {
      "buffer": 0,
      "byteLength": 2304,
      "byteOffset": 22032
    },
    {
      "buffer": 0,
      "byteLength": 1536,
      "byteOffset": 24336
    },
    {
      "buffer": 0,
      "byteLength": 744,
      "byteOffset": 25872
    },
    {
      "buffer": 0,
      "byteLength": 3768,
      "byteOffset": 26616
    },
    {
      "buffer": 0,
      "byteLength": 3768,
      "byteOffset": 30384
    },
    {
      "buffer": 0,
      "byteLength": 2512,
      "byteOffset": 34152
    },
    {
      "buffer": 0,
      "byteLength": 1128,
      "byteOffset": 36664
    }
  ],
  "buffers": [
    {
      "byteLength": 37792,
      "uri": "data:application/octet-stream;base64,"
    }
  ]
}
