{
  "asset": {
    "generator": "Khronos glTF Blender I/O v3.2.43",
    "version": "2.0"
  },
  "scene": 0,
  "scenes": [
    {
      "name": "未知",
      "nodes": [0]
    }
  ],
  "nodes": [
    {
      "mesh": 0,
      "name": "\u6587\u672c",
      "rotation": [
        0.5000468492507935, -0.49995318055152893, 0.4999532103538513,
        0.5000467896461487
      ],
      "scale": [0.47618985176086426, 0.47618985176086426, 0.43193525075912476],
      "translation": [
        0.004384160041809082, -0.04209062457084656, -0.001315717468969524
      ]
    }
  ],
  "meshes": [
    {
      "name": "\u6587\u672c",
      "primitives": [
        {
          "attributes": {
            "POSITION": 0,
            "NORMAL": 1,
            "TEXCOORD_0": 2
          },
          "indices": 3
        }
      ]
    }
  ],
  "accessors": [
    {
      "bufferView": 0,
      "componentType": 5126,
      "count": 924,
      "max": [0.14538393914699554, 0.01668747141957283, 0.3097497820854187],
      "min": [-0.14538396894931793, 0, -0.3097497820854187],
      "type": "VEC3"
    },
    {
      "bufferView": 1,
      "componentType": 5126,
      "count": 924,
      "type": "VEC3"
    },
    {
      "bufferView": 2,
      "componentType": 5126,
      "count": 924,
      "type": "VEC2"
    },
    {
      "bufferView": 3,
      "componentType": 5123,
      "count": 1824,
      "type": "SCALAR"
    }
  ],
  "bufferViews": [
    {
      "buffer": 0,
      "byteLength": 11088,
      "byteOffset": 0
    },
    {
      "buffer": 0,
      "byteLength": 11088,
      "byteOffset": 11088
    },
    {
      "buffer": 0,
      "byteLength": 7392,
      "byteOffset": 22176
    },
    {
      "buffer": 0,
      "byteLength": 3648,
      "byteOffset": 29568
    }
  ],
  "buffers": [
    {
      "byteLength": 33216,
      "uri": "data:application/octet-stream;base64,"
    }
  ]
}
