{
  "asset": {
    "generator": "Khronos glTF Blender I/O v3.2.43",
    "version": "2.0"
  },
  "scene": 0,
  "scenes": [
    {
      "name": "Scene",
      "nodes": [2, 3]
    }
  ],
  "nodes": [
    {
      "mesh": 0,
      "name": "\u6587\u672c",
      "rotation": [0, 0, -1, 5.824189651474623e-15],
      "scale": [-1.9999998807907104, -1, -1.9999998807907104],
      "translation": [0, 0.021912815049290657, 0]
    },
    {
      "mesh": 1,
      "name": "\u6587\u672c.003",
      "rotation": [0, 0, -1, 5.824189651474623e-15],
      "scale": [-1.9999998807907104, -1, -1.9999998807907104],
      "translation": [0, 0.02191277965903282, 0]
    },
    {
      "children": [0, 1],
      "mesh": 2,
      "name": "\u5706\u73af",
      "rotation": [
        -0.70710688829422, 0.7071066498756409, 0, 1.5454311608209537e-8
      ],
      "scale": [-0.4000000059604645, -0.5151453614234924, -0.4000000059604645],
      "translation": [0, 0, 0.3999999761581421]
    },
    {
      "mesh": 3,
      "name": "\u5706\u73af.002",
      "rotation": [
        0.4999999403953552, 0.5000001192092896, -0.5000001192092896,
        0.49999985098838806
      ],
      "scale": [0.3219272792339325, 0.4145983159542084, 0.3219272792339325],
      "translation": [0, 0, 0.3999999761581421]
    }
  ],
  "materials": [
    {
      "doubleSided": true,
      "name": "number",
      "pbrMetallicRoughness": {
        "baseColorFactor": [0, 0, 0, 1],
        "metallicFactor": 0,
        "roughnessFactor": 0.2206704020500183
      }
    },
    {
      "doubleSided": true,
      "name": "red_ring",
      "pbrMetallicRoughness": {
        "baseColorFactor": [1, 0.004534851294010878, 0, 1],
        "metallicFactor": 0,
        "roughnessFactor": 0.14245811104774475
      }
    },
    {
      "doubleSided": true,
      "name": "base_of_color",
      "pbrMetallicRoughness": {
        "metallicFactor": 0,
        "roughnessFactor": 0.5
      }
    },
    {
      "doubleSided": true,
      "name": "the_back",
      "pbrMetallicRoughness": {
        "baseColorFactor": [
          0.11069011688232422, 0.11069011688232422, 0.11069011688232422, 1
        ],
        "metallicFactor": 0,
        "roughnessFactor": 0.5
      }
    }
  ],
  "meshes": [
    {
      "name": "\u6587\u672c",
      "primitives": [
        {
          "attributes": {
            "POSITION": 0,
            "NORMAL": 1,
            "TEXCOORD_0": 2
          },
          "indices": 3,
          "material": 0
        }
      ]
    },
    {
      "name": "\u6587\u672c.003",
      "primitives": [
        {
          "attributes": {
            "POSITION": 4,
            "NORMAL": 5,
            "TEXCOORD_0": 6
          },
          "indices": 7,
          "material": 0
        }
      ]
    },
    {
      "name": "\u5706\u73af",
      "primitives": [
        {
          "attributes": {
            "POSITION": 8,
            "NORMAL": 9,
            "TEXCOORD_0": 10
          },
          "indices": 11,
          "material": 1
        },
        {
          "attributes": {
            "POSITION": 12,
            "NORMAL": 13,
            "TEXCOORD_0": 14
          },
          "indices": 15,
          "material": 2
        },
        {
          "attributes": {
            "POSITION": 16,
            "NORMAL": 17,
            "TEXCOORD_0": 18
          },
          "indices": 19,
          "material": 3
        }
      ]
    },
    {
      "name": "\u5706\u73af.001",
      "primitives": [
        {
          "attributes": {
            "POSITION": 20,
            "NORMAL": 21,
            "TEXCOORD_0": 22
          },
          "indices": 23,
          "material": 0
        }
      ]
    }
  ],
  "accessors": [
    {
      "bufferView": 0,
      "componentType": 5126,
      "count": 294,
      "max": [0.010109667666256428, 0, 0.23129285871982574],
      "min": [-0.19274750351905823, 0, -0.18470719456672668],
      "type": "VEC3"
    },
    {
      "bufferView": 1,
      "componentType": 5126,
      "count": 294,
      "type": "VEC3"
    },
    {
      "bufferView": 2,
      "componentType": 5126,
      "count": 294,
      "type": "VEC2"
    },
    {
      "bufferView": 3,
      "componentType": 5123,
      "count": 681,
      "type": "SCALAR"
    },
    {
      "bufferView": 4,
      "componentType": 5126,
      "count": 166,
      "max": [0.21563750505447388, 0, 0.22227638959884644],
      "min": [0.06236021965742111, 0, 0.07545289397239685],
      "type": "VEC3"
    },
    {
      "bufferView": 5,
      "componentType": 5126,
      "count": 166,
      "type": "VEC3"
    },
    {
      "bufferView": 6,
      "componentType": 5126,
      "count": 166,
      "type": "VEC2"
    },
    {
      "bufferView": 7,
      "componentType": 5123,
      "count": 357,
      "type": "SCALAR"
    },
    {
      "bufferView": 8,
      "componentType": 5126,
      "count": 614,
      "max": [1, 0.017470795661211014, 1],
      "min": [-1, 0, -1],
      "type": "VEC3"
    },
    {
      "bufferView": 9,
      "componentType": 5126,
      "count": 614,
      "type": "VEC3"
    },
    {
      "bufferView": 10,
      "componentType": 5126,
      "count": 614,
      "type": "VEC2"
    },
    {
      "bufferView": 11,
      "componentType": 5123,
      "count": 960,
      "type": "SCALAR"
    },
    {
      "bufferView": 12,
      "componentType": 5126,
      "count": 80,
      "max": [0.8039376735687256, 0.017470795661211014, 0.8039376735687256],
      "min": [-0.8039376735687256, 0.017470795661211014, -0.8039376735687256],
      "type": "VEC3"
    },
    {
      "bufferView": 13,
      "componentType": 5126,
      "count": 80,
      "type": "VEC3"
    },
    {
      "bufferView": 14,
      "componentType": 5126,
      "count": 80,
      "type": "VEC2"
    },
    {
      "bufferView": 15,
      "componentType": 5123,
      "count": 234,
      "type": "SCALAR"
    },
    {
      "bufferView": 16,
      "componentType": 5126,
      "count": 80,
      "max": [1, 0, 1],
      "min": [-1, 0, -1],
      "type": "VEC3"
    },
    {
      "bufferView": 17,
      "componentType": 5126,
      "count": 80,
      "type": "VEC3"
    },
    {
      "bufferView": 18,
      "componentType": 5126,
      "count": 80,
      "type": "VEC2"
    },
    {
      "bufferView": 19,
      "componentType": 5123,
      "count": 234,
      "type": "SCALAR"
    },
    {
      "bufferView": 20,
      "componentType": 5126,
      "count": 216,
      "max": [0.5563899278640747, 0.023360321298241615, 1.0007045269012451],
      "min": [-0.5577739477157593, 0.020947560667991638, -0.9973406195640564],
      "type": "VEC3"
    },
    {
      "bufferView": 21,
      "componentType": 5126,
      "count": 216,
      "type": "VEC3"
    },
    {
      "bufferView": 22,
      "componentType": 5126,
      "count": 216,
      "type": "VEC2"
    },
    {
      "bufferView": 23,
      "componentType": 5123,
      "count": 408,
      "type": "SCALAR"
    }
  ],
  "bufferViews": [
    {
      "buffer": 0,
      "byteLength": 3528,
      "byteOffset": 0
    },
    {
      "buffer": 0,
      "byteLength": 3528,
      "byteOffset": 3528
    },
    {
      "buffer": 0,
      "byteLength": 2352,
      "byteOffset": 7056
    },
    {
      "buffer": 0,
      "byteLength": 1362,
      "byteOffset": 9408
    },
    {
      "buffer": 0,
      "byteLength": 1992,
      "byteOffset": 10772
    },
    {
      "buffer": 0,
      "byteLength": 1992,
      "byteOffset": 12764
    },
    {
      "buffer": 0,
      "byteLength": 1328,
      "byteOffset": 14756
    },
    {
      "buffer": 0,
      "byteLength": 714,
      "byteOffset": 16084
    },
    {
      "buffer": 0,
      "byteLength": 7368,
      "byteOffset": 16800
    },
    {
      "buffer": 0,
      "byteLength": 7368,
      "byteOffset": 24168
    },
    {
      "buffer": 0,
      "byteLength": 4912,
      "byteOffset": 31536
    },
    {
      "buffer": 0,
      "byteLength": 1920,
      "byteOffset": 36448
    },
    {
      "buffer": 0,
      "byteLength": 960,
      "byteOffset": 38368
    },
    {
      "buffer": 0,
      "byteLength": 960,
      "byteOffset": 39328
    },
    {
      "buffer": 0,
      "byteLength": 640,
      "byteOffset": 40288
    },
    {
      "buffer": 0,
      "byteLength": 468,
      "byteOffset": 40928
    },
    {
      "buffer": 0,
      "byteLength": 960,
      "byteOffset": 41396
    },
    {
      "buffer": 0,
      "byteLength": 960,
      "byteOffset": 42356
    },
    {
      "buffer": 0,
      "byteLength": 640,
      "byteOffset": 43316
    },
    {
      "buffer": 0,
      "byteLength": 468,
      "byteOffset": 43956
    },
    {
      "buffer": 0,
      "byteLength": 2592,
      "byteOffset": 44424
    },
    {
      "buffer": 0,
      "byteLength": 2592,
      "byteOffset": 47016
    },
    {
      "buffer": 0,
      "byteLength": 1728,
      "byteOffset": 49608
    },
    {
      "buffer": 0,
      "byteLength": 816,
      "byteOffset": 51336
    }
  ],
  "buffers": [
    {
      "byteLength": 52152,
      "uri": "data:application/octet-stream;base64,"
    }
  ]
}
