{
  "asset": {
    "generator": "Created using the official Cinema 4D glTF Exporter 1.000x284978",
    "version": "2.0"
  },
  "scenes": [
    {
      "nodes": [0]
    }
  ],
  "nodes": [
    {
      "name": "限速30",
      "translation": [
        -2.5272723523879548e-17, 2.5272723523879548e-17, 0.41273489594459536
      ],
      "rotation": [0.5, 0.5, 0.5, 0.5],
      "scale": [1.0, 1.0, 1.0],
      "children": [1, 2, 3]
    },
    {
      "name": "Default",
      "translation": [
        -0.6217811107635498, -0.3883049190044403, -18.36438751220703
      ],
      "rotation": [0.0, 0.0, 0.0, -1.0],
      "scale": [1.0, 1.0, 1.0],
      "mesh": 0
    },
    {
      "name": "Default_1",
      "translation": [
        -0.6217811107635498, -0.3883049190044403, -18.36438751220703
      ],
      "rotation": [0.0, 0.0, 0.0, -1.0],
      "scale": [1.0, 1.0, 1.0],
      "mesh": 1
    },
    {
      "name": "Default_2",
      "translation": [
        -0.6217811107635498, -0.3883049190044403, -18.36438751220703
      ],
      "rotation": [0.0, 0.0, 0.0, -1.0],
      "scale": [1.0, 1.0, 1.0],
      "mesh": 2
    }
  ],
  "meshes": [
    {
      "name": "Default",
      "primitives": [
        {
          "attributes": {
            "POSITION": 1,
            "NORMAL": 2,
            "TEXCOORD_0": 3
          },
          "indices": 0,
          "material": 0
        }
      ]
    },
    {
      "name": "Default_1",
      "primitives": [
        {
          "attributes": {
            "POSITION": 5,
            "NORMAL": 6,
            "TEXCOORD_0": 7
          },
          "indices": 4,
          "material": 1
        }
      ]
    },
    {
      "name": "Default_2",
      "primitives": [
        {
          "attributes": {
            "POSITION": 9,
            "NORMAL": 10,
            "TEXCOORD_0": 11
          },
          "indices": 8,
          "material": 2
        }
      ]
    }
  ],
  "materials": [
    {
      "pbrMetallicRoughness": {
        "baseColorFactor": [1.0, 0.0, 0.0, 1.0],
        "metallicFactor": 0.0,
        "roughnessFactor": 0.5
      },
      "emissiveFactor": [0.0, 0.0, 0.0],
      "alphaMode": "OPAQUE",
      "doubleSided": false,
      "name": "Default"
    },
    {
      "pbrMetallicRoughness": {
        "baseColorFactor": [1.0, 1.0, 1.0, 1.0],
        "metallicFactor": 0.0,
        "roughnessFactor": 0.5
      },
      "emissiveFactor": [0.0, 0.0, 0.0],
      "alphaMode": "OPAQUE",
      "doubleSided": false,
      "name": "Default_1"
    },
    {
      "pbrMetallicRoughness": {
        "baseColorFactor": [0.0, 0.0, 0.0, 1.0],
        "metallicFactor": 0.0,
        "roughnessFactor": 0.5
      },
      "emissiveFactor": [0.0, 0.0, 0.0],
      "alphaMode": "OPAQUE",
      "doubleSided": false,
      "name": "Default_2"
    }
  ],
  "accessors": [
    {
      "bufferView": 0,
      "componentType": 5123,
      "type": "SCALAR",
      "count": 756,
      "byteOffset": 0,
      "min": [0],
      "max": [257]
    },
    {
      "bufferView": 1,
      "componentType": 5126,
      "type": "VEC3",
      "count": 258,
      "byteOffset": 0,
      "min": [0.2404319941997528, 0.000526999996509403, 18.346315383911134],
      "max": [1.0141609907150269, 0.7742559909820557, 18.368227005004884]
    },
    {
      "bufferView": 1,
      "componentType": 5126,
      "type": "VEC3",
      "count": 258,
      "byteOffset": 12,
      "min": [-1.0, -1.0, -1.0],
      "max": [1.0, 1.0, 1.0]
    },
    {
      "bufferView": 1,
      "componentType": 5126,
      "type": "VEC2",
      "count": 258,
      "byteOffset": 24,
      "min": [0.003169999923557043, 0.0014649999793618918],
      "max": [0.6539980173110962, 1.0]
    },
    {
      "bufferView": 2,
      "componentType": 5123,
      "type": "SCALAR",
      "count": 756,
      "byteOffset": 0,
      "min": [0],
      "max": [257]
    },
    {
      "bufferView": 3,
      "componentType": 5126,
      "type": "VEC3",
      "count": 258,
      "byteOffset": 0,
      "min": [0.3110939860343933, 0.0711899995803833, 18.36099624633789],
      "max": [0.9434980154037476, 0.7035930156707764, 18.368799209594728]
    },
    {
      "bufferView": 3,
      "componentType": 5126,
      "type": "VEC3",
      "count": 258,
      "byteOffset": 12,
      "min": [-1.0, -1.0, -1.0],
      "max": [1.0, 1.0, 1.0]
    },
    {
      "bufferView": 3,
      "componentType": 5126,
      "type": "VEC2",
      "count": 258,
      "byteOffset": 24,
      "min": [0.0, 0.0014649999793618918],
      "max": [0.6393409967422485, 1.0]
    },
    {
      "bufferView": 4,
      "componentType": 5123,
      "type": "SCALAR",
      "count": 4056,
      "byteOffset": 0,
      "min": [0],
      "max": [1373]
    },
    {
      "bufferView": 5,
      "componentType": 5126,
      "type": "VEC3",
      "count": 1374,
      "byteOffset": 0,
      "min": [0.40178999304771426, 0.22596600651741029, 18.360076904296876],
      "max": [0.8530259728431702, 0.548770010471344, 18.371179580688478]
    },
    {
      "bufferView": 5,
      "componentType": 5126,
      "type": "VEC3",
      "count": 1374,
      "byteOffset": 12,
      "min": [-1.0, -1.0, -1.0],
      "max": [1.0, 1.0, 1.0]
    },
    {
      "bufferView": 5,
      "componentType": 5126,
      "type": "VEC2",
      "count": 1374,
      "byteOffset": 24,
      "min": [0.0, 0.0],
      "max": [1.0, 1.0]
    }
  ],
  "bufferViews": [
    {
      "buffer": 0,
      "byteOffset": 0,
      "byteLength": 1512,
      "target": 34963
    },
    {
      "buffer": 0,
      "byteOffset": 1512,
      "byteLength": 8256,
      "target": 34962,
      "byteStride": 32
    },
    {
      "buffer": 1,
      "byteOffset": 0,
      "byteLength": 1512,
      "target": 34963
    },
    {
      "buffer": 1,
      "byteOffset": 1512,
      "byteLength": 8256,
      "target": 34962,
      "byteStride": 32
    },
    {
      "buffer": 2,
      "byteOffset": 0,
      "byteLength": 8112,
      "target": 34963
    },
    {
      "buffer": 2,
      "byteOffset": 8112,
      "byteLength": 43968,
      "target": 34962,
      "byteStride": 32
    }
  ],
  "buffers": [
    {
      "uri": "data:application/octet-stream;base64,",
      "byteLength": 9768
    },
    {
      "uri": "data:application/octet-stream;base64,",
      "byteLength": 9768
    },
    {
      "uri": "data:application/octet-stream;base64,",
      "byteLength": 52080
    }
  ]
}
