{
  "asset": {
    "generator": "Khronos glTF Blender I/O v3.5.30",
    "version": "2.0"
  },
  "scene": 0,
  "scenes": [
    {
      "name": "Scene",
      "nodes": [0, 1, 2]
    }
  ],
  "nodes": [
    {
      "mesh": 0,
      "name": "\u6587\u672c",
      "rotation": [
        -0.70710688829422, -0.7071066498756409, 0, 5.338507946817117e-8
      ],
      "scale": [0.800000011920929, 0.5151453614234924, 0.800000011920929],
      "translation": [
        0.011288291774690151, 0.019681133329868317, 0.4011507034301758
      ]
    },
    {
      "mesh": 1,
      "name": "\u5706\u73af",
      "rotation": [
        0.7071068286895752, -0.7071068286895752, 0, 1.08488185102118e-9
      ],
      "scale": [-0.4000000059604645, -0.5151453614234924, -0.4000000059604645],
      "translation": [0, 0, 0.4000000059604645]
    },
    {
      "mesh": 2,
      "name": "\u6587\u672c.001",
      "rotation": [
        -0.70710688829422, -0.7071066498756409, 0, 5.338507946817117e-8
      ],
      "scale": [0.800000011920929, 0.5151453614234924, 0.800000011920929],
      "translation": [
        0.011288291774690151, 0.019681133329868317, 0.4011507034301758
      ]
    }
  ],
  "materials": [
    {
      "doubleSided": true,
      "name": "number",
      "pbrMetallicRoughness": {
        "baseColorFactor": [0, 0, 0, 1],
        "metallicFactor": 0,
        "roughnessFactor": 0.2206704020500183
      }
    },
    {
      "doubleSided": true,
      "name": "red_ring",
      "pbrMetallicRoughness": {
        "baseColorFactor": [1, 0.004534851294010878, 0, 1],
        "metallicFactor": 0,
        "roughnessFactor": 0.14245811104774475
      }
    },
    {
      "doubleSided": true,
      "name": "base_of_color",
      "pbrMetallicRoughness": {
        "metallicFactor": 0,
        "roughnessFactor": 0.5
      }
    },
    {
      "doubleSided": true,
      "name": "the_back",
      "pbrMetallicRoughness": {
        "baseColorFactor": [
          0.11069011688232422, 0.11069011688232422, 0.11069011688232422, 1
        ],
        "metallicFactor": 0,
        "roughnessFactor": 0.5
      }
    },
    {
      "doubleSided": true,
      "name": "number.001",
      "pbrMetallicRoughness": {
        "baseColorFactor": [0, 0, 0, 1],
        "metallicFactor": 0,
        "roughnessFactor": 0.2206704020500183
      }
    }
  ],
  "meshes": [
    {
      "name": "\u6587\u672c",
      "primitives": [
        {
          "attributes": {
            "POSITION": 0,
            "TEXCOORD_0": 1,
            "NORMAL": 2
          },
          "indices": 3,
          "material": 0
        }
      ]
    },
    {
      "name": "\u5706\u73af",
      "primitives": [
        {
          "attributes": {
            "POSITION": 4,
            "TEXCOORD_0": 5,
            "NORMAL": 6
          },
          "indices": 7,
          "material": 1
        },
        {
          "attributes": {
            "POSITION": 8,
            "TEXCOORD_0": 9,
            "NORMAL": 10
          },
          "indices": 11,
          "material": 2
        },
        {
          "attributes": {
            "POSITION": 12,
            "TEXCOORD_0": 13,
            "NORMAL": 14
          },
          "indices": 15,
          "material": 3
        }
      ]
    },
    {
      "name": "\u6587\u672c.001",
      "primitives": [
        {
          "attributes": {
            "POSITION": 16,
            "TEXCOORD_0": 17,
            "NORMAL": 18
          },
          "indices": 3,
          "material": 4
        }
      ]
    }
  ],
  "accessors": [
    {
      "bufferView": 0,
      "componentType": 5126,
      "count": 184,
      "max": [0.2403559684753418, 0, 0.2745862603187561],
      "min": [-0.33491674065589905, 0, -0.236322820186615],
      "type": "VEC3"
    },
    {
      "bufferView": 1,
      "componentType": 5126,
      "count": 184,
      "type": "VEC2"
    },
    {
      "bufferView": 2,
      "componentType": 5126,
      "count": 184,
      "type": "VEC3"
    },
    {
      "bufferView": 3,
      "componentType": 5123,
      "count": 540,
      "type": "SCALAR"
    },
    {
      "bufferView": 4,
      "componentType": 5126,
      "count": 480,
      "max": [1, 0.017470795661211014, 1],
      "min": [-1, 0, -1],
      "type": "VEC3"
    },
    {
      "bufferView": 5,
      "componentType": 5126,
      "count": 480,
      "type": "VEC2"
    },
    {
      "bufferView": 6,
      "componentType": 5126,
      "count": 480,
      "type": "VEC3"
    },
    {
      "bufferView": 7,
      "componentType": 5123,
      "count": 960,
      "type": "SCALAR"
    },
    {
      "bufferView": 8,
      "componentType": 5126,
      "count": 80,
      "max": [0.8039376735687256, 0.017470795661211014, 0.8039376735687256],
      "min": [-0.8039376735687256, 0.017470795661211014, -0.8039376735687256],
      "type": "VEC3"
    },
    {
      "bufferView": 9,
      "componentType": 5126,
      "count": 80,
      "type": "VEC2"
    },
    {
      "bufferView": 10,
      "componentType": 5126,
      "count": 80,
      "type": "VEC3"
    },
    {
      "bufferView": 11,
      "componentType": 5123,
      "count": 234,
      "type": "SCALAR"
    },
    {
      "bufferView": 12,
      "componentType": 5126,
      "count": 80,
      "max": [1, 0, 1],
      "min": [-1, 0, -1],
      "type": "VEC3"
    },
    {
      "bufferView": 13,
      "componentType": 5126,
      "count": 80,
      "type": "VEC2"
    },
    {
      "bufferView": 14,
      "componentType": 5126,
      "count": 80,
      "type": "VEC3"
    },
    {
      "bufferView": 15,
      "componentType": 5123,
      "count": 234,
      "type": "SCALAR"
    },
    {
      "bufferView": 16,
      "componentType": 5126,
      "count": 184,
      "max": [0.2403559684753418, 0, 0.2745862603187561],
      "min": [-0.33491674065589905, 0, -0.236322820186615],
      "type": "VEC3"
    },
    {
      "bufferView": 17,
      "componentType": 5126,
      "count": 184,
      "type": "VEC2"
    },
    {
      "bufferView": 18,
      "componentType": 5126,
      "count": 184,
      "type": "VEC3"
    }
  ],
  "bufferViews": [
    {
      "buffer": 0,
      "byteLength": 2208,
      "byteOffset": 0,
      "target": 34962
    },
    {
      "buffer": 0,
      "byteLength": 1472,
      "byteOffset": 2208,
      "target": 34962
    },
    {
      "buffer": 0,
      "byteLength": 2208,
      "byteOffset": 3680,
      "target": 34962
    },
    {
      "buffer": 0,
      "byteLength": 1080,
      "byteOffset": 5888,
      "target": 34963
    },
    {
      "buffer": 0,
      "byteLength": 5760,
      "byteOffset": 6968,
      "target": 34962
    },
    {
      "buffer": 0,
      "byteLength": 3840,
      "byteOffset": 12728,
      "target": 34962
    },
    {
      "buffer": 0,
      "byteLength": 5760,
      "byteOffset": 16568,
      "target": 34962
    },
    {
      "buffer": 0,
      "byteLength": 1920,
      "byteOffset": 22328,
      "target": 34963
    },
    {
      "buffer": 0,
      "byteLength": 960,
      "byteOffset": 24248,
      "target": 34962
    },
    {
      "buffer": 0,
      "byteLength": 640,
      "byteOffset": 25208,
      "target": 34962
    },
    {
      "buffer": 0,
      "byteLength": 960,
      "byteOffset": 25848,
      "target": 34962
    },
    {
      "buffer": 0,
      "byteLength": 468,
      "byteOffset": 26808,
      "target": 34963
    },
    {
      "buffer": 0,
      "byteLength": 960,
      "byteOffset": 27276,
      "target": 34962
    },
    {
      "buffer": 0,
      "byteLength": 640,
      "byteOffset": 28236,
      "target": 34962
    },
    {
      "buffer": 0,
      "byteLength": 960,
      "byteOffset": 28876,
      "target": 34962
    },
    {
      "buffer": 0,
      "byteLength": 468,
      "byteOffset": 29836,
      "target": 34963
    },
    {
      "buffer": 0,
      "byteLength": 2208,
      "byteOffset": 30304,
      "target": 34962
    },
    {
      "buffer": 0,
      "byteLength": 1472,
      "byteOffset": 32512,
      "target": 34962
    },
    {
      "buffer": 0,
      "byteLength": 2208,
      "byteOffset": 33984,
      "target": 34962
    }
  ],
  "buffers": [
    {
      "byteLength": 36192,
      "uri": "data:application/octet-stream;base64,"
    }
  ]
}
