{
  "asset": {
    "generator": "Khronos glTF Blender I/O v3.2.43",
    "version": "2.0"
  },
  "scene": 0,
  "scenes": [
    {
      "name": "Scene",
      "nodes": [1]
    }
  ],
  "nodes": [
    {
      "mesh": 0,
      "name": "\u6587\u672c",
      "rotation": [0, 0, 1, 7.982394555090388e-16],
      "scale": [-1.9999998807907104, -1, -1.9999998807907104],
      "translation": [
        0.0570082925260067, 0.0219128280878067, 0.020806312561035156
      ]
    },
    {
      "children": [0],
      "mesh": 1,
      "name": "\u5706\u73af",
      "rotation": [
        0.7071068286895752, -0.7071068286895752, 0, 1.08488185102118e-9
      ],
      "scale": [-0.4000000059604645, -0.5151453614234924, -0.4000000059604645],
      "translation": [0, 0, 0.4000000059604645]
    }
  ],
  "materials": [
    {
      "doubleSided": true,
      "name": "number",
      "pbrMetallicRoughness": {
        "baseColorFactor": [0, 0, 0, 1],
        "metallicFactor": 0,
        "roughnessFactor": 0.5
      }
    },
    {
      "doubleSided": true,
      "name": "red_ring",
      "pbrMetallicRoughness": {
        "baseColorFactor": [1, 0.004534851294010878, 0, 1],
        "metallicFactor": 0,
        "roughnessFactor": 0.5
      }
    },
    {
      "doubleSided": true,
      "name": "base_of_color",
      "pbrMetallicRoughness": {
        "metallicFactor": 0,
        "roughnessFactor": 0.5
      }
    },
    {
      "doubleSided": true,
      "name": "the_back",
      "pbrMetallicRoughness": {
        "baseColorFactor": [1.0, 0.0, 0.0, 1.0],
        "metallicFactor": 0,
        "roughnessFactor": 0.5
      }
    }
  ],
  "meshes": [
    {
      "name": "\u6587\u672c",
      "primitives": [
        {
          "attributes": {
            "POSITION": 0,
            "NORMAL": 1,
            "TEXCOORD_0": 2
          },
          "indices": 3,
          "material": 0
        }
      ]
    },
    {
      "name": "\u5706\u73af",
      "primitives": [
        {
          "attributes": {
            "POSITION": 4,
            "NORMAL": 5,
            "TEXCOORD_0": 6
          },
          "indices": 7,
          "material": 1
        },
        {
          "attributes": {
            "POSITION": 8,
            "NORMAL": 9,
            "TEXCOORD_0": 10
          },
          "indices": 11,
          "material": 2
        },
        {
          "attributes": {
            "POSITION": 12,
            "NORMAL": 13,
            "TEXCOORD_0": 14
          },
          "indices": 15,
          "material": 3
        }
      ]
    }
  ],
  "accessors": [
    {
      "bufferView": 0,
      "componentType": 5126,
      "count": 203,
      "max": [0.26515552401542664, 0, 0.2671631872653961],
      "min": [-0.3398963510990143, 0, -0.22363993525505066],
      "type": "VEC3"
    },
    {
      "bufferView": 1,
      "componentType": 5126,
      "count": 203,
      "type": "VEC3"
    },
    {
      "bufferView": 2,
      "componentType": 5126,
      "count": 203,
      "type": "VEC2"
    },
    {
      "bufferView": 3,
      "componentType": 5123,
      "count": 495,
      "type": "SCALAR"
    },
    {
      "bufferView": 4,
      "componentType": 5126,
      "count": 614,
      "max": [1, 0.017470795661211014, 1],
      "min": [-1, 0, -1],
      "type": "VEC3"
    },
    {
      "bufferView": 5,
      "componentType": 5126,
      "count": 614,
      "type": "VEC3"
    },
    {
      "bufferView": 6,
      "componentType": 5126,
      "count": 614,
      "type": "VEC2"
    },
    {
      "bufferView": 7,
      "componentType": 5123,
      "count": 960,
      "type": "SCALAR"
    },
    {
      "bufferView": 8,
      "componentType": 5126,
      "count": 80,
      "max": [0.8039376735687256, 0.017470795661211014, 0.8039376735687256],
      "min": [-0.8039376735687256, 0.017470795661211014, -0.8039376735687256],
      "type": "VEC3"
    },
    {
      "bufferView": 9,
      "componentType": 5126,
      "count": 80,
      "type": "VEC3"
    },
    {
      "bufferView": 10,
      "componentType": 5126,
      "count": 80,
      "type": "VEC2"
    },
    {
      "bufferView": 11,
      "componentType": 5123,
      "count": 234,
      "type": "SCALAR"
    },
    {
      "bufferView": 12,
      "componentType": 5126,
      "count": 80,
      "max": [1, 0, 1],
      "min": [-1, 0, -1],
      "type": "VEC3"
    },
    {
      "bufferView": 13,
      "componentType": 5126,
      "count": 80,
      "type": "VEC3"
    },
    {
      "bufferView": 14,
      "componentType": 5126,
      "count": 80,
      "type": "VEC2"
    },
    {
      "bufferView": 15,
      "componentType": 5123,
      "count": 234,
      "type": "SCALAR"
    }
  ],
  "bufferViews": [
    {
      "buffer": 0,
      "byteLength": 2436,
      "byteOffset": 0
    },
    {
      "buffer": 0,
      "byteLength": 2436,
      "byteOffset": 2436
    },
    {
      "buffer": 0,
      "byteLength": 1624,
      "byteOffset": 4872
    },
    {
      "buffer": 0,
      "byteLength": 990,
      "byteOffset": 6496
    },
    {
      "buffer": 0,
      "byteLength": 7368,
      "byteOffset": 7488
    },
    {
      "buffer": 0,
      "byteLength": 7368,
      "byteOffset": 14856
    },
    {
      "buffer": 0,
      "byteLength": 4912,
      "byteOffset": 22224
    },
    {
      "buffer": 0,
      "byteLength": 1920,
      "byteOffset": 27136
    },
    {
      "buffer": 0,
      "byteLength": 960,
      "byteOffset": 29056
    },
    {
      "buffer": 0,
      "byteLength": 960,
      "byteOffset": 30016
    },
    {
      "buffer": 0,
      "byteLength": 640,
      "byteOffset": 30976
    },
    {
      "buffer": 0,
      "byteLength": 468,
      "byteOffset": 31616
    },
    {
      "buffer": 0,
      "byteLength": 960,
      "byteOffset": 32084
    },
    {
      "buffer": 0,
      "byteLength": 960,
      "byteOffset": 33044
    },
    {
      "buffer": 0,
      "byteLength": 640,
      "byteOffset": 34004
    },
    {
      "buffer": 0,
      "byteLength": 468,
      "byteOffset": 34644
    }
  ],
  "buffers": [
    {
      "byteLength": 35112,
      "uri": "data:application/octet-stream;base64,"
    }
  ]
}
