{
  "asset": {
    "generator": "Khronos glTF Blender I/O v3.2.43",
    "version": "2.0"
  },
  "scene": 0,
  "scenes": [
    {
      "name": "Scene",
      "nodes": [3]
    }
  ],
  "nodes": [
    {
      "mesh": 0,
      "name": "\u6587\u672c",
      "rotation": [0, 0, -1, 4.892484749713941e-15],
      "scale": [-1.9999998807907104, -1, -2.4405713081359863],
      "translation": [0, 0.021912772208452225, 0]
    },
    {
      "mesh": 1,
      "name": "\u6587\u672c.001",
      "rotation": [0, 0, -1, 4.892484749713941e-15],
      "scale": [-1.9999998807907104, -1, -2.4405713081359863],
      "translation": [0, 0.021912889555096626, 0]
    },
    {
      "mesh": 2,
      "name": "\u6587\u672c.003",
      "rotation": [0, 0, -1, 4.892484749713941e-15],
      "scale": [-1.9999998807907104, -1, -1.9999998807907104],
      "translation": [0, 0.02191285975277424, 0]
    },
    {
      "children": [0, 1, 2],
      "mesh": 3,
      "name": "\u5706\u73af",
      "rotation": [
        -0.70710688829422, 0.7071066498756409, 0, 2.6692548615869782e-8
      ],
      "scale": [-0.4000000059604645, -0.5151453614234924, -0.4000000059604645],
      "translation": [0, 0, 0.3999999761581421]
    }
  ],
  "materials": [
    {
      "doubleSided": true,
      "name": "number",
      "pbrMetallicRoughness": {
        "baseColorFactor": [0, 0, 0, 1],
        "metallicFactor": 0,
        "roughnessFactor": 0.2206704020500183
      }
    },
    {
      "doubleSided": true,
      "name": "red_ring",
      "pbrMetallicRoughness": {
        "baseColorFactor": [1, 0.004534851294010878, 0, 1],
        "metallicFactor": 0,
        "roughnessFactor": 0.14245811104774475
      }
    },
    {
      "doubleSided": true,
      "name": "base_of_color",
      "pbrMetallicRoughness": {
        "metallicFactor": 0,
        "roughnessFactor": 0.5
      }
    },
    {
      "doubleSided": true,
      "name": "the_back",
      "pbrMetallicRoughness": {
        "baseColorFactor": [
          0.11069011688232422, 0.11069011688232422, 0.11069011688232422, 1
        ],
        "metallicFactor": 0,
        "roughnessFactor": 0.5
      }
    }
  ],
  "meshes": [
    {
      "name": "\u6587\u672c",
      "primitives": [
        {
          "attributes": {
            "POSITION": 0,
            "NORMAL": 1,
            "TEXCOORD_0": 2
          },
          "indices": 3,
          "material": 0
        }
      ]
    },
    {
      "name": "\u6587\u672c.004",
      "primitives": [
        {
          "attributes": {
            "POSITION": 4,
            "NORMAL": 5,
            "TEXCOORD_0": 6
          },
          "indices": 7,
          "material": 0
        }
      ]
    },
    {
      "name": "\u6587\u672c.003",
      "primitives": [
        {
          "attributes": {
            "POSITION": 8,
            "NORMAL": 9,
            "TEXCOORD_0": 10
          },
          "indices": 11,
          "material": 0
        }
      ]
    },
    {
      "name": "\u5706\u73af",
      "primitives": [
        {
          "attributes": {
            "POSITION": 12,
            "NORMAL": 13,
            "TEXCOORD_0": 14
          },
          "indices": 15,
          "material": 1
        },
        {
          "attributes": {
            "POSITION": 16,
            "NORMAL": 17,
            "TEXCOORD_0": 18
          },
          "indices": 19,
          "material": 2
        },
        {
          "attributes": {
            "POSITION": 20,
            "NORMAL": 21,
            "TEXCOORD_0": 22
          },
          "indices": 23,
          "material": 3
        }
      ]
    }
  ],
  "accessors": [
    {
      "bufferView": 0,
      "componentType": 5126,
      "count": 116,
      "max": [-0.0446479395031929, 0, 0.18042883276939392],
      "min": [-0.2702782154083252, 0, -0.1983526647090912],
      "type": "VEC3"
    },
    {
      "bufferView": 1,
      "componentType": 5126,
      "count": 116,
      "type": "VEC3"
    },
    {
      "bufferView": 2,
      "componentType": 5126,
      "count": 116,
      "type": "VEC2"
    },
    {
      "bufferView": 3,
      "componentType": 5123,
      "count": 261,
      "type": "SCALAR"
    },
    {
      "bufferView": 4,
      "componentType": 5126,
      "count": 192,
      "max": [0.19670423865318298, 0, 0.1854708194732666],
      "min": [-0.025144508108496666, 0, -0.19835270941257477],
      "type": "VEC3"
    },
    {
      "bufferView": 5,
      "componentType": 5126,
      "count": 192,
      "type": "VEC3"
    },
    {
      "bufferView": 6,
      "componentType": 5126,
      "count": 192,
      "type": "VEC2"
    },
    {
      "bufferView": 7,
      "componentType": 5123,
      "count": 372,
      "type": "SCALAR"
    },
    {
      "bufferView": 8,
      "componentType": 5126,
      "count": 59,
      "max": [0.28773999214172363, 0, 0.21563716232776642],
      "min": [0.22051310539245605, 0, 0.03708256781101227],
      "type": "VEC3"
    },
    {
      "bufferView": 9,
      "componentType": 5126,
      "count": 59,
      "type": "VEC3"
    },
    {
      "bufferView": 10,
      "componentType": 5126,
      "count": 59,
      "type": "VEC2"
    },
    {
      "bufferView": 11,
      "componentType": 5123,
      "count": 120,
      "type": "SCALAR"
    },
    {
      "bufferView": 12,
      "componentType": 5126,
      "count": 614,
      "max": [1, 0.017470795661211014, 1],
      "min": [-1, 0, -1],
      "type": "VEC3"
    },
    {
      "bufferView": 13,
      "componentType": 5126,
      "count": 614,
      "type": "VEC3"
    },
    {
      "bufferView": 14,
      "componentType": 5126,
      "count": 614,
      "type": "VEC2"
    },
    {
      "bufferView": 15,
      "componentType": 5123,
      "count": 960,
      "type": "SCALAR"
    },
    {
      "bufferView": 16,
      "componentType": 5126,
      "count": 80,
      "max": [0.8039376735687256, 0.017470795661211014, 0.8039376735687256],
      "min": [-0.8039376735687256, 0.017470795661211014, -0.8039376735687256],
      "type": "VEC3"
    },
    {
      "bufferView": 17,
      "componentType": 5126,
      "count": 80,
      "type": "VEC3"
    },
    {
      "bufferView": 18,
      "componentType": 5126,
      "count": 80,
      "type": "VEC2"
    },
    {
      "bufferView": 19,
      "componentType": 5123,
      "count": 234,
      "type": "SCALAR"
    },
    {
      "bufferView": 20,
      "componentType": 5126,
      "count": 80,
      "max": [1, 0, 1],
      "min": [-1, 0, -1],
      "type": "VEC3"
    },
    {
      "bufferView": 21,
      "componentType": 5126,
      "count": 80,
      "type": "VEC3"
    },
    {
      "bufferView": 22,
      "componentType": 5126,
      "count": 80,
      "type": "VEC2"
    },
    {
      "bufferView": 23,
      "componentType": 5123,
      "count": 234,
      "type": "SCALAR"
    }
  ],
  "bufferViews": [
    {
      "buffer": 0,
      "byteLength": 1392,
      "byteOffset": 0
    },
    {
      "buffer": 0,
      "byteLength": 1392,
      "byteOffset": 1392
    },
    {
      "buffer": 0,
      "byteLength": 928,
      "byteOffset": 2784
    },
    {
      "buffer": 0,
      "byteLength": 522,
      "byteOffset": 3712
    },
    {
      "buffer": 0,
      "byteLength": 2304,
      "byteOffset": 4236
    },
    {
      "buffer": 0,
      "byteLength": 2304,
      "byteOffset": 6540
    },
    {
      "buffer": 0,
      "byteLength": 1536,
      "byteOffset": 8844
    },
    {
      "buffer": 0,
      "byteLength": 744,
      "byteOffset": 10380
    },
    {
      "buffer": 0,
      "byteLength": 708,
      "byteOffset": 11124
    },
    {
      "buffer": 0,
      "byteLength": 708,
      "byteOffset": 11832
    },
    {
      "buffer": 0,
      "byteLength": 472,
      "byteOffset": 12540
    },
    {
      "buffer": 0,
      "byteLength": 240,
      "byteOffset": 13012
    },
    {
      "buffer": 0,
      "byteLength": 7368,
      "byteOffset": 13252
    },
    {
      "buffer": 0,
      "byteLength": 7368,
      "byteOffset": 20620
    },
    {
      "buffer": 0,
      "byteLength": 4912,
      "byteOffset": 27988
    },
    {
      "buffer": 0,
      "byteLength": 1920,
      "byteOffset": 32900
    },
    {
      "buffer": 0,
      "byteLength": 960,
      "byteOffset": 34820
    },
    {
      "buffer": 0,
      "byteLength": 960,
      "byteOffset": 35780
    },
    {
      "buffer": 0,
      "byteLength": 640,
      "byteOffset": 36740
    },
    {
      "buffer": 0,
      "byteLength": 468,
      "byteOffset": 37380
    },
    {
      "buffer": 0,
      "byteLength": 960,
      "byteOffset": 37848
    },
    {
      "buffer": 0,
      "byteLength": 960,
      "byteOffset": 38808
    },
    {
      "buffer": 0,
      "byteLength": 640,
      "byteOffset": 39768
    },
    {
      "buffer": 0,
      "byteLength": 468,
      "byteOffset": 40408
    }
  ],
  "buffers": [
    {
      "byteLength": 40876,
      "uri": "data:application/octet-stream;base64,"
    }
  ]
}
