{
  "asset": {
    "version": "2.0",
    "generator": "Created using the official Cinema 4D glTF Exporter 1.000x284978"
  },
  "scenes": [
    {
      "nodes": [0]
    }
  ],
  "nodes": [
    {
      "name": "限速50",
      "translation": [
        -2.2958325109515379e-17, 2.2958325109515379e-17, 0.37493792176246645
      ],
      "rotation": [0.5, 0.5, 0.5, 0.5],
      "scale": [1.0, 1.0, 1.0],
      "children": [1, 2, 3]
    },
    {
      "name": "Default",
      "translation": [
        -3.501577377319336, -0.37353405356407168, -18.363906860351564
      ],
      "rotation": [0.0, 0.0, 0.0, -1.0],
      "scale": [1.0, 1.0, 1.0],
      "mesh": 0
    },
    {
      "name": "Default_1",
      "translation": [
        -3.501577377319336, -0.37353405356407168, -18.363906860351564
      ],
      "rotation": [0.0, 0.0, 0.0, -1.0],
      "scale": [1.0, 1.0, 1.0],
      "mesh": 1
    },
    {
      "name": "Default_2",
      "translation": [
        -3.501577377319336, -0.37353405356407168, -18.363906860351564
      ],
      "rotation": [0.0, 0.0, 0.0, -1.0],
      "scale": [1.0, 1.0, 1.0],
      "mesh": 2
    }
  ],
  "meshes": [
    {
      "name": "Default",
      "primitives": [
        {
          "attributes": {
            "POSITION": 1,
            "NORMAL": 2,
            "TEXCOORD_0": 3
          },
          "indices": 0,
          "material": 0
        }
      ]
    },
    {
      "name": "Default_1",
      "primitives": [
        {
          "attributes": {
            "POSITION": 5,
            "NORMAL": 6,
            "TEXCOORD_0": 7
          },
          "indices": 4,
          "material": 1
        }
      ]
    },
    {
      "name": "Default_2",
      "primitives": [
        {
          "attributes": {
            "POSITION": 9,
            "NORMAL": 10,
            "TEXCOORD_0": 11
          },
          "indices": 8,
          "material": 2
        }
      ]
    }
  ],
  "accessors": [
    {
      "bufferView": 0,
      "type": "SCALAR",
      "componentType": 5123,
      "count": 756,
      "byteOffset": 0,
      "min": [0],
      "max": [257]
    },
    {
      "bufferView": 1,
      "type": "VEC3",
      "componentType": 5126,
      "count": 258,
      "byteOffset": 0,
      "min": [3.1037559509277345, 0.000526999996509403, 18.346315383911134],
      "max": [3.8774850368499758, 0.7742559909820557, 18.368227005004884]
    },
    {
      "bufferView": 1,
      "type": "VEC3",
      "componentType": 5126,
      "count": 258,
      "byteOffset": 12,
      "min": [-1.0, -1.0, -1.0],
      "max": [1.0, 1.0, 1.0]
    },
    {
      "bufferView": 1,
      "type": "VEC2",
      "componentType": 5126,
      "count": 258,
      "byteOffset": 24,
      "min": [0.003169999923557043, 0.0014649999793618918],
      "max": [0.6539980173110962, 1.0]
    },
    {
      "bufferView": 2,
      "type": "SCALAR",
      "componentType": 5123,
      "count": 756,
      "byteOffset": 0,
      "min": [0],
      "max": [257]
    },
    {
      "bufferView": 3,
      "type": "VEC3",
      "componentType": 5126,
      "count": 258,
      "byteOffset": 0,
      "min": [3.1744189262390138, 0.0711899995803833, 18.36099624633789],
      "max": [3.8068230152130129, 0.7035930156707764, 18.368799209594728]
    },
    {
      "bufferView": 3,
      "type": "VEC3",
      "componentType": 5126,
      "count": 258,
      "byteOffset": 12,
      "min": [-1.0, -1.0, -1.0],
      "max": [1.0, 1.0, 1.0]
    },
    {
      "bufferView": 3,
      "type": "VEC2",
      "componentType": 5126,
      "count": 258,
      "byteOffset": 24,
      "min": [0.0, 0.0014649999793618918],
      "max": [0.6393409967422485, 1.0]
    },
    {
      "bufferView": 4,
      "type": "SCALAR",
      "componentType": 5123,
      "count": 3216,
      "byteOffset": 0,
      "min": [0],
      "max": [1097]
    },
    {
      "bufferView": 5,
      "type": "VEC3",
      "componentType": 5126,
      "count": 1098,
      "byteOffset": 0,
      "min": [3.2830679416656496, 0.23910200595855714, 18.360126495361329],
      "max": [3.6984870433807375, 0.535942018032074, 18.370342254638673]
    },
    {
      "bufferView": 5,
      "type": "VEC3",
      "componentType": 5126,
      "count": 1098,
      "byteOffset": 12,
      "min": [-1.0, -1.0, -1.0],
      "max": [1.0, 1.0, 1.0]
    },
    {
      "bufferView": 5,
      "type": "VEC2",
      "componentType": 5126,
      "count": 1098,
      "byteOffset": 24,
      "min": [0.0, 0.0],
      "max": [1.0, 1.0]
    }
  ],
  "bufferViews": [
    {
      "buffer": 0,
      "byteOffset": 0,
      "byteLength": 1512,
      "target": 34963
    },
    {
      "buffer": 0,
      "byteOffset": 1512,
      "byteLength": 8256,
      "target": 34962,
      "byteStride": 32
    },
    {
      "buffer": 1,
      "byteOffset": 0,
      "byteLength": 1512,
      "target": 34963
    },
    {
      "buffer": 1,
      "byteOffset": 1512,
      "byteLength": 8256,
      "target": 34962,
      "byteStride": 32
    },
    {
      "buffer": 2,
      "byteOffset": 0,
      "byteLength": 6432,
      "target": 34963
    },
    {
      "buffer": 2,
      "byteOffset": 6432,
      "byteLength": 35136,
      "target": 34962,
      "byteStride": 32
    }
  ],
  "buffers": [
    {
      "uri": "data:application/octet-stream;base64,",
      "byteLength": 9768
    },
    {
      "uri": "data:application/octet-stream;base64,",
      "byteLength": 9768
    },
    {
      "uri": "data:application/octet-stream;base64,",
      "byteLength": 41568
    }
  ],
  "materials": [
    {
      "pbrMetallicRoughness": {
        "baseColorFactor": [1.0, 0.0, 0.0, 1.0],
        "metallicFactor": 0.0,
        "roughnessFactor": 0.5
      },
      "emissiveFactor": [0.0, 0.0, 0.0],
      "alphaMode": "OPAQUE",
      "doubleSided": false,
      "name": "Default"
    },
    {
      "pbrMetallicRoughness": {
        "baseColorFactor": [1.0, 1.0, 1.0, 1.0],
        "metallicFactor": 0.0,
        "roughnessFactor": 0.5
      },
      "emissiveFactor": [0.0, 0.0, 0.0],
      "alphaMode": "OPAQUE",
      "doubleSided": false,
      "name": "Default_1"
    },
    {
      "pbrMetallicRoughness": {
        "baseColorFactor": [0.0, 0.0, 0.0, 1.0],
        "metallicFactor": 0.0,
        "roughnessFactor": 0.5
      },
      "emissiveFactor": [0.0, 0.0, 0.0],
      "alphaMode": "OPAQUE",
      "doubleSided": false,
      "name": "Default_2"
    }
  ]
}
