{
  "asset": {
    "version": "2.0",
    "generator": "Created using the official Cinema 4D glTF Exporter 1.000x284978"
  },
  "scenes": [
    {
      "nodes": [0]
    }
  ],
  "nodes": [
    {
      "name": "限速110",
      "translation": [
        -2.4871997530489458e-17, 2.4871997530489458e-17, 0.40619054436683657
      ],
      "rotation": [0.5, 0.5, 0.5, 0.5],
      "scale": [1.0, 1.0, 1.0],
      "children": [1, 2, 3]
    },
    {
      "name": "Default",
      "translation": [
        -0.05762955918908119, -0.0078124976716935638, -0.006771390326321125
      ],
      "rotation": [0.0, 0.0, 0.0, -1.0],
      "scale": [1.0, 1.0, 1.0],
      "mesh": 0
    },
    {
      "name": "Default_1",
      "translation": [
        -0.058177195489406589, -0.007812427822500467, 0.0008551095379516482
      ],
      "rotation": [0.0, 0.0, 0.0, -1.0],
      "scale": [1.0, 1.0, 1.0],
      "mesh": 1
    },
    {
      "name": "Default_2",
      "translation": [
        0.036977898329496387, 0.00498914672061801, 0.0018891094950959087
      ],
      "rotation": [0.0, 0.0, 0.0, -1.0],
      "scale": [1.0, 1.0, 1.0],
      "mesh": 2
    }
  ],
  "meshes": [
    {
      "name": "Default",
      "primitives": [
        {
          "attributes": {
            "POSITION": 1,
            "NORMAL": 2,
            "TEXCOORD_0": 3
          },
          "indices": 0,
          "material": 0
        }
      ]
    },
    {
      "name": "Default_1",
      "primitives": [
        {
          "attributes": {
            "POSITION": 5,
            "NORMAL": 6,
            "TEXCOORD_0": 7
          },
          "indices": 4,
          "material": 1
        }
      ]
    },
    {
      "name": "Default_2",
      "primitives": [
        {
          "attributes": {
            "POSITION": 9,
            "NORMAL": 10,
            "TEXCOORD_0": 11
          },
          "indices": 8,
          "material": 2
        }
      ]
    }
  ],
  "accessors": [
    {
      "bufferView": 0,
      "componentType": 5123,
      "type": "SCALAR",
      "count": 756,
      "byteOffset": 0,
      "min": [0],
      "max": [257]
    },
    {
      "bufferView": 1,
      "componentType": 5126,
      "type": "VEC3",
      "count": 258,
      "byteOffset": 0,
      "min": [-0.3898642957210541, -0.38686445355415347, -0.010955999605357647],
      "max": [0.38386571407318118, 0.3868645429611206, 0.010955999605357647]
    },
    {
      "bufferView": 1,
      "componentType": 5126,
      "type": "VEC3",
      "count": 258,
      "byteOffset": 12,
      "min": [-1.0, -1.0, -1.0],
      "max": [1.0, 1.0, 1.0]
    },
    {
      "bufferView": 1,
      "componentType": 5126,
      "type": "VEC2",
      "count": 258,
      "byteOffset": 24,
      "min": [0.003169999923557043, 0.0014649999793618918],
      "max": [0.6539980173110962, 1.0]
    },
    {
      "bufferView": 2,
      "componentType": 5123,
      "type": "SCALAR",
      "count": 756,
      "byteOffset": 0,
      "min": [0],
      "max": [257]
    },
    {
      "bufferView": 3,
      "componentType": 5126,
      "type": "VEC3",
      "count": 258,
      "byteOffset": 0,
      "min": [
        -0.3186526596546173, -0.31620150804519656, -0.0039015000220388176
      ],
      "max": [0.31375032663345339, 0.31620147824287417, 0.0039015000220388176]
    },
    {
      "bufferView": 3,
      "componentType": 5126,
      "type": "VEC3",
      "count": 258,
      "byteOffset": 12,
      "min": [-1.0, -1.0, -1.0],
      "max": [1.0, 1.0, 1.0]
    },
    {
      "bufferView": 3,
      "componentType": 5126,
      "type": "VEC2",
      "count": 258,
      "byteOffset": 24,
      "min": [0.0, 0.0014649999793618918],
      "max": [0.6393409967422485, 1.0]
    },
    {
      "bufferView": 4,
      "componentType": 5123,
      "type": "SCALAR",
      "count": 2304,
      "byteOffset": 0,
      "min": [0],
      "max": [807]
    },
    {
      "bufferView": 5,
      "componentType": 5126,
      "type": "VEC3",
      "count": 808,
      "byteOffset": 0,
      "min": [
        -0.34296274185180666, -0.1314340978860855, -0.0040825000032782558
      ],
      "max": [0.14774423837661744, 0.10583590716123581, 0.0040825000032782558]
    },
    {
      "bufferView": 5,
      "componentType": 5126,
      "type": "VEC3",
      "count": 808,
      "byteOffset": 12,
      "min": [-1.0, -1.0, -1.0],
      "max": [1.0, 1.0, 1.0]
    },
    {
      "bufferView": 5,
      "componentType": 5126,
      "type": "VEC2",
      "count": 808,
      "byteOffset": 24,
      "min": [0.0, 0.0],
      "max": [1.0, 1.0]
    }
  ],
  "bufferViews": [
    {
      "buffer": 0,
      "byteOffset": 0,
      "byteLength": 1512,
      "target": 34963
    },
    {
      "buffer": 0,
      "byteOffset": 1512,
      "byteLength": 8256,
      "target": 34962,
      "byteStride": 32
    },
    {
      "buffer": 1,
      "byteOffset": 0,
      "byteLength": 1512,
      "target": 34963
    },
    {
      "buffer": 1,
      "byteOffset": 1512,
      "byteLength": 8256,
      "target": 34962,
      "byteStride": 32
    },
    {
      "buffer": 2,
      "byteOffset": 0,
      "byteLength": 4608,
      "target": 34963
    },
    {
      "buffer": 2,
      "byteOffset": 4608,
      "byteLength": 25856,
      "target": 34962,
      "byteStride": 32
    }
  ],
  "buffers": [
    {
      "uri": "data:application/octet-stream;base64,",
      "byteLength": 9768
    },
    {
      "uri": "data:application/octet-stream;base64,",
      "byteLength": 9768
    },
    {
      "uri": "data:application/octet-stream;base64,",
      "byteLength": 30464
    }
  ],
  "materials": [
    {
      "pbrMetallicRoughness": {
        "baseColorFactor": [1.0, 0.0, 0.0, 1.0],
        "metallicFactor": 0.0,
        "roughnessFactor": 0.5
      },
      "emissiveFactor": [0.0, 0.0, 0.0],
      "alphaMode": "OPAQUE",
      "doubleSided": false,
      "name": "Default"
    },
    {
      "pbrMetallicRoughness": {
        "baseColorFactor": [1.0, 1.0, 1.0, 1.0],
        "metallicFactor": 0.0,
        "roughnessFactor": 0.5
      },
      "emissiveFactor": [0.0, 0.0, 0.0],
      "alphaMode": "OPAQUE",
      "doubleSided": false,
      "name": "Default_1"
    },
    {
      "pbrMetallicRoughness": {
        "baseColorFactor": [0.0, 0.0, 0.0, 1.0],
        "metallicFactor": 0.0,
        "roughnessFactor": 0.5
      },
      "emissiveFactor": [0.0, 0.0, 0.0],
      "alphaMode": "OPAQUE",
      "doubleSided": false,
      "name": "Default_2"
    }
  ]
}
