{
  "asset": {
    "generator": "Khronos glTF Blender I/O v3.2.43",
    "version": "2.0"
  },
  "scene": 0,
  "scenes": [
    {
      "name": "Scene",
      "nodes": [4, 5]
    }
  ],
  "nodes": [
    {
      "mesh": 0,
      "name": "\u6587\u672c",
      "rotation": [0, 0, -1, 5.824189651474623e-15],
      "scale": [-1.9999998807907104, -1, -1.9999998807907104],
      "translation": [0, 0.021912826225161552, 0]
    },
    {
      "mesh": 1,
      "name": "\u6587\u672c.001",
      "rotation": [0, 0, -1, 5.824189651474623e-15],
      "scale": [-1.9999998807907104, -1, -1.9999998807907104],
      "translation": [0, 0.021912796422839165, 0]
    },
    {
      "mesh": 2,
      "name": "\u6587\u672c.002",
      "rotation": [0, 0, -1, 5.824189651474623e-15],
      "scale": [-1.9999998807907104, -1, -1.9999998807907104],
      "translation": [0, 0.02191278710961342, 0]
    },
    {
      "mesh": 3,
      "name": "\u6587\u672c.003",
      "rotation": [0, 0, -1, 5.824189651474623e-15],
      "scale": [-1.9999998807907104, -1, -1.9999998807907104],
      "translation": [0, 0.021912766620516777, 0]
    },
    {
      "children": [0, 1, 2, 3],
      "mesh": 4,
      "name": "\u5706\u73af",
      "rotation": [
        -0.70710688829422, 0.7071066498756409, 0, 1.5454311608209537e-8
      ],
      "scale": [-0.4000000059604645, -0.5151453614234924, -0.4000000059604645],
      "translation": [0, 0, 0.3999999761581421]
    },
    {
      "mesh": 5,
      "name": "\u5706\u73af.001",
      "rotation": [
        -0.7071065902709961, -0.7071069478988647, 0, 1.1520229037387253e-7
      ],
      "scale": [0.3219272792339325, 0.4145983159542084, 0.3219272792339325],
      "translation": [0, 0, 0.3999999761581421]
    }
  ],
  "materials": [
    {
      "doubleSided": true,
      "name": "number",
      "pbrMetallicRoughness": {
        "baseColorFactor": [0, 0, 0, 1],
        "metallicFactor": 0,
        "roughnessFactor": 0.2206704020500183
      }
    },
    {
      "doubleSided": true,
      "name": "red_ring",
      "pbrMetallicRoughness": {
        "baseColorFactor": [1, 0.004534851294010878, 0, 1],
        "metallicFactor": 0,
        "roughnessFactor": 0.14245811104774475
      }
    },
    {
      "doubleSided": true,
      "name": "base_of_color",
      "pbrMetallicRoughness": {
        "metallicFactor": 0,
        "roughnessFactor": 0.5
      }
    },
    {
      "doubleSided": true,
      "name": "the_back",
      "pbrMetallicRoughness": {
        "baseColorFactor": [
          0.11069011688232422, 0.11069011688232422, 0.11069011688232422, 1
        ],
        "metallicFactor": 0,
        "roughnessFactor": 0.5
      }
    }
  ],
  "meshes": [
    {
      "name": "\u6587\u672c",
      "primitives": [
        {
          "attributes": {
            "POSITION": 0,
            "NORMAL": 1,
            "TEXCOORD_0": 2
          },
          "indices": 3,
          "material": 0
        }
      ]
    },
    {
      "name": "\u6587\u672c.001",
      "primitives": [
        {
          "attributes": {
            "POSITION": 4,
            "NORMAL": 5,
            "TEXCOORD_0": 6
          },
          "indices": 7,
          "material": 0
        }
      ]
    },
    {
      "name": "\u6587\u672c.002",
      "primitives": [
        {
          "attributes": {
            "POSITION": 8,
            "NORMAL": 9,
            "TEXCOORD_0": 10
          },
          "indices": 11,
          "material": 0
        }
      ]
    },
    {
      "name": "\u6587\u672c.003",
      "primitives": [
        {
          "attributes": {
            "POSITION": 12,
            "NORMAL": 13,
            "TEXCOORD_0": 14
          },
          "indices": 15,
          "material": 0
        }
      ]
    },
    {
      "name": "\u5706\u73af",
      "primitives": [
        {
          "attributes": {
            "POSITION": 16,
            "NORMAL": 17,
            "TEXCOORD_0": 18
          },
          "indices": 19,
          "material": 1
        },
        {
          "attributes": {
            "POSITION": 20,
            "NORMAL": 21,
            "TEXCOORD_0": 22
          },
          "indices": 23,
          "material": 2
        },
        {
          "attributes": {
            "POSITION": 24,
            "NORMAL": 25,
            "TEXCOORD_0": 26
          },
          "indices": 27,
          "material": 3
        }
      ]
    },
    {
      "name": "\u5706\u73af.003",
      "primitives": [
        {
          "attributes": {
            "POSITION": 28,
            "NORMAL": 29,
            "TEXCOORD_0": 30
          },
          "indices": 31,
          "material": 0
        }
      ]
    }
  ],
  "accessors": [
    {
      "bufferView": 0,
      "componentType": 5126,
      "count": 107,
      "max": [-0.08614610135555267, 0, 0.17532828450202942],
      "min": [-0.3027511537075043, 0, -0.18830198049545288],
      "type": "VEC3"
    },
    {
      "bufferView": 1,
      "componentType": 5126,
      "count": 107,
      "type": "VEC3"
    },
    {
      "bufferView": 2,
      "componentType": 5126,
      "count": 107,
      "type": "VEC2"
    },
    {
      "bufferView": 3,
      "componentType": 5123,
      "count": 261,
      "type": "SCALAR"
    },
    {
      "bufferView": 4,
      "componentType": 5126,
      "count": 50,
      "max": [0.007243090309202671, 0, 0.17687439918518066],
      "min": [-0.0584711991250515, 0, 0.11116011440753937],
      "type": "VEC3"
    },
    {
      "bufferView": 5,
      "componentType": 5126,
      "count": 50,
      "type": "VEC3"
    },
    {
      "bufferView": 6,
      "componentType": 5126,
      "count": 50,
      "type": "VEC2"
    },
    {
      "bufferView": 7,
      "componentType": 5123,
      "count": 114,
      "type": "SCALAR"
    },
    {
      "bufferView": 8,
      "componentType": 5126,
      "count": 129,
      "max": [0.15718181431293488, 0, 0.1753281205892563],
      "min": [0.03684568032622337, 0, -0.02668868377804756],
      "type": "VEC3"
    },
    {
      "bufferView": 9,
      "componentType": 5126,
      "count": 129,
      "type": "VEC3"
    },
    {
      "bufferView": 10,
      "componentType": 5126,
      "count": 129,
      "type": "VEC2"
    },
    {
      "bufferView": 11,
      "componentType": 5123,
      "count": 261,
      "type": "SCALAR"
    },
    {
      "bufferView": 12,
      "componentType": 5126,
      "count": 160,
      "max": [0.3165815472602844, 0, 0.17532804608345032],
      "min": [0.19683365523815155, 0, 0.060622163116931915],
      "type": "VEC3"
    },
    {
      "bufferView": 13,
      "componentType": 5126,
      "count": 160,
      "type": "VEC3"
    },
    {
      "bufferView": 14,
      "componentType": 5126,
      "count": 160,
      "type": "VEC2"
    },
    {
      "bufferView": 15,
      "componentType": 5123,
      "count": 357,
      "type": "SCALAR"
    },
    {
      "bufferView": 16,
      "componentType": 5126,
      "count": 614,
      "max": [1, 0.017470795661211014, 1],
      "min": [-1, 0, -1],
      "type": "VEC3"
    },
    {
      "bufferView": 17,
      "componentType": 5126,
      "count": 614,
      "type": "VEC3"
    },
    {
      "bufferView": 18,
      "componentType": 5126,
      "count": 614,
      "type": "VEC2"
    },
    {
      "bufferView": 19,
      "componentType": 5123,
      "count": 960,
      "type": "SCALAR"
    },
    {
      "bufferView": 20,
      "componentType": 5126,
      "count": 80,
      "max": [0.8039376735687256, 0.017470795661211014, 0.8039376735687256],
      "min": [-0.8039376735687256, 0.017470795661211014, -0.8039376735687256],
      "type": "VEC3"
    },
    {
      "bufferView": 21,
      "componentType": 5126,
      "count": 80,
      "type": "VEC3"
    },
    {
      "bufferView": 22,
      "componentType": 5126,
      "count": 80,
      "type": "VEC2"
    },
    {
      "bufferView": 23,
      "componentType": 5123,
      "count": 234,
      "type": "SCALAR"
    },
    {
      "bufferView": 24,
      "componentType": 5126,
      "count": 80,
      "max": [1, 0, 1],
      "min": [-1, 0, -1],
      "type": "VEC3"
    },
    {
      "bufferView": 25,
      "componentType": 5126,
      "count": 80,
      "type": "VEC3"
    },
    {
      "bufferView": 26,
      "componentType": 5126,
      "count": 80,
      "type": "VEC2"
    },
    {
      "bufferView": 27,
      "componentType": 5123,
      "count": 234,
      "type": "SCALAR"
    },
    {
      "bufferView": 28,
      "componentType": 5126,
      "count": 264,
      "max": [0.6777423024177551, 0.024119775742292404, 0.998616099357605],
      "min": [-0.7071070075035095, 0.021707717329263687, -1],
      "type": "VEC3"
    },
    {
      "bufferView": 29,
      "componentType": 5126,
      "count": 264,
      "type": "VEC3"
    },
    {
      "bufferView": 30,
      "componentType": 5126,
      "count": 264,
      "type": "VEC2"
    },
    {
      "bufferView": 31,
      "componentType": 5123,
      "count": 504,
      "type": "SCALAR"
    }
  ],
  "bufferViews": [
    {
      "buffer": 0,
      "byteLength": 1284,
      "byteOffset": 0
    },
    {
      "buffer": 0,
      "byteLength": 1284,
      "byteOffset": 1284
    },
    {
      "buffer": 0,
      "byteLength": 856,
      "byteOffset": 2568
    },
    {
      "buffer": 0,
      "byteLength": 522,
      "byteOffset": 3424
    },
    {
      "buffer": 0,
      "byteLength": 600,
      "byteOffset": 3948
    },
    {
      "buffer": 0,
      "byteLength": 600,
      "byteOffset": 4548
    },
    {
      "buffer": 0,
      "byteLength": 400,
      "byteOffset": 5148
    },
    {
      "buffer": 0,
      "byteLength": 228,
      "byteOffset": 5548
    },
    {
      "buffer": 0,
      "byteLength": 1548,
      "byteOffset": 5776
    },
    {
      "buffer": 0,
      "byteLength": 1548,
      "byteOffset": 7324
    },
    {
      "buffer": 0,
      "byteLength": 1032,
      "byteOffset": 8872
    },
    {
      "buffer": 0,
      "byteLength": 522,
      "byteOffset": 9904
    },
    {
      "buffer": 0,
      "byteLength": 1920,
      "byteOffset": 10428
    },
    {
      "buffer": 0,
      "byteLength": 1920,
      "byteOffset": 12348
    },
    {
      "buffer": 0,
      "byteLength": 1280,
      "byteOffset": 14268
    },
    {
      "buffer": 0,
      "byteLength": 714,
      "byteOffset": 15548
    },
    {
      "buffer": 0,
      "byteLength": 7368,
      "byteOffset": 16264
    },
    {
      "buffer": 0,
      "byteLength": 7368,
      "byteOffset": 23632
    },
    {
      "buffer": 0,
      "byteLength": 4912,
      "byteOffset": 31000
    },
    {
      "buffer": 0,
      "byteLength": 1920,
      "byteOffset": 35912
    },
    {
      "buffer": 0,
      "byteLength": 960,
      "byteOffset": 37832
    },
    {
      "buffer": 0,
      "byteLength": 960,
      "byteOffset": 38792
    },
    {
      "buffer": 0,
      "byteLength": 640,
      "byteOffset": 39752
    },
    {
      "buffer": 0,
      "byteLength": 468,
      "byteOffset": 40392
    },
    {
      "buffer": 0,
      "byteLength": 960,
      "byteOffset": 40860
    },
    {
      "buffer": 0,
      "byteLength": 960,
      "byteOffset": 41820
    },
    {
      "buffer": 0,
      "byteLength": 640,
      "byteOffset": 42780
    },
    {
      "buffer": 0,
      "byteLength": 468,
      "byteOffset": 43420
    },
    {
      "buffer": 0,
      "byteLength": 3168,
      "byteOffset": 43888
    },
    {
      "buffer": 0,
      "byteLength": 3168,
      "byteOffset": 47056
    },
    {
      "buffer": 0,
      "byteLength": 2112,
      "byteOffset": 50224
    },
    {
      "buffer": 0,
      "byteLength": 1008,
      "byteOffset": 52336
    }
  ],
  "buffers": [
    {
      "byteLength": 53344,
      "uri": "data:application/octet-stream;base64,"
    }
  ]
}
