{
  "asset": {
    "version": "2.0",
    "generator": "Created using the official Cinema 4D glTF Exporter 1.000x284978"
  },
  "accessors": [
    {
      "bufferView": 0,
      "type": "SCALAR",
      "componentType": 5123,
      "count": 756,
      "byteOffset": 0,
      "min": [0],
      "max": [257]
    },
    {
      "bufferView": 1,
      "type": "VEC3",
      "componentType": 5126,
      "count": 258,
      "byteOffset": 0,
      "min": [-4.0545549392700199, 0.000526999996509403, 18.346315383911134],
      "max": [-3.2808260917663576, 0.7742559909820557, 18.368227005004884]
    },
    {
      "bufferView": 1,
      "type": "VEC3",
      "componentType": 5126,
      "count": 258,
      "byteOffset": 12,
      "min": [-1.0, -1.0, -1.0],
      "max": [1.0, 1.0, 1.0]
    },
    {
      "bufferView": 1,
      "type": "VEC2",
      "componentType": 5126,
      "count": 258,
      "byteOffset": 24,
      "min": [0.003169999923557043, 0.0014649999793618918],
      "max": [0.6539980173110962, 1.0]
    },
    {
      "bufferView": 2,
      "type": "SCALAR",
      "componentType": 5123,
      "count": 756,
      "byteOffset": 0,
      "min": [0],
      "max": [257]
    },
    {
      "bufferView": 3,
      "type": "VEC3",
      "componentType": 5126,
      "count": 258,
      "byteOffset": 0,
      "min": [-3.9838919639587404, 0.0711899995803833, 18.36099624633789],
      "max": [-3.3514881134033205, 0.7035930156707764, 18.368799209594728]
    },
    {
      "bufferView": 3,
      "type": "VEC3",
      "componentType": 5126,
      "count": 258,
      "byteOffset": 12,
      "min": [-1.0, -1.0, -1.0],
      "max": [1.0, 1.0, 1.0]
    },
    {
      "bufferView": 3,
      "type": "VEC2",
      "componentType": 5126,
      "count": 258,
      "byteOffset": 24,
      "min": [0.0, 0.0014649999793618918],
      "max": [0.6393409967422485, 1.0]
    },
    {
      "bufferView": 4,
      "type": "SCALAR",
      "componentType": 5123,
      "count": 1416,
      "byteOffset": 0,
      "min": [0],
      "max": [493]
    },
    {
      "bufferView": 5,
      "type": "VEC3",
      "componentType": 5126,
      "count": 494,
      "byteOffset": 0,
      "min": [-3.777071952819824, 0.22108300030231477, 18.357772827148439],
      "max": [-3.5583860874176027, 0.5520370006561279, 18.36936378479004]
    },
    {
      "bufferView": 5,
      "type": "VEC3",
      "componentType": 5126,
      "count": 494,
      "byteOffset": 12,
      "min": [-1.0, -1.0, -1.0],
      "max": [1.0, 1.0, 1.0]
    },
    {
      "bufferView": 5,
      "type": "VEC2",
      "componentType": 5126,
      "count": 494,
      "byteOffset": 24,
      "min": [0.0, 0.0],
      "max": [1.0, 1.0]
    }
  ],
  "scenes": [
    {
      "nodes": [0]
    }
  ],
  "nodes": [
    {
      "name": "限速5",
      "translation": [
        -2.2423523064997795e-17, 2.2423523064997795e-17, 0.3662039041519165
      ],
      "rotation": [0.5, 0.5, 0.5, 0.5],
      "scale": [1.0, 1.0, 1.0],
      "children": [1, 2, 3]
    },
    {
      "name": "Default",
      "translation": [
        3.662261724472046, -0.36343416571617129, -18.3622989654541
      ],
      "rotation": [0.0, 0.0, 0.0, -1.0],
      "scale": [1.0, 1.0, 1.0],
      "mesh": 0
    },
    {
      "name": "Default_1",
      "translation": [
        3.662261724472046, -0.36343416571617129, -18.3622989654541
      ],
      "rotation": [0.0, 0.0, 0.0, -1.0],
      "scale": [1.0, 1.0, 1.0],
      "mesh": 1
    },
    {
      "name": "Default_2",
      "translation": [
        3.662261724472046, -0.36343416571617129, -18.3622989654541
      ],
      "rotation": [0.0, 0.0, 0.0, -1.0],
      "scale": [1.0, 1.0, 1.0],
      "mesh": 2
    }
  ],
  "meshes": [
    {
      "name": "Default",
      "primitives": [
        {
          "material": 0,
          "attributes": {
            "POSITION": 1,
            "NORMAL": 2,
            "TEXCOORD_0": 3
          },
          "indices": 0
        }
      ]
    },
    {
      "name": "Default_1",
      "primitives": [
        {
          "material": 1,
          "attributes": {
            "POSITION": 5,
            "NORMAL": 6,
            "TEXCOORD_0": 7
          },
          "indices": 4
        }
      ]
    },
    {
      "name": "Default_2",
      "primitives": [
        {
          "material": 2,
          "attributes": {
            "POSITION": 9,
            "NORMAL": 10,
            "TEXCOORD_0": 11
          },
          "indices": 8
        }
      ]
    }
  ],
  "bufferViews": [
    {
      "buffer": 0,
      "byteOffset": 0,
      "byteLength": 1512,
      "target": 34963
    },
    {
      "buffer": 0,
      "byteOffset": 1512,
      "byteLength": 8256,
      "target": 34962,
      "byteStride": 32
    },
    {
      "buffer": 1,
      "byteOffset": 0,
      "byteLength": 1512,
      "target": 34963
    },
    {
      "buffer": 1,
      "byteOffset": 1512,
      "byteLength": 8256,
      "target": 34962,
      "byteStride": 32
    },
    {
      "buffer": 2,
      "byteOffset": 0,
      "byteLength": 2832,
      "target": 34963
    },
    {
      "buffer": 2,
      "byteOffset": 2832,
      "byteLength": 15808,
      "target": 34962,
      "byteStride": 32
    }
  ],
  "buffers": [
    {
      "uri": "data:application/octet-stream;base64,",
      "byteLength": 9768
    },
    {
      "uri": "data:application/octet-stream;base64,",
      "byteLength": 9768
    },
    {
      "uri": "data:application/octet-stream;base64,",
      "byteLength": 18640
    }
  ],
  "materials": [
    {
      "emissiveFactor": [0.0, 0.0, 0.0],
      "pbrMetallicRoughness": {
        "baseColorFactor": [1.0, 0.0, 0.0, 1.0],
        "metallicFactor": 0.0,
        "roughnessFactor": 0.5
      },
      "alphaMode": "OPAQUE",
      "doubleSided": false,
      "name": "Default"
    },
    {
      "emissiveFactor": [0.0, 0.0, 0.0],
      "pbrMetallicRoughness": {
        "baseColorFactor": [1.0, 1.0, 1.0, 1.0],
        "metallicFactor": 0.0,
        "roughnessFactor": 0.5
      },
      "alphaMode": "OPAQUE",
      "doubleSided": false,
      "name": "Default_1"
    },
    {
      "emissiveFactor": [0.0, 0.0, 0.0],
      "pbrMetallicRoughness": {
        "baseColorFactor": [0.0, 0.0, 0.0, 1.0],
        "metallicFactor": 0.0,
        "roughnessFactor": 0.5
      },
      "alphaMode": "OPAQUE",
      "doubleSided": false,
      "name": "Default_2"
    }
  ]
}
