{
  "asset": {
    "generator": "Khronos glTF Blender I/O v3.2.43",
    "version": "2.0"
  },
  "scene": 0,
  "scenes": [
    {
      "name": "Scene",
      "nodes": [0]
    }
  ],
  "nodes": [
    {
      "mesh": 0,
      "name": "\u7acb\u65b9\u4f53",
      "rotation": [1, 0, 0, 0],
      "scale": [-1, -1, -1]
    }
  ],
  "materials": [
    {
      "doubleSided": true,
      "name": "\u6750\u8d28_2.001",
      "pbrMetallicRoughness": {
        "baseColorFactor": [
          0.6549019607843137, 0.6549019607843137, 0.6549019607843137, 1.0
        ],
        "roughnessFactor": 0.5527864098548889
      }
    },
    {
      "doubleSided": true,
      "name": "\u6750\u8d28_2.002",
      "pbrMetallicRoughness": {
        "baseColorFactor": [
          0.6549019607843137, 0.6549019607843137, 0.6549019607843137, 1.0
        ],
        "roughnessFactor": 0.5527864098548889
      }
    }
  ],
  "meshes": [
    {
      "name": "\u7acb\u65b9\u4f53",
      "primitives": [
        {
          "attributes": {
            "POSITION": 0,
            "NORMAL": 1,
            "TEXCOORD_0": 2,
            "TEXCOORD_1": 3
          },
          "indices": 4,
          "material": 0
        },
        {
          "attributes": {
            "POSITION": 5,
            "NORMAL": 6,
            "TEXCOORD_0": 7,
            "TEXCOORD_1": 8
          },
          "indices": 9,
          "material": 1
        }
      ]
    }
  ],
  "accessors": [
    {
      "bufferView": 0,
      "componentType": 5126,
      "count": 9558,
      "max": [1.2488667964935303, 0.497009813785553, 1.525565266609192],
      "min": [-1.1350953578948975, -0.49563369154930115, 0.02814442291855812],
      "type": "VEC3"
    },
    {
      "bufferView": 1,
      "componentType": 5126,
      "count": 9558,
      "type": "VEC3"
    },
    {
      "bufferView": 2,
      "componentType": 5126,
      "count": 9558,
      "type": "VEC2"
    },
    {
      "bufferView": 3,
      "componentType": 5126,
      "count": 9558,
      "type": "VEC2"
    },
    {
      "bufferView": 4,
      "componentType": 5123,
      "count": 29901,
      "type": "SCALAR"
    },
    {
      "bufferView": 5,
      "componentType": 5126,
      "count": 493,
      "max": [-0.15308250486850739, 0.3360764980316162, 1.320309042930603],
      "min": [-0.5740017294883728, 0.07772880792617798, 1.096706748008728],
      "type": "VEC3"
    },
    {
      "bufferView": 6,
      "componentType": 5126,
      "count": 493,
      "type": "VEC3"
    },
    {
      "bufferView": 7,
      "componentType": 5126,
      "count": 493,
      "type": "VEC2"
    },
    {
      "bufferView": 8,
      "componentType": 5126,
      "count": 493,
      "type": "VEC2"
    },
    {
      "bufferView": 9,
      "componentType": 5123,
      "count": 2472,
      "type": "SCALAR"
    }
  ],
  "bufferViews": [
    {
      "buffer": 0,
      "byteLength": 114696,
      "byteOffset": 0
    },
    {
      "buffer": 0,
      "byteLength": 114696,
      "byteOffset": 114696
    },
    {
      "buffer": 0,
      "byteLength": 76464,
      "byteOffset": 229392
    },
    {
      "buffer": 0,
      "byteLength": 76464,
      "byteOffset": 305856
    },
    {
      "buffer": 0,
      "byteLength": 59802,
      "byteOffset": 382320
    },
    {
      "buffer": 0,
      "byteLength": 5916,
      "byteOffset": 442124
    },
    {
      "buffer": 0,
      "byteLength": 5916,
      "byteOffset": 448040
    },
    {
      "buffer": 0,
      "byteLength": 3944,
      "byteOffset": 453956
    },
    {
      "buffer": 0,
      "byteLength": 3944,
      "byteOffset": 457900
    },
    {
      "buffer": 0,
      "byteLength": 4944,
      "byteOffset": 461844
    }
  ],
  "buffers": [
    {
      "byteLength": 466788,
      "uri": "data:application/octet-stream;base64,"
    }
  ]
}
