{
  "asset": {
    "generator": "Khronos glTF Blender I/O v3.3.27",
    "version": "2.0"
  },
  "scene": 0,
  "scenes": [
    {
      "name": "Scene",
      "nodes": [0]
    }
  ],
  "nodes": [
    {
      "mesh": 0,
      "name": "\u7acb\u65b9\u4f53",
      "rotation": [1, 0, 0, 0],
      "scale": [-1, -1, -1]
    }
  ],
  "materials": [
    {
      "doubleSided": true,
      "name": "Material",
      "pbrMetallicRoughness": {
        "baseColorFactor": [
          0.6499999761581421, 0.6499999761581421, 0.6499999761581421, 1
        ],
        "metallicFactor": 0,
        "roughnessFactor": 0.5
      }
    }
  ],
  "meshes": [
    {
      "name": "\u7acb\u65b9\u4f53",
      "primitives": [
        {
          "attributes": {
            "POSITION": 0,
            "NORMAL": 1,
            "TEXCOORD_0": 2,
            "TEXCOORD_1": 3
          },
          "indices": 4,
          "material": 0
        }
      ]
    }
  ],
  "accessors": [
    {
      "bufferView": 0,
      "componentType": 5126,
      "count": 10051,
      "max": [1.2488667964935303, 0.497009813785553, 1.525565266609192],
      "min": [-1.1350953578948975, -0.49563369154930115, 0.02814442291855812],
      "type": "VEC3"
    },
    {
      "bufferView": 1,
      "componentType": 5126,
      "count": 10051,
      "type": "VEC3"
    },
    {
      "bufferView": 2,
      "componentType": 5126,
      "count": 10051,
      "type": "VEC2"
    },
    {
      "bufferView": 3,
      "componentType": 5126,
      "count": 10051,
      "type": "VEC2"
    },
    {
      "bufferView": 4,
      "componentType": 5123,
      "count": 32373,
      "type": "SCALAR"
    }
  ],
  "bufferViews": [
    {
      "buffer": 0,
      "byteLength": 120612,
      "byteOffset": 0,
      "target": 34962
    },
    {
      "buffer": 0,
      "byteLength": 120612,
      "byteOffset": 120612,
      "target": 34962
    },
    {
      "buffer": 0,
      "byteLength": 80408,
      "byteOffset": 241224,
      "target": 34962
    },
    {
      "buffer": 0,
      "byteLength": 80408,
      "byteOffset": 321632,
      "target": 34962
    },
    {
      "buffer": 0,
      "byteLength": 64746,
      "byteOffset": 402040,
      "target": 34963
    }
  ],
  "buffers": [
    {
      "byteLength": 466788,
      "uri": "data:application/octet-stream;base64,"
    }
  ]
}
