{
  "asset": {
    "generator": "Khronos glTF Blender I/O v3.3.27",
    "version": "2.0"
  },
  "extensionsUsed": ["KHR_materials_emissive_strength"],
  "scene": 0,
  "scenes": [
    {
      "name": "Scene",
      "nodes": [0, 1, 2, 3]
    }
  ],
  "nodes": [
    {
      "mesh": 0,
      "name": "\u5c0f\u5df4\u6a21\u578b-\u5927",
      "scale": [0.6499999761581421, 0.6499999761581421, 0.6499999761581421]
    },
    {
      "mesh": 1,
      "name": "\u5239\u8f66\u706f",
      "scale": [0.6499999761581421, 0.6499999761581421, 0.6499999761581421]
    },
    {
      "mesh": 2,
      "name": "\u5de6\u8f6c\u5411\u706f",
      "scale": [0.6499999761581421, 0.6499999761581421, 0.6499999761581421]
    },
    {
      "mesh": 3,
      "name": "\u53f3\u8f6c\u5411\u706f",
      "scale": [0.6499999761581421, 0.6499999761581421, 0.6499999761581421]
    }
  ],
  "materials": [
    {
      "doubleSided": true,
      "name": "\u6750\u8d28.002",
      "pbrMetallicRoughness": {
        "baseColorFactor": [
          0.800000011920929, 0.800000011920929, 0.800000011920929, 1
        ],
        "metallicFactor": 0,
        "roughnessFactor": 0.5
      }
    },
    {
      "doubleSided": true,
      "emissiveFactor": [0, 0, 0],
      "extensions": {
        "KHR_materials_emissive_strength": {
          "emissiveStrength": 4.999998092651367
        }
      },
      "name": "\u5c3e\u706f\u7ea2\u8272",
      "pbrMetallicRoughness": {
        "baseColorFactor": [
          0.8000000715255737, 0.4894934296607971, 0.4585552513599396, 1
        ],
        "metallicFactor": 0,
        "roughnessFactor": 0.5
      }
    },
    {
      "doubleSided": true,
      "emissiveFactor": [0, 0, 0],
      "extensions": {
        "KHR_materials_emissive_strength": {
          "emissiveStrength": 31.992633106302037
        }
      },
      "name": "\u5c3e\u706f\u9ec4\u8272",
      "pbrMetallicRoughness": {
        "baseColorFactor": [
          0.8000000715255737, 0.48111408948898315, 0.0554560162127018, 1
        ],
        "metallicFactor": 0,
        "roughnessFactor": 0.5
      }
    }
  ],
  "meshes": [
    {
      "name": "\u67f1\u4f53.002",
      "primitives": [
        {
          "attributes": {
            "POSITION": 0,
            "NORMAL": 1,
            "TEXCOORD_0": 2
          },
          "indices": 3,
          "material": 0
        }
      ]
    },
    {
      "name": "\u67f1\u4f53.003",
      "primitives": [
        {
          "attributes": {
            "POSITION": 4,
            "NORMAL": 5,
            "TEXCOORD_0": 6
          },
          "indices": 7,
          "material": 1
        }
      ]
    },
    {
      "name": "\u67f1\u4f53.005",
      "primitives": [
        {
          "attributes": {
            "POSITION": 8,
            "NORMAL": 9,
            "TEXCOORD_0": 10
          },
          "indices": 11,
          "material": 2
        }
      ]
    },
    {
      "name": "\u67f1\u4f53.006",
      "primitives": [
        {
          "attributes": {
            "POSITION": 12,
            "NORMAL": 13,
            "TEXCOORD_0": 14
          },
          "indices": 15,
          "material": 2
        }
      ]
    }
  ],
  "accessors": [
    {
      "bufferView": 0,
      "componentType": 5126,
      "count": 13441,
      "max": [7.875651836395264, 2.869953155517578, 5.5476202964782715],
      "min": [-11.192224502563477, -2.9038445949554443, 0.005075183231383562],
      "type": "VEC3"
    },
    {
      "bufferView": 1,
      "componentType": 5126,
      "count": 13441,
      "type": "VEC3"
    },
    {
      "bufferView": 2,
      "componentType": 5126,
      "count": 13441,
      "type": "VEC2"
    },
    {
      "bufferView": 3,
      "componentType": 5123,
      "count": 15129,
      "type": "SCALAR"
    },
    {
      "bufferView": 4,
      "componentType": 5126,
      "count": 96,
      "max": [-11.139505386352539, 2.369215965270996, 2.1103675365448],
      "min": [-11.157798767089844, -2.4802026748657227, 1.4876670837402344],
      "type": "VEC3"
    },
    {
      "bufferView": 5,
      "componentType": 5126,
      "count": 96,
      "type": "VEC3"
    },
    {
      "bufferView": 6,
      "componentType": 5126,
      "count": 96,
      "type": "VEC2"
    },
    {
      "bufferView": 7,
      "componentType": 5123,
      "count": 144,
      "type": "SCALAR"
    },
    {
      "bufferView": 8,
      "componentType": 5126,
      "count": 28,
      "max": [-11.139934539794922, 2.3660550117492676, 1.4907171726226807],
      "min": [-11.157983779907227, 2.0980825424194336, 1.1763169765472412],
      "type": "VEC3"
    },
    {
      "bufferView": 9,
      "componentType": 5126,
      "count": 28,
      "type": "VEC3"
    },
    {
      "bufferView": 10,
      "componentType": 5126,
      "count": 28,
      "type": "VEC2"
    },
    {
      "bufferView": 11,
      "componentType": 5123,
      "count": 42,
      "type": "SCALAR"
    },
    {
      "bufferView": 12,
      "componentType": 5126,
      "count": 28,
      "max": [-11.139959335327148, -2.2044458389282227, 1.492647647857666],
      "min": [-11.157983779907227, -2.4771432876586914, 1.1791969537734985],
      "type": "VEC3"
    },
    {
      "bufferView": 13,
      "componentType": 5126,
      "count": 28,
      "type": "VEC3"
    },
    {
      "bufferView": 14,
      "componentType": 5126,
      "count": 28,
      "type": "VEC2"
    },
    {
      "bufferView": 15,
      "componentType": 5123,
      "count": 42,
      "type": "SCALAR"
    }
  ],
  "bufferViews": [
    {
      "buffer": 0,
      "byteLength": 161292,
      "byteOffset": 0,
      "target": 34962
    },
    {
      "buffer": 0,
      "byteLength": 161292,
      "byteOffset": 161292,
      "target": 34962
    },
    {
      "buffer": 0,
      "byteLength": 107528,
      "byteOffset": 322584,
      "target": 34962
    },
    {
      "buffer": 0,
      "byteLength": 30258,
      "byteOffset": 430112,
      "target": 34963
    },
    {
      "buffer": 0,
      "byteLength": 1152,
      "byteOffset": 460372,
      "target": 34962
    },
    {
      "buffer": 0,
      "byteLength": 1152,
      "byteOffset": 461524,
      "target": 34962
    },
    {
      "buffer": 0,
      "byteLength": 768,
      "byteOffset": 462676,
      "target": 34962
    },
    {
      "buffer": 0,
      "byteLength": 288,
      "byteOffset": 463444,
      "target": 34963
    },
    {
      "buffer": 0,
      "byteLength": 336,
      "byteOffset": 463732,
      "target": 34962
    },
    {
      "buffer": 0,
      "byteLength": 336,
      "byteOffset": 464068,
      "target": 34962
    },
    {
      "buffer": 0,
      "byteLength": 224,
      "byteOffset": 464404,
      "target": 34962
    },
    {
      "buffer": 0,
      "byteLength": 84,
      "byteOffset": 464628,
      "target": 34963
    },
    {
      "buffer": 0,
      "byteLength": 336,
      "byteOffset": 464712,
      "target": 34962
    },
    {
      "buffer": 0,
      "byteLength": 336,
      "byteOffset": 465048,
      "target": 34962
    },
    {
      "buffer": 0,
      "byteLength": 224,
      "byteOffset": 465384,
      "target": 34962
    },
    {
      "buffer": 0,
      "byteLength": 84,
      "byteOffset": 465608,
      "target": 34963
    }
  ],
  "buffers": [
    {
      "byteLength": 465692,
      "uri": "data:application/octet-stream;base64,"
    }
  ]
}
