{
  "asset": {
    "generator": "Khronos glTF Blender I/O v3.3.27",
    "version": "2.0"
  },
  "extensionsUsed": ["KHR_materials_emissive_strength"],
  "scene": 0,
  "scenes": [
    {
      "name": "Scene",
      "nodes": [0, 1, 2, 3]
    }
  ],
  "nodes": [
    {
      "mesh": 0,
      "name": "\u7bb1\u8d27\u8f66",
      "rotation": [0, 0, 1, 7.549790126404332e-8]
    },
    {
      "mesh": 1,
      "name": "\u5239\u8f66\u706f",
      "rotation": [0, 0, 1, 7.549790126404332e-8]
    },
    {
      "mesh": 2,
      "name": "\u5de6\u8f6c\u5411\u706f",
      "rotation": [0, 0, 1, 7.549790126404332e-8]
    },
    {
      "mesh": 3,
      "name": "\u53f3\u8f6c\u5411\u706f",
      "rotation": [0, 0, 1, 7.549790126404332e-8]
    }
  ],
  "materials": [
    {
      "doubleSided": true,
      "name": "\u6750\u8d28.002",
      "pbrMetallicRoughness": {
        "baseColorFactor": [
          0.6499999761581421, 0.6499999761581421, 0.6499999761581421, 1
        ],
        "metallicFactor": 0,
        "roughnessFactor": 0.5
      }
    },
    {
      "doubleSided": true,
      "emissiveFactor": [0, 0, 0],
      "extensions": {
        "KHR_materials_emissive_strength": {
          "emissiveStrength": 4.999998092651367
        }
      },
      "name": "\u5c3e\u706f\u7ea2\u8272",
      "pbrMetallicRoughness": {
        "baseColorFactor": [
          0.8000000715255737, 0.4894934296607971, 0.4585552513599396, 1
        ],
        "metallicFactor": 0,
        "roughnessFactor": 0.5
      }
    },
    {
      "doubleSided": true,
      "emissiveFactor": [0, 0, 0],
      "extensions": {
        "KHR_materials_emissive_strength": {
          "emissiveStrength": 31.992633106302037
        }
      },
      "name": "\u5c3e\u706f\u9ec4\u8272",
      "pbrMetallicRoughness": {
        "baseColorFactor": [
          0.8000000715255737, 0.48111408948898315, 0.0554560162127018, 1
        ],
        "metallicFactor": 0,
        "roughnessFactor": 0.5
      }
    }
  ],
  "meshes": [
    {
      "name": "\u7acb\u65b9\u4f53.001",
      "primitives": [
        {
          "attributes": {
            "POSITION": 0,
            "NORMAL": 1,
            "TEXCOORD_0": 2
          },
          "indices": 3,
          "material": 0
        }
      ]
    },
    {
      "name": "\u7acb\u65b9\u4f53.003",
      "primitives": [
        {
          "attributes": {
            "POSITION": 4,
            "NORMAL": 5,
            "TEXCOORD_0": 6
          },
          "indices": 7,
          "material": 1
        }
      ]
    },
    {
      "name": "\u7acb\u65b9\u4f53.004",
      "primitives": [
        {
          "attributes": {
            "POSITION": 8,
            "NORMAL": 9,
            "TEXCOORD_0": 10
          },
          "indices": 11,
          "material": 2
        }
      ]
    },
    {
      "name": "\u7acb\u65b9\u4f53.005",
      "primitives": [
        {
          "attributes": {
            "POSITION": 12,
            "NORMAL": 13,
            "TEXCOORD_0": 14
          },
          "indices": 15,
          "material": 2
        }
      ]
    }
  ],
  "accessors": [
    {
      "bufferView": 0,
      "componentType": 5126,
      "count": 13649,
      "max": [6.915672302246094, 1.5692023038864136, 4.040304183959961],
      "min": [-5.415200710296631, -1.5705225467681885, 0.013138358481228352],
      "type": "VEC3"
    },
    {
      "bufferView": 1,
      "componentType": 5126,
      "count": 13649,
      "type": "VEC3"
    },
    {
      "bufferView": 2,
      "componentType": 5126,
      "count": 13649,
      "type": "VEC2"
    },
    {
      "bufferView": 3,
      "componentType": 5123,
      "count": 15933,
      "type": "SCALAR"
    },
    {
      "bufferView": 4,
      "componentType": 5126,
      "count": 176,
      "max": [6.90062141418457, 1.2472763061523438, 1.1270289421081543],
      "min": [6.869553565979004, -1.277487874031067, 0.9752483367919922],
      "type": "VEC3"
    },
    {
      "bufferView": 5,
      "componentType": 5126,
      "count": 176,
      "type": "VEC3"
    },
    {
      "bufferView": 6,
      "componentType": 5126,
      "count": 176,
      "type": "VEC2"
    },
    {
      "bufferView": 7,
      "componentType": 5123,
      "count": 264,
      "type": "SCALAR"
    },
    {
      "bufferView": 8,
      "componentType": 5126,
      "count": 52,
      "max": [6.900619983673096, -1.2753921747207642, 1.1270289421081543],
      "min": [6.869553565979004, -1.4487862586975098, 0.9752486348152161],
      "type": "VEC3"
    },
    {
      "bufferView": 9,
      "componentType": 5126,
      "count": 52,
      "type": "VEC3"
    },
    {
      "bufferView": 10,
      "componentType": 5126,
      "count": 52,
      "type": "VEC2"
    },
    {
      "bufferView": 11,
      "componentType": 5123,
      "count": 78,
      "type": "SCALAR"
    },
    {
      "bufferView": 12,
      "componentType": 5126,
      "count": 52,
      "max": [6.90062141418457, 1.429953932762146, 1.1270285844802856],
      "min": [6.8695549964904785, 1.2451773881912231, 0.9752482771873474],
      "type": "VEC3"
    },
    {
      "bufferView": 13,
      "componentType": 5126,
      "count": 52,
      "type": "VEC3"
    },
    {
      "bufferView": 14,
      "componentType": 5126,
      "count": 52,
      "type": "VEC2"
    },
    {
      "bufferView": 15,
      "componentType": 5123,
      "count": 78,
      "type": "SCALAR"
    }
  ],
  "bufferViews": [
    {
      "buffer": 0,
      "byteLength": 163788,
      "byteOffset": 0,
      "target": 34962
    },
    {
      "buffer": 0,
      "byteLength": 163788,
      "byteOffset": 163788,
      "target": 34962
    },
    {
      "buffer": 0,
      "byteLength": 109192,
      "byteOffset": 327576,
      "target": 34962
    },
    {
      "buffer": 0,
      "byteLength": 31866,
      "byteOffset": 436768,
      "target": 34963
    },
    {
      "buffer": 0,
      "byteLength": 2112,
      "byteOffset": 468636,
      "target": 34962
    },
    {
      "buffer": 0,
      "byteLength": 2112,
      "byteOffset": 470748,
      "target": 34962
    },
    {
      "buffer": 0,
      "byteLength": 1408,
      "byteOffset": 472860,
      "target": 34962
    },
    {
      "buffer": 0,
      "byteLength": 528,
      "byteOffset": 474268,
      "target": 34963
    },
    {
      "buffer": 0,
      "byteLength": 624,
      "byteOffset": 474796,
      "target": 34962
    },
    {
      "buffer": 0,
      "byteLength": 624,
      "byteOffset": 475420,
      "target": 34962
    },
    {
      "buffer": 0,
      "byteLength": 416,
      "byteOffset": 476044,
      "target": 34962
    },
    {
      "buffer": 0,
      "byteLength": 156,
      "byteOffset": 476460,
      "target": 34963
    },
    {
      "buffer": 0,
      "byteLength": 624,
      "byteOffset": 476616,
      "target": 34962
    },
    {
      "buffer": 0,
      "byteLength": 624,
      "byteOffset": 477240,
      "target": 34962
    },
    {
      "buffer": 0,
      "byteLength": 416,
      "byteOffset": 477864,
      "target": 34962
    },
    {
      "buffer": 0,
      "byteLength": 156,
      "byteOffset": 478280,
      "target": 34963
    }
  ],
  "buffers": [
    {
      "byteLength": 478436,
      "uri": "data:application/octet-stream;base64,"
    }
  ]
}
