{
  "asset": {
    "generator": "Khronos glTF Blender I/O v3.3.27",
    "version": "2.0"
  },
  "extensionsUsed": ["KHR_materials_emissive_strength"],
  "scene": 0,
  "scenes": [
    {
      "name": "Scene",
      "nodes": [0, 1, 2, 3]
    }
  ],
  "nodes": [
    {
      "mesh": 0,
      "name": "\u5c0f\u5df4\u6a21\u578b"
    },
    {
      "mesh": 1,
      "name": "\u5239\u8f66\u706f"
    },
    {
      "mesh": 2,
      "name": "\u5de6\u8f6c\u5411\u706f"
    },
    {
      "mesh": 3,
      "name": "\u53f3\u8f6c\u5411\u706f"
    }
  ],
  "materials": [
    {
      "doubleSided": true,
      "name": "\u6750\u8d28",
      "pbrMetallicRoughness": {
        "baseColorFactor": [
          0.6499999761581421, 0.6499999761581421, 0.6499999761581421, 1
        ],
        "metallicFactor": 0,
        "roughnessFactor": 0.5
      }
    },
    {
      "doubleSided": true,
      "emissiveFactor": [0, 0, 0],
      "extensions": {
        "KHR_materials_emissive_strength": {
          "emissiveStrength": 4.999998092651367
        }
      },
      "name": "\u5c3e\u706f\u7ea2\u8272",
      "pbrMetallicRoughness": {
        "baseColorFactor": [
          0.8000000715255737, 0.4894934296607971, 0.4585552513599396, 1
        ],
        "metallicFactor": 0,
        "roughnessFactor": 0.5
      }
    },
    {
      "doubleSided": true,
      "emissiveFactor": [0, 0, 0],
      "extensions": {
        "KHR_materials_emissive_strength": {
          "emissiveStrength": 31.992633106302037
        }
      },
      "name": "\u5c3e\u706f\u9ec4\u8272",
      "pbrMetallicRoughness": {
        "baseColorFactor": [
          0.8000000715255737, 0.48111408948898315, 0.0554560162127018, 1
        ],
        "metallicFactor": 0,
        "roughnessFactor": 0.5
      }
    }
  ],
  "meshes": [
    {
      "name": "\u67f1\u4f53.006",
      "primitives": [
        {
          "attributes": {
            "POSITION": 0,
            "NORMAL": 1,
            "TEXCOORD_0": 2
          },
          "indices": 3,
          "material": 0
        }
      ]
    },
    {
      "name": "\u67f1\u4f53.001",
      "primitives": [
        {
          "attributes": {
            "POSITION": 4,
            "NORMAL": 5,
            "TEXCOORD_0": 6
          },
          "indices": 7,
          "material": 1
        }
      ]
    },
    {
      "name": "\u67f1\u4f53.002",
      "primitives": [
        {
          "attributes": {
            "POSITION": 8,
            "NORMAL": 9,
            "TEXCOORD_0": 10
          },
          "indices": 11,
          "material": 2
        }
      ]
    },
    {
      "name": "\u67f1\u4f53.003",
      "primitives": [
        {
          "attributes": {
            "POSITION": 12,
            "NORMAL": 13,
            "TEXCOORD_0": 14
          },
          "indices": 15,
          "material": 2
        }
      ]
    }
  ],
  "accessors": [
    {
      "bufferView": 0,
      "componentType": 5126,
      "count": 13469,
      "max": [3.292513608932495, 1.5388678312301636, 3.0102689266204834],
      "min": [-4.790804862976074, -1.588602066040039, 0.006720315665006638],
      "type": "VEC3"
    },
    {
      "bufferView": 1,
      "componentType": 5126,
      "count": 13469,
      "type": "VEC3"
    },
    {
      "bufferView": 2,
      "componentType": 5126,
      "count": 13469,
      "type": "VEC2"
    },
    {
      "bufferView": 3,
      "componentType": 5123,
      "count": 15147,
      "type": "SCALAR"
    },
    {
      "bufferView": 4,
      "componentType": 5126,
      "count": 56,
      "max": [-4.76223087310791, 1.2676377296447754, 1.1484237909317017],
      "min": [-4.772155284881592, -1.3591303825378418, 0.786369264125824],
      "type": "VEC3"
    },
    {
      "bufferView": 5,
      "componentType": 5126,
      "count": 56,
      "type": "VEC3"
    },
    {
      "bufferView": 6,
      "componentType": 5126,
      "count": 56,
      "type": "VEC2"
    },
    {
      "bufferView": 7,
      "componentType": 5123,
      "count": 84,
      "type": "SCALAR"
    },
    {
      "bufferView": 8,
      "componentType": 5126,
      "count": 28,
      "max": [-4.762479782104492, 1.2658002376556396, 0.7884883880615234],
      "min": [-4.772240161895752, 1.120774269104004, 0.6424798965454102],
      "type": "VEC3"
    },
    {
      "bufferView": 9,
      "componentType": 5126,
      "count": 28,
      "type": "VEC3"
    },
    {
      "bufferView": 10,
      "componentType": 5126,
      "count": 28,
      "type": "VEC2"
    },
    {
      "bufferView": 11,
      "componentType": 5123,
      "count": 42,
      "type": "SCALAR"
    },
    {
      "bufferView": 12,
      "componentType": 5126,
      "count": 28,
      "max": [-4.7624921798706055, -1.2097619771957397, 0.7896108627319336],
      "min": [-4.77224063873291, -1.3573516607284546, 0.6440397500991821],
      "type": "VEC3"
    },
    {
      "bufferView": 13,
      "componentType": 5126,
      "count": 28,
      "type": "VEC3"
    },
    {
      "bufferView": 14,
      "componentType": 5126,
      "count": 28,
      "type": "VEC2"
    },
    {
      "bufferView": 15,
      "componentType": 5123,
      "count": 42,
      "type": "SCALAR"
    }
  ],
  "bufferViews": [
    {
      "buffer": 0,
      "byteLength": 161628,
      "byteOffset": 0,
      "target": 34962
    },
    {
      "buffer": 0,
      "byteLength": 161628,
      "byteOffset": 161628,
      "target": 34962
    },
    {
      "buffer": 0,
      "byteLength": 107752,
      "byteOffset": 323256,
      "target": 34962
    },
    {
      "buffer": 0,
      "byteLength": 30294,
      "byteOffset": 431008,
      "target": 34963
    },
    {
      "buffer": 0,
      "byteLength": 672,
      "byteOffset": 461304,
      "target": 34962
    },
    {
      "buffer": 0,
      "byteLength": 672,
      "byteOffset": 461976,
      "target": 34962
    },
    {
      "buffer": 0,
      "byteLength": 448,
      "byteOffset": 462648,
      "target": 34962
    },
    {
      "buffer": 0,
      "byteLength": 168,
      "byteOffset": 463096,
      "target": 34963
    },
    {
      "buffer": 0,
      "byteLength": 336,
      "byteOffset": 463264,
      "target": 34962
    },
    {
      "buffer": 0,
      "byteLength": 336,
      "byteOffset": 463600,
      "target": 34962
    },
    {
      "buffer": 0,
      "byteLength": 224,
      "byteOffset": 463936,
      "target": 34962
    },
    {
      "buffer": 0,
      "byteLength": 84,
      "byteOffset": 464160,
      "target": 34963
    },
    {
      "buffer": 0,
      "byteLength": 336,
      "byteOffset": 464244,
      "target": 34962
    },
    {
      "buffer": 0,
      "byteLength": 336,
      "byteOffset": 464580,
      "target": 34962
    },
    {
      "buffer": 0,
      "byteLength": 224,
      "byteOffset": 464916,
      "target": 34962
    },
    {
      "buffer": 0,
      "byteLength": 84,
      "byteOffset": 465140,
      "target": 34963
    }
  ],
  "buffers": [
    {
      "byteLength": 465224,
      "uri": "data:application/octet-stream;base64,"
    }
  ]
}
