{
  "asset": {
    "generator": "Khronos glTF Blender I/O v3.3.27",
    "version": "2.0"
  },
  "extensionsUsed": ["KHR_materials_emissive_strength"],
  "scene": 0,
  "scenes": [
    {
      "name": "Scene",
      "nodes": [0, 1, 2, 3]
    }
  ],
  "nodes": [
    {
      "mesh": 0,
      "name": "\u5de6\u8f6c\u5411\u706f",
      "scale": [0.5220023989677429, 0.5220023989677429, 0.5220023989677429]
    },
    {
      "mesh": 1,
      "name": "\u5239\u8f66\u706f",
      "scale": [0.5220023989677429, 0.5220023989677429, 0.5220023989677429]
    },
    {
      "mesh": 2,
      "name": "\u7bb1\u8d27\u8f66",
      "scale": [0.5220023989677429, 0.5220023989677429, 0.5220023989677429]
    },
    {
      "mesh": 3,
      "name": "\u53f3\u8f6c\u5411\u706f",
      "scale": [0.5220023989677429, 0.5220023989677429, 0.5220023989677429]
    }
  ],
  "materials": [
    {
      "doubleSided": true,
      "emissiveFactor": [0, 0, 0],
      "extensions": {
        "KHR_materials_emissive_strength": {
          "emissiveStrength": 31.992633106302037
        }
      },
      "name": "\u5c3e\u706f\u9ec4\u8272",
      "pbrMetallicRoughness": {
        "baseColorFactor": [
          0.8000000715255737, 0.48111408948898315, 0.0554560162127018, 1
        ],
        "metallicFactor": 0,
        "roughnessFactor": 0.5
      }
    },
    {
      "doubleSided": true,
      "emissiveFactor": [0, 0, 0],
      "extensions": {
        "KHR_materials_emissive_strength": {
          "emissiveStrength": 4.999998092651367
        }
      },
      "name": "\u5c3e\u706f\u7ea2\u8272",
      "pbrMetallicRoughness": {
        "baseColorFactor": [
          0.8000000715255737, 0.4894934296607971, 0.4585552513599396, 1
        ],
        "metallicFactor": 0,
        "roughnessFactor": 0.5
      }
    },
    {
      "doubleSided": true,
      "name": "\u6750\u8d28.002",
      "pbrMetallicRoughness": {
        "baseColorFactor": [
          0.6499999761581421, 0.6499999761581421, 0.6499999761581421, 1
        ],
        "metallicFactor": 0,
        "roughnessFactor": 0.5
      }
    }
  ],
  "meshes": [
    {
      "name": "\u7acb\u65b9\u4f53.001",
      "primitives": [
        {
          "attributes": {
            "POSITION": 0,
            "NORMAL": 1,
            "TEXCOORD_0": 2
          },
          "indices": 3,
          "material": 0
        }
      ]
    },
    {
      "name": "\u7acb\u65b9\u4f53.002",
      "primitives": [
        {
          "attributes": {
            "POSITION": 4,
            "NORMAL": 5,
            "TEXCOORD_0": 6
          },
          "indices": 7,
          "material": 1
        }
      ]
    },
    {
      "name": "\u7acb\u65b9\u4f53.004",
      "primitives": [
        {
          "attributes": {
            "POSITION": 8,
            "NORMAL": 9,
            "TEXCOORD_0": 10
          },
          "indices": 11,
          "material": 2
        }
      ]
    },
    {
      "name": "\u7acb\u65b9\u4f53.005",
      "primitives": [
        {
          "attributes": {
            "POSITION": 12,
            "NORMAL": 13,
            "TEXCOORD_0": 14
          },
          "indices": 15,
          "material": 0
        }
      ]
    }
  ],
  "accessors": [
    {
      "bufferView": 0,
      "componentType": 5126,
      "count": 52,
      "max": [-6.4650654792785645, 1.8552093505859375, 1.4293372631072998],
      "min": [-6.504893779754639, 1.6329091787338257, 1.234747052192688],
      "type": "VEC3"
    },
    {
      "bufferView": 1,
      "componentType": 5126,
      "count": 52,
      "type": "VEC3"
    },
    {
      "bufferView": 2,
      "componentType": 5126,
      "count": 52,
      "type": "VEC2"
    },
    {
      "bufferView": 3,
      "componentType": 5123,
      "count": 78,
      "type": "SCALAR"
    },
    {
      "bufferView": 4,
      "componentType": 5126,
      "count": 176,
      "max": [-6.4650654792785645, 1.6355959177017212, 1.4293372631072998],
      "min": [-6.504894733428955, -1.6012815237045288, 1.2347469329833984],
      "type": "VEC3"
    },
    {
      "bufferView": 5,
      "componentType": 5126,
      "count": 176,
      "type": "VEC3"
    },
    {
      "bufferView": 6,
      "componentType": 5126,
      "count": 176,
      "type": "VEC2"
    },
    {
      "bufferView": 7,
      "componentType": 5123,
      "count": 264,
      "type": "SCALAR"
    },
    {
      "bufferView": 8,
      "componentType": 5126,
      "count": 9422,
      "max": [5.364443778991699, 2.01129412651062, 5.105974197387695],
      "min": [-6.5241923332214355, -2.014030933380127, 0.0012704303953796625],
      "type": "VEC3"
    },
    {
      "bufferView": 9,
      "componentType": 5126,
      "count": 9422,
      "type": "VEC3"
    },
    {
      "bufferView": 10,
      "componentType": 5126,
      "count": 9422,
      "type": "VEC2"
    },
    {
      "bufferView": 11,
      "componentType": 5123,
      "count": 11070,
      "type": "SCALAR"
    },
    {
      "bufferView": 12,
      "componentType": 5126,
      "count": 52,
      "max": [-6.465066432952881, -1.5985902547836304, 1.4293370246887207],
      "min": [-6.504894733428955, -1.8354835510253906, 1.2347469329833984],
      "type": "VEC3"
    },
    {
      "bufferView": 13,
      "componentType": 5126,
      "count": 52,
      "type": "VEC3"
    },
    {
      "bufferView": 14,
      "componentType": 5126,
      "count": 52,
      "type": "VEC2"
    },
    {
      "bufferView": 15,
      "componentType": 5123,
      "count": 78,
      "type": "SCALAR"
    }
  ],
  "bufferViews": [
    {
      "buffer": 0,
      "byteLength": 624,
      "byteOffset": 0,
      "target": 34962
    },
    {
      "buffer": 0,
      "byteLength": 624,
      "byteOffset": 624,
      "target": 34962
    },
    {
      "buffer": 0,
      "byteLength": 416,
      "byteOffset": 1248,
      "target": 34962
    },
    {
      "buffer": 0,
      "byteLength": 156,
      "byteOffset": 1664,
      "target": 34963
    },
    {
      "buffer": 0,
      "byteLength": 2112,
      "byteOffset": 1820,
      "target": 34962
    },
    {
      "buffer": 0,
      "byteLength": 2112,
      "byteOffset": 3932,
      "target": 34962
    },
    {
      "buffer": 0,
      "byteLength": 1408,
      "byteOffset": 6044,
      "target": 34962
    },
    {
      "buffer": 0,
      "byteLength": 528,
      "byteOffset": 7452,
      "target": 34963
    },
    {
      "buffer": 0,
      "byteLength": 113064,
      "byteOffset": 7980,
      "target": 34962
    },
    {
      "buffer": 0,
      "byteLength": 113064,
      "byteOffset": 121044,
      "target": 34962
    },
    {
      "buffer": 0,
      "byteLength": 75376,
      "byteOffset": 234108,
      "target": 34962
    },
    {
      "buffer": 0,
      "byteLength": 22140,
      "byteOffset": 309484,
      "target": 34963
    },
    {
      "buffer": 0,
      "byteLength": 624,
      "byteOffset": 331624,
      "target": 34962
    },
    {
      "buffer": 0,
      "byteLength": 624,
      "byteOffset": 332248,
      "target": 34962
    },
    {
      "buffer": 0,
      "byteLength": 416,
      "byteOffset": 332872,
      "target": 34962
    },
    {
      "buffer": 0,
      "byteLength": 156,
      "byteOffset": 333288,
      "target": 34963
    }
  ],
  "buffers": [
    {
      "byteLength": 333444,
      "uri": "data:application/octet-stream;base64,"
    }
  ]
}
