{
  "asset": {
    "generator": "Khronos glTF Blender I/O v3.2.43",
    "version": "2.0"
  },
  "scene": 0,
  "scenes": [
    {
      "name": "Scene",
      "nodes": [0]
    }
  ],
  "nodes": [
    {
      "mesh": 0,
      "name": "Default",
      "rotation": [0.5, -0.5, -0.5, 0.5],
      "translation": [0, 0, 0.6928538084030151]
    }
  ],
  "materials": [
    {
      "name": "Default",
      "pbrMetallicRoughness": {
        "baseColorFactor": [
          0.6549019813537598, 0.6549019813537598, 0.6549019813537598, 1
        ],
        "metallicFactor": 0,
        "roughnessFactor": 0.5
      }
    }
  ],
  "meshes": [
    {
      "name": "Default",
      "primitives": [
        {
          "attributes": {
            "POSITION": 0,
            "NORMAL": 1,
            "TEXCOORD_0": 2
          },
          "indices": 3,
          "material": 0
        }
      ]
    }
  ],
  "accessors": [
    {
      "bufferView": 0,
      "componentType": 5126,
      "count": 12292,
      "max": [0.3258120119571686, 0.7903464436531067, 1.1435267925262451],
      "min": [-0.31843167543411255, -0.6875311732292175, -0.8173825740814209],
      "type": "VEC3"
    },
    {
      "bufferView": 1,
      "componentType": 5126,
      "count": 12292,
      "type": "VEC3"
    },
    {
      "bufferView": 2,
      "componentType": 5126,
      "count": 12292,
      "type": "VEC2"
    },
    {
      "bufferView": 3,
      "componentType": 5123,
      "count": 47718,
      "type": "SCALAR"
    }
  ],
  "bufferViews": [
    {
      "buffer": 0,
      "byteLength": 147504,
      "byteOffset": 0
    },
    {
      "buffer": 0,
      "byteLength": 147504,
      "byteOffset": 147504
    },
    {
      "buffer": 0,
      "byteLength": 98336,
      "byteOffset": 295008
    },
    {
      "buffer": 0,
      "byteLength": 95436,
      "byteOffset": 393344
    }
  ],
  "buffers": [
    {
      "byteLength": 488780,
      "uri": "data:application/octet-stream;base64,"
    }
  ]
}
