{
  "asset": {
    "version": "2.0",
    "generator": "Created using the official Cinema 4D glTF Exporter 1.000x284978"
  },
  "scenes": [
    {
      "nodes": [0]
    }
  ],
  "nodes": [
    {
      "name": "Default",
      "translation": [6.522949772479634e-17, 0.0, 1.0652785301208497],
      "rotation": [0.5, -0.5, -0.5, 0.5],
      "scale": [1.0, 1.0, 1.0],
      "mesh": 0
    }
  ],
  "meshes": [
    {
      "name": "Default",
      "primitives": [
        {
          "attributes": {
            "POSITION": 1,
            "NORMAL": 2,
            "TEXCOORD_0": 3
          },
          "indices": 0,
          "material": 0
        }
      ]
    }
  ],
  "accessors": [
    {
      "bufferView": 0,
      "type": "SCALAR",
      "max": [57865],
      "componentType": 5123,
      "count": 286437,
      "byteOffset": 0,
      "min": [0]
    },
    {
      "bufferView": 1,
      "type": "VEC3",
      "max": [0.30658191442489626, 0.6435708999633789, 1.0408320426940919],
      "componentType": 5126,
      "count": 57866,
      "byteOffset": 0,
      "min": [-0.3083476722240448, -1.0620797872543336, -0.944622278213501]
    },
    {
      "bufferView": 1,
      "type": "VEC3",
      "max": [1.0, 1.0, 1.0],
      "componentType": 5126,
      "count": 57866,
      "byteOffset": 12,
      "min": [-1.0, -1.0, -1.0]
    },
    {
      "bufferView": 1,
      "type": "VEC2",
      "max": [1504.90087890625, 1505.90087890625],
      "componentType": 5126,
      "count": 57866,
      "byteOffset": 24,
      "min": [-1694.439208984375, -1503.90087890625]
    }
  ],
  "bufferViews": [
    {
      "buffer": 0,
      "byteOffset": 0,
      "byteLength": 572874,
      "target": 34963
    },
    {
      "buffer": 0,
      "byteOffset": 572876,
      "byteLength": 1851712,
      "target": 34962,
      "byteStride": 32
    }
  ],
  "buffers": [
    {
      "uri": "data:application/octet-stream;base64,",
      "byteLength": 2424588
    }
  ],
  "materials": [
    {
      "pbrMetallicRoughness": {
        "baseColorFactor": [
          0.6549019607843137, 0.6549019607843137, 0.6549019607843137, 1.0
        ],
        "metallicFactor": 0.0,
        "roughnessFactor": 0.5
      },
      "emissiveFactor": [0.0, 0.0, 0.0],
      "alphaMode": "OPAQUE",
      "doubleSided": false,
      "name": "Default"
    }
  ]
}
