{
  "asset": {
    "generator": "Khronos glTF Blender I/O v3.2.43",
    "version": "2.0"
  },
  "scene": 0,
  "scenes": [
    {
      "name": "Scene",
      "nodes": [0, 1, 2, 3, 4, 9, 10, 11, 12, 13]
    }
  ],
  "nodes": [
    {
      "mesh": 0,
      "name": "\u8f7f\u8f66\u539f\u59cb\u6a21\u578b"
    },
    {
      "mesh": 1,
      "name": "\u5de6\u524d\u8f66\u95e8",
      "translation": [
        0.5567876100540161, 0.9303286075592041, 0.6906985640525818
      ]
    },
    {
      "mesh": 2,
      "name": "\u5de6\u540e\u8f66\u95e8",
      "translation": [
        -0.33125337958335876, 0.9303285479545593, 0.7823218703269958
      ]
    },
    {
      "mesh": 3,
      "name": "\u53f3\u524d\u8f66\u95e8",
      "translation": [
        0.5638355612754822, -0.9303286075592041, 0.7470821142196655
      ]
    },
    {
      "mesh": 4,
      "name": "\u53f3\u540e\u8f66\u95e8",
      "translation": [
        -0.33125337958335876, -0.9091847538948059, 0.7893698215484619
      ]
    },
    {
      "mesh": 5,
      "name": "\u53f3\u5239\u8f66\u706f\u5185",
      "rotation": [0.70710688829422, 0, 0, 0.7071066498756409],
      "scale": [0.8677998781204224, 0.9496456384658813, 0.8677998781204224],
      "translation": [
        0.03035259246826172, -0.0008665944915264845, 0.015054583549499512
      ]
    },
    {
      "mesh": 6,
      "name": "\u53f3\u8f6c\u5411\u706f\u5185",
      "rotation": [
        -0.00016315557877533138, 0.716081440448761, -0.6980167627334595,
        0.00016763529856689274
      ],
      "scale": [-0.8677998781204224, -1.1917394399642944, -0.8677305579185486],
      "translation": [
        0.03035259246826172, -0.0008665944915264845, 0.015054583549499512
      ]
    },
    {
      "mesh": 7,
      "name": "\u5de6\u5239\u8f66\u706f\u5185",
      "rotation": [
        0, 0.7071065902709961, -0.7071069478988647, 2.753573653535568e-7
      ],
      "scale": [-0.8677998781204224, -0.9496456384658813, -0.8677998781204224],
      "translation": [
        0.03035259246826172, -0.0008665944915264845, 0.015054583549499512
      ]
    },
    {
      "mesh": 8,
      "name": "\u5de6\u8f6c\u5411\u706f\u5185",
      "rotation": [
        0.6980167627334595, -0.000167640668223612, -0.00016316106484737247,
        0.716081440448761
      ],
      "scale": [0.8677998781204224, 1.1917394399642944, 0.8677305579185486],
      "translation": [
        0.03035259246826172, -0.0008665944915264845, 0.015054583549499512
      ]
    },
    {
      "children": [5, 6, 7, 8],
      "mesh": 9,
      "name": "\u540e\u5907\u7bb1",
      "translation": [-1.8465614318847656, 0, 1.0289998054504395]
    },
    {
      "mesh": 10,
      "name": "\u53f3\u5239\u8f66\u706f\u5916"
    },
    {
      "mesh": 11,
      "name": "\u53f3\u8f6c\u5411\u706f\u5916"
    },
    {
      "mesh": 12,
      "name": "\u5de6\u5239\u8f66\u706f\u5916"
    },
    {
      "mesh": 13,
      "name": "\u5de6\u8f6c\u5411\u706f\u5916"
    }
  ],
  "animations": [
    {
      "channels": [
        {
          "sampler": 0,
          "target": {
            "node": 1,
            "path": "rotation"
          }
        }
      ],
      "name": "leftFront",
      "samplers": [
        {
          "input": 55,
          "interpolation": "LINEAR",
          "output": 56
        }
      ]
    },
    {
      "channels": [
        {
          "sampler": 0,
          "target": {
            "node": 2,
            "path": "rotation"
          }
        }
      ],
      "name": "leftRear",
      "samplers": [
        {
          "input": 55,
          "interpolation": "LINEAR",
          "output": 57
        }
      ]
    },
    {
      "channels": [
        {
          "sampler": 0,
          "target": {
            "node": 3,
            "path": "rotation"
          }
        }
      ],
      "name": "rightFront",
      "samplers": [
        {
          "input": 55,
          "interpolation": "LINEAR",
          "output": 58
        }
      ]
    },
    {
      "channels": [
        {
          "sampler": 0,
          "target": {
            "node": 4,
            "path": "rotation"
          }
        }
      ],
      "name": "rightRear",
      "samplers": [
        {
          "input": 55,
          "interpolation": "LINEAR",
          "output": 59
        }
      ]
    },
    {
      "channels": [
        {
          "sampler": 0,
          "target": {
            "node": 9,
            "path": "rotation"
          }
        }
      ],
      "name": "trunkUp",
      "samplers": [
        {
          "input": 55,
          "interpolation": "LINEAR",
          "output": 60
        }
      ]
    }
  ],
  "materials": [
    {
      "doubleSided": true,
      "name": "\u6750\u8d28.002",
      "pbrMetallicRoughness": {
        "baseColorFactor": [
          0.6549019813537598, 0.6549019813537598, 0.6549019813537598, 1
        ],
        "metallicFactor": 0,
        "roughnessFactor": 0.5
      }
    },
    {
      "doubleSided": true,
      "emissiveFactor": [1, 0, 0.022380771891057805],
      "name": "\u5c3e\u706f\u7ea2\u8272",
      "pbrMetallicRoughness": {
        "baseColorFactor": [
          0.6549019813537598, 0.6549019813537598, 0.6549019813537598, 1
        ],
        "metallicFactor": 0,
        "roughnessFactor": 0.5
      }
    },
    {
      "doubleSided": true,
      "emissiveFactor": [1, 1, 0.34748239720149243],
      "name": "\u5c3e\u706f\u9ec4\u8272",
      "pbrMetallicRoughness": {
        "baseColorFactor": [
          0.6549019813537598, 0.6549019813537598, 0.6549019813537598, 1
        ],
        "metallicFactor": 0,
        "roughnessFactor": 0.5
      }
    }
  ],
  "meshes": [
    {
      "name": "\u7acb\u65b9\u4f53.004",
      "primitives": [
        {
          "attributes": {
            "POSITION": 0,
            "NORMAL": 1,
            "TEXCOORD_0": 2
          },
          "indices": 3,
          "material": 0
        }
      ]
    },
    {
      "name": "\u7acb\u65b9\u4f53.006",
      "primitives": [
        {
          "attributes": {
            "POSITION": 4,
            "NORMAL": 5,
            "TEXCOORD_0": 6
          },
          "indices": 7,
          "material": 0
        }
      ]
    },
    {
      "name": "\u7acb\u65b9\u4f53.007",
      "primitives": [
        {
          "attributes": {
            "POSITION": 8,
            "NORMAL": 9,
            "TEXCOORD_0": 10
          },
          "indices": 11,
          "material": 0
        }
      ]
    },
    {
      "name": "\u7acb\u65b9\u4f53.008",
      "primitives": [
        {
          "attributes": {
            "POSITION": 12,
            "NORMAL": 13,
            "TEXCOORD_0": 14
          },
          "indices": 15,
          "material": 0
        }
      ]
    },
    {
      "name": "\u7acb\u65b9\u4f53.009",
      "primitives": [
        {
          "attributes": {
            "POSITION": 16,
            "NORMAL": 17,
            "TEXCOORD_0": 18
          },
          "indices": 19,
          "material": 0
        }
      ]
    },
    {
      "name": "\u7acb\u65b9\u4f53.001",
      "primitives": [
        {
          "attributes": {
            "POSITION": 20,
            "NORMAL": 21,
            "TEXCOORD_0": 22
          },
          "indices": 23,
          "material": 1
        }
      ]
    },
    {
      "name": "\u7acb\u65b9\u4f53.005",
      "primitives": [
        {
          "attributes": {
            "POSITION": 24,
            "NORMAL": 25,
            "TEXCOORD_0": 26
          },
          "indices": 27,
          "material": 2
        }
      ]
    },
    {
      "name": "\u7acb\u65b9\u4f53.012",
      "primitives": [
        {
          "attributes": {
            "POSITION": 28,
            "NORMAL": 29,
            "TEXCOORD_0": 30
          },
          "indices": 31,
          "material": 1
        }
      ]
    },
    {
      "name": "\u7acb\u65b9\u4f53.013",
      "primitives": [
        {
          "attributes": {
            "POSITION": 32,
            "NORMAL": 33,
            "TEXCOORD_0": 34
          },
          "indices": 27,
          "material": 2
        }
      ]
    },
    {
      "name": "\u7acb\u65b9\u4f53.003",
      "primitives": [
        {
          "attributes": {
            "POSITION": 35,
            "NORMAL": 36,
            "TEXCOORD_0": 37
          },
          "indices": 38,
          "material": 0
        }
      ]
    },
    {
      "name": "\u7acb\u65b9\u4f53.010",
      "primitives": [
        {
          "attributes": {
            "POSITION": 39,
            "NORMAL": 40,
            "TEXCOORD_0": 41
          },
          "indices": 42,
          "material": 1
        }
      ]
    },
    {
      "name": "\u7acb\u65b9\u4f53.011",
      "primitives": [
        {
          "attributes": {
            "POSITION": 43,
            "NORMAL": 44,
            "TEXCOORD_0": 45
          },
          "indices": 46,
          "material": 2
        }
      ]
    },
    {
      "name": "\u7acb\u65b9\u4f53.014",
      "primitives": [
        {
          "attributes": {
            "POSITION": 47,
            "NORMAL": 48,
            "TEXCOORD_0": 49
          },
          "indices": 50,
          "material": 1
        }
      ]
    },
    {
      "name": "\u7acb\u65b9\u4f53.015",
      "primitives": [
        {
          "attributes": {
            "POSITION": 51,
            "NORMAL": 52,
            "TEXCOORD_0": 53
          },
          "indices": 54,
          "material": 2
        }
      ]
    }
  ],
  "accessors": [
    {
      "bufferView": 0,
      "componentType": 5126,
      "count": 17566,
      "max": [1.985971212387085, 1.03017258644104, 1.343117356300354],
      "min": [-2.293045997619629, -1.034698724746704, 0.004418783355504274],
      "type": "VEC3"
    },
    {
      "bufferView": 1,
      "componentType": 5126,
      "count": 17566,
      "type": "VEC3"
    },
    {
      "bufferView": 2,
      "componentType": 5126,
      "count": 17566,
      "type": "VEC2"
    },
    {
      "bufferView": 3,
      "componentType": 5123,
      "count": 20988,
      "type": "SCALAR"
    },
    {
      "bufferView": 4,
      "componentType": 5126,
      "count": 660,
      "max": [0.024534737691283226, 0.08986403048038483, 0.5779888033866882],
      "min": [-1.008337140083313, -0.3820153474807739, -0.4195161461830139],
      "type": "VEC3"
    },
    {
      "bufferView": 5,
      "componentType": 5126,
      "count": 660,
      "type": "VEC3"
    },
    {
      "bufferView": 6,
      "componentType": 5126,
      "count": 660,
      "type": "VEC2"
    },
    {
      "bufferView": 7,
      "componentType": 5123,
      "count": 762,
      "type": "SCALAR"
    },
    {
      "bufferView": 8,
      "componentType": 5126,
      "count": 516,
      "max": [0.025324326008558273, 0.07944371551275253, 0.481862872838974],
      "min": [-0.74021977186203, -0.35964497923851013, -0.47475627064704895],
      "type": "VEC3"
    },
    {
      "bufferView": 9,
      "componentType": 5126,
      "count": 516,
      "type": "VEC3"
    },
    {
      "bufferView": 10,
      "componentType": 5126,
      "count": 516,
      "type": "VEC2"
    },
    {
      "bufferView": 11,
      "componentType": 5123,
      "count": 594,
      "type": "SCALAR"
    },
    {
      "bufferView": 12,
      "componentType": 5126,
      "count": 682,
      "max": [0.01590895652770996, 0.37769362330436707, 0.5208505988121033],
      "min": [-1.0153846740722656, -0.09426070749759674, -0.4770442247390747],
      "type": "VEC3"
    },
    {
      "bufferView": 13,
      "componentType": 5126,
      "count": 682,
      "type": "VEC3"
    },
    {
      "bufferView": 14,
      "componentType": 5126,
      "count": 682,
      "type": "VEC2"
    },
    {
      "bufferView": 15,
      "componentType": 5123,
      "count": 762,
      "type": "SCALAR"
    },
    {
      "bufferView": 16,
      "componentType": 5126,
      "count": 536,
      "max": [0.02583911083638668, 0.33663317561149597, 0.4762156307697296],
      "min": [-0.7401522397994995, -0.10285617411136627, -0.48046422004699707],
      "type": "VEC3"
    },
    {
      "bufferView": 17,
      "componentType": 5126,
      "count": 536,
      "type": "VEC3"
    },
    {
      "bufferView": 18,
      "componentType": 5126,
      "count": 536,
      "type": "VEC2"
    },
    {
      "bufferView": 19,
      "componentType": 5123,
      "count": 594,
      "type": "SCALAR"
    },
    {
      "bufferView": 20,
      "componentType": 5126,
      "count": 63,
      "max": [-0.2794891595840454, -0.15992990136146545, 0.871636152267456],
      "min": [-0.4846489429473877, -0.2830478250980377, 0.5204049944877625],
      "type": "VEC3"
    },
    {
      "bufferView": 21,
      "componentType": 5126,
      "count": 63,
      "type": "VEC3"
    },
    {
      "bufferView": 22,
      "componentType": 5126,
      "count": 63,
      "type": "VEC2"
    },
    {
      "bufferView": 23,
      "componentType": 5123,
      "count": 63,
      "type": "SCALAR"
    },
    {
      "bufferView": 24,
      "componentType": 5126,
      "count": 63,
      "max": [-0.3031148910522461, -0.20134307444095612, -0.5439375042915344],
      "min": [-0.4928750693798065, -0.265067994594574, -0.8937017321586609],
      "type": "VEC3"
    },
    {
      "bufferView": 25,
      "componentType": 5126,
      "count": 63,
      "type": "VEC3"
    },
    {
      "bufferView": 26,
      "componentType": 5126,
      "count": 63,
      "type": "VEC2"
    },
    {
      "bufferView": 27,
      "componentType": 5123,
      "count": 63,
      "type": "SCALAR"
    },
    {
      "bufferView": 28,
      "componentType": 5126,
      "count": 63,
      "max": [-0.28355711698532104, -0.15992984175682068, 0.8693405389785767],
      "min": [-0.48874104022979736, -0.28304773569107056, 0.5181094408035278],
      "type": "VEC3"
    },
    {
      "bufferView": 29,
      "componentType": 5126,
      "count": 63,
      "type": "VEC3"
    },
    {
      "bufferView": 30,
      "componentType": 5126,
      "count": 63,
      "type": "VEC2"
    },
    {
      "bufferView": 31,
      "componentType": 5123,
      "count": 63,
      "type": "SCALAR"
    },
    {
      "bufferView": 32,
      "componentType": 5126,
      "count": 63,
      "max": [-0.3072061538696289, -0.20138587057590485, -0.54164057970047],
      "min": [-0.49696633219718933, -0.2651107907295227, -0.8914048075675964],
      "type": "VEC3"
    },
    {
      "bufferView": 33,
      "componentType": 5126,
      "count": 63,
      "type": "VEC3"
    },
    {
      "bufferView": 34,
      "componentType": 5126,
      "count": 63,
      "type": "VEC2"
    },
    {
      "bufferView": 35,
      "componentType": 5126,
      "count": 3352,
      "max": [0.008910038508474827, 0.7941463589668274, 0.012555956840515137],
      "min": [-0.4521193504333496, -0.798127293586731, -0.5278196334838867],
      "type": "VEC3"
    },
    {
      "bufferView": 36,
      "componentType": 5126,
      "count": 3352,
      "type": "VEC3"
    },
    {
      "bufferView": 37,
      "componentType": 5126,
      "count": 3352,
      "type": "VEC2"
    },
    {
      "bufferView": 38,
      "componentType": 5123,
      "count": 5028,
      "type": "SCALAR"
    },
    {
      "bufferView": 39,
      "componentType": 5126,
      "count": 30,
      "max": [-1.9960752725601196, -0.7280700206756592, 0.8860389590263367],
      "min": [-2.0721585750579834, -0.8274394869804382, 0.7888481020927429],
      "type": "VEC3"
    },
    {
      "bufferView": 40,
      "componentType": 5126,
      "count": 30,
      "type": "VEC3"
    },
    {
      "bufferView": 41,
      "componentType": 5126,
      "count": 30,
      "type": "VEC2"
    },
    {
      "bufferView": 42,
      "componentType": 5123,
      "count": 30,
      "type": "SCALAR"
    },
    {
      "bufferView": 43,
      "componentType": 5126,
      "count": 36,
      "max": [-2.0079355239868164, -0.7640169858932495, 0.7885650992393494],
      "min": [-2.07614803314209, -0.8396019339561462, 0.7388781309127808],
      "type": "VEC3"
    },
    {
      "bufferView": 44,
      "componentType": 5126,
      "count": 36,
      "type": "VEC3"
    },
    {
      "bufferView": 45,
      "componentType": 5126,
      "count": 36,
      "type": "VEC2"
    },
    {
      "bufferView": 46,
      "componentType": 5123,
      "count": 36,
      "type": "SCALAR"
    },
    {
      "bufferView": 47,
      "componentType": 5126,
      "count": 27,
      "max": [-1.9996484518051147, 0.8237305283546448, 0.8860390186309814],
      "min": [-2.0757100582122803, 0.7243447303771973, 0.7888481616973877],
      "type": "VEC3"
    },
    {
      "bufferView": 48,
      "componentType": 5126,
      "count": 27,
      "type": "VEC3"
    },
    {
      "bufferView": 49,
      "componentType": 5126,
      "count": 27,
      "type": "VEC2"
    },
    {
      "bufferView": 50,
      "componentType": 5123,
      "count": 27,
      "type": "SCALAR"
    },
    {
      "bufferView": 51,
      "componentType": 5126,
      "count": 33,
      "max": [-2.011486768722534, 0.8358792066574097, 0.7885651588439941],
      "min": [-2.07975697517395, 0.760345995426178, 0.7388718724250793],
      "type": "VEC3"
    },
    {
      "bufferView": 52,
      "componentType": 5126,
      "count": 33,
      "type": "VEC3"
    },
    {
      "bufferView": 53,
      "componentType": 5126,
      "count": 33,
      "type": "VEC2"
    },
    {
      "bufferView": 54,
      "componentType": 5123,
      "count": 33,
      "type": "SCALAR"
    },
    {
      "bufferView": 55,
      "componentType": 5126,
      "count": 41,
      "max": [1.6666666666666667],
      "min": [0],
      "type": "SCALAR"
    },
    {
      "bufferView": 56,
      "componentType": 5126,
      "count": 41,
      "type": "VEC4"
    },
    {
      "bufferView": 57,
      "componentType": 5126,
      "count": 41,
      "type": "VEC4"
    },
    {
      "bufferView": 58,
      "componentType": 5126,
      "count": 41,
      "type": "VEC4"
    },
    {
      "bufferView": 59,
      "componentType": 5126,
      "count": 41,
      "type": "VEC4"
    },
    {
      "bufferView": 60,
      "componentType": 5126,
      "count": 41,
      "type": "VEC4"
    }
  ],
  "bufferViews": [
    {
      "buffer": 0,
      "byteLength": 210792,
      "byteOffset": 0
    },
    {
      "buffer": 0,
      "byteLength": 210792,
      "byteOffset": 210792
    },
    {
      "buffer": 0,
      "byteLength": 140528,
      "byteOffset": 421584
    },
    {
      "buffer": 0,
      "byteLength": 41976,
      "byteOffset": 562112
    },
    {
      "buffer": 0,
      "byteLength": 7920,
      "byteOffset": 604088
    },
    {
      "buffer": 0,
      "byteLength": 7920,
      "byteOffset": 612008
    },
    {
      "buffer": 0,
      "byteLength": 5280,
      "byteOffset": 619928
    },
    {
      "buffer": 0,
      "byteLength": 1524,
      "byteOffset": 625208
    },
    {
      "buffer": 0,
      "byteLength": 6192,
      "byteOffset": 626732
    },
    {
      "buffer": 0,
      "byteLength": 6192,
      "byteOffset": 632924
    },
    {
      "buffer": 0,
      "byteLength": 4128,
      "byteOffset": 639116
    },
    {
      "buffer": 0,
      "byteLength": 1188,
      "byteOffset": 643244
    },
    {
      "buffer": 0,
      "byteLength": 8184,
      "byteOffset": 644432
    },
    {
      "buffer": 0,
      "byteLength": 8184,
      "byteOffset": 652616
    },
    {
      "buffer": 0,
      "byteLength": 5456,
      "byteOffset": 660800
    },
    {
      "buffer": 0,
      "byteLength": 1524,
      "byteOffset": 666256
    },
    {
      "buffer": 0,
      "byteLength": 6432,
      "byteOffset": 667780
    },
    {
      "buffer": 0,
      "byteLength": 6432,
      "byteOffset": 674212
    },
    {
      "buffer": 0,
      "byteLength": 4288,
      "byteOffset": 680644
    },
    {
      "buffer": 0,
      "byteLength": 1188,
      "byteOffset": 684932
    },
    {
      "buffer": 0,
      "byteLength": 756,
      "byteOffset": 686120
    },
    {
      "buffer": 0,
      "byteLength": 756,
      "byteOffset": 686876
    },
    {
      "buffer": 0,
      "byteLength": 504,
      "byteOffset": 687632
    },
    {
      "buffer": 0,
      "byteLength": 126,
      "byteOffset": 688136
    },
    {
      "buffer": 0,
      "byteLength": 756,
      "byteOffset": 688264
    },
    {
      "buffer": 0,
      "byteLength": 756,
      "byteOffset": 689020
    },
    {
      "buffer": 0,
      "byteLength": 504,
      "byteOffset": 689776
    },
    {
      "buffer": 0,
      "byteLength": 126,
      "byteOffset": 690280
    },
    {
      "buffer": 0,
      "byteLength": 756,
      "byteOffset": 690408
    },
    {
      "buffer": 0,
      "byteLength": 756,
      "byteOffset": 691164
    },
    {
      "buffer": 0,
      "byteLength": 504,
      "byteOffset": 691920
    },
    {
      "buffer": 0,
      "byteLength": 126,
      "byteOffset": 692424
    },
    {
      "buffer": 0,
      "byteLength": 756,
      "byteOffset": 692552
    },
    {
      "buffer": 0,
      "byteLength": 756,
      "byteOffset": 693308
    },
    {
      "buffer": 0,
      "byteLength": 504,
      "byteOffset": 694064
    },
    {
      "buffer": 0,
      "byteLength": 40224,
      "byteOffset": 694568
    },
    {
      "buffer": 0,
      "byteLength": 40224,
      "byteOffset": 734792
    },
    {
      "buffer": 0,
      "byteLength": 26816,
      "byteOffset": 775016
    },
    {
      "buffer": 0,
      "byteLength": 10056,
      "byteOffset": 801832
    },
    {
      "buffer": 0,
      "byteLength": 360,
      "byteOffset": 811888
    },
    {
      "buffer": 0,
      "byteLength": 360,
      "byteOffset": 812248
    },
    {
      "buffer": 0,
      "byteLength": 240,
      "byteOffset": 812608
    },
    {
      "buffer": 0,
      "byteLength": 60,
      "byteOffset": 812848
    },
    {
      "buffer": 0,
      "byteLength": 432,
      "byteOffset": 812908
    },
    {
      "buffer": 0,
      "byteLength": 432,
      "byteOffset": 813340
    },
    {
      "buffer": 0,
      "byteLength": 288,
      "byteOffset": 813772
    },
    {
      "buffer": 0,
      "byteLength": 72,
      "byteOffset": 814060
    },
    {
      "buffer": 0,
      "byteLength": 324,
      "byteOffset": 814132
    },
    {
      "buffer": 0,
      "byteLength": 324,
      "byteOffset": 814456
    },
    {
      "buffer": 0,
      "byteLength": 216,
      "byteOffset": 814780
    },
    {
      "buffer": 0,
      "byteLength": 54,
      "byteOffset": 814996
    },
    {
      "buffer": 0,
      "byteLength": 396,
      "byteOffset": 815052
    },
    {
      "buffer": 0,
      "byteLength": 396,
      "byteOffset": 815448
    },
    {
      "buffer": 0,
      "byteLength": 264,
      "byteOffset": 815844
    },
    {
      "buffer": 0,
      "byteLength": 66,
      "byteOffset": 816108
    },
    {
      "buffer": 0,
      "byteLength": 164,
      "byteOffset": 816176
    },
    {
      "buffer": 0,
      "byteLength": 656,
      "byteOffset": 816340
    },
    {
      "buffer": 0,
      "byteLength": 656,
      "byteOffset": 816996
    },
    {
      "buffer": 0,
      "byteLength": 656,
      "byteOffset": 817652
    },
    {
      "buffer": 0,
      "byteLength": 656,
      "byteOffset": 818308
    },
    {
      "buffer": 0,
      "byteLength": 656,
      "byteOffset": 818964
    }
  ],
  "buffers": [
    {
      "byteLength": 819620,
      "uri": "data:application/octet-stream;base64,"
    }
  ]
}
