{
    "asset" : {
        "generator" : "Khronos glTF Blender I/O v3.2.43",
        "version" : "2.0"
    },
    "scene" : 0,
    "scenes" : [
        {
            "name" : "Scene",
            "nodes" : [
                0
            ]
        }
    ],
    "nodes" : [
        {
            "mesh" : 0,
            "name" : "\u6587\u672c.001",
            "rotation" : [
                0.5000001192092896,
                -0.5,
                -0.49999991059303284,
                0.5
            ],
            "scale" : [
                2.395721912384033,
                2.651339292526245,
                4.820949077606201
            ],
            "translation" : [
                0.11623223125934601,
                0.13049198687076569,
                -0.003337562084197998
            ]
        }
    ],
    "materials" : [
        {
            "doubleSided" : true,
            "name" : "\u6750\u8d28.002",
            "pbrMetallicRoughness" : {
                "metallicFactor" : 0,
                "roughnessFactor" : 0.05797101929783821
            }
        }
    ],
    "meshes" : [
        {
            "name" : "\u6587\u672c.002",
            "primitives" : [
                {
                    "attributes" : {
                        "POSITION" : 0,
                        "NORMAL" : 1,
                        "TEXCOORD_0" : 2
                    },
                    "indices" : 3,
                    "material" : 0
                }
            ]
        }
    ],
    "accessors" : [
        {
            "bufferView" : 0,
            "componentType" : 5126,
            "count" : 1593,
            "max" : [
                0.3018134832382202,
                0.0020960711408406496,
                0.3027849793434143
            ],
            "min" : [
                -0.3018134534358978,
                0,
                -0.3027849495410919
            ],
            "type" : "VEC3"
        },
        {
            "bufferView" : 1,
            "componentType" : 5126,
            "count" : 1593,
            "type" : "VEC3"
        },
        {
            "bufferView" : 2,
            "componentType" : 5126,
            "count" : 1593,
            "type" : "VEC2"
        },
        {
            "bufferView" : 3,
            "componentType" : 5123,
            "count" : 3132,
            "type" : "SCALAR"
        }
    ],
    "bufferViews" : [
        {
            "buffer" : 0,
            "byteLength" : 19116,
            "byteOffset" : 0
        },
        {
            "buffer" : 0,
            "byteLength" : 19116,
            "byteOffset" : 19116
        },
        {
            "buffer" : 0,
            "byteLength" : 12744,
            "byteOffset" : 38232
        },
        {
            "buffer" : 0,
            "byteLength" : 6264,
            "byteOffset" : 50976
        }
    ],
    "buffers" : [
        {
            "byteLength" : 57240,
            "uri" : "data:application/octet-stream;base64,"
        }
    ]
}
