{
    "asset" : {
        "generator" : "Khronos glTF Blender I/O v3.2.43",
        "version" : "2.0"
    },
    "scene" : 0,
    "scenes" : [
        {
            "name" : "Scene",
            "nodes" : [
                0
            ]
        }
    ],
    "nodes" : [
        {
            "mesh" : 0,
            "name" : "BezierCurve.002",
            "rotation" : [
                -0.4972970187664032,
                0.502688467502594,
                0.4972969889640808,
                0.5026885867118835
            ],
            "scale" : [
                -0.5258824825286865,
                -6.911998271942139,
                -4.860311985015869
            ],
            "translation" : [
                0.008588267490267754,
                -0.04195013642311096,
                0.002619147300720215
            ]
        }
    ],
    "materials" : [
        {
            "doubleSided" : true,
            "name" : "\u6750\u8d28.004",
            "pbrMetallicRoughness" : {
                "metallicFactor" : 0,
                "roughnessFactor" : 0.05797101929783821
            }
        }
    ],
    "meshes" : [
        {
            "name" : "Mesh.003",
            "primitives" : [
                {
                    "attributes" : {
                        "POSITION" : 0,
                        "NORMAL" : 1
                    },
                    "indices" : 2,
                    "material" : 0
                }
            ]
        }
    ],
    "accessors" : [
        {
            "bufferView" : 0,
            "componentType" : 5126,
            "count" : 210,
            "max" : [
                0.0036510443314909935,
                0.10812840610742569,
                0.2590485215187073
            ],
            "min" : [
                -0.003651026636362076,
                -0.30005720257759094,
                -0.05744131654500961
            ],
            "type" : "VEC3"
        },
        {
            "bufferView" : 1,
            "componentType" : 5126,
            "count" : 210,
            "type" : "VEC3"
        },
        {
            "bufferView" : 2,
            "componentType" : 5123,
            "count" : 396,
            "type" : "SCALAR"
        }
    ],
    "bufferViews" : [
        {
            "buffer" : 0,
            "byteLength" : 2520,
            "byteOffset" : 0
        },
        {
            "buffer" : 0,
            "byteLength" : 2520,
            "byteOffset" : 2520
        },
        {
            "buffer" : 0,
            "byteLength" : 792,
            "byteOffset" : 5040
        }
    ],
    "buffers" : [
        {
            "byteLength" : 5832,
            "uri" : "data:application/octet-stream;base64,"
        }
    ]
}
