{
	"asset":{
		"generator":"Khronos glTF Blender I/O v3.5.30",
		"version":"2.0"
	},
	"scene":0,
	"scenes":[
		{
			"name":"Scene",
			"nodes":[
				1
			]
		}
	],
	"nodes":[
		{
			"mesh":0,
			"name":"\u5706\u73af.003",
			"rotation":[
				0.70710688829422,
				0,
				0,
				0.7071066498756409
			],
			"scale":[
				1.8904587030410767,
				1,
				1.112034559249878
			],
			"translation":[
				1.488814353942871,
				0.024344971403479576,
				0.0030184946954250336
			]
		},
		{
			"children":[
				0
			],
			"mesh":1,
			"name":"\u5706\u73af.001",
			"rotation":[
				0,
				0,
				-1,
				2.6054019832284217e-15
			],
			"translation":[
				0,
				0,
				0.003887611674144864
			]
		}
	],
	"materials":[
		{
			"doubleSided":true,
			"name":"\u6750\u8d28.001",
			"pbrMetallicRoughness":{
				"baseColorFactor":[
					0.800000011920929,
					0.800000011920929,
					0.800000011920929,
					1
				],
				"metallicFactor":0,
				"roughnessFactor":0.20479705929756165
			}
		},
		{
			"doubleSided":true,
			"name":"red_ring.001",
			"pbrMetallicRoughness":{
				"baseColorFactor":[
					0,
					0.005827269982546568,
					0.2943294942378998,
					1
				],
				"metallicFactor":0,
				"roughnessFactor":0.7112654447555542
			}
		},
		{
			"doubleSided":true,
			"name":"the_back",
			"pbrMetallicRoughness":{
				"baseColorFactor":[
					0.11069011688232422,
					0.11069011688232422,
					0.11069011688232422,
					1
				],
				"metallicFactor":0,
				"roughnessFactor":0.5
			}
		}
	],
	"meshes":[
		{
			"name":"\u5706\u73af.003",
			"primitives":[
				{
					"attributes":{
						"POSITION":0,
						"TEXCOORD_0":1,
						"NORMAL":2
					},
					"indices":3,
					"material":0
				}
			]
		},
		{
			"name":"\u5706\u73af.001",
			"primitives":[
				{
					"attributes":{
						"POSITION":4,
						"TEXCOORD_0":5,
						"NORMAL":6
					},
					"indices":7,
					"material":0
				},
				{
					"attributes":{
						"POSITION":8,
						"TEXCOORD_0":9,
						"NORMAL":10
					},
					"indices":11,
					"material":1
				},
				{
					"attributes":{
						"POSITION":12,
						"TEXCOORD_0":13,
						"NORMAL":14
					},
					"indices":15,
					"material":2
				}
			]
		}
	],
	"accessors":[
		{
			"bufferView":0,
			"componentType":5126,
			"count":25,
			"max":[
				0.1398354172706604,
				3.048335202038288e-07,
				0.7279980182647705
			],
			"min":[
				-0.2374221682548523,
				-3.1728995963931084e-07,
				-0.7406355142593384
			],
			"type":"VEC3"
		},
		{
			"bufferView":1,
			"componentType":5126,
			"count":25,
			"type":"VEC2"
		},
		{
			"bufferView":2,
			"componentType":5126,
			"count":25,
			"type":"VEC3"
		},
		{
			"bufferView":3,
			"componentType":5123,
			"count":69,
			"type":"SCALAR"
		},
		{
			"bufferView":4,
			"componentType":5126,
			"count":320,
			"max":[
				1.9161888360977173,
				1.1517369747161865,
				0.0014907218283042312
			],
			"min":[
				-1.9161767959594727,
				-1.1025956869125366,
				0.0006718351505696774
			],
			"type":"VEC3"
		},
		{
			"bufferView":5,
			"componentType":5126,
			"count":320,
			"type":"VEC2"
		},
		{
			"bufferView":6,
			"componentType":5126,
			"count":320,
			"type":"VEC3"
		},
		{
			"bufferView":7,
			"componentType":5123,
			"count":480,
			"type":"SCALAR"
		},
		{
			"bufferView":8,
			"componentType":5126,
			"count":240,
			"max":[
				1.8388147354125977,
				1.1062226295471191,
				0.0014907218283042312
			],
			"min":[
				-1.8388023376464844,
				-1.0570815801620483,
				0.0014897092478349805
			],
			"type":"VEC3"
		},
		{
			"bufferView":9,
			"componentType":5126,
			"count":240,
			"type":"VEC2"
		},
		{
			"bufferView":10,
			"componentType":5126,
			"count":240,
			"type":"VEC3"
		},
		{
			"bufferView":11,
			"componentType":5123,
			"count":1194,
			"type":"SCALAR"
		},
		{
			"bufferView":12,
			"componentType":5126,
			"count":80,
			"max":[
				1.9161888360977173,
				1.1517369747161865,
				0.0006728945299983025
			],
			"min":[
				-1.9161767959594727,
				-1.1025956869125366,
				0.0006718351505696774
			],
			"type":"VEC3"
		},
		{
			"bufferView":13,
			"componentType":5126,
			"count":80,
			"type":"VEC2"
		},
		{
			"bufferView":14,
			"componentType":5126,
			"count":80,
			"type":"VEC3"
		},
		{
			"bufferView":15,
			"componentType":5123,
			"count":234,
			"type":"SCALAR"
		}
	],
	"bufferViews":[
		{
			"buffer":0,
			"byteLength":300,
			"byteOffset":0,
			"target":34962
		},
		{
			"buffer":0,
			"byteLength":200,
			"byteOffset":300,
			"target":34962
		},
		{
			"buffer":0,
			"byteLength":300,
			"byteOffset":500,
			"target":34962
		},
		{
			"buffer":0,
			"byteLength":138,
			"byteOffset":800,
			"target":34963
		},
		{
			"buffer":0,
			"byteLength":3840,
			"byteOffset":940,
			"target":34962
		},
		{
			"buffer":0,
			"byteLength":2560,
			"byteOffset":4780,
			"target":34962
		},
		{
			"buffer":0,
			"byteLength":3840,
			"byteOffset":7340,
			"target":34962
		},
		{
			"buffer":0,
			"byteLength":960,
			"byteOffset":11180,
			"target":34963
		},
		{
			"buffer":0,
			"byteLength":2880,
			"byteOffset":12140,
			"target":34962
		},
		{
			"buffer":0,
			"byteLength":1920,
			"byteOffset":15020,
			"target":34962
		},
		{
			"buffer":0,
			"byteLength":2880,
			"byteOffset":16940,
			"target":34962
		},
		{
			"buffer":0,
			"byteLength":2388,
			"byteOffset":19820,
			"target":34963
		},
		{
			"buffer":0,
			"byteLength":960,
			"byteOffset":22208,
			"target":34962
		},
		{
			"buffer":0,
			"byteLength":640,
			"byteOffset":23168,
			"target":34962
		},
		{
			"buffer":0,
			"byteLength":960,
			"byteOffset":23808,
			"target":34962
		},
		{
			"buffer":0,
			"byteLength":468,
			"byteOffset":24768,
			"target":34963
		}
	],
	"buffers":[
		{
			"byteLength":25236,
			"uri":"data:application/octet-stream;base64,"
		}
	]
}
