{
    "asset" : {
        "generator" : "Khronos glTF Blender I/O v3.2.43",
        "version" : "2.0"
    },
    "scene" : 0,
    "scenes" : [
        {
            "name" : "Scene",
            "nodes" : [
                0,
                1
            ]
        }
    ],
    "nodes" : [
        {
            "mesh" : 0,
            "name" : "\u6587\u672c",
            "rotation" : [
                0.5000000596046448,
                -0.5000000596046448,
                -0.4999999403953552,
                0.5
            ],
            "scale" : [
                1.927348017692566,
                1.776939034461975,
                3.276491641998291
            ],
            "translation" : [
                0.9950391054153442,
                -0.715057373046875,
                0.0016581937670707703
            ]
        },
        {
            "mesh" : 1,
            "name" : "\u6587\u672c.002",
            "rotation" : [
                0.5000000596046448,
                -0.5000000596046448,
                -0.4999999403953552,
                0.5
            ],
            "scale" : [
                1.6353806257247925,
                1.776939034461975,
                2.780146837234497
            ],
            "translation" : [
                -0.8359107971191406,
                -0.006140626966953278,
                0.0016577169299125671
            ]
        }
    ],
    "materials" : [
        {
            "doubleSided" : true,
            "name" : "\u6750\u8d28.002",
            "pbrMetallicRoughness" : {
                "baseColorFactor" : [
                    0.800000011920929,
                    0.800000011920929,
                    0.800000011920929,
                    1
                ],
                "metallicFactor" : 0,
                "roughnessFactor" : 0.20479705929756165
            }
        },
        {
            "doubleSided" : true,
            "name" : "red_ring.001",
            "pbrMetallicRoughness" : {
                "baseColorFactor" : [
                    0.8307700753211975,
                    0.0036763090174645185,
                    0,
                    1
                ],
                "metallicFactor" : 0,
                "roughnessFactor" : 0.7112654447555542
            }
        }
    ],
    "meshes" : [
        {
            "name" : "\u6587\u672c",
            "primitives" : [
                {
                    "attributes" : {
                        "POSITION" : 0,
                        "NORMAL" : 1,
                        "TEXCOORD_0" : 2
                    },
                    "indices" : 3,
                    "material" : 0
                }
            ]
        },
        {
            "name" : "MIN",
            "primitives" : [
                {
                    "attributes" : {
                        "POSITION" : 4,
                        "NORMAL" : 5,
                        "TEXCOORD_0" : 6
                    },
                    "indices" : 7,
                    "material" : 1
                }
            ]
        }
    ],
    "accessors" : [
        {
            "bufferView" : 0,
            "componentType" : 5126,
            "count" : 129,
            "max" : [
                0.10050003230571747,
                0,
                0.2625001072883606
            ],
            "min" : [
                -0.4755001664161682,
                0,
                -0.2625001072883606
            ],
            "type" : "VEC3"
        },
        {
            "bufferView" : 1,
            "componentType" : 5126,
            "count" : 129,
            "type" : "VEC3"
        },
        {
            "bufferView" : 2,
            "componentType" : 5126,
            "count" : 129,
            "type" : "VEC2"
        },
        {
            "bufferView" : 3,
            "componentType" : 5123,
            "count" : 294,
            "type" : "SCALAR"
        },
        {
            "bufferView" : 4,
            "componentType" : 5126,
            "count" : 41,
            "max" : [
                0.9885003566741943,
                0,
                0.2557500898838043
            ],
            "min" : [
                -0.5722501873970032,
                0,
                -0.2587501108646393
            ],
            "type" : "VEC3"
        },
        {
            "bufferView" : 5,
            "componentType" : 5126,
            "count" : 41,
            "type" : "VEC3"
        },
        {
            "bufferView" : 6,
            "componentType" : 5126,
            "count" : 41,
            "type" : "VEC2"
        },
        {
            "bufferView" : 7,
            "componentType" : 5123,
            "count" : 102,
            "type" : "SCALAR"
        }
    ],
    "bufferViews" : [
        {
            "buffer" : 0,
            "byteLength" : 1548,
            "byteOffset" : 0
        },
        {
            "buffer" : 0,
            "byteLength" : 1548,
            "byteOffset" : 1548
        },
        {
            "buffer" : 0,
            "byteLength" : 1032,
            "byteOffset" : 3096
        },
        {
            "buffer" : 0,
            "byteLength" : 588,
            "byteOffset" : 4128
        },
        {
            "buffer" : 0,
            "byteLength" : 492,
            "byteOffset" : 4716
        },
        {
            "buffer" : 0,
            "byteLength" : 492,
            "byteOffset" : 5208
        },
        {
            "buffer" : 0,
            "byteLength" : 328,
            "byteOffset" : 5700
        },
        {
            "buffer" : 0,
            "byteLength" : 204,
            "byteOffset" : 6028
        }
    ],
    "buffers" : [
        {
            "byteLength" : 6232,
            "uri" : "data:application/octet-stream;base64,"
        }
    ]
}
