{
	"asset":{
		"generator":"Khronos glTF Blender I/O v3.5.30",
		"version":"2.0"
	},
	"scene":0,
	"scenes":[
		{
			"name":"Scene",
			"nodes":[
				0
			]
		}
	],
	"nodes":[
		{
			"mesh":0,
			"name":"\u5706\u73af.001",
			"rotation":[
				0,
				0.7071066498756409,
				0.70710688829422,
				1.7881393432617188e-07
			],
			"scale":[
				1.6999999284744263,
				1,
				1
			]
		}
	],
	"materials":[
		{
			"doubleSided":true,
			"name":"\u6750\u8d28.004",
			"pbrMetallicRoughness":{
				"metallicFactor":0,
				"roughnessFactor":0.7368701100349426
			}
		},
		{
			"doubleSided":true,
			"name":"red_ring.001",
			"pbrMetallicRoughness":{
				"baseColorFactor":[
					0.8300310969352722,
					0.003575329203158617,
					0,
					1
				],
				"metallicFactor":0,
				"roughnessFactor":0.7112654447555542
			}
		},
		{
			"doubleSided":true,
			"name":"the_back",
			"pbrMetallicRoughness":{
				"baseColorFactor":[
					0.11069011688232422,
					0.11069011688232422,
					0.11069011688232422,
					1
				],
				"metallicFactor":0,
				"roughnessFactor":0.5
			}
		}
	],
	"meshes":[
		{
			"name":"\u5706\u73af.001",
			"primitives":[
				{
					"attributes":{
						"POSITION":0,
						"TEXCOORD_0":1,
						"NORMAL":2
					},
					"indices":3,
					"material":0
				},
				{
					"attributes":{
						"POSITION":4,
						"TEXCOORD_0":5,
						"NORMAL":6
					},
					"indices":7,
					"material":1
				},
				{
					"attributes":{
						"POSITION":8,
						"TEXCOORD_0":9,
						"NORMAL":10
					},
					"indices":11,
					"material":2
				}
			]
		}
	],
	"accessors":[
		{
			"bufferView":0,
			"componentType":5126,
			"count":240,
			"max":[
				1.110278844833374,
				0.002812465652823448,
				1.1102614402770996
			],
			"min":[
				-1.1102612018585205,
				0.002811519429087639,
				-1.110278606414795
			],
			"type":"VEC3"
		},
		{
			"bufferView":1,
			"componentType":5126,
			"count":240,
			"type":"VEC2"
		},
		{
			"bufferView":2,
			"componentType":5126,
			"count":240,
			"type":"VEC3"
		},
		{
			"bufferView":3,
			"componentType":5123,
			"count":714,
			"type":"SCALAR"
		},
		{
			"bufferView":4,
			"componentType":5126,
			"count":560,
			"max":[
				1.1271750926971436,
				0.002812465652823448,
				1.1271576881408691
			],
			"min":[
				-1.1271575689315796,
				0.0019936603493988514,
				-1.127174973487854
			],
			"type":"VEC3"
		},
		{
			"bufferView":5,
			"componentType":5126,
			"count":560,
			"type":"VEC2"
		},
		{
			"bufferView":6,
			"componentType":5126,
			"count":560,
			"type":"VEC3"
		},
		{
			"bufferView":7,
			"componentType":5123,
			"count":1440,
			"type":"SCALAR"
		},
		{
			"bufferView":8,
			"componentType":5126,
			"count":80,
			"max":[
				1.1271750926971436,
				0.0019946214742958546,
				1.1271576881408691
			],
			"min":[
				-1.1271575689315796,
				0.0019936603493988514,
				-1.127174973487854
			],
			"type":"VEC3"
		},
		{
			"bufferView":9,
			"componentType":5126,
			"count":80,
			"type":"VEC2"
		},
		{
			"bufferView":10,
			"componentType":5126,
			"count":80,
			"type":"VEC3"
		},
		{
			"bufferView":11,
			"componentType":5123,
			"count":234,
			"type":"SCALAR"
		}
	],
	"bufferViews":[
		{
			"buffer":0,
			"byteLength":2880,
			"byteOffset":0,
			"target":34962
		},
		{
			"buffer":0,
			"byteLength":1920,
			"byteOffset":2880,
			"target":34962
		},
		{
			"buffer":0,
			"byteLength":2880,
			"byteOffset":4800,
			"target":34962
		},
		{
			"buffer":0,
			"byteLength":1428,
			"byteOffset":7680,
			"target":34963
		},
		{
			"buffer":0,
			"byteLength":6720,
			"byteOffset":9108,
			"target":34962
		},
		{
			"buffer":0,
			"byteLength":4480,
			"byteOffset":15828,
			"target":34962
		},
		{
			"buffer":0,
			"byteLength":6720,
			"byteOffset":20308,
			"target":34962
		},
		{
			"buffer":0,
			"byteLength":2880,
			"byteOffset":27028,
			"target":34963
		},
		{
			"buffer":0,
			"byteLength":960,
			"byteOffset":29908,
			"target":34962
		},
		{
			"buffer":0,
			"byteLength":640,
			"byteOffset":30868,
			"target":34962
		},
		{
			"buffer":0,
			"byteLength":960,
			"byteOffset":31508,
			"target":34962
		},
		{
			"buffer":0,
			"byteLength":468,
			"byteOffset":32468,
			"target":34963
		}
	],
	"buffers":[
		{
			"byteLength":32936,
			"uri":"data:application/octet-stream;base64,"
		}
	]
}
