{
    "asset" : {
        "generator" : "Khronos glTF Blender I/O v3.2.43",
        "version" : "2.0"
    },
    "scene" : 0,
    "scenes" : [
        {
            "name" : "Scene",
            "nodes" : [
                0,
                1
            ]
        }
    ],
    "nodes" : [
        {
            "mesh" : 0,
            "name" : "\u6587\u672c",
            "rotation" : [
                0.5000000596046448,
                -0.5000000596046448,
                -0.4999999403953552,
                0.5
            ],
            "scale" : [
                1.927348017692566,
                1.776939034461975,
                3.276491641998291
            ],
            "translation" : [
                0.9950391054153442,
                -0.5310766696929932,
                0.0016581937670707703
            ]
        },
        {
            "mesh" : 1,
            "name" : "\u6587\u672c.002",
            "rotation" : [
                0.5000000596046448,
                -0.5000000596046448,
                -0.4999999403953552,
                0.5
            ],
            "scale" : [
                1.6353806257247925,
                1.776939034461975,
                2.780146837234497
            ],
            "translation" : [
                -0.8359107971191406,
                -0.006140626966953278,
                0.0016577169299125671
            ]
        }
    ],
    "materials" : [
        {
            "doubleSided" : true,
            "name" : "\u6750\u8d28.002",
            "pbrMetallicRoughness" : {
                "baseColorFactor" : [
                    0.800000011920929,
                    0.800000011920929,
                    0.800000011920929,
                    1
                ],
                "metallicFactor" : 0,
                "roughnessFactor" : 0.20479705929756165
            }
        },
        {
            "doubleSided" : true,
            "name" : "red_ring.001",
            "pbrMetallicRoughness" : {
                "baseColorFactor" : [
                    0,
                    0.005827269982546568,
                    0.2943294942378998,
                    1
                ],
                "metallicFactor" : 0,
                "roughnessFactor" : 0.7112654447555542
            }
        }
    ],
    "meshes" : [
        {
            "name" : "\u6587\u672c",
            "primitives" : [
                {
                    "attributes" : {
                        "POSITION" : 0,
                        "NORMAL" : 1,
                        "TEXCOORD_0" : 2
                    },
                    "indices" : 3,
                    "material" : 0
                }
            ]
        },
        {
            "name" : "MIN",
            "primitives" : [
                {
                    "attributes" : {
                        "POSITION" : 4,
                        "NORMAL" : 5,
                        "TEXCOORD_0" : 6
                    },
                    "indices" : 7,
                    "material" : 1
                }
            ]
        }
    ],
    "accessors" : [
        {
            "bufferView" : 0,
            "componentType" : 5126,
            "count" : 321,
            "max" : [
                0.10050003230571747,
                0,
                0.2625001072883606
            ],
            "min" : [
                -0.5790001749992371,
                0,
                -0.2625001072883606
            ],
            "type" : "VEC3"
        },
        {
            "bufferView" : 1,
            "componentType" : 5126,
            "count" : 321,
            "type" : "VEC3"
        },
        {
            "bufferView" : 2,
            "componentType" : 5126,
            "count" : 321,
            "type" : "VEC2"
        },
        {
            "bufferView" : 3,
            "componentType" : 5123,
            "count" : 723,
            "type" : "SCALAR"
        },
        {
            "bufferView" : 4,
            "componentType" : 5126,
            "count" : 34,
            "max" : [
                0.6757502555847168,
                0,
                0.2557500898838043
            ],
            "min" : [
                -0.5722501873970032,
                0,
                -0.2557500898838043
            ],
            "type" : "VEC3"
        },
        {
            "bufferView" : 5,
            "componentType" : 5126,
            "count" : 34,
            "type" : "VEC3"
        },
        {
            "bufferView" : 6,
            "componentType" : 5126,
            "count" : 34,
            "type" : "VEC2"
        },
        {
            "bufferView" : 7,
            "componentType" : 5123,
            "count" : 69,
            "type" : "SCALAR"
        }
    ],
    "bufferViews" : [
        {
            "buffer" : 0,
            "byteLength" : 3852,
            "byteOffset" : 0
        },
        {
            "buffer" : 0,
            "byteLength" : 3852,
            "byteOffset" : 3852
        },
        {
            "buffer" : 0,
            "byteLength" : 2568,
            "byteOffset" : 7704
        },
        {
            "buffer" : 0,
            "byteLength" : 1446,
            "byteOffset" : 10272
        },
        {
            "buffer" : 0,
            "byteLength" : 408,
            "byteOffset" : 11720
        },
        {
            "buffer" : 0,
            "byteLength" : 408,
            "byteOffset" : 12128
        },
        {
            "buffer" : 0,
            "byteLength" : 272,
            "byteOffset" : 12536
        },
        {
            "buffer" : 0,
            "byteLength" : 138,
            "byteOffset" : 12808
        }
    ],
    "buffers" : [
        {
            "byteLength" : 12948,
            "uri" : "data:application/octet-stream;base64,"
        }
    ]
}
