{
    "asset" : {
        "generator" : "Khronos glTF Blender I/O v3.2.43",
        "version" : "2.0"
    },
    "scene" : 0,
    "scenes" : [
        {
            "name" : "Scene",
            "nodes" : [
                0
            ]
        }
    ],
    "nodes" : [
        {
            "mesh" : 0,
            "name" : "BezierCurve.001",
            "rotation" : [
                -0.7070964574813843,
                -0.0038123626727610826,
                -0.7070965766906738,
                0.0038124690763652325
            ],
            "scale" : [
                0.5587501525878906,
                5.163651466369629,
                6.935999393463135
            ],
            "translation" : [
                0.010583752766251564,
                -0.03215044364333153,
                0.0037304162979125977
            ]
        }
    ],
    "materials" : [
        {
            "doubleSided" : true,
            "name" : "\u6750\u8d28.004",
            "pbrMetallicRoughness" : {
                "metallicFactor" : 0,
                "roughnessFactor" : 0.05797101929783821
            }
        }
    ],
    "meshes" : [
        {
            "name" : "Mesh.004",
            "primitives" : [
                {
                    "attributes" : {
                        "POSITION" : 0,
                        "NORMAL" : 1
                    },
                    "indices" : 2,
                    "material" : 0
                }
            ]
        }
    ],
    "accessors" : [
        {
            "bufferView" : 0,
            "componentType" : 5126,
            "count" : 178,
            "max" : [
                0.0036510403733700514,
                0.07600219547748566,
                0.261753112077713
            ],
            "min" : [
                -0.0036510315258055925,
                -0.158299058675766,
                -0.33907073736190796
            ],
            "type" : "VEC3"
        },
        {
            "bufferView" : 1,
            "componentType" : 5126,
            "count" : 178,
            "type" : "VEC3"
        },
        {
            "bufferView" : 2,
            "componentType" : 5123,
            "count" : 264,
            "type" : "SCALAR"
        }
    ],
    "bufferViews" : [
        {
            "buffer" : 0,
            "byteLength" : 2136,
            "byteOffset" : 0
        },
        {
            "buffer" : 0,
            "byteLength" : 2136,
            "byteOffset" : 2136
        },
        {
            "buffer" : 0,
            "byteLength" : 528,
            "byteOffset" : 4272
        }
    ],
    "buffers" : [
        {
            "byteLength" : 4800,
            "uri" : "data:application/octet-stream;base64,"
        }
    ]
}
