{
    "asset" : {
        "generator" : "Khronos glTF Blender I/O v3.2.43",
        "version" : "2.0"
    },
    "scene" : 0,
    "scenes" : [
        {
            "name" : "Scene",
            "nodes" : [
                0
            ]
        }
    ],
    "nodes" : [
        {
            "mesh" : 0,
            "name" : "BezierCurve.002",
            "rotation" : [
                -0.49729689955711365,
                -0.502688467502594,
                -0.4972970187664032,
                0.5026885271072388
            ],
            "scale" : [
                0.5587501525878906,
                6.528001308441162,
                4.364468574523926
            ],
            "translation" : [
                0.008588267490267754,
                -0.08796379715204239,
                -4.792213439941406e-05
            ]
        }
    ],
    "materials" : [
        {
            "doubleSided" : true,
            "name" : "\u6750\u8d28.011",
            "pbrMetallicRoughness" : {
                "metallicFactor" : 0,
                "roughnessFactor" : 0.05797101929783821
            }
        },
        {
            "doubleSided" : true,
            "name" : "\u6750\u8d28.013",
            "pbrMetallicRoughness" : {
                "metallicFactor" : 0,
                "roughnessFactor" : 0.05797101929783821
            }
        }
    ],
    "meshes" : [
        {
            "name" : "Mesh.003",
            "primitives" : [
                {
                    "attributes" : {
                        "POSITION" : 0,
                        "NORMAL" : 1,
                        "TEXCOORD_0" : 2
                    },
                    "indices" : 3,
                    "material" : 0
                },
                {
                    "attributes" : {
                        "POSITION" : 4,
                        "NORMAL" : 5,
                        "TEXCOORD_0" : 6
                    },
                    "indices" : 7,
                    "material" : 1
                }
            ]
        }
    ],
    "accessors" : [
        {
            "bufferView" : 0,
            "componentType" : 5126,
            "count" : 54,
            "max" : [
                0.0013384008780121803,
                0.18417656421661377,
                0.3152475357055664
            ],
            "min" : [
                -0.005963670089840889,
                -0.022390268743038177,
                -0.05022554099559784
            ],
            "type" : "VEC3"
        },
        {
            "bufferView" : 1,
            "componentType" : 5126,
            "count" : 54,
            "type" : "VEC3"
        },
        {
            "bufferView" : 2,
            "componentType" : 5126,
            "count" : 54,
            "type" : "VEC2"
        },
        {
            "bufferView" : 3,
            "componentType" : 5123,
            "count" : 96,
            "type" : "SCALAR"
        },
        {
            "bufferView" : 4,
            "componentType" : 5126,
            "count" : 318,
            "max" : [
                0.011846041306853294,
                0.11369963735342026,
                0.13175585865974426
            ],
            "min" : [
                -0.005311143584549427,
                -0.3643540143966675,
                -0.1620708853006363
            ],
            "type" : "VEC3"
        },
        {
            "bufferView" : 5,
            "componentType" : 5126,
            "count" : 318,
            "type" : "VEC3"
        },
        {
            "bufferView" : 6,
            "componentType" : 5126,
            "count" : 318,
            "type" : "VEC2"
        },
        {
            "bufferView" : 7,
            "componentType" : 5123,
            "count" : 492,
            "type" : "SCALAR"
        }
    ],
    "bufferViews" : [
        {
            "buffer" : 0,
            "byteLength" : 648,
            "byteOffset" : 0
        },
        {
            "buffer" : 0,
            "byteLength" : 648,
            "byteOffset" : 648
        },
        {
            "buffer" : 0,
            "byteLength" : 432,
            "byteOffset" : 1296
        },
        {
            "buffer" : 0,
            "byteLength" : 192,
            "byteOffset" : 1728
        },
        {
            "buffer" : 0,
            "byteLength" : 3816,
            "byteOffset" : 1920
        },
        {
            "buffer" : 0,
            "byteLength" : 3816,
            "byteOffset" : 5736
        },
        {
            "buffer" : 0,
            "byteLength" : 2544,
            "byteOffset" : 9552
        },
        {
            "buffer" : 0,
            "byteLength" : 984,
            "byteOffset" : 12096
        }
    ],
    "buffers" : [
        {
            "byteLength" : 13080,
            "uri" : "data:application/octet-stream;base64,"
        }
    ]
}
