{
    "asset" : {
        "generator" : "Khronos glTF Blender I/O v3.2.43",
        "version" : "2.0"
    },
    "scene" : 0,
    "scenes" : [
        {
            "name" : "Scene",
            "nodes" : [
                0
            ]
        }
    ],
    "nodes" : [
        {
            "mesh" : 0,
            "name" : "BezierCurve.001",
            "rotation" : [
                0.0038126695435494184,
                -0.7070965766906738,
                0.003812562907114625,
                0.7070964574813843
            ],
            "scale" : [
                0.5258824825286865,
                4.093369483947754,
                6.527998447418213
            ],
            "translation" : [
                0.00905144214630127,
                0.002050250768661499,
                0.009294405579566956
            ]
        }
    ],
    "materials" : [
        {
            "doubleSided" : true,
            "name" : "\u6750\u8d28.007",
            "pbrMetallicRoughness" : {
                "metallicFactor" : 0,
                "roughnessFactor" : 0.05797101929783821
            }
        }
    ],
    "meshes" : [
        {
            "name" : "Mesh.002",
            "primitives" : [
                {
                    "attributes" : {
                        "POSITION" : 0,
                        "NORMAL" : 1,
                        "TEXCOORD_0" : 2
                    },
                    "indices" : 3,
                    "material" : 0
                }
            ]
        }
    ],
    "accessors" : [
        {
            "bufferView" : 0,
            "componentType" : 5126,
            "count" : 318,
            "max" : [
                0.01794261671602726,
                0.1960931420326233,
                0.28630244731903076
            ],
            "min" : [
                -0.002004123292863369,
                -0.17229972779750824,
                -0.1265840083360672
            ],
            "type" : "VEC3"
        },
        {
            "bufferView" : 1,
            "componentType" : 5126,
            "count" : 318,
            "type" : "VEC3"
        },
        {
            "bufferView" : 2,
            "componentType" : 5126,
            "count" : 318,
            "type" : "VEC2"
        },
        {
            "bufferView" : 3,
            "componentType" : 5123,
            "count" : 492,
            "type" : "SCALAR"
        }
    ],
    "bufferViews" : [
        {
            "buffer" : 0,
            "byteLength" : 3816,
            "byteOffset" : 0
        },
        {
            "buffer" : 0,
            "byteLength" : 3816,
            "byteOffset" : 3816
        },
        {
            "buffer" : 0,
            "byteLength" : 2544,
            "byteOffset" : 7632
        },
        {
            "buffer" : 0,
            "byteLength" : 984,
            "byteOffset" : 10176
        }
    ],
    "buffers" : [
        {
            "byteLength" : 11160,
            "uri" : "data:application/octet-stream;base64,"
        }
    ]
}
