{
    "asset" : {
        "generator" : "Khronos glTF Blender I/O v3.2.43",
        "version" : "2.0"
    },
    "scene" : 0,
    "scenes" : [
        {
            "name" : "Scene",
            "nodes" : [
                0
            ]
        }
    ],
    "nodes" : [
        {
            "mesh" : 0,
            "name" : "BezierCurve.002",
            "rotation" : [
                -0.7070963978767395,
                -0.0038123626727610826,
                -0.7070965766906738,
                0.0038124690763652325
            ],
            "scale" : [
                0.5258824825286865,
                4.859907627105713,
                6.527998924255371
            ],
            "translation" : [
                0.010583753697574139,
                0.05786053091287613,
                0.00039458274841308594
            ]
        }
    ],
    "materials" : [
        {
            "doubleSided" : true,
            "name" : "\u6750\u8d28.009",
            "pbrMetallicRoughness" : {
                "metallicFactor" : 0,
                "roughnessFactor" : 0.05797101929783821
            }
        },
        {
            "doubleSided" : true,
            "name" : "\u6750\u8d28.007",
            "pbrMetallicRoughness" : {
                "metallicFactor" : 0,
                "roughnessFactor" : 0.05797101929783821
            }
        }
    ],
    "meshes" : [
        {
            "name" : "Mesh.004",
            "primitives" : [
                {
                    "attributes" : {
                        "POSITION" : 0,
                        "NORMAL" : 1,
                        "TEXCOORD_0" : 2
                    },
                    "indices" : 3,
                    "material" : 0
                },
                {
                    "attributes" : {
                        "POSITION" : 4,
                        "NORMAL" : 5,
                        "TEXCOORD_0" : 6
                    },
                    "indices" : 7,
                    "material" : 1
                }
            ]
        }
    ],
    "accessors" : [
        {
            "bufferView" : 0,
            "componentType" : 5126,
            "count" : 54,
            "max" : [
                0.011538337916135788,
                0.18460425734519958,
                0.32525572180747986
            ],
            "min" : [
                0.004236266016960144,
                -0.022731490433216095,
                -0.07992726564407349
            ],
            "type" : "VEC3"
        },
        {
            "bufferView" : 1,
            "componentType" : 5126,
            "count" : 54,
            "type" : "VEC3"
        },
        {
            "bufferView" : 2,
            "componentType" : 5126,
            "count" : 54,
            "type" : "VEC2"
        },
        {
            "bufferView" : 3,
            "componentType" : 5123,
            "count" : 96,
            "type" : "SCALAR"
        },
        {
            "bufferView" : 4,
            "componentType" : 5126,
            "count" : 73,
            "max" : [
                0.004269278142601252,
                0.11098770797252655,
                0.06672647595405579
            ],
            "min" : [
                -0.005305783823132515,
                -0.1992831528186798,
                -0.3364725708961487
            ],
            "type" : "VEC3"
        },
        {
            "bufferView" : 5,
            "componentType" : 5126,
            "count" : 73,
            "type" : "VEC3"
        },
        {
            "bufferView" : 6,
            "componentType" : 5126,
            "count" : 73,
            "type" : "VEC2"
        },
        {
            "bufferView" : 7,
            "componentType" : 5123,
            "count" : 117,
            "type" : "SCALAR"
        }
    ],
    "bufferViews" : [
        {
            "buffer" : 0,
            "byteLength" : 648,
            "byteOffset" : 0
        },
        {
            "buffer" : 0,
            "byteLength" : 648,
            "byteOffset" : 648
        },
        {
            "buffer" : 0,
            "byteLength" : 432,
            "byteOffset" : 1296
        },
        {
            "buffer" : 0,
            "byteLength" : 192,
            "byteOffset" : 1728
        },
        {
            "buffer" : 0,
            "byteLength" : 876,
            "byteOffset" : 1920
        },
        {
            "buffer" : 0,
            "byteLength" : 876,
            "byteOffset" : 2796
        },
        {
            "buffer" : 0,
            "byteLength" : 584,
            "byteOffset" : 3672
        },
        {
            "buffer" : 0,
            "byteLength" : 234,
            "byteOffset" : 4256
        }
    ],
    "buffers" : [
        {
            "byteLength" : 4492,
            "uri" : "data:application/octet-stream;base64,"
        }
    ]
}
