{
    "asset" : {
        "generator" : "Khronos glTF Blender I/O v3.2.43",
        "version" : "2.0"
    },
    "scene" : 0,
    "scenes" : [
        {
            "name" : "Scene",
            "nodes" : [
                0
            ]
        }
    ],
    "nodes" : [
        {
            "mesh" : 0,
            "name" : "BezierCurve.002",
            "rotation" : [
                -0.707096517086029,
                -0.00381236313842237,
                -0.707096517086029,
                0.0038124695420265198
            ],
            "scale" : [
                0.5207142233848572,
                4.812536716461182,
                6.935999393463135
            ],
            "translation" : [
                0.00968713779002428,
                0.007617113180458546,
                -0.0018830299377441406
            ]
        }
    ],
    "materials" : [
        {
            "doubleSided" : true,
            "name" : "\u6750\u8d28.001",
            "pbrMetallicRoughness" : {
                "metallicFactor" : 0,
                "roughnessFactor" : 0.05797101929783821
            }
        },
        {
            "doubleSided" : true,
            "name" : "\u6750\u8d28.004",
            "pbrMetallicRoughness" : {
                "metallicFactor" : 0,
                "roughnessFactor" : 0.05797101929783821
            }
        }
    ],
    "meshes" : [
        {
            "name" : "Mesh.004",
            "primitives" : [
                {
                    "attributes" : {
                        "POSITION" : 0,
                        "NORMAL" : 1
                    },
                    "indices" : 2,
                    "material" : 0
                },
                {
                    "attributes" : {
                        "POSITION" : 3,
                        "NORMAL" : 4
                    },
                    "indices" : 5,
                    "material" : 1
                }
            ]
        }
    ],
    "accessors" : [
        {
            "bufferView" : 0,
            "componentType" : 5126,
            "count" : 54,
            "max" : [
                0.0043374523520469666,
                0.10503363609313965,
                0.3024371564388275
            ],
            "min" : [
                -0.0029646195471286774,
                -0.10230211168527603,
                -0.01452309638261795
            ],
            "type" : "VEC3"
        },
        {
            "bufferView" : 1,
            "componentType" : 5126,
            "count" : 54,
            "type" : "VEC3"
        },
        {
            "bufferView" : 2,
            "componentType" : 5123,
            "count" : 96,
            "type" : "SCALAR"
        },
        {
            "bufferView" : 3,
            "componentType" : 5126,
            "count" : 420,
            "max" : [
                0.003829484572634101,
                0.25470438599586487,
                0.08649145066738129
            ],
            "min" : [
                -0.004006045870482922,
                -0.25268688797950745,
                -0.32783403992652893
            ],
            "type" : "VEC3"
        },
        {
            "bufferView" : 4,
            "componentType" : 5126,
            "count" : 420,
            "type" : "VEC3"
        },
        {
            "bufferView" : 5,
            "componentType" : 5123,
            "count" : 792,
            "type" : "SCALAR"
        }
    ],
    "bufferViews" : [
        {
            "buffer" : 0,
            "byteLength" : 648,
            "byteOffset" : 0
        },
        {
            "buffer" : 0,
            "byteLength" : 648,
            "byteOffset" : 648
        },
        {
            "buffer" : 0,
            "byteLength" : 192,
            "byteOffset" : 1296
        },
        {
            "buffer" : 0,
            "byteLength" : 5040,
            "byteOffset" : 1488
        },
        {
            "buffer" : 0,
            "byteLength" : 5040,
            "byteOffset" : 6528
        },
        {
            "buffer" : 0,
            "byteLength" : 1584,
            "byteOffset" : 11568
        }
    ],
    "buffers" : [
        {
            "byteLength" : 13152,
            "uri" : "data:application/octet-stream;base64,"
        }
    ]
}
