{
    "asset" : {
        "generator" : "Khronos glTF Blender I/O v3.2.43",
        "version" : "2.0"
    },
    "scene" : 0,
    "scenes" : [
        {
            "name" : "Scene",
            "nodes" : [
                0
            ]
        }
    ],
    "nodes" : [
        {
            "mesh" : 0,
            "name" : "BezierCurve.002",
            "rotation" : [
                -0.49729689955711365,
                -0.502688467502594,
                -0.4972970485687256,
                0.5026885271072388
            ],
            "scale" : [
                0.447000116109848,
                5.2224016189575195,
                3.491697311401367
            ],
            "translation" : [
                0.008588267490267754,
                0.12296704947948456,
                0.013193011283874512
            ]
        }
    ],
    "materials" : [
        {
            "doubleSided" : true,
            "name" : "\u6750\u8d28.011",
            "pbrMetallicRoughness" : {
                "metallicFactor" : 0,
                "roughnessFactor" : 0.05797101929783821
            }
        },
        {
            "doubleSided" : true,
            "name" : "\u6750\u8d28.013",
            "pbrMetallicRoughness" : {
                "metallicFactor" : 0,
                "roughnessFactor" : 0.05797101929783821
            }
        },
        {
            "doubleSided" : true,
            "name" : "\u6750\u8d28.004",
            "pbrMetallicRoughness" : {
                "metallicFactor" : 0,
                "roughnessFactor" : 0.05797101929783821
            }
        }
    ],
    "meshes" : [
        {
            "name" : "Mesh.003",
            "primitives" : [
                {
                    "attributes" : {
                        "POSITION" : 0,
                        "NORMAL" : 1,
                        "TEXCOORD_0" : 2
                    },
                    "indices" : 3,
                    "material" : 0
                },
                {
                    "attributes" : {
                        "POSITION" : 4,
                        "NORMAL" : 5,
                        "TEXCOORD_0" : 6
                    },
                    "indices" : 7,
                    "material" : 1
                },
                {
                    "attributes" : {
                        "POSITION" : 8,
                        "NORMAL" : 9,
                        "TEXCOORD_0" : 10
                    },
                    "indices" : 11,
                    "material" : 2
                }
            ]
        }
    ],
    "accessors" : [
        {
            "bufferView" : 0,
            "componentType" : 5126,
            "count" : 54,
            "max" : [
                0.004128413740545511,
                0.1179620772600174,
                0.3283894658088684
            ],
            "min" : [
                -0.003173657227307558,
                -0.08860476315021515,
                -0.03708362579345703
            ],
            "type" : "VEC3"
        },
        {
            "bufferView" : 1,
            "componentType" : 5126,
            "count" : 54,
            "type" : "VEC3"
        },
        {
            "bufferView" : 2,
            "componentType" : 5126,
            "count" : 54,
            "type" : "VEC2"
        },
        {
            "bufferView" : 3,
            "componentType" : 5123,
            "count" : 96,
            "type" : "SCALAR"
        },
        {
            "bufferView" : 4,
            "componentType" : 5126,
            "count" : 73,
            "max" : [
                0.004128413740545511,
                0.047485146671533585,
                0.14489777386188507
            ],
            "min" : [
                -0.005446648690849543,
                -0.43056851625442505,
                -0.14892897009849548
            ],
            "type" : "VEC3"
        },
        {
            "bufferView" : 5,
            "componentType" : 5126,
            "count" : 73,
            "type" : "VEC3"
        },
        {
            "bufferView" : 6,
            "componentType" : 5126,
            "count" : 73,
            "type" : "VEC2"
        },
        {
            "bufferView" : 7,
            "componentType" : 5123,
            "count" : 117,
            "type" : "SCALAR"
        },
        {
            "bufferView" : 8,
            "componentType" : 5126,
            "count" : 54,
            "max" : [
                0.01073979027569294,
                0.3668355941772461,
                -0.01750999689102173
            ],
            "min" : [
                0.00475308345630765,
                -0.06753987073898315,
                -0.2186313271522522
            ],
            "type" : "VEC3"
        },
        {
            "bufferView" : 9,
            "componentType" : 5126,
            "count" : 54,
            "type" : "VEC3"
        },
        {
            "bufferView" : 10,
            "componentType" : 5126,
            "count" : 54,
            "type" : "VEC2"
        },
        {
            "bufferView" : 11,
            "componentType" : 5123,
            "count" : 96,
            "type" : "SCALAR"
        }
    ],
    "bufferViews" : [
        {
            "buffer" : 0,
            "byteLength" : 648,
            "byteOffset" : 0
        },
        {
            "buffer" : 0,
            "byteLength" : 648,
            "byteOffset" : 648
        },
        {
            "buffer" : 0,
            "byteLength" : 432,
            "byteOffset" : 1296
        },
        {
            "buffer" : 0,
            "byteLength" : 192,
            "byteOffset" : 1728
        },
        {
            "buffer" : 0,
            "byteLength" : 876,
            "byteOffset" : 1920
        },
        {
            "buffer" : 0,
            "byteLength" : 876,
            "byteOffset" : 2796
        },
        {
            "buffer" : 0,
            "byteLength" : 584,
            "byteOffset" : 3672
        },
        {
            "buffer" : 0,
            "byteLength" : 234,
            "byteOffset" : 4256
        },
        {
            "buffer" : 0,
            "byteLength" : 648,
            "byteOffset" : 4492
        },
        {
            "buffer" : 0,
            "byteLength" : 648,
            "byteOffset" : 5140
        },
        {
            "buffer" : 0,
            "byteLength" : 432,
            "byteOffset" : 5788
        },
        {
            "buffer" : 0,
            "byteLength" : 192,
            "byteOffset" : 6220
        }
    ],
    "buffers" : [
        {
            "byteLength" : 6412,
            "uri" : "data:application/octet-stream;base64,"
        }
    ]
}
