{
    "asset" : {
        "generator" : "Khronos glTF Blender I/O v3.2.43",
        "version" : "2.0"
    },
    "scene" : 0,
    "scenes" : [
        {
            "name" : "Scene",
            "nodes" : [
                0
            ]
        }
    ],
    "nodes" : [
        {
            "mesh" : 0,
            "name" : "BezierCurve.002",
            "rotation" : [
                -0.502688467502594,
                0.4972969591617584,
                0.5026885271072388,
                0.4972970485687256
            ],
            "scale" : [
                -0.4438098669052124,
                -6.935999393463135,
                -4.101894855499268
            ],
            "translation" : [
                0.009634112007915974,
                0.018699388951063156,
                -0.00446319580078125
            ]
        }
    ],
    "materials" : [
        {
            "doubleSided" : true,
            "name" : "\u6750\u8d28.009",
            "pbrMetallicRoughness" : {
                "metallicFactor" : 0,
                "roughnessFactor" : 0.05797101929783821
            }
        },
        {
            "doubleSided" : true,
            "name" : "\u6750\u8d28.010",
            "pbrMetallicRoughness" : {
                "metallicFactor" : 0,
                "roughnessFactor" : 0.05797101929783821
            }
        }
    ],
    "meshes" : [
        {
            "name" : "Mesh.012",
            "primitives" : [
                {
                    "attributes" : {
                        "POSITION" : 0,
                        "NORMAL" : 1
                    },
                    "indices" : 2,
                    "material" : 0
                },
                {
                    "attributes" : {
                        "POSITION" : 3,
                        "NORMAL" : 4
                    },
                    "indices" : 5,
                    "material" : 1
                }
            ]
        }
    ],
    "accessors" : [
        {
            "bufferView" : 0,
            "componentType" : 5126,
            "count" : 108,
            "max" : [
                0.0013384608319029212,
                0.06290571391582489,
                0.2650247812271118
            ],
            "min" : [
                -0.005963610019534826,
                -0.1444300413131714,
                -0.040350817143917084
            ],
            "type" : "VEC3"
        },
        {
            "bufferView" : 1,
            "componentType" : 5126,
            "count" : 108,
            "type" : "VEC3"
        },
        {
            "bufferView" : 2,
            "componentType" : 5123,
            "count" : 204,
            "type" : "SCALAR"
        },
        {
            "bufferView" : 3,
            "componentType" : 5126,
            "count" : 54,
            "max" : [
                0.008607511408627033,
                0.3150666654109955,
                0.027686968445777893
            ],
            "min" : [
                0.0013054407900199294,
                -0.2848380208015442,
                -0.17964878678321838
            ],
            "type" : "VEC3"
        },
        {
            "bufferView" : 4,
            "componentType" : 5126,
            "count" : 54,
            "type" : "VEC3"
        },
        {
            "bufferView" : 5,
            "componentType" : 5123,
            "count" : 96,
            "type" : "SCALAR"
        }
    ],
    "bufferViews" : [
        {
            "buffer" : 0,
            "byteLength" : 1296,
            "byteOffset" : 0
        },
        {
            "buffer" : 0,
            "byteLength" : 1296,
            "byteOffset" : 1296
        },
        {
            "buffer" : 0,
            "byteLength" : 408,
            "byteOffset" : 2592
        },
        {
            "buffer" : 0,
            "byteLength" : 648,
            "byteOffset" : 3000
        },
        {
            "buffer" : 0,
            "byteLength" : 648,
            "byteOffset" : 3648
        },
        {
            "buffer" : 0,
            "byteLength" : 192,
            "byteOffset" : 4296
        }
    ],
    "buffers" : [
        {
            "byteLength" : 4488,
            "uri" : "data:application/octet-stream;base64,"
        }
    ]
}
